/* XPM */
static char *_1679389454[] = {
/* columns rows colors chars-per-pixel */
"64 64 241 2 ",
"   c #1F1E00",
".  c #2C1E0C",
"X  c #261905",
"o  c #341D02",
"O  c #291E11",
"+  c #2B2603",
"@  c #34230D",
"#  c #3C250C",
"$  c #382908",
"%  c #2C3502",
"&  c #3A3402",
"*  c #353606",
"=  c #2D2314",
"-  c #2F2519",
";  c #2F2815",
":  c #342513",
">  c #3C2B14",
",  c #33271B",
"<  c #342B1C",
"1  c #3B2D1D",
"2  c #382914",
"3  c #3C301E",
"4  c #393716",
"5  c #372D21",
"6  c #392E22",
"7  c #3C3225",
"8  c #3E352A",
"9  c #3F382A",
"0  c #3A3322",
"q  c #411F04",
"w  c #442709",
"e  c #552F0C",
"r  c #422C13",
"t  c #422D1A",
"y  c #4B2D14",
"u  c #4D3215",
"i  c #43331C",
"p  c #4B341C",
"a  c #473918",
"s  c #55391D",
"d  c #583718",
"f  c #4C360D",
"g  c #633D19",
"h  c #423424",
"j  c #493724",
"k  c #453B24",
"l  c #4C3C24",
"z  c #41362B",
"x  c #44392C",
"c  c #4A3D2C",
"v  c #543C23",
"b  c #5A3D22",
"n  c #583F29",
"m  c #463C31",
"M  c #4A3E32",
"N  c #623D20",
"B  c #3B4808",
"V  c #3A5105",
"C  c #3C4415",
"Z  c #46480B",
"A  c #494519",
"S  c #5A461B",
"D  c #4C5517",
"F  c #654F1E",
"G  c #60531F",
"H  c #4D6419",
"J  c #53611B",
"K  c #517515",
"L  c #4C6E0D",
"P  c #60641A",
"I  c #4D432D",
"U  c #48442B",
"Y  c #544225",
"T  c #5B4225",
"R  c #53422C",
"E  c #5B442B",
"W  c #564B29",
"Q  c #575728",
"!  c #4D4232",
"~  c #4C453F",
"^  c #534534",
"/  c #5B4B33",
"(  c #564A3C",
")  c #5B4D3B",
"_  c #554735",
"`  c #5D513C",
"'  c #5B5436",
"]  c #634324",
"[  c #6C4523",
"{  c #6B4926",
"}  c #64452A",
"|  c #654A2C",
" . c #6B4A2C",
".. c #69472A",
"X. c #724E2C",
"o. c #724826",
"O. c #69592C",
"+. c #75552E",
"@. c #6D4D32",
"#. c #634A31",
"$. c #665236",
"%. c #6D5234",
"&. c #62533C",
"*. c #6B543B",
"=. c #6B5B3C",
"-. c #735335",
";. c #7C5735",
":. c #73563C",
">. c #73593D",
",. c #7C5B3C",
"<. c #7A5B34",
"1. c #704E32",
"2. c #5A6A28",
"3. c #67672A",
"4. c #6A6937",
"5. c #766535",
"6. c #727339",
"7. c #5A4F42",
"8. c #5D5243",
"9. c #5E5448",
"0. c #635543",
"q. c #6A5B43",
"w. c #6A5B47",
"e. c #745C41",
"r. c #7C5D41",
"t. c #705E48",
"y. c #7D6346",
"u. c #74634B",
"i. c #7B654B",
"p. c #7B6B4E",
"a. c #746842",
"s. c #7B7749",
"d. c #7D6B53",
"f. c #776854",
"g. c #747150",
"h. c #726C60",
"j. c #8E5A2E",
"k. c #8B562E",
"l. c #8E5B33",
"z. c #8D5E3A",
"x. c #845B37",
"c. c #925E35",
"v. c #925E39",
"b. c #85623D",
"n. c #8C613C",
"m. c #8C663B",
"M. c #946136",
"N. c #986436",
"B. c #95623A",
"V. c #9A653B",
"C. c #9D693D",
"Z. c #94693E",
"A. c #A16C3E",
"S. c #A0673A",
"D. c #845D40",
"F. c #846244",
"G. c #8B6543",
"H. c #82644A",
"J. c #8B6A4C",
"K. c #8B6945",
"L. c #926543",
"P. c #946A44",
"I. c #9D6B42",
"U. c #946C4B",
"Y. c #9B6E4A",
"T. c #9B6641",
"R. c #96704D",
"E. c #9D714B",
"W. c #967648",
"Q. c #836C51",
"!. c #8A6C51",
"~. c #8A765C",
"^. c #887458",
"/. c #9B7453",
"(. c #9E7954",
"). c #967554",
"_. c #8B774D",
"`. c #A36E43",
"'. c #A66F44",
"]. c #A57145",
"[. c #A97346",
"{. c #A5734A",
"}. c #AA754A",
"|. c #AD794D",
" X c #A3784E",
".X c #B17B4E",
"XX c #B0754B",
"oX c #A37551",
"OX c #A47A53",
"+X c #AD7A52",
"@X c #A97A57",
"#X c #B17C52",
"$X c #887764",
"%X c #957C63",
"&X c #A77E60",
"*X c #558017",
"=X c #70902E",
"-X c #758749",
";X c #80AF36",
":X c #858848",
">X c #8B8555",
",X c #988B5B",
"<X c #909656",
"1X c #AC8058",
"2X c #B58054",
"3X c #B58258",
"4X c #8E8369",
"5X c #98886B",
"6X c #9C8A72",
"7X c #998974",
"8X c #988E6D",
"9X c #A49E6B",
"0X c #A38D74",
"qX c #A59579",
"wX c #A08D6D",
"eX c #9FA064",
"rX c #AAA37F",
"tX c #BCBE7B",
"yX c #B6AE7D",
"uX c #94B059",
"iX c #A5D45A",
"pX c #B7DC70",
"aX c #C3C67F",
"sX c #9F9993",
"dX c #998F83",
"fX c #A89882",
"gX c #B19C83",
"hX c #ABA088",
"jX c #B4A38B",
"kX c #B4A884",
"lX c #BEAD94",
"zX c #B2B981",
"xX c #BDB9AE",
"cX c #C1AD95",
"vX c #C7B69C",
"bX c #C1B88A",
"nX c #CABBA3",
"mX c #D3C5A6",
"MX c #E6FFAB",
"NX c #C7E38E",
"BX c #E3DED9",
/* pixels */
"`.B.].I.|.|.N.[.XXA.N.M.B.M.V.M.C.N.C.B.].].`.|.[.].`.].{.l.].C.A.].].Z.V. X].B.A.A..XA.A.XX[.N.V.M.|.}.[.|.c.}.2X|.M.{.|.|.XX|.",
"'.V.M.C.].c.XX].[.|.N.|.2X].C.I.].|.1X`.].].{.}.].}.].`.I.M.Y.].].C.M.|.I.M.M.].A.2X2X2X.X[.[.[.I.C.[.[.}.|.M.C.B.N.M.{.}.#X|.C.",
"|.{.+X].c.].}.[.}.[.C.[.+X{.I.+X|.|.#X].M.B.C.`.{.}.].I.V.I.T.v.Z.].I.|.+X|.M.OX}.2X2X[.XX[.[. XA.j.C.}.|.V.I.].[.].].M.N.c.N.|.",
"].|.'.].V.}.[.].|.M.C.].{.I.B.].].C.V.[.1X|.`.`.M.l.Z.M.{.@XOX[ X.;.P.W.{.n.o.b. X1X|.].[.}.C.M.m. XE.M.I.C.|.}.].[.|.c.[.`.].[.",
"{.{.I.c.c.c.I.I.M.}.{.'.].|.c.I.`.].|.[.+X+XT.].V.].}.I.E.m.G.] w  .b.{ K.R.w d +.(.{.].M.M.].{.g F (.Y.n.Z.|.].`.'.|.M.`.|.}.}.",
"C.V.`.}.[.].B.B.].}.'.'.}.|.M.].].}.].[.|.}.+XZ.|.].}.1XE.o.N ..F.O.| ^.| ,.!.-.,.X.m.I.P.n.M.Y.+.S +.e U.M.].}.[.'.#X`.M.`.].].",
"{.].#X`.#X#X|.c.C.}.{.'.|.{.c.+X+X`.|.+X|.}.V.].|.}.@X1XE.P.] @.-.-.y.] y.] @.} %.] U.E. XE.].W.;.O.<.$ T P.M.I.#X#X+XI.].].V.{.",
"V.B.M.|.3X|.|.|.V.}.|.}.|..Xc.c.B.V.c.B.C.c.+X{.I.}.x.P.m././.} 5.%.:.y.E u.b %Xs p.] (.K.e d m.W.F ,X5.} -./.z.M.V.M.M.V.C.l.+X",
"].].].l.V.`.T.V.V.M.{.|.|.C.`.#XN.XX}.`.V.j.@X#XoXoXP.F ;.] ).F.p p.:.y.# p.@ j @ l + T F.w 5.5.F S S ,Xa.| { P.B.C.V.{.[.}.v.XX",
"}.{.}.|.{.c.'.`.].l.].V.M.I.'.M.v.}.'.`.A.[.V.v.g +.U.J.#.,.] J.E l v p 7X0.j X = / $.rX5XA & :X>XO.% A a # u U.G.B.`.'.'.'.{.V.",
"|.[.}.+XI.`.`.{.].M.C.M.{.'.'.{.C.#X|.'.[.|..X+Xk.d | y.>.i c i 0.qX7X/ d.c 1 0 = $ A >X9XQ <X:X3.>X3.a.qXlXjXo P.T.'.'.[.A.'.`.",
"`.}.].].c.I.}.`.`.I.V.`.`.}.}.[.c.C.'.{.|.'.`./.R.#.$.> i qXfXu.9.$X` 1 h z z 4 U + X * 3.Z :X9X+ Z Z eXbXmXnX} N G.{.'.].].[.].",
"C.A.].C.v.XX'.I.'.v.'.'.'.{.`.'.[.M.I.I.P.z.y e.*.n / 6X> fXfX) 8 7 8 7 z z 9 9 C C * * :X-X4.& f & J aXzXkXvXnX*.d L.Y.`.`.|.#X",
"].A.A.c.l.'.{.'.'.l.'.`.{.'.'.+X].].I.E./...v 2 > jXnXjXt.6 7 z 8 8 z 8 8 8 3 U + B 2.C Z 3.A s.,X<XP :XtXW 6.hXmXqXb n.`.}.].C.",
"].c.V.|.}.c.`.'.`.c.}.`.'.[.+X+X|.I.z.J.H.r 8X8X2 ' w.( M z 8 8 m z z 9 z 9 9 U % =X=XK H % & f f & G 3.pXD -X6.>XhX^./.n.M.V.[.",
"c.|.|..X[.`.c.v.v.k.c.c.M.].V.v.M.Y. .-.i 2 jXjXR h 0 z z 9 8 8 8 z z z 9 x k W 2.pXiX;XK J f 5X_.A yX& -X-X-XzXQ p.0X .F.I.|.XX",
"N.[.[.|.].].V.C.|.[.|.'.c.c.|.|.@XG.H.&Xz z jX_ 0 k 9 7 8 8 9 9 9 z z z 9 x 0 ' =XMXpXiX*XV f W.6.O.8X/ 4X* 4 g.hX$Xu.u.E K.+X'.",
"`.S.[.}.C.N.M.M.V.{.#X`.M.|.{.OXR.%.gX0X, n $X6 9 9 0 k x 8 7 8 8 z z 8 0 U h ' 4.NXiX=XK V 5.(.5.bX8X$.4XU i W ~.vXf.k fXd oX+X",
"'.I.M.B.N.`.`.{.T.c.c.c.#X@XF.| 0XmXvXyXl w.) $X< 0 g.I ; 5 5 5 8 z m z k ! 5 U B uX=XL H % K.(.5.5.yXQ =.i a p.; =.5X^.gXu E.`.",
"{.V.l.I.].`.A.}.`.`.B.L.@XF.H.i rXqXwXwXQ.p t 8.= 3 k 4 k 7 z 7 7 z z 9 9 ! h I B V V D C $ ;.(.W.F G yXa.+ W j u.p.*.r v o U.{.",
"].j.`.].].[.|.[.].].n.,.:.5XlX/ a.4XQ.i.>.S w T , j z 7 , 5 5 z z z z 8 z ! z ' Q D % 8.d.R p K.{.W.<.S 9X4.* f.> E %X# ^.o @XI.",
"M.A.].[.XX[.].}.I.}.W.s $XmXvX6Xp E u u %. .J.).e.6 z z 8 8 z z z z 8 m z ^ h ` + C + < 0.$X/ u (.B.P.+.S 9X=.a u.*.] y.| ] Z.C.",
"M.`.`.{.'.}.[.|.oX).:.u.d.vX~.$.y X.F.OX/.{.Y.L.} 1 6 8 8 z 8 9 8 m 8 8 z _ k _ h R 9 0 1 h f.Q.-.<.I.Z.m.T qX' E p @X@Xo.Y.I.].",
"'.`.{.T.v.n.E.W.-.:.cXjXn *.s ] G.x.B.T.V.c.Y.R.0.6 5 5 5 8 8 9 8 8 8 8 z M z h , 7.8.7.x 6 2 ^ ~.s K.E.Y.r.S 6X#.u  Xc.T.Y.C.`.",
"C.I.oXe @.:.*.Q.5Xt.nX~.b X.b. X{.I.T.{.c.}.U.} h 8 7 5 - 5 7 9 8 m 8 8 z m M 6 5 7.9.9.8.! 5 , ) d.} J.R.b W Y #.F.z.`.l.V.C.`.",
"'.`.OXz.d e.*.cX$X# H.d G.Y.{.'.{.`.j.l.`.oX,.# x m 8 5 X - 5 7 8 8 z 8 z z M z _ f.dX( 9.8.M 5 z 8.f.n e.p d.~.r F.V.C.C.M.c.Y.",
"}.].+XE.Y.z.-. .....G.L.Y.|.`.`.[.[.M.M.`./.#.n 5 z m z < < 8 8 8 8 8 5 z z z z 7 0 z 8.8.8.^ 5 < h ^ i.n f.k cXs @X{.`.Z.C.c.M.",
"l.c.c.B.c.c.D.G.Y.Y.l.V.`.[.[.].'.I.B.OXU.} #.) = 6 z z 3 < 7 7 8 , - 8 8 z z z c h 3 h 0 h 1 1 1 < ^ @ @ v %XgXu E.I.].].l.M.}.",
"V.C.|.}.I.{.'.{.V.V.B.c.[.}.].T.I.I.l.z.*.6XR h ) k 1 5 7 7 7 5 5 O , z , z z 8 M I ` > 0.0.0.0.t.h @ &.q.jXhX>.d m.T.`.M.].|.|.",
"}.V.|.}.M.I.`.`.`.c.c.|.].V.T.M.v.l.oXR.E vX$X1 $X( O 5 7 7 x x z h 5 5 z z 8 z x ! 3 &.R _ / ^ 0.h 1 &.1 a s # R.{.n.c.I.}.A.[.",
"].j.V.T.c.V.`.I.c.'.+X|.#X+X{.}.'.v.oXG.o t.fX: 0 , , 5 8 7 0 7 z M M 6 5 6 6 8 z z ^ 1 ( i i f.7X/ $XX k > ;.R.1X|.}.n.}.].[.[.",
"M.|.+X|.|.c.V.v.#X}.'.|.|.].].].oXL.,.b n , M , = O < 8 8 8 8 5 6 z m z 6 6 6 5 6 7 z ^ 0 ^ 0.( . 1 U : &.%XJ.P.M.N.M.B.].[.[.|.",
"c.`.[..X|.|.M.[.'.}.{.}.+X{.`.Y.U. .s j i = 1 z , , - 5 6 7 8 8 z 6 8 6 z z z z 7 6 6 z M t c 1 h ) lXj n ~.J.@XV.V.|.|.C.N.A.M.",
"+X`.M.N.C.M.N. X'.[.#XXX3X|.|.{.-.e.r 6 c = 5 5 5 5 5 5 5 5 7 7 8 6 5 5 6 z z z m m M x z M = . f.j jXu.> 0XN E.M.].}.|.}.N.V.|.",
"}.#X].N.A.|.A.M.{.`.v.M.`.T.M.B.N n i w.< 0 z 7 6 6 8 7 5 5 5 7 5 6 6 6 5 6 6 6 6 h h z z M h = f.d.lXR @ gXe G.Y.|.[.A.|.V.].|.",
"].].M.A.}.|.|.N.c.`.+X{.v.`.C. X{ *.> M c i 5 7 m M m 8 8 5 7 7 6 6 8 5 5 6 6 h h m m m z c x h 7XqXw.+ , 0X} G.|.].[.}.}.V.C.#X",
"}.M.Y..X[.].}.M.`.|.#X#Xc.M.[.E.;.>.&.z c u.j , 6 5 7 h 7 8 z z m M z 8 z m m z z 6 7 z M z x h = - , ( 1 $X-.G.|.[.[.[.}.A.c.N.",
"l.V.#X{. X}.}.M.'.|.#X|.N.{..X+XR.| *.f.$X. i @ , 5 8 8 7 6 7 6 6 6 6 7 z 5 5 6 6 6 7 M h 6 x z - 7.8.8.3 Q.} P.C.}.[.[.}.N.C.}.",
"M.A.[.|.[.|.}.N.A.N.V.V.N.{.{..X#XF.p > j R *.i M h 8 8 8 sXsX7.8 8 8 6 6 5 6 5 5 7 m h 6 6 z z < 9.9.` 3 d.u z.z.M.'.`.M.N.|.`.",
"B.].[.].[.}.C.N.A.|.[.}.c.`.{.{.T.z.K.@.*.$.y r.Q.1 8 9 xXBXBXsX5 6 6 6 6 5 6 5 7 m h 6 6 6 z z 5 7.9.8.3 ~.] OX@XI.c.|.v.{.|.[.",
"c.l.A.|.{.V.M.#X'.[.`.|.V.c.v.v.V.+XOXX.H.,.d ).!.t 6 6 h.5 6 , 5 5 6 6 5 5 6 z m 7 5 6 7 5 z z 5 7.0.8.1 ~.R. XI.`.V.l.c.{.XX`.",
"{.{.v.B.c.N.XX{.[.`.[.}.I.c.{.{.{.|.}. Xb.+.P./.F.#.t , 5 O 6 6 5 5 6 5 6 8 z m 8 5 5 6 8 5 m z 5 0.9.M 3 d.(.{.|.#X#X'.v.C.[.[.",
"'.+Xv.V.c.}.+X{.].[.[.|.T.B.'.'.{.|.[.}.@X{.+X{.L.H./ c - 5 5 5 7 5 5 8 m z 7 6 5 5 7.8 7 5 M 7 z 0.0.t R w P.I.#X#XXX|.].M.}.}.",
"{.|.|.V.l.`.|.`.`.A.].#XV.V.|.|.{.[.XX.X|.@X{.z./.b 2 , 5 5 5 5 5 z m z 8 7 5 7 8 M , 8 5 6 m 5 M 8.7.i ~.O.z.V.|.3X.X.X@XI.M.|.",
"#X#X#X{.v.C.|.|.}.]..X|.c.B.#X#X'.|.XX{.].M.M.(.H.> 1 5 5 7 8 z z z h 5 6 h 8 8 7 7 8 8 5 6 m 5 _ 0.c E ,.(.oXV.c.V.I.`.V.B.V.B.",
"2X.X|.#X'.c.{.|.|.[.|.3Xc.c.c.c.v.c.c.B.`.n.@XOX*.t 6 h k ! z z 6 h 6 h 7 z z 8 8 8 8 5 5 8 m , 8.8.t $X,.oX{.'.[.`.V.l.].`.'.v.",
"{.#X#X`.v.c.T.+X+X.X2X}.B.}.|.B.{.XX'.c.I.k.oXL.t c M z 8 5 6 6 h z 7.6 z z z z 8 8 8 5 5 8 6 5 9.! j y.{.}.}.}.|.XXT.l.T.'.}.T.",
"v.M.v.V.'.I.v.v.B.C.C.M.c.].{.v.}.[.`.{.{.Z.V.E.G.n t h z 9 8 z z M ( h z z z z 8 8 5 5 7 8 5 M 8.1 i.,. X|.}.}.[.|.B.`.{.`.`.[.",
"+XV.V.'.`.|.k.T.{.c.c.S.].C.c.B.|.].A.A.].|.C.M.P.@XF.t j z z z z z z z z 8 8 8 8 5 5 6 z h 5 0.0 j :.E.`.[.[.}.'.}.c.`.].].`.`.",
"`.v.I.{.`.C.v.T.I.M.[.[.].].V.C.XX[.A.[.}.[.|.C.C.m.E.).n j z z z h h j M O 8 6 5 7 6 6 x , M M > ^.,.I.`.`.'.}.`.`.l.C.}.{.`.[.",
"L.`.}.'.'.].v.c.c.`.[.A.A.I.].I.2XXXA.].].}..X}..X{.z.L.G.1.y j t n H.%X) 6 t 5 5 6 5 x 6 j 8.i j #.OX`.C.C.C.A.A.'.c.{.'.'.S.`.",
"l.`.'.'.'.`.'.c.].[.`.].}.].].c.A.].[.[.[.].[.C.[.|.M.M.Y.oXP.K.N D.oX!.o 1 6 6 6 5 h j j _ _ 2 E K.@X}.[.C.C.C.`.S.k.v.XX'.'.`.",
"v.}.XXS.A.[.`.l.A..XA.[.].A.[.N.N.}.}.{.|.+XM.V.M.l.c.`.+XT.{.}.Y.OX).$.2 6 6 5 6 6 h t %X:.p X ,.Z.Y.[.[.A.`.'.'.v.`.c.v.oXXX'.",
"T.}.`.'.A.].B.I.[.A.A.[.[.].}.|.V.c.c.c.l.c.z.z.}.I.V.}.{.].A.`.`.Y.p > 6 5 5 6 6 h t e.&Xo.w @.z.T.V.N.N.[.{.`.v.v.[.|.`.v.`.'.",
"v.}.'.{.A.].c.`.[.A.[.A.[.}.{.].{.v.I.{.].{.{.B.E.v.I.}.].[.{.'.{.x.r 6 6 5 5 6 z t N Y.Y.[ G.x.I.}.}.A.B.V.M.M.'.}.|.|.[.v.j.`.",
"v.v.}.'.].A.j.`.S.A.A.A.A.XX#X}.{.c.{.].}.].'.`.M.Z.2X}.[.[.`.[.T.U.o 6 7 6 6 z j n Y.L.v.n.B.v.+X{.`.}.|.M.c.B.XXXX.X.XXX'.v.j.",
"XXv.v.}.`.`.l.[.[.A.`.'.}..X#X|.`.c.`.#X}.}.'.{.{.M.}.'.A.].].].#XY.b t 5 7 8 h v G.{.{.L.v.}.[.N.A.A.].|.{.C.M.}.|.[.}.[.].[.c.",
"}.v.c.v.'.M.c.C.c.N.'.|.].`.C.M.v.T.v.}.+X|.'.}.}.l.T.{.A.S.`.].}.oX!._ 6 i t v /.Y.{.`.'.V.|.}.[.C.V.].].|.+XC.c.}.].[.|.C.].k.",
"[.S.v.l.l.l.v.V.`.j.c.v.B.v.V.V.v.v.T.c.v.`.v.z.k.n.v.v..X}.].'.XXL.D.n p p 1.@X+X'.}.{.I.v.}.}.[.}.}.A.].|.2X].'.c.`.|.].B.M.V.",
"'.'.`.v.[.oX'..X}.'.c.V.}.#X#X+XI.k.'.'.c.c.`.`.V.`.'.`.c.M.B.T.L.k.D.o ..Y.E.oX|.{.'.].`.v.XX#X}.|.].A.C.].A.A.`.'.c.C.M.B.[.'.",
"A.`.k.c.`.}.{.|.[.`.c.{.|.XX|.+X`.j.j.v.A.`.}.'.`.V.{.I.c.I.V.l.k.T.Y.P.{.{.}.XX[.[.].}.].l.[.|.].|.|.A.[.[.[.[.}.}.`.c.B.A.`.I.",
"c.V.`.`.N.c.'.#X'.c.[.XX[.[.[.XXv.l.'.[.[.[.'.[.{.{.'.C.c.I.{.`.c.T.|.}.`.`.XX}..X|.[.{.].M.[.[.}.|..X2X|..X[.[.}.'.l.j.`.`.[.A.",
"S.`.A.`.}.c.v.c.j.V.#X.X{.'.XX`.c.'.{.|.{.`.'.A.'.[.].|.B.Y.}.V.V.v.v.}.'.}.|..X.X[.I.l.M.l.].[.[.|.[.A.`.].[.}.|.|.c.c.[.[.`.[.",
"`.A.S.A.`.[.c.C.S.A.#X|.'.#XI.c.{.'.|.'.I.'.A.A.A.'.].{.L.n.B.T.{.}.L.V.{.{.|.#XA.B.l.M.I.Y.Z.[.[.[.[.A.[.}.}.].`.B.c.`.[.A.[.XX"
};
