/* XPM */
static char *_1679389454[] = {
/* columns rows colors chars-per-pixel */
"64 64 233 2 ",
"   c #2A1D05",
".  c #271A07",
"X  c #3B1D01",
"o  c #351B05",
"O  c #291F13",
"+  c #1C2100",
"@  c #2D2B00",
"#  c #2D230E",
"$  c #2C2604",
"%  c #3C2102",
"&  c #35230C",
"*  c #382908",
"=  c #293300",
"-  c #2E3008",
";  c #383603",
":  c #2E2214",
">  c #2F251A",
",  c #2F2816",
"<  c #322515",
"1  c #3B2612",
"2  c #342A14",
"3  c #3B2B14",
"4  c #32261B",
"5  c #352A1D",
"6  c #3B2D1C",
"7  c #3D311E",
"8  c #3B3615",
"9  c #362C21",
"0  c #392D22",
"q  c #3D3225",
"w  c #3E3429",
"e  c #3F3828",
"r  c #452A0C",
"t  c #452508",
"y  c #512A0A",
"u  c #433806",
"i  c #452D14",
"p  c #422E1B",
"a  c #4D2E13",
"s  c #4C3214",
"d  c #43321C",
"f  c #4C341B",
"g  c #453715",
"h  c #533414",
"j  c #53361B",
"k  c #553A1E",
"l  c #5A3A18",
"z  c #52320C",
"x  c #633E1D",
"c  c #423425",
"v  c #433926",
"b  c #4B3B23",
"n  c #42362B",
"m  c #44392C",
"M  c #493C2D",
"N  c #493723",
"B  c #533C24",
"V  c #5A3E23",
"C  c #503B2A",
"Z  c #473C31",
"A  c #4A3E32",
"S  c #422F20",
"D  c #613E20",
"F  c #394708",
"G  c #3A5407",
"H  c #3D4315",
"J  c #3D6404",
"K  c #454508",
"L  c #51460C",
"P  c #49580D",
"I  c #484418",
"U  c #584618",
"Y  c #4E5618",
"T  c #644C1E",
"R  c #557314",
"E  c #4D412D",
"W  c #4C4925",
"Q  c #55442C",
"!  c #5C442C",
"~  c #574528",
"^  c #585424",
"/  c #4C4133",
"(  c #524433",
")  c #564936",
"_  c #5B4B33",
"`  c #5B4E3D",
"'  c #56483C",
"]  c #5D533A",
"[  c #644425",
"{  c #6C4625",
"}  c #644629",
"|  c #644A2D",
" . c #6C4C2C",
".. c #6A4926",
"X. c #704C2C",
"o. c #634D34",
"O. c #6A4F33",
"+. c #724F31",
"@. c #6D5234",
"#. c #64543C",
"$. c #6C543B",
"%. c #665B37",
"&. c #745333",
"*. c #7C5534",
"=. c #7D5A35",
"-. c #755A3C",
";. c #7C5B3B",
":. c #73573A",
">. c #6B5629",
",. c #586727",
"<. c #5F7028",
"1. c #5A6930",
"2. c #696735",
"3. c #7A643A",
"4. c #6B753E",
"5. c #6A642B",
"6. c #5E5343",
"7. c #5F4F40",
"8. c #615444",
"9. c #695B46",
"0. c #755D43",
"q. c #785F44",
"w. c #7B6244",
"e. c #75644C",
"r. c #7B644B",
"t. c #766847",
"y. c #7B6B53",
"u. c #766755",
"i. c #73704B",
"p. c #8C592E",
"a. c #8B572E",
"s. c #8E5C33",
"d. c #835C3C",
"f. c #8C5E3A",
"g. c #855934",
"h. c #925E34",
"j. c #945F38",
"k. c #8C623D",
"l. c #87623C",
"z. c #956136",
"x. c #986337",
"c. c #95623A",
"v. c #99653C",
"b. c #9D693E",
"n. c #95693F",
"m. c #A26B3E",
"M. c #A0673C",
"N. c #815E42",
"B. c #846244",
"V. c #8C6542",
"C. c #8E6945",
"Z. c #84664A",
"A. c #856A4D",
"S. c #8D6C4B",
"D. c #866944",
"F. c #936642",
"G. c #946A45",
"H. c #9D6B42",
"J. c #936D4B",
"K. c #9A6E4A",
"L. c #9D6741",
"P. c #867B4C",
"I. c #95714D",
"U. c #9C724C",
"Y. c #99754B",
"T. c #846C53",
"R. c #946F52",
"E. c #84745C",
"W. c #8C795C",
"Q. c #877558",
"!. c #947352",
"~. c #9C7552",
"^. c #93745A",
"/. c #997A57",
"(. c #A36E43",
"). c #A86F44",
"_. c #A36F49",
"`. c #A57145",
"'. c #A97346",
"]. c #A5734A",
"[. c #AA754A",
"{. c #AD794D",
"}. c #A5784F",
"|. c #B17B4E",
" X c #A27651",
".X c #A57953",
"XX c #AD7B52",
"oX c #A57C5A",
"OX c #B17D52",
"+X c #897964",
"@X c #947D62",
"#X c #A57F63",
"$X c #5C871B",
"%X c #6E8F2E",
"&X c #7F8A43",
"*X c #888449",
"=X c #8B8558",
"-X c #948856",
";X c #969857",
":X c #8A914C",
">X c #A7845D",
",X c #B58055",
"<X c #B58158",
"1X c #8AAE47",
"2X c #968668",
"3X c #9C966F",
"4X c #9D8C73",
"5X c #978A78",
"6X c #8B8472",
"7X c #A38B69",
"8X c #A39967",
"9X c #A4927A",
"0X c #A9967A",
"qX c #A7A475",
"wX c #B6BA78",
"eX c #A6A36E",
"rX c #B5D76E",
"tX c #A8D45F",
"yX c #AE9B84",
"uX c #B7A689",
"iX c #BCB689",
"pX c #BCAB92",
"aX c #BCAD98",
"sX c #B6AA8E",
"dX c #C1AC92",
"fX c #C7B69A",
"gX c #C1BB87",
"hX c #CDBCA2",
"jX c #D1BDA3",
"kX c #CBCA8F",
"lX c #CEC0A2",
"zX c #D5C6A9",
"xX c #D7E9AB",
/* pixels */
"(.x.].H.{.[.x.'.[.m.x.z.z.z.c.c.H.v.b.j._.`.`.{.{.`.H.`.].s.H.m.m.m.`.z.b.].`.z._.(.[.'.m.'.'.v.v.z.{.'.'.|.h.[.,X{.v.).[.[.|.{.",
"(.v.z.b.`.h.|.`.'.|.x.{.OX].b.(.'.XX{.(.`.`.`.'.].].`.U.H.s.].`.`.m.z.[.`.z.x.m.].OX,X|.|.'.[.'.H.b.'.[.[.[.h.M.x.x.j.].[.OX{.b.",
"{.[.XX`.s.[.'.[.'.'.b.[.XX].H.{.{.{.OX(.z.x.b.`.].{.{.H.z._.v.j.c.'.`.{.,X[.z.{.{.OXXX[.[.`.`.].`.s.b.{.[.m.b.[.'.'.`.j.x.p.x.{.",
"_.{.(.`.x.[.[.`.{.x.b.`.].H.c.`.'.b.x.(.,X[.b.`.j.j.j.f. X].H.a.}.Y.`.].n.n.K.b.}.<X{.`.'.[.(.z.F.G.`.k.K.v.{.`.`.[.{.h.'.`.`.'.",
"`.[.b.h.h.j.H.H.z.[.[.(.`.{.h.H.(.(.{.[.{.[.m.].v._.}.U.U.{ X h ..=.V.~.T % { G.H.].{.`.h.v.`.}.d.o c.}.k.c.{.`.(.`.{.b.m.{.{.[.",
"b.c.(.].`.`.z.x.`.[.(.).[.{.j.`.].[.[.[.{.'.{.v.{.`.H.g.*.!.q.! 3.!.[ =.!.} [ l d.n.z.H.H.l.z.H.~.X L =.T V.`.[.[.].OXK.z.H.`.`.",
"].'.OX`.OXOX{.h.b.[.].(.[.[.j.{.OX(.{..XXX{.c.[.].}.K.{ h [ @.w. .O./.V [ D.a S.l k..X`.].V.Y.K.k.T >XL X  .f.`.XXXXXXb.m.].n.`.",
"c.c.x.{.<XOX{.{.x.[.{.{.{.|.h.h.j.v.h.z.H.j.XX].]. X].!. .&.A.[ Z. .B R.j ^.B.~ -.[ U.].g.X U l.~.C.^ 8Xg 3.V.f.c.v.z.z.n.b.h.{.",
"`.`.`.z.v.(.v.v.c.c.].{.{.b.(.OXv.[.).).b.s.OX.XX. .D.!.Y.&.O.Z.} !.@.A.q.j @Xf Z.* G..X].l 5.>.>.D.U ;X=XU [ C.j.L.x.{.`.).v.|.",
"[.].].{.[.j.(._.'.h.(.v.z.H.).x.j.XX(.(._. XF.F.B.l @...U.S.h r.:.&.! ~ $.& C & _ % l I.G.3.>.8X-Xz ; Y -XU | [ F.z.`.(.(.'.).v.",
"{.'.[.{.b._.(._.`.z.v.z.].).(.[.b.{.[._.H.x D *.~.d.[ A.k A.o.B @.* ~ e.] 7 . . Q =X3.eXi.$ g I *X*X5.% g 8 g % V.F.`.(.[.(.).(.",
"m.{.`.`.h.b.].(.(.H.v.`.(.].[.].j.b.`.]. XC.j O.} B.@.~ f 1 Q +XT.y.) u.( 6 q . 2 %.*XwX=Xg iXgXK *XP.* 2XgXlX0Xs C.U.`.).).'.'.",
"b.m.`.b.j.{.).(.(.h.).].].).(.(.[.v.H.G.F.V.O._ f f M 4X2X9.E +X6X_ n n v v q Q $ 2 @ ^ %.H eXeXK ; K ^ kXlXzXzXi w.U.H.(.).[.OX",
"(.(.b.j.p.)._.).].h.(.(.].(.].{.].`.*.x ~.V.V b 8.y.6 8.8./ n q c 7 n m M v c #.. - = =Xi.^ 2.L ^ ^ F wXqXgXiXzXyXf &.f.(.[.(.b.",
"`.h.b.[.[.j.(.).(.h.).(.(.].{.OX{.G.h b j 1 y.aX5Xu.q q n n e e m m w m / M d e.@ i.H H W = 2.*X-X;XY :XrX-X1.qXfXdX-.&.f.h.b.[.",
"z.|.[.|.].M.h.h.j.p.h.h.v.(.L.j.k.R.! aXb * +Xu.e m m w e Z e e e e m e A M d t.= <.G 1.Y ^ @ * u u P P kX&X; 2.=XzXhXk G.H.{.[.",
"x.[.[.{.'._.z.b.'.[.{.[.h.x..X XR.@.p zXfX4.& q e e e w w q 4 w n w n n m E 6 t.J %X$XJ P *XL Y.G.* 8X@ :X;X<.xXi.i.yXt.=.>X[.'.",
"m.x.].}.b.x.h.x.v.[.{.`.v.}.K.z a o 5 zX2XI 7 w w 5 , ` , 7 w 9 w w n n v ~ 7 2.R tX1X$XG <.U Y.>.*X7X$ @ ^ %X1.4.8 qX3Xs ~.].{.",
"`.m.z.c.v.(.m.`.H.p.z.s.OXXX;.@X0.p 3 aX_ 2 : w 9 q , e.. : 9 e n n Z n q ( w W &XrXrX%XG P D.3.L kXP.X g W 2 W 3XaXy.E.@XV V.K.",
"'.x.z.H.`.m.`.[.`.H.z.c.oX~.B yX#.N d fX+Xc 5 w w q e q , 4 9 9 0 w 0 0 S / e g <.rXtX$XG F %.3.F gX-X% $.8 e u.f pXiXE C yXt ~.",
"'.x.m.m.'.[.{.m.'.].s.l.l.&.-XlX2X3 _ y.y.6X9.q 9 5 9 9 9 9 9 9 9 9 0 0 m A c - = 1X$XJ F 8 y.~ 8 Y iX^ Q.3 8 $.  v 2X9X' fX% ~.",
"z.'.m.|.[.`.'.'.`.]..X=.o.fXfXlXsX~ #.* b +X9 w w w w w w w w w 9 9 9 9 m v n 5 = G G G + # ) ] T.3 %.iX- * g ] 9.b f o.E.T.X J.",
"x.m.m.m.m.|.'.|.]..X-.| r.uX7X7X2X-Xb 7 . 5 e q > O q n n q 8 ] 5 , w q w M / 5 # $ , 8 2 7 2 ` 7 E @ =XqX= %.~ 9X* ~ W.3 r.t R.",
"m.m.|.m.m.m.m.'. Xd.w.E.i 9X2X!.l.-.| 1 7 m e e 9 5 9 5 w , # E E : q n m e W ( e E E # . 6 c . #.d   $ 8Xy.* W.d o ~ h t /.y J.",
"m.b.{.[.(.[.`..X+.0XjXfX_ B 0.k h  .d.T.p n A A A m m M n n n c e e Z e e e n A ( ( M 6 # q 9.1 fX9X& ! I sXg 3.g @.[ V.&.T G._.",
"'.`.[.[.{.{.H.S.! zXdXuXW.r t X.I.I.f.N.p 0 0 0 c 0 w n A Z A A E e e e Z w Z / ( M M A : < +XyXzX4X1 e.7 i.0X* r B.F.G.k.y z.b.",
"].[.[.[._.].J.| 8 0XpXt.r *.J.H.].].V.B.Z.V 6 9 9 4 9 9 9 9 w w w 9 9 w Z m m n v v M ( 9 q lXzXsX#.) . < f 2XT.% ~.].H.L.L.s.c.",
"p.z.j.j.f.f.O.0XE.b w.l D. X].`._.K.g.+.o.Z.` S 9 9 9 9 9 9 > 9 5 5 9 9 0 9 9 0 0 m M / 9 : u.+X#.  6 2 < y.Q } X.K.`.H.(.h.v.}.",
"v.M.{.].K. .uXjXuX_ t {  X XH.H.H.F.B E.C . O C m < 9 9 9 9 9 0 0 9 9 w 0 w n n m m / M 9 4 O 2 ) < 2 0 3 _ 9Xi n.f.L._.j._.}.{.",
"{.x..X.X+.0.E.pX0.l G..X_.L.b.x.j.*.} y.N < 5 < 0 0 w w 0 9 0 n n n w e n n w n m / w 2 w 0 5 6X` 2 0 S 7 d 5X% ].].j.s._.{.(.[.",
"K.g.V. .r.0X1 #.h J.XXXXOXXX(.[._.g.} $.7.< 5 O 7.9 m n e e Z w Z Z e e e m m / Z q 5 0 m 6 5 < 6 c c 6 6 7 yXk 7X{.{.j.[.`.[.'.",
"F.=.[ $.hXE.i } F. X].[.XX_._.`.].J.N.B A 0 4 0 8.0 m n n e e n n w e m M M M q 9 9 0 A q n 9 c c c m q c 5 5X4XG.c.x.j.`.'.'.[.",
"o.:.0X-.e.j w.Y.`.].[.`.{.[.(.U.J.j q.M n e w w n n n n n n Z n Z A Z n 0 q 9 5 9 9 Z Z 9 m 6 7.u.1 ' S S 5 ) dX..F.{.{.b.b.b.z.",
"f $.[ | &.d.G.,X`.'.XXOX<X{.].H.j 4X! o 0 Z e m A Z m n m Z Z C Z n w 9 9 4 9 9 w w A 9 6 Z 0 e.c ` 7.S q 6 m fXh ].].[.{.x.v.{.",
"g.U.~.f.H.XXm.x.`.L.z.z.(.n.n.d.B hX4Xp m A A E A n m 0 9 5 4 0 9 0 4 9 5 9 5 0 w A w 9 5 A 0 A ` 8.7.0 p 6 p jXl >X`.'.[.z.`.'.",
"_.].z.`.'.[.'.x.j.(.|.'.s.`.K.*.o 9.sX) 2 q 6 5 9 9 < 5 6 6 0 0 9 0 9 0 5 5 w m Z e 9 9 9 / 6 ' 8.8.8.0 0 p 6 hXl  X].'.|.b.m.{.",
"].z.H.XXm.'.,Xz.(.[.|.|.z.n.I.V B * 4Xt.Q M : : > 9 9 2 1 1 6 4 9 9 9 9 w w m m Z 0 > > 0 A 9 ' 6.6.8.q 6 p 3 fXl U.].'.'.m.z.z.",
"f.x.OX[.'.'.,Xp.`.|.<XOXc.U...o.B d @Xy.9.: 6 # 4 0 5 M E.T.8.< 9 w w e e / / m 9 > Z > 9 Z 4 ' 6.8.6.6 6 6 p dXl  X{.[.|.z.b.'.",
"j.H.].[.'.{.[.z.m.x.x.c.k.=.r ^.o.2 b ~ y.6 c : < 9 < y.( ( A n w Z e Z / / m 5 9 w 0 9 w Z > 6.6.6.6.q c 3 v 0X+.F.H._.z.b.[.`.",
"v.(.{.'.'.[.b.x.m.[.[.}.d.[ ! i o.& 9.y.. p 1 c : w n n n n 0 n w w e / Z n 5 5 > > 9 9 n w : 6.6.8.7.0 6 # ) $.oXK.z.].z.}.'.'.",
"h.s.H.XX[.v.x.XX).).(.XXd.r p e.y.E.4X3   . d d 0 4 n S 9 9 n n n Z A e c 9 9 9 O 9 9 9 Z 0 4 6.6.6.( 7 3 M b o K.(.n.p.z.`.[.m.",
"(.].c.c.j.x.XX].).[.'..X .V & _ b e.) $.b o i $.0.S 7.0 9 w n n Z Z Z w 9 9 9 9 w Z 9 9 n 9 0 6.8.6.c 7 2 +X! [ .XOX,X`.z.b.[.'.",
"(.{.j.c.s.[.{.).).).[.}.X.w.p 2 N Q u.3 #.| S./.S.r.n S n Z n n n 0 9 9 9 0 0 9 n n 9 n w > 0 6.6.] 6 6 8 9Xy ~.,XOX[.[.`.z.'.{.",
"[.{.XXx.p.(.[.(.(.(.).OXF.[ 0.Q r.9X3 8 i #X~.f.V S N c n A A 0 9 5 4 > 0 9 9 w n n 9 Z w O A 8.6.M d O Q.} N.F.{.<X|.{.,Xn.s.,X",
",X|.|.(.j.b.[.[.[.'.{.OXl.k.X.~ o b 1 W.j Z.F.B.i n c n A A n 4 9 5 8.< 0 0 0 w w w 0 ( 0 9 6.6.6.q 2 Q 7X*. Xc.h.b.m.(.z.z.v.z.",
"OX|.|.OX).j.[.{.[.[.{.OXh.z.d...! f g s X B.#X:.p m Z A c 5 0 9 9 9 c 0 0 0 n n w 9 0 / 9 n 8.8./ < v 2Xj  X].`.[.(.j.p.`.(.`.z.",
"[.OXXX_.x.f.b.XX{.{.OX}.z.{..Xk.X.;.^.w.y N.^.V M m c 0 0 0 9 0 9 0 c c S < n n q 5 q m < Z 7.7.6 3 e.* J.XX[.{.[.|.L.s.H.`.].v.",
"j.x.j.v._.H.h.j.v.(.b.c.h.`.U.z.}...x h V.G.D a p 1 6 5 5 0 w n n n N 9.u.5 c n 9 9 n c c 0 7.A & Q.$. .].[.[.[.'.{.v.H.[.(.H.[.",
"}.j.L.`.(.[.s.L.].j.h.M.(.M.h.v.{.`.`.H.K.XXG.k.G.-XR.} p c n n Z S Z.Z.C w n w 9 9 n 5 +Xp ` 1 c q.&.~.(.).'.'.[.[.j._.`.`.(.(.",
"`.j.L.[.(.b.j.v.b.z.'.[.`.`.v.b.[.[.(.`.[.'.{.m.m.z.~.oXR.! p p p j R.V.S w n 0 0 0 m S r.i p o f ;.oXL.m.m.).'.(.(.f.v.'.'.(.'.",
"j._.].(.(.'.j.h.h.(.`.m.m.m.`.H.OX{.(.'.`.[.{.'.OX[.s.F.f.f.J.J.*.S. X^.S n w 9 5 q p } Z.a % X.B..X]._.m.M.b.m.(.H.h.`.`.).M.m.",
"h.(.).].(.(.`.h.`.'.`.(.[.`.K.z.m.`.'.`.'.].'.H.{.].j.h.H._.H.[.(. XK.k c Z 0 9 6 c 1 ^.#X X7X.Xj.H.{.[.'.m.x.b.(.b.p.z.[.).).m.",
"j.[.[.M.m.[.b.h.m.|.m.'.'.m.[.x.c.[.{.[.XX}.x.v.h.s.s.`.{.b.'.[._. X} c n 0 0 9 M S t oXXX,XXX}.b.h.].].[.'._._.(.j.M.j.v.[.[.(.",
"L.].).(.m.m.v.H.'.m.m.'.'.m.].{.v.h.z.f.s.j.h.j.[.L.v.{.`.'.m.m.(._.;.p S 0 0 w A i a oXXX{.].c.z.b.x.c.n.].].H.j.M.[.|.m.j.m.).",
"j.[.(.[.m.`.h.(.[.m.m.m.'.'.[.'.].j.(.(.].].].z._.h._.{.`.[.'.(.[.}.~.t 1 0 9 w m o ;.G.K.b.f.s.b.].].H.z.c.n.j.).).|.[.).j.s.(.",
"j.j.[.(.`.m.s.(.b.m.m.m.'.{.,X].].h.].).[.).(.(.j.c.OX].[.(.(.'.(.K.K.+.C 5 0 N p ^.U.j.z.z.c.z.[.'.`.{.{.z.s.z.[.XX|.|.[.(.v.s.",
"[.j.j.[.(.m.s.).'.m.(.`.[.|.|.|.L.s._.OX[.'.[.`.].j.]._.(.(.'.'.{.[._. X0.6 S p [ U.`.`.n.x.[.'.x.m.m.`.[.'.b.z.].[.'.'.'.).).p.",
"].j.h.j._.v.h.b.z.x.`.'.`.(.b.z.L.c.j.[.OXXX(.[.[.p.K.].(.b.(.(.[.[.(.N.j 6 f :.~.`.`.`._.v.{.'.'.m.M.m.`.{.{.H.h.{.].).|.).).a.",
").M.v.s.p.h.j.v.m.p.j.j.j.x.v.v.j.j.v.s.h.H.c.f.a.j.z.z.{.[.(.`.(.z.h.F.f i d. X[.'.[.'.b.z.].`.'.{.[.m.m.{.OX'.(.j.(.[.).v.j.v.",
"'.(.L.j.`.[.`.OX[.`.h.v.[.OXOX{.L.s.`.].h.h.H._.c._.(.H.h.v.j.b.x.s._.G.j N._.].{.(.'.].H.z.XX,X{.[.[.m.m.`.`.m.(.].j.(.j.j.[.(.",
"(.m.p.h.(.{.[.[.'.m.j.).XX{.{.OXL.s.s.z.m.'.'.`._.v.[.L.h.H.L.h.s.v.(._._._._.OX'.m.`.].`.s.'.[.`.'.|.'.[.[.'.`.[.{.b.h.j.(.(.m.",
"j.x.(._.z.h.(.OX).h.'.{.(.[.).{.c.s._.(.'.'.m.`.`.'.(.v.s.H.].K.f.L.[.]._.(.|.[.,X{.'.'.`.z.[.[.[.{.,X{.{.|.'.'.[.(.h.p.(.(.'.m.",
"b.`.m.(.[.h.j.j.s.x.OXOX[.).[.(.h.`.[.{.'.(.m.(.`.`.].{.x.H.{.F.x.h.v.[.).{.XX|.,X`.n.z.z.p.'.].'.[.[.m.m.`.[.[.[.{.h.j.[.[.).`.",
"m.m.M.M.m.'.h.v.m.m.OX[.).{.(.h.(.[.[.).m.(.m.`.m.`.`.`.F.c.c.L.].].v.j.[.).).|.m.x.s.l.K.H.c.'.'.[.[.m.'.'.[.).m.v.h.(.`.m.'.[."
};
