/* XPM */
static char *_1679389454[] = {
/* columns rows colors chars-per-pixel */
"64 64 230 2 ",
"   c #231502",
".  c #251A03",
"X  c #2B1A04",
"o  c #2B1D0C",
"O  c #291705",
"+  c #331B03",
"@  c #361B03",
"#  c #291E13",
"$  c #2C2401",
"%  c #2D220D",
"&  c #272506",
"*  c #35230C",
"=  c #382508",
"-  c #3A3408",
";  c #2C2215",
":  c #2E251A",
">  c #332414",
",  c #3A2612",
"<  c #352A14",
"1  c #3B2A14",
"2  c #32271B",
"3  c #342A1C",
"4  c #3A2D1D",
"5  c #3B3218",
"6  c #362D22",
"7  c #392D23",
"8  c #3C3224",
"9  c #3E3429",
"0  c #452604",
"q  c #41250B",
"w  c #4A2A0C",
"e  c #442A09",
"r  c #512D0D",
"t  c #48390E",
"y  c #58320E",
"u  c #442C14",
"i  c #4B2D13",
"p  c #422E1A",
"a  c #492E19",
"s  c #43321C",
"d  c #4C341A",
"f  c #49391E",
"g  c #483415",
"h  c #543314",
"j  c #52351A",
"k  c #543A1D",
"l  c #5B3B1C",
"z  c #5A3817",
"x  c #522F11",
"c  c #623E1C",
"v  c #433424",
"b  c #4B3623",
"n  c #433926",
"m  c #4B3B24",
"M  c #42362A",
"N  c #453A2C",
"B  c #4A3D2C",
"V  c #493729",
"C  c #543C24",
"Z  c #5B3D21",
"A  c #533D2A",
"S  c #4B3E31",
"D  c #463D31",
"F  c #603F20",
"G  c #3F4D0F",
"H  c #484112",
"J  c #4C431B",
"K  c #4A4718",
"L  c #58461A",
"P  c #555614",
"I  c #64421E",
"U  c #62611E",
"Y  c #4B412E",
"T  c #4B4223",
"R  c #5C4225",
"E  c #53432C",
"W  c #5B442C",
"Q  c #5E4A2D",
"!  c #544826",
"~  c #4D5623",
"^  c #4D4133",
"/  c #4F4539",
"(  c #524535",
")  c #574933",
"_  c #5B4A34",
"`  c #55493A",
"'  c #5C543D",
"]  c #59512D",
"[  c #634325",
"{  c #63452A",
"}  c #64492C",
"|  c #6C4B2C",
" . c #694825",
".. c #724D2C",
"X. c #6B542C",
"o. c #7A532E",
"O. c #644C33",
"+. c #6A4E33",
"@. c #604F3D",
"#. c #645434",
"$. c #6E5133",
"%. c #65533B",
"&. c #6B553C",
"*. c #6B5B3C",
"=. c #735234",
"-. c #795533",
";. c #72563B",
":. c #7A5639",
">. c #7D5B3B",
",. c #765B38",
"<. c #704E33",
"1. c #586130",
"2. c #686434",
"3. c #76653B",
"4. c #6E7336",
"5. c #584B41",
"6. c #5E5140",
"7. c #655643",
"8. c #6D5A44",
"9. c #675A48",
"0. c #745C43",
"q. c #795F46",
"w. c #6E6549",
"e. c #7C6143",
"r. c #73644C",
"t. c #7A644B",
"y. c #776548",
"u. c #7C744A",
"i. c #7A6752",
"p. c #7D7454",
"a. c #8D5A2E",
"s. c #89562D",
"d. c #8E5B33",
"f. c #835D3C",
"g. c #8B5E3A",
"h. c #825633",
"j. c #925E34",
"k. c #935E39",
"l. c #8D613C",
"z. c #87613E",
"x. c #946136",
"c. c #986337",
"v. c #956239",
"b. c #99653B",
"n. c #96683E",
"m. c #9D693E",
"M. c #A16B3E",
"N. c #A0673C",
"B. c #805E41",
"V. c #846242",
"C. c #8C6543",
"Z. c #866B4B",
"A. c #8B6A4B",
"S. c #886747",
"D. c #946642",
"F. c #956944",
"G. c #9D6B42",
"H. c #926B4A",
"J. c #9B6E4B",
"K. c #9B6740",
"L. c #82744F",
"P. c #95704D",
"I. c #9D724C",
"U. c #9D7549",
"Y. c #836C54",
"T. c #8B6E52",
"R. c #8C7254",
"E. c #83735B",
"W. c #8C775C",
"Q. c #947353",
"!. c #9C7553",
"~. c #9D7A56",
"^. c #94765B",
"/. c #946D50",
"(. c #A36E43",
"). c #A86F43",
"_. c #A36E49",
"`. c #A57145",
"'. c #A97346",
"]. c #A5734A",
"[. c #AA754A",
"{. c #A5794F",
"}. c #AD794D",
"|. c #B17B4E",
" X c #B0774C",
".X c #A37652",
"XX c #A57A55",
"oX c #AD7B52",
"OX c #AC7E5A",
"+X c #A77B57",
"@X c #B17D52",
"#X c #897A65",
"$X c #977D63",
"%X c #788349",
"&X c #91924B",
"*X c #AA825C",
"=X c #B48054",
"-X c #B48259",
";X c #B98458",
":X c #A5AA5C",
">X c #8A816B",
",X c #9C8564",
"<X c #93836B",
"1X c #978666",
"2X c #9D9567",
"3X c #998A75",
"4X c #9B9475",
"5X c #A3937B",
"6X c #A8967A",
"7X c #A99876",
"8X c #A5AE66",
"9X c #ABB469",
"0X c #AEAA78",
"qX c #B1A67E",
"wX c #AEB276",
"eX c #A79A84",
"rX c #B09C83",
"tX c #B8A888",
"yX c #BCAD93",
"uX c #BCB592",
"iX c #B9B987",
"pX c #C2B199",
"aX c #C8B999",
"sX c #CCBBA3",
"dX c #D1BFA5",
"fX c #BFCE97",
"gX c #CCC299",
"hX c #CEC2A6",
"jX c #D4C6AB",
"kX c #D8C9B2",
/* pixels */
"(.v.'.G.[. Xc.'.[.(.c.x.c.x.v.x.G.b.b.c.`.`.`.[.}.`.`.`.].d.`.m.`.G.U.c.c.'.`.c.M.U.}.'.M.'.`.m.c.x.|.'.'. Xx.[.@X}.c.]. X'.|.|.",
"(.b.x.m.`.c. X'.'.[.c.}.=X].n.G.'.@X}.M.`.`.'.].'.].(.M.M.x.`.`.(.(.x.'.`.x.c.m.].-X=X X|.'.[.`.M.c.[.'.'.}.x.m.c.b.k.].[.@X}.m.",
"}.].oX`.a.].[.].'.'.m.[.@X].G.}.}.}.@X).j.c.n.`.{..X}.(.x.M.n.x.c.].`.=X}.}.x.=X'.=X|.[.'.`.`.'.G.x.m.[.}.c.G.[.].`.'.c.b.j.v.[.",
"'.}.(.`.b.[.'.`. Xc.m.`.'.G.v.].].G.c.(.=X}.(.G.k.j.v.j.`.=X}.c.[.`.M.'.`.{.M.c.[.=X}.`.'. XM.c.b.[.`.x.`.c.}.[.`.'.[.j.'._.'.].",
"].].(.j.j.j.(.m.x.].'.).'.}.j.G.(.`.}.[.}.}.G.'.b._.`.`.`.x.n.d.M.b.(.'.|.=X'.}.b.[.[.`.x.x.`.}.[.].].`.x.c.}.M.).(.}.c.G.[.[.[.",
"m.v.(.].].(.v.v.'.[.(.].'.{.k._.].].].].}.`.}.K.[.`.}.-X].].M.c.'.).(.|.[.'.|.(.n.c.c.G.m.l.x.m.`.}.=X}.{.b.`.[.'.'.|.(.v._.'.'.",
"].].@X`.@X@X}.j.m.].].(.[.].j.@X@X_.[.oXoX[.v.).}.[.}.}.].m.`.x.`.].].].}.k.m.m.[.c.}.`.].`.`.M.x.x.[.@X[.K.k.J.@X}.}.G._.`.v.`.",
"c.c.v.[.;X X[.oXx.}. X[.}.@Xj.j.v.v.v.v.K.k.oX[.`.].].s.l.U.].].n.].g.D.K.{.oX}.`.x.`.[.'.].J.].].U.`.v.j.`.'.d.v.b.x.x.b.m.j.}.",
"`.`.`.x.b._.m.c.b.c.].}.@Xm.(.|.k.'.[.).b.a.oXoX{.].J.r = j -.f.H.P.l @ -.I.oXoX].}.m.}.`.G.P.l..X}.}.j.(.(.(.m.v.n.b.[.'.'.c.}.",
"[.].].}.].j._._.].j.(.b.j.G.).c.c.|.).(.`.[.m.v.o. .>.Q.} R ,X,.h 3.A.h j I XX{.[.}.v.oX'.U.| @ z U.F.j._.'.(.(.c.j.].(.).(.].c.",
"}.'.].}.m.`.(._.'.j.m.x.].)._.].b.|.'.).'.}.}.{.D.y l q :.A.i S.~.q =.T.d V.c I.{.].].K.'.G.n.0  .H 0 :.].].m.`.(.b._.).).).).(.",
"M.[.`.`.x.m.[.(.(.m.c._._.[.[.).j.N.'.].].`.].I.J.C. .q.} $.Z.h $.A.w S.;.+.+.-.=XoXI.h.*XU.~.3.&X3.- z C.U.].G.b.K.(._._.'.'.[.",
"m.m.`.m.k. X(.(.).k.(.).]._.(.(.[.c.M.K.g.y w f.J.F.P.I f.l | Q.l R.=.+.V., R.L XX.Xl + 0 -.P.z.L 9X......F.`.`.G.b._.(.(.(.|.|.",
"`.`.M.j.j.(.)._.(.j._.(.].).].}.]._.K.!.!./.c q.h Q.!.F.g T.| Z.k 0.0.A 8.u ;.g z V.e.J 1X,.e [ - 4.2XL R  .d.F.K.k.c.x._.].(.M.",
"`.x.b.[.[.k.(.(.(.j.[.(.(.).}.@X}.F. .{ C.~.!...S.L S.^.k %.*.d f * > >     X m $ *.Q m $ 1 f 1 X $ 3.! X + -.B.G.(.[.'.j.j.b.[.",
"x. X X|.).N.k.k.k.a.k.j.b.(.m.k.k.J.:.j Z :.^.B.Z i.q +.b m ) m 4XeXr.> > v p #Xp.jXuX5   w.<Xm y.- ! H ) 7.q V.K.'.[.].K.m.|.[.",
"c.'.].}.'.`.c.m.[.].|.'.j.c..XOXoXD.B.B.[ O.Z A 7 p r.4 eXsXeXE 8 n n 9 7 M . T K 1Xp.T   5XaXi.*.J u.gXkXjX_ $.I.v.v.v.x.oX}.`.",
"(.b.`.'.m.c.j.c.b.[.@X(.c.[.].g.f.=. .;.b O.O > 5.eX#XS 8 / 8 > 4 8 8 8 3 2 & < - G < %.eXkXpX] $ H wXgXjXhX7Xd A.P.b.v.v.oX`.}.",
"`.M.c.c.b.(._.`.m.a.v.d.@X@X!.z + > v V S S V M M D M 2 4 7 Y D 9 N Y Y ^ ^ B v 9 Y 5 >XjXaX>X$ - :X9XwXiXaXjXp.d V..Xm.d.(.'.G.",
"`.c.j.(.`.(.`.].M.G.x.c.@X.X+Xu v # ; : 6 M 7 3 7 7 7 9 9 9 9 8 7 : 6 8 8 6 2 3 3 Y 7 V E.p.* ! U &X&X9X1.4XuXhXtX[ -..XOXj.M.].",
"'.a.M.`.`.'. X'.[.`.x.x.m.F.:.X : 6 2 2 : 6 6 7 6 6 6 6 6 6 : 6 3 7 7 6 7 7 7 V ^ 8 4 2 % % % $ H P :X9XK 1.~ 4XsXpXr XXoXj.}.(.",
"x.(.`.`.}.`.`.'.(.].}.n.G.XX0.> 8 7 3 6 # # 7 6 7 7 6 6 6 7 7 7 7 7 6 9 M D S A 9 n n 8 : Y p.& 2.P U 8X4.9XfX1.L.tXR $XJ.d.c.m.",
"b.M.(.'.`. X`.|.`.}.oXl.S.W > 4 3 8 N M 6 9 v 7 7 7 7 M M M / D 9 9 D ^ D M M 7 7 v 8 4 : & & G 0X2.$ H %X~ %X1.J pXE.u >.J.G.(.",
"(.).).`.`.M.`.`.}.@Xx.l.l 8.> 2 9 Y S S S M M V S M M M M M D 9 3 3 3 6 6 2 6 6 M M 8 N ; >X5 iX7XK #.f G & 4.iXuXy.<XE.k >.m.(.",
"m.N.}.[.'.'.).|.|.b._.C.q.#X2 Y < 3 2 3 6 : : : 6 : 2 6 : 2 6 : 6 6 7 6 6 6 6 9 S 7 D M 9.7.- 4X0XK t s E ! ] ] aXpXn E yXF J.(.",
").(. X[.[.[.M.`.j.v.J.:.t.rX4 n B 5.; ; 7 7 7 7 6 6 7 7 6 6 6 7 8 6 6 6 6 6 8 Y 6 6 S 9 5.w.- - 0Xu.w.%.m = f   m $X4X%.yXk g.(.",
"[.].[.).(.).(.k._.g.>.;.jXyX1Xf v # 7 9 7 7 > #XY.@ > 6 7 7 7 7 7 6 7 9 6 8 9 8 6 6 ^ 3 ` #X% w.K iX*.. m #.T.} #.g W t.&.= g.k.",
"a.k.k.b.j.d.j._.H.B.Y.dXaXgXrXy.v 3 # M M > > i.Y.V > 7 7 7 7 v 9 9 9 9 9 N 6 6 6 9 Y 7 eXN 4 eXH 2.0X- d ! q T.k k ,Xq Y.@ k.}.",
"c.N.|.).(._.)._.Z = $XtX,X,X,XW.&., > M 8 2 7 v v M M M M M M M n B / S N 7 3 ; : Y 9 D 5.< v pX$.t L.2X$ y.k Z.3.+.Z i R.w .X}.",
" Xc. X[.j.G._.D.C A A qX,XZ. .=  .| b 3 n n M 7 7 M M v M M M S ( ( V 9 2 6 ; & 3 N 6 ; < 4 B 6X=.V.t qX2.f Z.=.J.r f.:.=.H.`.[.",
").a.v.K.j.K.J.| 0.tXv m y.R e !.P.V./.u , ; # 6 v M M M M V S S M M 6 2 : 5./ 2 8 D : : 7 < i.&.C.!.| *.6X= t.} *XXXXXg.z F.].`.",
"v.}.@XoX].k.+.$XjXsX6XQ X Z A.!..XH.V.0.9.7 7 N M M M M S S V M 7 3 6 6 6 6 2 6 M 9 # 7 7 v 3Xd n.m.f.j 1XL.+ Z D.K.c.c.G.].`.}.",
"d.M.`.oXoX.XR sXsX6XR.w >.!.A.Z O.a , v M V M M B M M M M v 6 6 6 6 7 8 7 6 6 6 D 3 : M 4 B <X{ K.m.l.f.L ,X0.>.D.m.}.[.m.c.M.x.",
"|.G.v.m.F.:.C i.sX1Xl A.*X+XS.Y.9.2 M M V M M S ` V 7 6 6 6 6 6 6 7 8 8 7 6 6 8 M 6 D n 3 0.&.H.{.}.(.g.z.0 V.I.g.'.[.[.[.c.c.}.",
"[.=X`.x.P.} rXW b C w z.J.D.+.t.7.7 M M M N S S M 6 6 6 6 6 6 6 6 9 9 9 9 7 7 8 7 # M n 2 <X| .X`.M.b.M.c.l.F.l.m.}.'.`.[.b.`.}.",
"`.`.j.J.=.$XpXyX%.j ~..Xg.!.q.1 , M N N S M v 6 6 6 6 7 7 6 9 M 9 N 9 n 8 7 N N 2 2 / > B 0.!.@X@X X'.'.}.}.m.x.}.'.[.'.}.m.m.|.",
"].x._.XX} sXyX0.h ~..XoXg.:.T.@ > 4 7 v M M M M M M 9 # 6 v 9 9 9 9 9 9 6 7 ^ 8 # / 7 o E k OX;X@X}.}.'.'.'.`.x.|.M.'.'.[.G.x.x.",
"j.v.oX-.W C eX{ o.OX-X*XF d O.s #X3X6.2 M 9 M n v M M M M p : M M 9 D 7 6 M B > v S > 7.X :.-X|.[.].M.[.`.`.].x.M.'.[.'.}.c.m.].",
"x.G.!.R 2Xi.= } F.b.v.C.A dX,X, , n o   : M v M M M M 7 p B 7 M M M 9 6 6 Y 8 4 / 4 @.W.c OX=X X'.(.`.`.[.m.x.x.x.x.M.(.x.n.[.`.",
"m.G.A.$.pX0.i S.J.oXoXF.q <XpX%.7.3Xo 7 O 4 v v V v u @.Y._ b M M D 7 7 3 Y 3 9 n 4 W.R ~.].|. X`.'.'.[.m.x.x.[.}.M.x.].x.[.[.[.",
"j.g.B.j 3X{ o.oX_.)._.oX:.u W.3Xv #X. 4 % B b &.V a <.$X^.p M M M 8 7 7 9 M 2 N 2 t.Q H.D.@X@X[.'.(.n.x.b.].}.'.M.M.b.a.x.`.}.M.",
"_..Xl 5X&.j OX_.].].[.+X/.Z b eX1 ` < > o s p Y.B.S..X~.i.p v M 9 6 6 6 M ; v 4 s 8.V.*XK.m.(.].x.x.x.].[.}.oX`.}.=X=X`.x.b.}.'.",
"'.~.R 1Xk z.{.)._.].H.H./.Z p #Xm #X4 < O v 1 T.D..X.X!.A M v n 7 6 8 9 7 2 4 1 $X=.+X.Xj.K.j.v.(.`.x.d.x.b.m.`.=X=X[.[.`.x.].}.",
"].].[ ;.R H.}.(.(.F.c  .A.F O A _ 4 4 *   1 @ -..XoX+X| a M M v 7 6 6 6 2 2 > E.q.Z.n.b.{.[.v.`.`.`.`.`.(.c.x.c.[.;X=X[.@XG.j.}.",
"@X@X .0 f.n.[.}.+Xc q.u u g s #X1 O X O _ Q q Z..X].:.i V M M M 7 n 9 3 : > #XW ..D.].b.c.b.b.oX[.'.}.'.`.).].b.j.m.G.(.v.v.F.v.",
"@X}.+X.XJ.x.[.}.+X=.} = E._ <Xi.) s < Q O.k 0 !.J._.!.A v M M M 7 ^ 6 # > m d <._.oX}.|.}.`.x.G.[.`.'.`.'.'.`.(.]._.k.d.].G.`.g.",
"[.@X@XJ.v.d.K.OXOX[ d X ) s m _ %.W d d j r D.oX[._.J.Z b M M 9 9 Y ; ; v Y.i C.OX].|.|.'.|.b.G.@X[.M.`.`. X X'.[.@Xm.j.M.`.].m.",
"k.k.g.b._.G.k.k.D.z 0., * m ) ) 5 W R ~.Q.C.n.@X XoX.XA.V M M 7 N 2 3 > 8.R !.l.{.@X=X|.|.'.@Xm.}.[.M.M.'.'.'. X[. Xx.(.'.(.M.`.",
"oXb.b._.`.[.j.G.!.o.Z 8.&.E.eXA 1 b  .J.U.}.n.v.m.oX[..XO.p M B 4 2 > W k H.K.d.}.[.|.}.|.`.oXx.].}.'.`.M.'.'.'.'.'.j._.`.`.(.`.",
"_.j.(.].M.N.j.K.G.g.H. .&.= s 4 @.W h J.`.].}.G.(.a.G.+XF v v b 0.@ @ <.B.D.oXd.'.'.|.].(.'.c.x.b.].[.M.M.M.'.'.(.(.d.m.`.].M.`.",
"j._._.).(.`.j.j.j.G.].H. .j p s C k h .X].[.|.'.@X].k.C.Z a +.^.A q C.!.[.v.'.K.c.'.@X`.@X;X-XoXx.].'.(.N.M.b.M.(.(.j.`.[.).N.M.",
"j._.).(.`.M.`.j.`.'.'.J.].A.u ^.Z.{ o..X].`.'.M.[.'.k.g.:.^.S.r r ^._.(.'.].G.x.x.`.|.}.@X-X@X}.x.(.@X'.`.M.N.m.(.M.a.k.}.).).M.",
"j.[.[.(.(.`.m.j.M.'.M.'.'.F.C.h x | .X].oXoXv.b.x.g.a._.[.K.]._.J.[._.].'.'.`.'.x.`.x.[.|.@X@X[.m.x.G.[.].'.(._.).k.K.k.k.].[.).",
"K.[.].G.(.(.v.m.'.'.).`.`._.{.XXF.l.j.j.d.g.d.x.{.m.(.[.'.'.(.(.).].'.'.[.(.'.'.n.b.m.}.|. X`.v.j.m.c.x.b.`.'._.k.b.[.}.).j.(.).",
"k.[._.'.G.`.j.(.'.M.`.'.`.'.'._.].k.M.`.`.].].l._.j._.[._.].[.M.'. X[.).'.(.G.}.d.a.x.m.`.M.j.j.(.}.'.`.x.v.b.j.).(.}.}.).k.d.(.",
"v.v.].'.(._.d._.b.M.M.N.'. X@X[.[.j.].`.].`.].G.v.v.@X].].(.).'.N.(.(.).G.oX`.d.x.'.`.x.j.j.b.j.].'.`.[.}.v.d.v.].|.@X XoX).k.d.",
"}.c.j.].(.K.d.'.'.M.).(.].@X@X}.K.g.(.@X].'.'.].{.j.[.(.(.(.).].|.'.`.{._.v.s.m.[.(.`.'.m.c.].'.c.M.M.`.}.].m.x.[.[.'.'.'._.].j.",
").k.k.k.(.b.j.K.j.c.'. X'.(.G.j.b.v.v.].|.|.`.'.[.d.m.`.(.(.(._.'.'.K.v.d.m.'.}.[.M.`.(.(.b.}.'.M.M.n.M.].}.}.G.j. X'.[.|.M.(.s.",
"_.G.b.a.a.j.k.b.(.a.j.j.k.k.m.v.k.k.b.d.v.(.c.d.s.x.x.j.}.].).).].k.j.b.[.[.].}.[.].{.'.K.v.'.'.=X=X'.M.].[.}.'.(.j.(.].(.c.c.b.",
"`.(.(.k.).[.'.oX].`.j.c.[.@X@X[.K.d.'.`.j.j.G._.x._.`.G.j.c.j.m.b.j.(.G.M.M.'.'.}._.'.]._.j.}.@X=XM.'.M.m.`.`.M.(.'.j.M.c.c.'.(.",
"(.m.d.j.(.}.].}.'.M.c.`. X X X@XG.d.d.g.G.`.].(.`.b.'.m.g.G.K.d.a.n.].M.`.M.[.=X`.`.`.[.].a.U.=XM.'.=XM.'.}.'.`.[.[.K.j.c.(.(.m.",
"x.b.(.(.j.j.'.oXM.j.`. X'.'.). Xc.d._.`.'.'.'.).'.'.(.m.d.G.].J.x.m.[.'.`.M.}.'.=X[.`.[.U.x.'.'.}.}.=X=X[. X'.'. X_.j.a.(.(.].M.",
"m.(.m.`.[.c.k.j.a.m.@X|.'.(.}._.a.'.'.[.`.(.(.(.(.'.`.oXk.(.{.n.l.x.m.'.}.M.}.=XoX[.n.x.x.j.'.'.'.M.M.M.).).].}.oX Xd.k.].[.).'.",
"M.M.m.(.(.].d.m.M.M.=X'.`.|.G.d.`.`. X).(.(.(.(.(.(.'._.m.k.v.b.{.'.c.c.'.}.M. Xm.c.d.x.G.m.c.'.'.=X'.M.'.'.[._.(.k.j.(.'.).].[."
};
