/* XPM */
static char *_1679389454[] = {
/* columns rows colors chars-per-pixel */
"64 64 237 2 ",
"   c #1F1B00",
".  c #241B03",
"X  c #2C1C04",
"o  c #2B1D0B",
"O  c #271A06",
"+  c #311E0B",
"@  c #351D04",
"#  c #1D2400",
"$  c #2C2901",
"%  c #2B240A",
"&  c #282603",
"*  c #332B05",
"=  c #33230C",
"-  c #362608",
";  c #2A3301",
":  c #333403",
">  c #343D00",
",  c #393608",
"<  c #2E2211",
"1  c #2E2718",
"2  c #332513",
"3  c #342A14",
"4  c #3B2B14",
"5  c #32271A",
"6  c #342A1C",
"7  c #3B2D1C",
"8  c #3B321D",
"9  c #3B3714",
"0  c #362C21",
"q  c #392E22",
"w  c #3C3224",
"e  c #3E3529",
"r  c #462B0C",
"t  c #422C14",
"y  c #472E17",
"u  c #423213",
"i  c #44331C",
"p  c #4B341B",
"a  c #463A18",
"s  c #543A1C",
"d  c #5B3C1D",
"f  c #543517",
"g  c #4C320C",
"h  c #433424",
"j  c #4A3522",
"k  c #433A24",
"l  c #4B3A24",
"z  c #41362A",
"x  c #443A2B",
"c  c #4C3C2A",
"v  c #533D24",
"b  c #5A3D23",
"n  c #513F2A",
"m  c #483D32",
"M  c #623F21",
"N  c #3A4A04",
"B  c #3E5707",
"V  c #3F6903",
"C  c #464807",
"Z  c #4A4714",
"A  c #574819",
"S  c #575418",
"D  c #445A0E",
"F  c #61441D",
"G  c #69591E",
"H  c #466708",
"J  c #59681B",
"K  c #4D730D",
"L  c #606619",
"P  c #4B442B",
"I  c #4A4324",
"U  c #5D4425",
"Y  c #544B24",
"T  c #53432B",
"R  c #5C442B",
"E  c #5B4A2C",
"W  c #544828",
"Q  c #5C5323",
"!  c #575527",
"~  c #4E4733",
"^  c #534532",
"/  c #5D4B34",
"(  c #554B3A",
")  c #554A35",
"_  c #5D5537",
"`  c #634324",
"'  c #63452A",
"]  c #68462A",
"[  c #644A2C",
"{  c #6C4B2B",
"}  c #674924",
"|  c #744C29",
" . c #645C2D",
".. c #665829",
"X. c #73552C",
"o. c #634D34",
"O. c #674D35",
"+. c #64533B",
"@. c #6C533B",
"#. c #675436",
"$. c #7D5A3B",
"%. c #765736",
"&. c #704F30",
"*. c #5D6726",
"=. c #5A6231",
"-. c #67672A",
";. c #6B633D",
":. c #76673A",
">. c #78743C",
",. c #6C752C",
"<. c #6B5A44",
"1. c #665744",
"2. c #735C44",
"3. c #7B5E45",
"4. c #746145",
"5. c #74634B",
"6. c #7B6947",
"7. c #777646",
"8. c #7B6A54",
"9. c #726552",
"0. c #7A7353",
"q. c #6A6442",
"w. c #8E5A2E",
"e. c #8B572E",
"r. c #8E5B32",
"t. c #8C5E3A",
"y. c #835B3A",
"u. c #925E34",
"i. c #935F38",
"p. c #8D623C",
"a. c #8A6139",
"s. c #946136",
"d. c #956239",
"f. c #9A653B",
"g. c #9D693E",
"h. c #986539",
"j. c #A16C3E",
"k. c #A1673D",
"l. c #846343",
"z. c #8C6443",
"x. c #836448",
"c. c #8D6B4C",
"v. c #886947",
"b. c #926642",
"n. c #996641",
"m. c #956A44",
"M. c #9D6B42",
"N. c #956D4A",
"B. c #9A6E4A",
"V. c #857548",
"C. c #9D724C",
"Z. c #977448",
"A. c #846C54",
"S. c #8C6D50",
"D. c #82715A",
"F. c #897557",
"G. c #9C7553",
"H. c #997859",
"J. c #946F52",
"K. c #A36E43",
"L. c #A86E45",
"P. c #A46F48",
"I. c #A57145",
"U. c #A97346",
"Y. c #A5734A",
"T. c #AA754A",
"R. c #A4784E",
"E. c #AD794D",
"W. c #B17B4E",
"Q. c #B0774C",
"!. c #A27652",
"~. c #A47953",
"^. c #AD7A51",
"/. c #A97B58",
"(. c #B27D52",
"). c #8C7B64",
"_. c #937D65",
"`. c #5D861E",
"'. c #6A8929",
"]. c #7A8739",
"[. c #70902F",
"{. c #65951D",
"}. c #798244",
"|. c #7F9240",
" X c #848C3F",
".X c #84B736",
"XX c #888649",
"oX c #898457",
"OX c #938856",
"+X c #96965B",
"@X c #8D934C",
"#X c #AA8158",
"$X c #B48053",
"%X c #B88357",
"&X c #A38E57",
"*X c #99A857",
"=X c #8F8466",
"-X c #978569",
";X c #9D9A65",
":X c #9C8B72",
">X c #9B8A75",
",X c #9F9275",
"<X c #8C9B62",
"1X c #A69E69",
"2X c #A58E71",
"3X c #A5927B",
"4X c #A69977",
"5X c #AE8D71",
"6X c #A6A76A",
"7X c #ACA874",
"8X c #B2AC79",
"9X c #B7B57A",
"0X c #ABB267",
"qX c #9DAB62",
"wX c #C1BB7F",
"eX c #97C74A",
"rX c #A6D953",
"tX c #AACF5E",
"yX c #B6C774",
"uX c #C9E27D",
"iX c #AB9B84",
"pX c #B29D84",
"aX c #B7A68A",
"sX c #BCBC82",
"dX c #BCAD93",
"fX c #BBB193",
"gX c #AFA288",
"hX c #C5B799",
"jX c #CCBCA2",
"kX c #C2B3A0",
"lX c #D2BEA3",
"zX c #C3C387",
"xX c #C9C892",
"cX c #C2D196",
"vX c #D3FD81",
"bX c #D4C6AA",
"nX c #D7D0A3",
/* pixels */
"K.s.U.K.E.E.u.U.E.K.s.s.h.s.d.s.M.h.g.d.I.I.K.E.E.P.P.I.U.w.I.g.j.j.I.s.g.T.I.s.j.j.Q.T.j.U.K.d.d.s.W.T.U.U.s.T.$XQ.d.U.E.T.E.^.",
"P.h.s.g.I.u.Q.U.U.E.s.E.(.T.n.K.U.^.E.K.I.U.U.U.U.Y.K.K.M.w.I.I.I.g.u.T.I.a.s.Z.U.$X$X(.W.U.E.U.I.d.T.U.U.E.u.k.h.h.s.U.U.(.E.f.",
"T.T.^.I.u.U.T.U.U.U.k.T.^.Y.M.E.E.E.(.I.r.d.g.Y.P.E.E.M.s.I.d.s.s.j.I.$XE.E.s.E.E.W.W.T.U.P.I.U.I.s.g.U.^.n.M.U.U.I.I.s.d.u.d.E.",
"I.T.P.P.d.T.U.I.E.u.g.U.Y.M.d.I.U.f.h.K.$XE.K.M.i.i.d.i.Y.$XE.s.#Xj.I.U.T.I.I.g.Q.(.Q.K.U.E.K.d.d.T.I.s.M.d.E.E.I.U.E.u.Y.K.U.E.",
"I.T.g.u.u.s.M.M.u.T.U.K.U.E.u.M.K.K.E.U.E.E.K.I.f.P.U.I.I.s.h.s.g.g.j.I.W.$XI.T.g.E.E.K.s.h.j.E.T.I.I.I.u.h.^.K.P.P.Q.i.K.E.U.T.",
"g.d.K.T.U.I.d.d.I.E.K.P.U.E.i.P.L.T.U.T.^.L.E.h.U.U.T.$XT.T.M.g.U.T.j.E.T.U.E.I.d.d.d.P.g.s.s.g.I.E.$XE.T.h.Y.Y.T.L.(.P.i.j.U.U.",
"Y.Y.(.I.(.(.E.i.g.T.T.P.E.U.i.W.(.P.E.(.^.T.s.T.E.T.^.(.I.g.U.r.U.T.I.T.E.s.g.h.Y.d.E.U.U.I.I.Z.s.s.T.$XT.g.s.I.(.E.(.M.I.Y.d.I.",
"d.h.s.T.(.(.E.E.s.T.E.T.E.E.u.u.i.n.i.i.n.i.^.Y.K.U.I.I.j.I.U.U.g.M.T.h.g.T.$XR.Y.d.Y.~.C.T.M.Y.I.I.C.s.s.I.I.r.i.f.u.d.h.g.r.^.",
"I.I.M.s.h.I.f.h.h.h.T.E.^.g.P.W.d.E.U.P.f.u.^.(.Y.U.T.U.K.K.T.M.M.I.g.g.K.T.#X~.~.y.b b ] z.Y.T.T.T.E.i.K.P.K.g.d.g.d.Y.U.I.d.^.",
"T.Y.T.^.T.u.I.K.U.u.K.f.u.j.L.d.s.Q.K.K.K.E.g.d.Y.^.P.P.Y.m.t.m.t.m.B.a.B.G.G.x.R R _.).S.b z.C.E.Y.!.t.B.M.P.K.d.u.Y.K.I.I.U.h.",
"E.U.E.T.g.K.P.P.I.i.h.s.U.P.P.U.f.(.E.K.U.E.E.^.P.t.n.B.z.C.G.J.x.c.3.v.p p + < 4 iX:X_.2XpX' l.x.x.3.' ` l.b.Y.M.d.I.I.E.j.L.K.",
"j.E.K.I.s.M.L.P.K.M.h.P.K.T.U.L.s.f.K.U.U.I.K.K.B.z.y.3.] b [ p y j j c c x x x 6 7 #.l E A.+ 4 t 4 2 >X2X2X] b.b.M.K.K.K.U.U.U.",
"g.j.P.g.u.T.L.K.K.i.K.L.U.U.P.K.U.g.g.M.n.i.t.b.c.O.j h z h h 7 z x c w w 6 k P 2 o 2 8 6 3 w h j h 5 <.D._.l.y.M.d.P.K.K.P.Q.W.",
"I.j.j.s.u.K.Y.P.L.u.L.K.Y.K.P.E.U.I.n.P.Y.!.z.] y j h 0 5 0 6 z x z 6 6 6 k P 3 8 ( z x e 5 0 w z < 2 y s r d p.M.i.d.s.K.T.K.g.",
"K.u.h.E.T.i.K.P.K.u.T.K.K.U.E.(.E.M.z.!.x.O.j h h 0 5 5 0 x m e 0 0 1 1 P P 3 8.9.2 0 0 0 1 5 6 < / ] H.G.M.B.t.M.P.U.I.u.u.f.E.",
"s.Q.E.W.U.k.u.i.i.w.u.u.d.P.f.i.u.B.%.' j c w 0 5 q q z m x 0 6 0 1 5 ~ c 3 1.( < 5 5 5 0 1 O 2 8.+.%.!.T.j.i.r.K.I.E.U.g.f.E.E.",
"d.E.U.E.L.L.d.M.T.U.E.U.u.s.T.^./.@.y ^ h 7 5 0 e ~ m m w 5 0 0 w 6 P P O + o 2 0 5 0 e z O u :.+ @ M b.d.d.I.I.I.s.i.d.u.(.E.U.",
"P.f.U.E.f.f.i.d.h.U.$XM.h.T.Y.G.&.j q 5 7 ( 5 z e e 0 0 0 q ( 0 1 ~ k . 4 1.< 5 0 5 e 6 = #. .:.oXa %.&.d.K.I.g.I.K.g.i.d.^.T.U.",
"I.K.s.s.h.K.K.L.g.r.s.a.(./.J.O.j q 5 ^ 9.1.7 x e e 5 0 6 o 0 1 P P % < + <.c 2 q w & % 2.x.H.S +Xp.A } y.R.I.E.E.T.U.j.r.M.U.K.",
"I.s.u.j.U.j.L.T.j.M.d.h./.B.f j 0 0 q c q z c m 0 0 e 0 ~ 0 1 P ~ 9 0.3 p T 5.2 z 1 % _ ;.g F ..J +XV.R s v.Y.I.j.T.k.T.^.u.M.U.",
"T.w.j.U.U.U.Q.U.T.I.u.r.b.f y n q e e e z x x 0 w e e e w 6 P ( N <XxX7XW 4 c X % _ 8 * >.&X>.F & a a - i - C.E.P.(.P.E.^.u.E.P.",
"u.L.U.U.T.j.j.U.j.T.$Xh.m.!.z.3.h h 5 e z z 0 q e x e m 0 6 ( N % 9 oX9X9X#.% a =X;XW * >.-.XXOX..! F.3XkX@.] B.U.U.E.$XP.r.i.n.",
"s.K.U.U.j.Q.U.W.U.T.^.r.Y.M.y.y.' 1.h m x 5 q x e x e e 1 e ~ % k 3 & ! *X6X9 W 6X7X7.-.zX>.Z XX ...8XnXbXdXt x.!.P.T.E.r.K.L.L.",
"I.j.j.U.j.U.j.U.T.$Xs.s.g.M.M.B.3.j c c q 0 z z e e I 6 6 ~ < 6 c 8 a : J  X: Z > D Z , *.A $ $ C qXsXhXhXbX:Xb } z.Y.r.g.f.k.K.",
"j.k.Q.Q.L.U.U.^.^.d.K.M.k.K.I.G.y z x 0 0 e ( 8 z e e 6 Z P ~ ).+.-X8.V.C > $ . D <Xu a * Z G -.L 0X0X;XF.fXjXbXD.f y.P.r.i.K.K.",
"K.L.Q.U.E.I.K.U.t.d.M.g.K.L.C.` t m 0 0 w ( ( e w w w 6 ~ 9 5.gXjXgXOXOXoX; : ; ; 7.q.* :.XXXXXX,.].uX].: _ 7.fXjXA.] B.m.i.i.K.",
"T.U.U.U.K.T.K.u.K.e.g.M.K.Y.N.@ h z 0 e w z e e 8 e 6 w I % . c q.;X;X6XY # D J D N ! , } %...Z C C 0X@X*.cX<X=.0.-Xj J.m.M.w.u.",
"w.u.u.s.u.w.u.P.k.K.u.f.L.Y.c.@ z 0 e z z z z q ~ w 6 e P 3 % Z Z > -.,.# N [.`.V B }.! v.v.V.A 8XS N }.}.}.<X! q.hX2.b z.t.d.Q.",
"s.j.W.P.g.I.L.L.f.k.d.u.Y.!.x.+ i 0 x z z z w < ( 8 0 ~ 9 k I V.+X$ > -.*.|.tXeX{.V J S :.a.J p.7X..%.* $ , 6.fXgX1.<.).b l.Y.Q.",
"E.h.^.E.u.j.P.K.K.u.i.~.C.$.j 2 >X1.x w x i 3 % ~ 9 8 ~ 1 & , <X@XK J yX*.yXuXrX.XK V S g.Z.G wX1X..%.p T 4 E 5.hXiXc T :X' P.T.",
"P.w.d.f.u.d.P.M.u.T.Q.^.c.' l i kX).c 4  .! o.i w w P ~ &   & <X'.'.'.yXJ yXvXrXrXK D S XXT.X.:.9X .E _ l - R X o.).3X8.iXb !.L.",
"s.W.(.E.E.u.d.i.T.L.U.Y.c.3X1.l ).D.8.hXzXOX%.D.6 w I & % & $ }.].H ,.*X,.*XrX.X{.H C Q C.Y.Z.F :.8XY u I o.4.o.2.p #.i j @ !.^.",
"u.K.Y.^.^.^.u.K.U.U.P.!.@.pX-X4 4 T =XnX8XS #.<.8 w I 3 7.& , 7.@XN J *.].K '.K V J * c.R.Y.B.a.A >.7Xg u / 4 J.v R F.4 F.@ n.i.",
"W.j.s.g.f.u.f.E.P.U.Y.c.).lXdX:.4 O a aXwXL A o.6 w I * oXZ 9 Y +X> *.> |.D B N ,.>.X.p.T.g.u.m.m.A +X;X* q.R 2.:.3.] [ 6.r M.E.",
"E.E.U.s.K.E.M.d.Y.N.b -XlXhXhX-X+.4 X W 6XyXS Q 7 8 k , ! 7.% I >.-.} >.S -.C :.Z.&XZ.g.s.s.U.Y.U.%.* 4XV.* A.d B.b.m.B.f | K.E.",
"U.I.u.I.T.T.E.g.y.&.b _.hX-X=XF.4.j 4 @.W 1X7X..9 W Z _ Y #.y 5.Y V.#.v.;.A r a.d.I.I.s.R.T.E.$X^.~.l.A 4XY o.d ~.U.Y.!.b.t.K.^.",
"U.d.P.Q.I.Y.~.z.x.o.).1.2XH.2.p i k 7 c 4 Y +X0XZ I 9 8 E 4 = b v.U o.s v.&.f | j.w.s.M.j.$X$X$XW.^.!.&.2.4Xu - R.U.U.U.T.g.i.s.",
"u.i.W.T.Y.^.G.s dXlXjX/ v O.t v 5.c < o 8 X -.hX7XZ 9 . % 7 + 2.$.a.s r g !.!./.$Xg.s.R.E.$XW.W.E.I.Y.!.{ x.F.f g.U.U.U.E.i.g.T.",
"s.j.U.E.B.c.U 5.bXdXdX).y + ' p 3.) 7 5 w % ,XnXxX! 9 1 O = 4 %.C.B.z.p.| Y.(.(.$X$Xu.U.U.$X$XE.U.K.K.U.G.} } $.a.s.K.K.s.s.E.U.",
"d.M.T.B.U @.pX/ aXpX2.b j 2._.2.7 +.i 4 % N 0.aXsX-.& % = s y N.#Xg.K.Y.K.I.P.P.j.E.j.h.E.j.$XE.I.I.T.E.m.p.p.R.E.g.i.R.u.T.E.I.",
"u.t.m.l._.bXdX).v @.g x.p 2.+.t o + 2 3 7.7X. a >.>.Y %.X.{ $.a.Y.g.U.M.M.I.I.T.T.W.I.I.g.$XE.T.U.K.g.d.f.T.T.Y.g.Z.n.r.i.U.E.K.",
"Y.B.M A.o.dXD.U v ] l.%.A.<.i 2.D.-X3XhXxX7XQ - S G %.G.R.^.Y.U.d.d.I.K.g.g.I.I.%XE.U.$Xg.h.g.T.s.u.i.T.T.T.(.P.E.$X(.P.u.f.T.U.",
"J.{ F.pX7 o.d %.B.Y.G.] hXdXo.X ^ c 2.D.D.! p [ XXa.Z.U.^.(.T.U.K.s.^.I.I.I.U.E.Y.Y.^.R.s.g.s.s.g.I.h.w.s.g.f.U.$XW.W.E.U.u.T.E.",
"H.O.hXx.y x./.B.M.P.!.$.R gX=Xx iX2 3 O = - p U X.&XE.E.(.W.K.U.E.h.g.I.T.U.E.U.T.g.d.d.Y.R.s.I.I.T.j.I.g.d.s.h.T.%X(.Q.^.M.i.E.",
"F.O.2.v a.m.!.^.T.Y./.!.t 1.3X2 _ 2 2 2 ^ E y.!.C.T.T.E.E.U.I.g.K.K.s.s.s.s.f.M.h.g.Y.d.h.g.d.^.E.T.E.I.I.I.U.h.u.f.j.K.d.d.g.i.",
"[ pXO.[ C.d.U.E.^.!.!.!.+ j >Xc 8.w o 3 ( y #XY.B.I.U.I.U.I.j.U.I.U.a.I.Y.T.P.g.I.R.T.E.E.I.s.K.T.j.U.j.U.U.I.I.T.P.i.w.P.K.P.u.",
"o._.g z.d.t.n.~./.&.| H.v O h y 1.h o 2 h t /./.I.U.U.U.U.K.g.j.I.U.a.M.I.g.M.h.$XU.$XE.U.E.g.K.$XU.j.j.j.W.W.U.T.W.g.u.j.P.Y.g.",
"b p $.b.Y.M.u.d.y.M f @.2.i 1./ O 2 O t t ' b.(.^.E.E.U.K.I.j.g.U.h.r.Y.R.g.^.s.T.$X$X$XW.U.^.h.E.$Xj.j.Q.U.U.U.U.E.d.M.I.K.M.U.",
"M | b.U.L.T.w.M.l.O.j n / D.>X4 3 X l o.p &.b.s.h.(.E.Y.P.P.E.M.e.M.f.i.K.P.h.u.U.U.W.E.(.U.E.s.U.E.T.I.j.T.U.U.U.U.s.M.I.I.K.I.",
"G.t.M.P.j.f.s.m.y.@ 2 2.T 5.T 5.^ i / f r /.^.K.j.w.P.E.E.E.s.s.g.M.b.i.d.i.(.u.U.I.$XT.K.I.h.s.s.T.T.g.j.k.U.U.I.j.r.h.T.Y.j.U.",
"d.K.Y.K.K.U.i.t.%.@.4 o c i ^ c / p &.{ t.~.E.I.(.E.u.d.u.u.h.U.I.I.U.U.P.s.P.g.h.U.(.I.(.%X(.(.s.T.T.g.g.k.f.K.K.K.u.K.U.K.k.j.",
"r.B.P.Y.P.P.U.t.x.{ R +.1.iXn 2 = [ !.Y.Y.Y.T.j.T.U.i.i.P.I.g.U.g.T.K.j.U.E.n.i.s.U.E.E.(.$XW.E.s.I.E.T.I.j.k.M.K.g.r.d.E.P.L.j.",
"t.T.T.j.K.U.M.r.B.z.d 5.4 ^ l 8.<.` ~.Y.E.E.d.f.u.t.t.P.T.n.U.T.j.E.U.U.U.I.U.U.s.j.s.T.E.(.W.E.g.s.M.E.T.I.I.M.P.i.M.i.d.T.T.K.",
"f.T.L.j.j.P.d.g.I.Y.N.[ R = t c i d t.u.u.t.r.t.Y.g.m.E.U.L.j.k.j.U.U.U.T.P.Y.E.g.g.M.E.^.E.U.s.r.g.h.s.g.I.U.M.i.f.L.E.j.i.K.L.",
"d.E.K.U.j.U.u.K.I.g.Y.C.v.f 6.H.] M B.K.U.Y.P.d.I.u.K.E.P.U.U.K.U.W.U.U.Y.Y.Y.Y.r.r.d.M.Y.M.u.e.g.T.T.j.s.d.f.s.K.U.E.E.L.i.r.K.",
"i.d.U.P.K.K.r.K.g.j.K.M.Y.%.F b d z.P.Y.E.I.Y.P.a.d.(.T.U.L.K.U.j.j.j.U.M.^.M.r.s.R.M.d.u.d.d.i.E.U.U.T.T.s.r.d.T.W.W.(.Q.L.i.r.",
"E.s.i.U.P.n.u.U.I.j.P.P.E./.B.B.B.t.P.(.U.Y.U.U.I.u.U.P.j.U.P.U.(.U.I.T.I.d.w.M.T.K.I.I.g.d.Y.U.h.j.j.I.E.R.g.s.T.E.U.U.I.K.T.u.",
"L.i.t.d.P.f.u.f.u.s.L.U.L.P.g.t.b.d.i.U.(.^.P.U.T.u.g.I.K.f.K.L.T.T.g.s.r.h.U.W.E.j.P.I.P.f.E.E.U.g.g.g.K.E.E.g.u.T.U.T.E.K.K.e.",
"U.f.f.e.e.u.i.f.K.w.u.u.i.i.f.n.i.i.h.w.i.M.f.u.r.u.d.a.T.T.P.P.U.i.t.h.U.U.U.E.T.U.E.U.f.s.U.T.I.E.T.j.I.T.$XI.K.i.K.T.L.h.i.f.",
"U.K.P.i.P.T.I.E.T.I.u.g.U.^.(.E.M.r.U.P.u.u.M.P.d.K.Y.m.r.g.i.M.d.r.K.K.K.K.U.U.T.U.K.K.P.u.^.(.E.E.I.I.g.I.I.g.j.L.s.k.s.s.U.K.",
"j.M.e.u.P.E.U.E.U.j.u.U.E.W.E.(.f.u.r.i.K.I.T.K.U.g.P.M.r.B.f.u.w.h.I.M.K.I.U.W.U.U.I.U.U.w.Y.R.I.U.$Xj.U.E.U.U.T.T.M.u.s.j.K.j.",
"d.g.K.P.s.i.P.(.j.s.j.E.L.T.j.E.d.u.K.P.I.L.L.L.P.U.P.f.r.B.P.P.s.M.T.T.K.j.W.U.(.E.I.T.I.s.T.T.T.E.$XE.U.W.U.U.T.P.u.e.K.P.U.j.",
"k.K.f.L.T.s.u.s.w.g.(.W.T.K.Q.K.u.U.T.Q.U.K.K.K.K.U.U.E.i.M.R.d.d.t.h.T.I.T.E.W.^.U.g.u.t.s.I.T.U.U.U.j.P.L.U.E.E.^.r.i.L.E.I.U.",
"j.j.k.K.K.Y.r.g.g.j.(.E.L.(.k.u.K.I.Q.K.f.K.K.K.L.j.U.L.g.d.f.g.T.Y.h.s.U.T.U.E.K.d.r.r.B.g.h.T.T.E.U.j.L.U.E.L.K.i.u.K.I.K.U.E."
};
