/* XPM */
static char *_1679389454[] = {
/* columns rows colors chars-per-pixel */
"64 64 235 2 ",
"   c #1A1D00",
".  c #231501",
"X  c #241B02",
"o  c #2B1C04",
"O  c #2B1D0B",
"+  c #291704",
"@  c #341B04",
"#  c #2A1F11",
"$  c #1E2400",
"%  c #2B2303",
"&  c #2C2A01",
"*  c #2C210B",
"=  c #242800",
"-  c #322C02",
";  c #33230D",
":  c #3B240C",
">  c #342B0B",
",  c #382505",
"<  c #2A3600",
"1  c #343402",
"2  c #3A3608",
"3  c #2D2213",
"4  c #332513",
"5  c #352A14",
"6  c #3A2A14",
"7  c #352A1A",
"8  c #3B2C1A",
"9  c #352717",
"0  c #3D3414",
"q  c #3D311C",
"w  c #3A2D22",
"e  c #3D3322",
"r  c #411F00",
"t  c #45280B",
"y  c #463808",
"u  c #432C13",
"i  c #4A2E12",
"p  c #422F1B",
"a  c #4C3314",
"s  c #443D13",
"d  c #43321C",
"f  c #4B341B",
"g  c #443B1D",
"h  c #483816",
"j  c #543315",
"k  c #52351A",
"l  c #543A1D",
"z  c #593A1A",
"x  c #542E0F",
"c  c #633B1A",
"v  c #423423",
"b  c #443A25",
"n  c #4B3B24",
"m  c #43362A",
"M  c #463A2A",
"N  c #4C3D2A",
"B  c #4B3725",
"V  c #533D24",
"C  c #573D26",
"Z  c #4A3C30",
"A  c #603F20",
"S  c #3C4606",
"D  c #3C5201",
"F  c #3C6000",
"G  c #464508",
"H  c #494619",
"J  c #58461A",
"K  c #4B5716",
"L  c #54571A",
"P  c #4B5006",
"I  c #64461B",
"U  c #625C1E",
"Y  c #466706",
"T  c #536A14",
"R  c #65761D",
"E  c #4C4224",
"W  c #4C4627",
"Q  c #5D4224",
"!  c #53432D",
"~  c #554A2B",
"^  c #594728",
"/  c #5C5C23",
"(  c #595627",
")  c #4D4131",
"_  c #524433",
"`  c #5B4B33",
"'  c #594A38",
"]  c #5D5439",
"[  c #644425",
"{  c #63462A",
"}  c #6C4C2C",
"|  c #684927",
" . c #714D2A",
".. c #685528",
"X. c #75542C",
"o. c #664C33",
"O. c #714F32",
"+. c #6D5436",
"@. c #65553D",
"#. c #665839",
"$. c #73563B",
"%. c #735B3D",
"&. c #7B5A3B",
"*. c #785535",
"=. c #5E6329",
"-. c #636527",
";. c #686537",
":. c #76663C",
">. c #757539",
",. c #6A7431",
"<. c #5D5140",
"1. c #6B5C45",
"2. c #685A47",
"3. c #735D43",
"4. c #7C5F40",
"5. c #6D6547",
"6. c #74634C",
"7. c #7C664B",
"8. c #726A49",
"9. c #776646",
"0. c #7A7747",
"q. c #7B6A53",
"w. c #786855",
"e. c #7D7255",
"r. c #8D5A2E",
"t. c #8B572E",
"y. c #8E5B33",
"u. c #825E3B",
"i. c #8C5E39",
"p. c #925E34",
"a. c #935F39",
"s. c #905B2F",
"d. c #8B623C",
"f. c #86683C",
"g. c #946136",
"h. c #986336",
"j. c #95633A",
"k. c #9A653B",
"l. c #9D693E",
"z. c #95683F",
"x. c #827139",
"c. c #A16C3E",
"v. c #A1673E",
"b. c #815E42",
"n. c #856242",
"m. c #8C6543",
"M. c #8B6A49",
"N. c #876847",
"B. c #956944",
"V. c #9D6B42",
"C. c #946D4B",
"Z. c #9C6E49",
"A. c #956642",
"S. c #877649",
"D. c #9C724C",
"F. c #977348",
"G. c #876E53",
"H. c #906E52",
"J. c #83715A",
"K. c #897559",
"L. c #9C7452",
"P. c #987957",
"I. c #A36E43",
"U. c #A76E48",
"Y. c #A57145",
"T. c #A97346",
"R. c #A5734A",
"E. c #AA754A",
"W. c #AD794D",
"Q. c #A4784F",
"!. c #B17C4E",
"~. c #A37652",
"^. c #A37A54",
"/. c #AD7B51",
"(. c #A67C59",
"). c #B27D52",
"_. c #8B7A64",
"`. c #927D64",
"'. c #79883B",
"]. c #6A9425",
"[. c #618D14",
"{. c #7C834E",
"}. c #85B332",
"|. c #8B933E",
" X c #8A8C49",
".X c #8A8855",
"XX c #96885A",
"oX c #99935B",
"OX c #8E964B",
"+X c #AE8259",
"@X c #B48153",
"#X c #B58258",
"$X c #93B54D",
"%X c #8E8265",
"&X c #9A8D6B",
"*X c #958667",
"=X c #999766",
"-X c #9E8D74",
";X c #968571",
":X c #9D9473",
">X c #A2996A",
",X c #A38D74",
"<X c #A59578",
"1X c #AD8F6F",
"2X c #A6A769",
"3X c #ADA777",
"4X c #B3AD78",
"5X c #B8B97A",
"6X c #B3B069",
"7X c #A0AB5C",
"8X c #89C040",
"9X c #A7D654",
"0X c #B8C477",
"qX c #C3DF79",
"wX c #C8F276",
"eX c #AB9D83",
"rX c #B29F88",
"tX c #B5A78A",
"yX c #BDBA85",
"uX c #BCAB92",
"iX c #BFB894",
"pX c #C1B889",
"aX c #C2B29C",
"sX c #C7B597",
"dX c #CABBA2",
"fX c #D0BCA1",
"gX c #BEC188",
"hX c #C3C483",
"jX c #CCCB96",
"kX c #CAD78D",
"lX c #CDC3A5",
"zX c #D4C4AA",
"xX c #D6CAAC",
"cX c #D3D5A5",
"vX c #EEFFAB",
/* pixels */
"I.j.T.I.W.E.h.T.W.c.j.j.j.g.h.g.l.h.l.h.Y.Y.U.E.E.T.I.T.Y.y.Y.V.I.V.D.j.l.Y.R.j.I.V.W.c.c.T.T.k.j.j.).T.T.E.p.E.@XW.j.R.E.E.W.!.",
"U.j.g.k.Y.g.W.c.c.W.j.W.@XQ.z.c.Y.@XW.V.Y.Y.R.E.T.T.c.I.V.g.Y.Y.I.l.g.E.Y.p.g.I.Y.@X@X!.!.!.T.R.U.h.T.T.T.E.h.k.j.j.p.R.E.@XW.h.",
"E.T.).U.r.T.T.T.@Xc.c.W.).R.l.W.W.W./.Y.g.g.l.I.Y.Q.W.l.g.Y.l.s.h.T.I.W.W.W.g.!.E.).).T.T.T.R.R.U.p.k.W.W.V.l.T.T.T.T.g.h.p.h.!.",
"T.W.I.U.h.W.Q.Y.T.h.c.T.R.I.h.Y.R.l.j.Y.).W.I.I.g.g.g.g.T.W.W.g./.I.I.T.R.Y.I.l.W.@XE.T.T.E.I.a.j.E.T.p.I.h.W.T.T.T.E.p.T.I.T.T.",
"T.R.V.a.a.p.V.l.p.T.T.I.T.E.a.V.V.T.E.Y.W.W.V.R.j.Y.E.I.Y.g.h.g.l.l.c.T.!.@XY.E.V.Q.T.I.g.j.I./.E.U.Y.Y.a.j./.U.Y.T.W.j.I.W.W.E.",
"l.j.V.E.R.T.g.j.T.W.I.T.T.E.g.Y.T.T.T.E.W.R.W.k.Y.T.E.).T.E.l.l.T.Y.Y.W.W.Y.@Xc.z.j.a.I.l.y.a.V.I.W.@XW.E.j.U.E.E.T.W.I.a.I.R.U.",
"R.R.).U./.).W.g.v.T.T.c.E.T.g.W.).U.W.W./.E.g.T.W.W.W.).Y.c.T.g.Y.W.R.R.W.j.z.z.R.B.(.R.R.T.I.I.j.g.E.).E.k.p.U././.!.l.V.T.j.T.",
"j.j.h.E.@XW.E.W.h.E.W.E.!./.a.y.g.g.g.g.V.a.!.R.I.Q.R.R.F.D.R.D.z.D.Q.j.C.L.L.f. .I | X.Z.Q.I.T.R.T.R.a.h.T.T.y.j.j.g.g.j.l.y./.",
"T.Y.Y.p.k.V.k.j.j.j.E.W./.V.I./.j.E.T.I.V.y./.+XQ.R.~.L.N.N.H.N.M.C.O.Q A ^ C @ *X>X1X| I U.U.E.E.E.E.j.l.Y.Y.j.j.V.h.T.T.T.h.W.",
"E.Y.T.W.T.a.T.I.E.p.V.j.g.V.U.j.h.E.U.I.I.~.k.d.M. .$.b.3.P.,X,X,X*X*X`.3.N 8 w.3X*X&X<XC L.Z.R.E.~.Z.i.F.Y.c.Y.g.a.U.I.U.U.T.h.",
"W.T.T.W.l.Y.I.R.R.a.k.j.Y.Y.U.T.k.).E.R.L.*.{ 9.3.7.K.K.3.2.~ N 8 8 ` 9 . 8 *X_ 5.] ] 9.{ Z.V.V.n.{ O.+.+.C.V.Y.l.j.U.T.T.I.U.U.",
"c.T.Y.Y.a.l.T.U.I.I.j.Y.Y.T.T.Y.p.A.~.C. .i u 6.8 8 ; 6 4 9 6 q <._.@.q.4 ;Xe.' 4 eX2.% N.M.M.d.f &XsXtX,Xi D.I.j.V.U.I.Y.T.T.T.",
"l.c.Y.l.j.E.U.k.I.p.I.I.Y.T.c.T.~.n.b.N.J.1.O 9 8 v e d 4 q 6._.q.J.*X@._ m 3 X e e e e b q 6 > d @.7.9.`.t V.I.V.h.U.I.I.Y.W.).",
"Y.c.v.g.y.T.T.I.Y.p.T.I.R.D.R.L.&.$.*X@.; 9 w Z _ w 9 8 2._._ d :XJ.@.<X' > e.= 7 w e e m e e M N d Q J z [ j.k.k.p.h.a.c.T.I.I.",
"T.p.h.W.T.p.I.U.I.s.E.V.V.C.&.9.G.` 4 9 B _ <.e 7 3 e _.' 4 @.%X~ 8.&XH & oXq e e e w w M M w e _ u L.D.c D.R.p.I.R.W.U.p.s.k.T.",
"a.W.W.!.U.V.p.a.a.p.i.i.u.i q.3.; 8 v _ ' <._ 3 7 2.2.+ 3 N :X5 5.%X& & *X8.> 7 7 w w Z m 8 b ' 9.} ~.R.Q.V.a.y.V.Y.E.E.h.I.W.W.",
"a.W.E.E.T.T.j.k.R.R.^.&.G.` v 4 p N ' m Z <.N ' 1.M 4 9 p 6.0 @.&X> S =X0.= 7 7 w w m w 7 v ~ XXj F.C.j.l.h.Y.Y.Y.g.h.a.g.).E.T.",
"I.v.T.E.k.h.j.j.z.~.} 3.~ 4 9 p N B m Z <.M 2.2.5 9 8 8 6.d 6 %X= ( =X] * 5 7 w w m w 8 8 M .X..F.Q.V.p.k.c.Y.l.Y.Y.k.j.g.).T./.",
"U.I.a.g.h.I.c.Y.m.C C ; 9 9 p o.3.` N o.' w.w 9 9 9 q w.p 5 5.2 =.2Xg = 7 7 7 e Z w 7 m E ' ^ f.D./.l.g.T.T.Y.E.W.E.T.I.p.V.U.V.",
"R.j.y.I.Y.Y.Y.D.j @ : : 6 u 3.1.o.p B Z w.9 9 9 9 3 6.d > ` 9.H .XH 8.X   3 7 N w 7 e N 5 > j *.^.R.i.R.E.c.W.Y.I.T.k.T.W.a.V.R.",
"T.r.l.T.Y.R./. .t { &.C { N.C ' N ' o.v 7 9 3 9 9 ) ! > 0 .X> > > 0 & W O 9 ) 9 7 w m 4 ~ h a , ..N.[ C.U.T.Y.T.T.!.Y.W./.g.E.V.",
"g.c.Y.T.T.T.Z.x C.^.(.A.C.H.B <.m ' _ 9 M 8 9 3 8 w.* > .XK 3 3 > 8.&Xe.; q @.^ 9 e v e ~ +.9.[ S.y z [ Z.R.R.c.c.W.T.!.Y.r.j.V.",
"h.c.Y.Y.Y.T.T./.R.^./.y.~.$.' ) v 9 N B 6.N q 7 w.9 > b 0.= q 5 ; < 0.gX=X0 % 7.5 7 M q h %.M.d.x.oXJ ..O.^.R.Y.T.Y.W./.r.Y.Y.I.",
"c.c.Y.T.c.I.E.T.W./.j.j.C.O.C o : ^ { $.+.f N ) ) = > 8.0 * 5 3 q W 1 / 4XoX% ` ] 4 e 9 % ^ C.f.J x.oX( { k C.^.Y.c.T.p.l.l.l.V.",
"c.c.W.W.T.E.U.E.).h.c.V.Z.&.@ @ | C.C.L.&.3.@ Z # O 8 6.* 3 3 7 5.;.] < -.2X0.s v * q % W 0.U J y o ( g @ ` l &.^.R.p.I.p.a.v.U.",
"c.T.W.T.W.T.I.T.p.g.c.l.I.c | L.~.V.y.i.*.t @ 3 8 m 5._ 3 3 7 e 5 5 ' > <  XyX#.H ~ tX=X1 / oXoX0.^ ( S.eXzXw.f u.d.A.I.I.y.a.I.",
"T.T.T.T.I.T.I.p.V.r.j.l.U.^.V.Z.R.T.a.j.Z.$.+ 7 e ) 5.3 * 3 9 e 7 e q % & / 3XG S W 3X7X-. X-.-..X0.1 3XxXzXlX' f :.R.V.A.I.t.a.",
"s.p.g.g.p.p.p.I.V.l.g.l.U.E.E.I.U.I.d.L.L.O.+ 3 # 3 9 3 3 7 7 e 3 7 W e.<X] S $ 2 1 G P G L 0.- 1 1 >.qXpXuXlXlX-X+.{ Z.I.s.a./.",
"h.I.W.U.V.U.Y.I.l.l.g.p.T.T.Y.Z.V.Z.C t G.3.m ) 3 X 3 e 2.= e ' 2.fXxXpX&X<X>.& < $ =.=Xh :...@ y S 7X|.yX5.0.:XsXzX;XA i.U./.E.",
"E.a.W.W.p.c.I.c.I.y.g.W.T.l.j.j.a.*.@ @.+ u uX_ Z X 7 dXw.W %X5.d `.3X=XXXoX=.1 =.K =.%XS.^ .. XoX>.|.|.5XL ,.0.;.*XuXf b.~.V.Q.",
"T.s.h.V.a.k.I.I.g.W.E.W.).W.T.R.U.*.V dX^ % q ' _ . ' iXW 8.jX.Xo > H .X>X2X= < =.F R K H ( f.I z 2 P ..6X X{.cXe.0 tX-Xv i C.R.",
"p.!.).E.E.p.j.a.W.Y.Y.E.E.U.I.R.L.$.3.xX-XE E 9 # X 0.=X  ] gXS s ;.{.$ $ = < '.8X].Y D =.2  XF.:...sXs < =.=.S 8.lX1.6 2.rXz P.",
"g.l.T.!.).E.a.U.T.T.Y.T./.W.U.Z.N.@ q.tXd q 0 8.g % .X>.X e.=X= L =X XT P 0XL kX9X9X].F T G F.f.X...>Xi S.J d d ~ :XlX,Xn _.+.M.",
"W.c.p.v.v.h.k.E.Y.T.!.E.).~.~.j @ 4 w.<X6.0 -.#.E & {.>.1 {.>.$ < =X>.].Y 0XL vXwX9X8XY K J f.B.U 3X>XH $.V ! 4 N o ` `.eX&X^ 4.",
"E.).T.p.I.E.I.p.Y.l.j.j.U.j.b.o.eX8 ) aXb #.2X6XJ :....X2 ;.>.H oX=X].R R 5XY qX9X8X].Y G ..R.D. .:.pXx.J K.N d G.+.G.E 3.p +.C ",
"T.R.p.I.E.E.T.v.r.Y.W.R.i.D.N.o.eX4 E 8.) xXjXOXy XX..=X& ( .X1 =X{.{.D R '.R $X}.[.F D G ^.W.@XXXU I 4X=X, 6 ! , 7.u $.{ k K.i ",
"R.g.I.).T.T.T.h.I.W.!.).y.d.n aXuX%.B % * :XjX>.J P.S.j q % .XG 2 W OX< L S '.S P P L J ..+X@X@XW.W.f.y oX4X1 0 q.a L.| A b.k O.",
"p.g./.T.E.W.T.h.R./.).(.&.&.sXsXzXeX` d * 6 2XpXX...P.%.* q ;.,.q 5 .X/ 0.=.,.K L >.x.L.W.@X!.!.T.T.F.F.y S.4XH E 7.} (.^.m.*.(.",
"g.V.Y.W.R.E.E.a.A.C.N.$.^ J.3X&X*X*X*X1.; 4 0 .X5XU % > #.% > 8.5 5 0 .XJ S.....J XXd.Q.W./.#X!.T.c.Y.R.F.y %.tXn o.@ Z.b.A./.U.",
"h.V.W.R.R./.B.i.H.j `.rXaXC rX*XH.^ 6 @ v 8 . u oX5XK ;.( > X ; d X ^ J ..} P.| @ m.R.g.E.T.).E.T.T.T.W.z.d.t +.eXl @ (.a.R.E.U.",
"p.y.V.~.P.u.C o.$.@.fXsXsX@.V w.n u K.K.B 9 + . H >X5X1 > u 0 d : i P. .k t *.D.R./.T.Y.h.@X!.E.T.I.l.j.j.Q.^. .Q M.| i.a.U.W.U.",
"R.R.m.*.j a aXfXtXB dX,X<Xq.+ O X o u o.+ 9 8 o E jXkX.X:.{ t : j N.D.F.n.j c U.#XW.Y.!.l.l.c.E.j.p.p.T.W.W./.D.M.z +XD.p.A.T.T.",
"D.~.&.$.tXN rX,X;XC 1.@.i : V aX8 q *XN 8 d > ;.W tXqX6X..+XQ.E.Z.i./.Y.R.R.E.W.E.Y.W.W.g.z.g.g.V.T.h.s.a.k.l.Y.+X+XW.W.T.p.E.W.",
"P.} l uX`.C z C k j t C M.4.` aX%X. 2.rXdXxXcXpX0 y :.|.X.@XY.c.E.k.l.T.E.E.E.T.W.V.j.j.R.W.d.Y.I.T.U.I.I.k.g.h.E.@XW.W.).v.p.E.",
"+.H.7.` i b.L./.~.E.(.^.i.u.t 6.eXd tX: N K.-X&X5.X G ..I Q.U.c.R.I.a.j.g.p.A.I.j.l.T.j.j.A.j.W.T.E.E.Y.c.T.T.v.a.k.V.V.j.j.A.h.",
"` *XC H.L.j.E.W.W.R.W.+Xm.b.$.f -X8 `.o o . o , h y XXx.F.D.I.I.T.E.y.R.T.W.Z.k.T.W.E.!.).U.a.I.E.Y.T.Y.T.T.c.T.R.R.j.y.R.V.U.a.",
"i a +XZ.j.a.z./.)./.M.t z (.P.C K.n N ; 5 B , +Xm.f.f.F.Y.Y.c.c.T.Y.y.U.I.c.I.j.).T.).!.T.E.k.I.).T.T.c.v.!.T.E.E.!.V.i.l.I.R.l.",
"b.M.d.j.U.l.a.d.h.Z.{ N.k G.K.% B ' ~ _ 9 @ { (./.W.Y.Y.c.Y.I.k.R.k.y.R.T.c.W.a.E.).).@X!.T.).k.E.E.I.I.E.E.E.W.T.W.k.V.T.I.I.T.",
"(.A.j.U.U.T.y.V.R.m.{ @.: B t ! 1.8 8 N ! u m.j.k./.R.W.Y.Y.E.V.y.B.k.a.I.I.j.p.!.T.!.W.@XY./.g.R.W.E.I.c.T.T.T.T.T.g.Y.Y.T.Y.c.",
"U.a.V.T.I.l.p.k.k.u.l O q.' ;X_.B @ . @ @ *./.l.l.y.I.Q.W.W.g.j.z.V.k.j.h.a.).p.T.T.!.T.c.T.j.g.j.E.E.c.c.v.T.T.Y.c.r.j.R.T.I.T.",
"g.Y.R.I.I.T.a.a.a.A.3.d O 9 9 ' 2.B C ~.~.W.W.U.).E.y.k.a.p.j.Y.Y.Y.T.U.R.h.U.c.g.E.!.Y.@X#X).).p.W.T.I.l.c.k.I.I.I.a.U.T.U.v.c.",
"p.I.I.U.I.I.R.a.U.B.j -X8 2.w.N N V A.~.T.U.E.I.E.R.k.i.V.T.I.T.c.E.I.I.R.E.k.a.p.T.W.!.).@X).E.g.I.).T.Y.v.v.V.I.l.t.j.E.I.Y.c.",
"p.E.E.V.c.T.V.y.Y.R.&.[ B 2.6.4 d a ~.E./.W.j.k.p.y.a.I.E.k.T.T.c.W.c.T.E.R.I.Q.p.I.g.W.W.).!.E.l.g.I.W.Y.Y.I.I.U.p.V.a.h.T.E.U.",
"l.E.I.I.c.T.j.V.Y.Y.D.f.: V : 7.6.a i.p.p.y.i.i.Q.V.k.E.T.T.c.l.c.T.c.!.E.I.E.E.l.l.l.W./.W.T.g.y.l.j.h.j.T.T.I.p.k.T.).I.p.I.U.",
"a.E.U.T.v.T.y.I.T.c.R.F.m.t +.3.u [ V.c.I.E.U.z.Y.a.V.W.T.T.T.I.T.!.W.T.R.R.I.W.y.r.j.B.T.l.a.r.l.W.Y.V.g.j.h.a.U.T.E.E.U.a.y.I.",
"a.j.T.U.Y.c.y.V.k.c.Y.V.D. .%.+.l d.Q.Y.W.I.T.V.a.j.@XT.T.U.I.T.c.c.T.c.I./.V.r.a.R.D.g.a.g.j.g.W.T.Y.W.W.j.y.j.E.W.!.).E.U.a.s.",
"W.h.a.R.I.I.y.E.T.I.U.U.W.D.} j m.i.U.W.E.E.T.Y.Y.g.E.c.V.T.U.T.).T.Y.R.T.j.r.l.E.T.T.R.k.j.E.R.h.c.F.Y.E.R.l.g.E.E.T.T.T.U.E.y.",
"U.g.y.j.U.j.p.k.p.a.U.E.R.D.B.i.A.k.a.R./.W.T.E.W.r.l.Y.l.l.I.T.T.E.l.g.y.k.T./.E.I.I.I.I.A.W.E.c.l.l.c.R.W.W.Y.p.E.T.E.W.c.U.t.",
"U.v.k.y.y.s.p.h.I.s.a.a.h.p.A.A.a.a.j.p.j.C.j.y.t.g.g.g.W.R.U.I.T.a.p.j.T.T.T.W.T.T.E.T.V.g.E.R.T.@XT.c.Y.W.W.Y.I.p.I.E.U.h.g.j.",
"T.I.V.y.U.E.T.).T.U.p.h.E.).).W.A.y.U.U.g.g.V.D.g.c.R.l.a.z.j.l.j.p.I.I.I.I.T.T.E.I.T.I.I.a.W.).W.W.Y.c.l.Y.Y.c.I.T.h.k.g.h.T.Y.",
"l.c.r.g.V.W.R.E.T.c.p.T.E.).E.).I.t.y.p.c.Y.U.Y.Y.l.R.V.d.V.j.r.r.j.Y.Y.I.Y.T.!.T.T.T.T.Y.r.R.W.Y.T.!.c.T.W.T.Y.T.E.V.p.g.I.I.l.",
"g.j.I.V.g.p.T./.U.p.Y.!.T.T.U.!.h.y.U.U.T.T.Y.T.Y.Y.U.l.y.V.R.D.a.l.R.Q.I.c.W.W.!.W.T.E.Y.h.R.R.E.W.!.@XT.W.T.T.E.U.p.r.I.I.T.c.",
"v.I.I.U.E.a.p.a.s.k.).!.T.U.E.U.p.I.E.E.T.c.I.I.U.R.T.E.g.Z.W.j.j.a.h.T.c.T.W.!./.R.l.a.g.y.Y.W.T.T.T.c.U.U.E.E.W.W.p.a.R.T.Y.T.",
"I.I.v.I.U.T.p.k.c.c.).T.U.W.I.s.T.T.E.I.c.c.c.I.U.I.R.Y.l.h.j.j.E.R.l.h.Y.T.W.W.V.h.r.a.Z.V.j.Y.T.W.W.c.T.T.E.T.I.a.a.V.U.T.T.E."
};
