/* XPM */
static char *_1679389454[] = {
/* columns rows colors chars-per-pixel */
"64 64 247 2 ",
"   c #2B1A03",
".  c #2C1D0C",
"X  c #261903",
"o  c #391B04",
"O  c #311F11",
"+  c #2B2403",
"@  c #2A2406",
"#  c #332C02",
"$  c #34230C",
"%  c #3B240D",
"&  c #332B0B",
"*  c #3A2905",
"=  c #2E3300",
"-  c #323302",
";  c #383807",
":  c #2E2312",
">  c #2F261D",
",  c #332514",
"<  c #3B2614",
"1  c #352A13",
"2  c #3B2B15",
"3  c #32271B",
"4  c #34291C",
"5  c #3B2D1D",
"6  c #382618",
"7  c #3B3315",
"8  c #3B3914",
"9  c #3C321D",
"0  c #383317",
"q  c #352B21",
"w  c #3B2E22",
"e  c #302720",
"r  c #3D3223",
"t  c #3D3328",
"y  c #1C2C00",
"u  c #411E02",
"i  c #452A0D",
"p  c #472908",
"a  c #46380A",
"s  c #432B13",
"d  c #442C17",
"f  c #502D15",
"g  c #4D3114",
"h  c #43321C",
"j  c #4B321B",
"k  c #443A1B",
"l  c #473717",
"z  c #543214",
"x  c #543B1E",
"c  c #5B3A1C",
"v  c #583718",
"b  c #52310C",
"n  c #623E1B",
"m  c #633913",
"M  c #60360E",
"N  c #423425",
"B  c #443A24",
"V  c #4B3A24",
"C  c #42362A",
"Z  c #453A2B",
"A  c #4B3C2C",
"S  c #4B3523",
"D  c #523C25",
"F  c #5A3C23",
"G  c #533E2B",
"H  c #513621",
"J  c #463C31",
"K  c #4B3E31",
"L  c #623E20",
"P  c #3B4407",
"I  c #3C5703",
"U  c #3F6704",
"Y  c #495508",
"T  c #49451A",
"R  c #58471A",
"E  c #4E4F0F",
"W  c #64431D",
"Q  c #634C1A",
"!  c #66571E",
"~  c #466609",
"^  c #56671B",
"/  c #567916",
"(  c #4B4527",
")  c #5C4324",
"_  c #53432C",
"`  c #5C442B",
"'  c #544C2C",
"]  c #544824",
"[  c #585427",
"{  c #4D4232",
"}  c #534434",
"|  c #5C4A35",
" . c #534539",
".. c #554A3B",
"X. c #5B4C3C",
"o. c #584833",
"O. c #5C5333",
"+. c #5B5736",
"@. c #634325",
"#. c #644A2C",
"$. c #6C4A2B",
"%. c #664827",
"&. c #734F2B",
"*. c #784C28",
"=. c #685429",
"-. c #79552E",
";. c #644B31",
":. c #664D38",
">. c #625D34",
",. c #63513C",
"<. c #6C543B",
"1. c #695738",
"2. c #745235",
"3. c #7C5433",
"4. c #7B5A3C",
"5. c #765939",
"6. c #586B25",
"7. c #5F6539",
"8. c #666828",
"9. c #686538",
"0. c #74683D",
"q. c #737438",
"w. c #6F6D30",
"e. c #5B4F43",
"r. c #564C40",
"t. c #5E5243",
"y. c #5C554B",
"u. c #625444",
"i. c #6B5B44",
"p. c #63594A",
"a. c #695A46",
"s. c #765E46",
"d. c #604E40",
"f. c #6A6444",
"g. c #6E6D44",
"h. c #6B6648",
"j. c #746C44",
"k. c #73634A",
"l. c #7A6748",
"z. c #6F7141",
"x. c #777546",
"c. c #726653",
"v. c #7C6B54",
"b. c #776957",
"n. c #7B7454",
"m. c #6B6151",
"M. c #7B7263",
"N. c #726960",
"B. c #8B592E",
"V. c #8D5B33",
"C. c #845D3B",
"Z. c #8B5E39",
"A. c #835834",
"S. c #925E34",
"D. c #935F39",
"F. c #8C623D",
"G. c #82653B",
"H. c #946136",
"J. c #986337",
"K. c #956239",
"L. c #9A653B",
"P. c #9D693E",
"I. c #84763D",
"U. c #9B713F",
"Y. c #A26C3F",
"T. c #A1673F",
"R. c #865D41",
"E. c #8D6443",
"W. c #886748",
"Q. c #926642",
"!. c #956A44",
"~. c #9D6B43",
"^. c #936C4B",
"/. c #9C6F49",
"(. c #9A6641",
"). c #9C724C",
"_. c #987249",
"`. c #856D53",
"'. c #877659",
"]. c #947252",
"[. c #9D7452",
"{. c #97785C",
"}. c #8C7650",
"|. c #A36D43",
" X c #A36F49",
".X c #A86F45",
"XX c #A57145",
"oX c #A97346",
"OX c #A5734A",
"+X c #AA754A",
"@X c #AD794D",
"#X c #A47E4D",
"$X c #B07B4E",
"%X c #B1774D",
"&X c #A37652",
"*X c #A67A53",
"=X c #AD7A51",
"-X c #A77D59",
";X c #B17D52",
":X c #877966",
">X c #917F65",
",X c #857D75",
"<X c #698628",
"1X c #76A530",
"2X c #588216",
"3X c #7D8441",
"4X c #858449",
"5X c #888759",
"6X c #938A58",
"7X c #97955A",
"8X c #908F4D",
"9X c #B58154",
"0X c #B78258",
"qX c #A68855",
"wX c #99A85B",
"eX c #8E8469",
"rX c #93836A",
"tX c #978769",
"yX c #999667",
"uX c #988A77",
"iX c #9C9574",
"pX c #8F8271",
"aX c #A6977A",
"sX c #A3926D",
"dX c #9DA465",
"fX c #9FA576",
"gX c #ACAC73",
"hX c #A9A47B",
"jX c #B2B975",
"kX c #ADAC70",
"lX c #A7D35F",
"zX c #AFD666",
"xX c #9C9286",
"cX c #A69983",
"vX c #B49C84",
"bX c #B8A98C",
"nX c #BDB785",
"mX c #BEB594",
"MX c #B4A88D",
"NX c #C6B79A",
"BX c #C3AF94",
"VX c #CEBDA3",
"CX c #CBC39A",
"ZX c #D0CB93",
"AX c #D4C7AA",
"SX c #CFC1A7",
"DX c #DFF8A2",
/* pixels */
"|.H.XX|.+X+XL.+X+XXXK.J.J.S.L.H.|.L.L.L.XXXX.XoX@XXXXXXXOXA.oX~.E.* H ` s.[. XK.|.|.+XoXY.XXoXJ.J.D.$X+X+X+XS.+X;X$XJ.OX@X+X@X%X",
"XXL.H.L.XXS.@XoXXX+XK.@X$X+XP.|.OX@X@X~.oXXX|.+XXXoXY.|.~.V.XX)./.v < S s v C./.+X;X9X$X$XoX@X|. XJ.+XoXoX@XJ.L.L.L.S.+X+X;X+XP.",
"+X+X$XXXS.oX+X+XoX+XP.@X;XoXP.@X=X@X$X|.H.L.P.|.OXOX@X~.J.XXJ.H.K.4.< q C d j 4.OX;X;X+X+XoX+X+XXXS.L.@X@XL.P.+XoX|.XXK.L.S.J.@X",
".X@X|..XH.+X.X+X#XL.L.).OX!.L.).OXP.J.|.9X@X~. XK.H.K.H.OX=X@XF.[.j , q q K d % ].;X=X.XoXoX|.S.L.+XXXS.|.J.@XOXXX+X@XS.+X|.|.+X",
".XOXP.H.S.S.|.!.*.&.2.;.$.].3.^.~. X@X+X@X+X|.XXL.~.OX~./.J.L.H.R.s 5 e e t Z 2 F [.OX XH.J.~.@XOXXXoXXXH.J.@XXXXXXX+XL.~.@X@X+X",
"~.L.|.OX+XXXD.K.R.u o d % ;.i.L $.Q.&X+X*X+X@XK.oXXXOX9X#XoX|.Q.2.j S w q e 4 N < F Q. XP.H.K.P.XX@X9X+XOXL. X+X+XoX=XY.D. X X.X",
"OXOX;XXX;X;X@XD.~.^.L G } h S s.D F 2.].[.&XK.OX#X@X@X9XoX|.XXZ.A.s S C C e e w N o C.).oXXX|.|.H.H.+X9X+X(.H. X;X@X$XP.|.OXK.OX",
"J.J.H.+X;X=X@X@XD.&X-XF X.t...N 5 } s.l.2.2./.OXXXOXoXoXXXXXOX[.^.W.G N S w 3 3 N 5 i ^.OXoX|.+XXXXXXXH.K.XXXXS.H.L.H.S.L.P.S.=X",
".XXX|.H.L. XL.J.L.(.^.f d.u.u.u...Z w 5 X.'.<.W.E./.OXOX/.!.].v L {.:.< N Z w 4 q K < F [.|..X+X+X+X%XD.~..X|.L.K.P.L.+XXXoXJ.$X",
"+XoX+X@XOXD..X X+XV. X2.S d.u.e.u.d.e.Z 5 5 u.`.j z F.[.E.@.H j d ;.:.S w Z C t 3 C C . $./.|..X+X+X+XV..X/..X|.K.H.XXY.Y.XXoXJ.",
"+XoXoX@X~. X|..X XD.K.C.g G | d.d.y.y.e. .N 5 N d ` <.@.d N B N B N w < 3 C A t q w A < o ^.(.|.|.|..XV.&X+X|..X~.J..XXX+XY.|.|.",
"Y.@X.X XS.~.+X|..X|.K.).^.4.:.;.G :.u.y.u.e.A w 4 0 i.,.5 5 w 5 4 J q 4 q q r C t 4 C N < 4.[.|.|.|.D.V.|. X.X|.L.P. X XY.XX+X+X",
"P.P.XXP.J.@X|.~..XD.|. X).^.^.].s.z | d.u.t.e.} N h 4 u.:XN , 3 q ,X3 e e q 4 C Z q e A 4 d [. X XD.T.+XP.J.|.|.P.L. XP.Y.XX@X$X",
"XX XP.H.V..X.X X|.V..X/.^.f L 3.E.l.| d K e.u.t.X.N h 5 G ,XK 3 e e 4 e e 6 3 > J q q q A $ A.D.S.+X+X+X.XP.S.P.P.S.L.H..XoXY.P.",
"XXS.L.@X+XS.~.XX|.S.&XE.H G ,.G A Z A J J  .t.p.e.y.C w h C xXr.w t t w w 6 3 q ,XxXt e C 6 L /.D.+X%X+XoX|.|.S.|..X+XOXH.S.P.oX",
"S.@X@X$XoXP.S.S.K.V.C.f e.u.e.}  .u.d.t.y.t.u.e.e.e.y.C w w C cX..C K K Z C t q e y.N.q t N z -X@XJ.oXXX@XY.S.S.~.|.@X+XL.P.@X%X",
"L.+X+X@XXXXXJ.P.+X).].G d.u.t.Z a.A u.p.t.t.t...y.y.J ..t t w K aXA C Z K K { J Z r 4 e q G s ]. X XL.L.J.J..XXXoXH.K.S.D.;X@XoX",
"Y.L.oX+XL.J.H.J.K.&X;.:.u.t.u...} X.t.u.t.u.t.t.y.M.q q } t w w  .pXr C C C Z C t Z C 4 q A s E.OXOX XV.J.XX.XP.XX XP.K.H.;X+X=X",
"oX|.H.H.L.|.Y.OX(.2.2 X... .X.} V { ..X.,.X.X...} } N N C w N h 5 a.:X: 3 : 4 4 r B A C q N k <.&X*XP.V..XXXoX+X@X+XoXY.V.|..X~.",
"OXL.V.Y.XXP..X@XA.u $ . w K u.X.N u.u.t.u.m.b.b.} :Xc.u. .C t 5 w w :Xc.X M.uXuXK 4 w A Z w h s %.A.3.OXXX+X+XoXY.oXL.+X@XS.|.OX",
"oXV.|.oXXXoX@XXXA.W p D  ...X.K } A C N N r w 5 5 5 5 { p.eXpXc.A r B V 9 bXrXrX:X, 2 4 t r > N >X{.c F. XoXoXoXY.$XXX@X;XV.@X|.",
"S.Y..XoX+XoXY.oX~.&X*X#.H G A S w Z X.u.e. .Z t r w w N 5 , 1 t.:Xm.. a.k.s.% h ..Z Z C r 4 : M.uXsXsX@.~.+X|.|.Y.@XoX;X XS.J.(.",
"J.Y.Y.oXXXoXoX9XOX=X*XF.E.2.h K o.| G _ N t.e.C w 5 S Z c.eXuXuXiXa.h b.Z . N 5 , C J J { r . N H F W.@.~.=X.XOX%XY.@X=XV..X|.Y.",
"Y.Y.XX.X.XoXoXY.@X=XK.K.~.G.i d.5 V ,.<.N X.} 5 A b.uXc.u.B 0 1 } pXV $ h , C N t N t Z } 9 9 1.4.L b ^. X@XOX@X@XY.XXV.L.Y.T.Y.",
"Y.P.+X+X.X+X+X%X;XL.P.XXP.F.j d. .X.X.G A A p.b.b., > 5 r 0 k n.eXN : u.i.. 4 4 q t Z B Z ( l.b _.K.V. X+X%X|.|.+X+XS.Y.H.H.|.Y.",
"XX.X$XoX@X.X|.|.S.H.P.L.|./.` e.u.d. .K a.p.9 , r 9 r r 1 +.cX9.& 5 2 ( pX, r J { K } ( k ) b ).).+XOX(.V.S.S.K.S.S.J.Y.P.H.H.|.",
"+XoX+X+X.X+X XD.XXV.L.P.Y.).j G G C o.d., 5 r r r r 9 & g.yXP 0 9 7 k a.} B A C Z K K h p 4.Q.!.oXP..X%XS..X+XoXH.oXXXY.P.L.V.H.",
"B.H.S.S.S.B.D.~.~.P.H.L. X].F O K c.N 6 5 4 w r r r & +.5X; 0 ( ' 7 T cX: Z C C Z { w j G.(.~.|.|.XX.X;X;XD.+X+XH.P.Y.Y.~.V.K.@X",
"J.|.%X.X~..X|..XL.L.J.V.OX^.o 6 5 r N d G :.w r r 1 7.f.@ 0 8 ' ( ; fX[ B t J t Z N X.o E.K.~. X|.Y.Y.|.;XS.J.|.L.S.(. XK.XX+X@X",
"@XJ.@X@XS.~..X|.Y.S.D.=X/.v   G ..u.X.A o.A { r 0 +.g.= 0 9 8 ' ; yX[ ( 3Xt q t J N b.f [.~.L.XXXXXX|.@X@XL.;X=X+X+XD.S.XX+X X+X",
"|.B.J.P.S.J. X~.H.oX@X@X!.o o j h t.t.u.d...5 5 [ z.1 > q , 9 1 7.3X+.& 3 q e t K N u.j [.OXOXK.|.OX+XL.H.H.P.P.;X=X@XS.oXXXOXOX",
"K.=X;X@X+XH.K.D.@XoXoX+XQ.&.].W.d A ..,.G N , k 3X8 0 > r > { 8 8 ' ' 9 : 3 e q { N G j ].m K./.A.Q.H.XXoX=XOXL.H.J.K.K.XXoXoX@X",
"S.P.oX;X;X@XH.XXOXoX.XoX@X&X~.^.L ) d H ,.h & x.( 8 ( t 0 ( f.T & n.eXeXX 5 5 r { N O j ].o p Q p &.F.#X|.|.@X@XK.L.@X#XP.J.Y.S.",
";X|.H.P.(.J.L.@X|.oX@X%X;X@X+XOXQ.4.c <.G 2 ( O.8 +.h.h.f.g.g.7.8 8 yXCX9., u.1 A C O 2 {.$.%.I.p R R F./..X.X XS.oXoX9X@XJ.J.%X",
"+X@XoXS.|.@XY.J.+X|.S.K.|.(.L.K.S./.[.5.< V b.0 +.h.h.f.9.7.z.z.7.8 ; hXmX7 k s.5 Z 1 5 W.G.$.I.8X! $.@.G.K./.K.P.@XoXY.@XH.XX$X",
"XXoXS.Y.+X+XoXJ.V. X=XOXD..XL.+X@X.X!.F < K , o.h.g.' ' x.7.7.z.z.+.; T hXsX+ v.h N : $ F Q G.R I.6X7 % i ^.Q.K.+X+XoXoX@XP.|.@X",
"OXH.|.@XY.Y.$XH.Y.+X;X$XV.L.oX+X%X;X&Xu $ 3 N y.p.B B y.( ' z.q.z.g.( 8 8.gXl.A 5 2 2 l 6XI.=.a   l ) rX`.i _.K.+XXXoXoX+XP.S.H.",
"H.K.@X+XoX%X%XH.XX$X;X;XJ.+X@X@X+X@X-XF X > { t.t.M.pXr.J y.g.f.>.7.( 0 - 4XMX' ' n.aX>.# w.8X6X0.0.NXAXSX,.v 3.F.*X+XoX+XJ.L.+X",
"K.!.XX@XoX+X$XS.(.K.P.J.H.OXoX@X9X;X/.$.X r ..y.{ m.pXr.t ' +.B 9 { A & - [ yX+ [ q.yXI.8.6Xa 9.E }.jXCXbXSXtX<.x 4.~. XJ.J.@XXX",
"L.XX+X+XoX%XL.K.XX@X+X@XH.|.oXoXL.D.(.W.. r +.t t t ..t t t { t , { b.iXhX( E + - - 8.- # T # - Y kXdXyXx.yXMXSXaXp G.&XH.oX9XY.",
"S.Z.!.@X+XJ.J.@XXXXXY.@XL.S.H.S.L.@X-X4.  w K J N A A 9 cXh.: M.9 mXCXmX6X7X0.P - y 4Xq.Q =.8.7X<X8XkXwXP 5X7.g.aXx L 2.R.&X+X.X",
"OX+XK.J.J.J.@XoXXXXX+X+XP.H.+XOX+X*X[.@.6 w 9 2 h.'.u.O.NXg.[ NX& ( x.6X7XdX; P 6.6.^ 5X# 0.w.! Y Y 8.wX3XfXiXT aXbXs.@.v !.@X.X",
".XoXL.L.S..X@XoXXXoX+X+XP.H.XXXX&XR.L o h f.>.- 9.j.+ n.iXP 7XgX8 n.[ - w.6.@ 6.<XU I P # v -.-.v gX* * ( ( 9.NXcX,.2 >Xg E.+X@X",
"XX@XOXJ.S.|.@X XXXY.XX;XJ.J.+X-XR.#.o.A uXaXx.[ R T + eX>.+ jXw.O.' gX- P 8X^ zXlX1X~ 6.- {.F.G.Q sX7 X.X.P 2 h pXaX:XrX#.2.Z.+X",
";X=X;XOXD.|.+X@X.X.X=X*XD.D.=X-X#.vX| _ tXrXO.( 9.a # 5X( - jX= = +.wX^ E jX8.DXzXzX/ I * !.Q.-.4XjX) ` ` _ _ h d d k.x @.p Q.J.",
"0X=X=X=X/.D.&X&X=X&X*X0XZ.A.3.$.`.NX1.:.`.uX( j.BXT T l.9.T dX= [ 7.3X/ 6.jX^ DXzXlX/ I R _.H.G.E qXkX9.] _ o.* D i tXj {.p OXS.",
"OX9X-X!.Z.R.E.4.C.].2.$.#.` F BXVXNX5XD Z b.tXAXkXE 0.#.'.; q.8.hX' wXP w.dX/ lX1X2XU = -.oXU.!.U.b 2.gX0.# 9.` 1.4.%.&.b n &X~.",
"3.n &.5.F 2.#.l.sX>XG BXbXMXi.bXsXaXtX,.5 X >.CX7X; I.$.T X T 4X@ 0 dX= ~ ^ <X~ U ~ ^ a qXoX9XL.*X#X&.a 7XtX& 0.x ^.A.^.-.*./.XX",
"&.z ^.'.v.NX>XrXBXaXo.AXbXbXV rX>Xl.s.:.% 2 $ x.nX3X+ # l + # n.9 & 9.8.[ R =.Y ! 8XqX#XqXoX@XK.XX#XXX0.p }.aXa ;.) F.OXOXOX|.|.",
"[.C.$.$.) ` x <.5.l.j tXl.W.D D V , s <._ 4 . + 0.gXx.T O.& @ 7 X.* * }.x 0.R R Q OX@XoXY.+XK.H.J.XX$XP.E.v 0.tX) g A.L.OX+X.XXX",
"K.~.OX).K.E.-.$.L &.F g z %.x X $ :X_ V 1 : 5 . 7 z.gXw.& 1 . 7 7 X &.R %.l W.n M oX$XXX;X9X9X;XS.=X+X|.(.^.n R v E.Z. XoXY.L.Y.",
"V. X.XXX.X.X|.Z.OX&XOX!.OX].4.s V VXv.V :Xh : r k & jXnXa & * a i &.&XZ.v * v Z.D.XX$X$X;X;X=X@XD.~.%X+X+X(.Q.A.A.Q.V.K.%X.X.XY.",
"H.XX+XY.|.|.|.Z.|.XXXXOXOXE.5.d d aX:X$ v.cXb.V T =.ZXZX4X! _.F.Q.OXOXOXOXF.K.+XH.~.K.@X$X$X=X@X(.D.|.+X+XXXOX X.XD.(.J.D.%XoX.X",
"L.+X.X|.|.|.S.P.XXXX X/.&.z 4.x % >Xk.k.i._ cXCXmXa 0.sXwXQ U.P.P.@XXX+X+X.X+XoXK.~.|.@X$X$XoXH.S.P.H.J.J..XXX XD.L.@X@XY.S.|..X",
"H.@X|.oXY.|.S. XoX|.OXE.#.x W.W.$ iX_ _ 5 2 d <.5XR + a b Q oX.XoX+X+XXX+XXXY.@XV.V.D.~.|.~.H.V.|.+X+XY.H.L.L.S. X.X@X+XXXS.S.|.",
"K.K.+X|..X|.Z. XP.(.(.v x * ` ` 2 _ X._ h $ 2.R p T 1.yXQ U.XXXXP.XX|.XXP.@X.XB.Z.OX XD.Z.K.K.H.@X.X.X+XoXJ.V.K.+X;X$X$X+X|.K.V.",
"@XD.S.OX|.Y.V.OXoX~.K.$.h ,.v.v.:X_ 1 S s L &X)._.Q &.-.F./.|.oX9XXXXX#X XK.V.P.+X.X.X|.(.L.@XXXJ.Y.Y.XX@XXXP.H.+X@X+X+X.X|.+XV.",
".XH.S.L. XL.Z.L.H.H.!.@.| X.% u.,.V   i f -X X+X@XF.Q.~.Y.P..XOXoXoXL.H.V.K.OX@X+X|.|.|..XL.+XoXoXP.L.XXXX@X=XP.S.+X.X@X@X|..XB.",
"XXP.K.V.V.S.H.J.~.V.A.n s.G >X_ ,._ v &.K.!.K.S.B.Z.F.H.*XoX|..XOXH.V.L.XX+XoX@X+X+X+X+X(.K.oXoXXX@XXXU.XX@X@XoX XS.|.+X.XD.D.L.",
"U.XX~.D..X+XXX$X+X|.K.2.j $ k.2 _ < A.).V.K.~. XH. XOX~.S.L.D.~.L.V. X~.XXY.XX+X%X.X.X|.|.S.@X9X@X@XoXY.P.XXXXY.Y.|.K.P.D.L..X X",
"P.Y.B.H. XoXoX%XXX~.H.OX`.%   s.i.L V.Z.~.XXoXXX.XY.|.P.H.~.(.V.A.~.oXY.Y.oX+X9XoXoX.XoXXXV.OX@XXX@X@XoXoX@XoXXX+XoXP.S.J.(.|.|.",
"J.J.|./.S.S.XX$XXXV.oXXX!.x f.` u 2.OXXXoXXXXX|.|.XX.XP.B./.OX XD.~.+X+XY.Y.@XoX;X@XoX+XXXJ.OXOXoX@X@X+X@X$XoXoX+X XS.S..X.X.X|.",
"T.|.|.|.+XD.S.H.V.P.$X9X/.c @.@.v OXOX@XoX|.|..XXXXXoXOXF.~.&XK.K.S.J.XXXX+X@X9X=XOXP.H.H.S.XXOXoX@X@XY.Y.XXoX+X+X@XV.S.oX%X.XXX",
".X|.P.|. X+XZ.K.~.XX9X+XXX&X%.%.).OX@XXXP.XX|.|.|.XXXXoXL.K.L.L.@XOXJ.H.oX+XoXoX~.K.V.Z.~.P.L.oXoX+X+XY.XXoX%XXX|.L.S.~.oXY.oX+X"
};
