/* XPM */
static char *_1679389455[] = {
/* columns rows colors chars-per-pixel */
"64 64 242 2 ",
"   c #231A01",
".  c #2A1B02",
"X  c #2C1D0A",
"o  c #271702",
"O  c #321D04",
"+  c #371C04",
"@  c #1F2100",
"#  c #2C2402",
"$  c #2E220D",
"%  c #292900",
"&  c #33230D",
"*  c #3B240B",
"=  c #372806",
"-  c #2D3500",
";  c #3B360C",
":  c #383707",
">  c #2F2413",
",  c #332514",
"<  c #3A2714",
"1  c #3C2A13",
"2  c #332719",
"3  c #362B1B",
"4  c #3A2C1C",
"5  c #362A15",
"6  c #3D311D",
"7  c #3C3616",
"8  c #3A2D21",
"9  c #362D21",
"0  c #3D3222",
"q  c #3E3428",
"w  c #401E00",
"e  c #462908",
"r  c #483605",
"t  c #52370C",
"y  c #442B14",
"u  c #4B2D13",
"i  c #412E1A",
"p  c #482F19",
"a  c #4D3215",
"s  c #42321D",
"d  c #4A341C",
"f  c #443B1D",
"g  c #473B17",
"h  c #5C3B1B",
"j  c #563718",
"k  c #562F0D",
"l  c #643D1B",
"z  c #433524",
"x  c #443A25",
"c  c #4C3B24",
"v  c #433629",
"b  c #463A2B",
"n  c #4A3C2C",
"m  c #483623",
"M  c #543C24",
"N  c #5B3E24",
"B  c #523E2A",
"V  c #543B26",
"C  c #4B3F31",
"Z  c #473D31",
"A  c #613E20",
"S  c #3B4500",
"D  c #3C4911",
"F  c #464909",
"G  c #465908",
"H  c #4A4518",
"J  c #574518",
"K  c #485613",
"L  c #575717",
"P  c #64431D",
"I  c #68401D",
"U  c #65591F",
"Y  c #506B13",
"T  c #62671E",
"R  c #4E412D",
"E  c #4B4323",
"W  c #54422D",
"Q  c #5B442B",
"!  c #5E492A",
"~  c #584726",
"^  c #595726",
"/  c #4E4332",
"(  c #4C433A",
")  c #534534",
"_  c #5A4632",
"`  c #554B35",
"'  c #5B4A34",
"]  c #554A3A",
"[  c #5B4D3C",
"{  c #554739",
"}  c #5A5334",
"|  c #5C533D",
" . c #5C5636",
".. c #644A2C",
"X. c #6C4B2C",
"o. c #674625",
"O. c #734C2C",
"+. c #754B27",
"@. c #695929",
"#. c #77552B",
"$. c #634C33",
"%. c #6B4D32",
"&. c #604E3D",
"*. c #6D5234",
"=. c #635B35",
"-. c #63533C",
";. c #635B3D",
":. c #6A573B",
">. c #755334",
",. c #7B5533",
"<. c #7C5B3A",
"1. c #76593B",
"2. c #724F34",
"3. c #586A21",
"4. c #69673A",
"5. c #6C7636",
"6. c #79753A",
"7. c #6F6D31",
"8. c #5A4E41",
"9. c #544A40",
"0. c #5E5243",
"q. c #5B574C",
"w. c #614F40",
"e. c #615242",
"r. c #655B43",
"t. c #6A5A43",
"y. c #695A49",
"u. c #735C44",
"i. c #6E6C44",
"p. c #6E634B",
"a. c #6B6544",
"s. c #746145",
"d. c #72644C",
"f. c #7E664D",
"g. c #7A6744",
"h. c #7A7746",
"j. c #726552",
"k. c #7C6C55",
"l. c #7B6E5B",
"z. c #766C5C",
"x. c #7E7357",
"c. c #6C6A4A",
"v. c #7E7261",
"b. c #766C60",
"n. c #8D5A2E",
"m. c #89582E",
"M. c #835934",
"N. c #8D5B33",
"B. c #835E3C",
"V. c #8B5D3A",
"C. c #875732",
"Z. c #925E34",
"A. c #935F3A",
"S. c #8D613D",
"D. c #896339",
"F. c #946135",
"G. c #996337",
"H. c #95623A",
"J. c #9A653B",
"K. c #9D693D",
"L. c #966A3D",
"P. c #A16C3E",
"I. c #845F42",
"U. c #8B6543",
"Y. c #846748",
"T. c #936642",
"R. c #946A45",
"E. c #9D6B42",
"W. c #946C4A",
"Q. c #9B6E4A",
"!. c #95724D",
"~. c #9D724C",
"^. c #9B7446",
"/. c #876D53",
"(. c #85755A",
"). c #9D7552",
"_. c #987656",
"`. c #807740",
"'. c #A26D43",
"]. c #A96F45",
"[. c #A66E49",
"{. c #A96F49",
"}. c #A57145",
"|. c #A97346",
" X c #A5734A",
".X c #AA754A",
"XX c #AD794D",
"oX c #A5794E",
"OX c #B17B4E",
"+X c #B0774C",
"@X c #A47651",
"#X c #A57A55",
"$X c #AC7A52",
"%X c #A87B57",
"&X c #B27D52",
"*X c #867964",
"=X c #887A65",
"-X c #957E62",
";X c #60871C",
":X c #758932",
">X c #788943",
",X c #85A93D",
"<X c #838547",
"1X c #8A8656",
"2X c #968A57",
"3X c #969459",
"4X c #89904E",
"5X c #AB8158",
"6X c #B58053",
"7X c #B58259",
"8X c #94A354",
"9X c #958568",
"0X c #9D956B",
"qX c #9C9164",
"wX c #978A76",
"eX c #9D9079",
"rX c #8B866E",
"tX c #A39C6A",
"yX c #A69779",
"uX c #A28C6F",
"iX c #A4A768",
"pX c #AAA576",
"aX c #BAB77C",
"sX c #AEAF74",
"dX c #A0C45A",
"fX c #BAE46B",
"gX c #ABC560",
"hX c #A69986",
"jX c #B6A788",
"kX c #BAB885",
"lX c #BBAA94",
"zX c #BFB596",
"xX c #ACA58B",
"cX c #ACA393",
"vX c #C6B899",
"bX c #D1BC9F",
"nX c #CCBBA3",
"mX c #CCC697",
"MX c #CFCA95",
"NX c #DFFA9B",
"BX c #D6C6A9",
"VX c #D3D1A1",
/* pixels */
"E.F. XP..X.XF.oX|.P.A.A.P.A.H.F.P.G.J.G.^. X[.|.+X}.}.T.y V $.I.Q.Q. XH.K.|. XH.P.P.XX|.P.|. XJ.G.F.XX|.|..XF.|.&X&XH. X.X.XOXOX",
" XJ.A.K.}.F.XX|.}.5XA.$X+X.XL.'.|.OX&XE. X X}..X|.|.{.Q.%.y y y X.T.V..X{.A.A.E.|.6X6XOX&X|.|..X'.J..X.X|.XXF.P.G.G.F. X.X&X.XK.",
".X.X&X[.Z.|.|. X^.R.U.%X%X XE.$X$XXX$X}.F.G.L.'. X.X.XQ.%.2 i s p a I.@XXXXXA.XX|.6XOX.X.X|.|. X}.F.K..X.XK.K..X|.[.}.G.H.Z.G..X",
"|..X'.[.H..X.X}.P + e j l ,.,.Q. XR.G.'.6XXX'.'.H.A.A.M.e 4 3 3 8 m u %.~. X'.K.+X&X+X].|..X'.F.G.|.}.F.'.H.XX.X{..X XF..X[.|.|.",
"[..XE.A.Z.A.E.E.M.l y * d M 1...X.W.#X.XXX.XE. XJ.'..XR.d 6 8 3 4 8 i i .._. X.XK..X.X'.F.G.}.XX X}.|.}.F.G.$X[.}.}..XK.E.$X.X.X",
"K.J.'.|.|.}.A.H. X).V ) n 4 s c f.%.>.Q.#X X$XH.XX}. XR.Q 1 i 3 8 9 8 8 i j ~.}.H.G.G.'.E.F.F.K.}.XX6XXX|.J.'..X.X|.$XP.H.E. X X",
" X X&X[.&XOX.XZ.R.).1.[ 0.( v 3 4 u.u.u.<.!.T.[..X.X5X5XQ.X.p y 4 9 8 8 0 4 d D.%XF.XX|. X X}.P.F.F.|.5X.XK.Z.'.$XXXOXK.'. XG.{.",
"H.J.F..X6XOXXX$XH.~.~ [ 0.0.0.0.[ b 5 W Y...<.T.~.).W.+.,._.f.< 3 8 3 8 4 0 i c Y.H. X.X X XP..X}.}.|.F.H. X XZ.F.J.F.Z.J.K.Z.$X",
"}.}.P.Z.L.E.T.H.J.U.I.W w.e.0.0.0.q.9.Z i f.t.+ 2.%.V d i *./.-.4 8 4 8 3 4 v d y Y.Q.+X}.'.}.|..X|.$XA.'.{.'.K.H.K.J.|.}.|.G.XX",
".X.X.XXX XH.{.[..XV.2.h Q [ e.e.e.0.e.e.8.v < _ y.i v n c m i 8 4 z z i 8 3 8 v i p I.@X.X'.'.}..X X{.Z.[.'.'.'.H.F.}.'.P.|.|.G.",
"+X|..XoXL.'.'.|.{.A.R.U.O.%._ ' e.8.0.0.8.8.C 4 w./.z m C v Z Z Z b v v i 8 8 9 z p N W..X}.K.P.'.'.[.C. X{.K.[.'.H.[.|.|.P.[.[.",
"P.XX}.}.F.K..X'.'.E.H.Q.~._.Y.V 8.0.0.e.e.e.e.[ i y.*Xz v b.lXq b b n n v z 8 9 8 n y 2.@X|.[.P.'.'.J.N.'.{.].'.J.K.'.'.}.|.|.}.",
"K.P.}.K.F..X'.P.'.A.W.o.o.Y./.Y.B C e.0.0.0.0.8.] 8 y.*X2 8 0 v b b b Z b n q 9 8 z m y I.'.'.{.}.G.K.|.P.J.'.[.E.J.'.K.P.P.OX6X",
"P.}.K.F.Z.'.|.P.E.B.$.V &.V N _ C v C 8.q.0.0.q.0.] 4 *Xl.8 9 3 9 8 v v b b 9.q 3 8 C < ,.Q.L.A.Z..X.X.X'.K.Z.K.K.Z.J.F.'..XP.K.",
"}.F.K..X.XA.'.'.W.o.$.w.w.w.e.e.w.0.8.q.0.8.9.q.q.0.n 4 hX0.v Z q 4 9 9 8 C cXq.8 9 v s j _.$XK.F.|.+X+X|.'.}.Z.'.[.XX XF.F.K.|.",
"F.XX.X&X XE.Z.S.2.W w.e.w.n 9.[ 0.0.0.0.9.j.hXwXq.0.0.z n hX8 4 0 n b 9 8 8 ( rXv q 8 n y B.[.$X.XG.|.}..X'.Z.N.K.}..X.XJ.K.OX|.",
"G..X.X$X{.{.T.R.$.w.0.0.0.z [ C e.e.8.0.0.] 9 9 q 8.0.) 3 y.*X> 4 3 z v n q 3 3 4 q 8 n 4 $.E.[.|.'.K.G.G.G.[.P..XF.H.A.F.&X.X|.",
"}.G.}..XK.H.A.2.V 0.[ ] { ) ' ) 8.w.{ ) b v ( ] ] 0.[ [ 8 z 9X` 3 3 3 , , z v 8 3 8 4 v z d #X@X X.X'.Z.J.[.'.P.}.'.K.G.F.&X.XXX",
"}.}.H.H.H.[.U.y z i e.v.j.r.y.d.d.y.d.j.t.z.eXeX=Xj.R R v 3 [ d.o X -XhX*X, 4 b 0 3 4 8 n < 1.U.W.#XT.Z.[.|.|.|.XX|.|.'.Z.E. XE.",
"}.G.N.E.{.N.w O X > > > , , z 4 i 8 i z $ , > , v t.eXeXj.B , < X l.hXk.eX=X, 3 v v 3 8 n , c %.u ,.V.[.|.|..X|.P.|.K.|.XXZ.E. X",
"|.n.E.}.{.N.O.o.V W [ [ ) C / [ 0.0.e.[ b b / ) n v 2 4 ;.rXm _ k.' n , n rX4 z q q n / n 0 xXjXlX..+.E.'..X].|.|.OX{..X$XZ.$X'.",
"F.'.|.|..X X X).,.d V z 4 2 C 8.0.0.0.0.0.e.e.8.0.) R 5 [ ' $ l.' s $ 4 > n 3 v b C z z n , M e _.9X+.^.P.|.|.P.|..X|.&X XZ.A.E.",
"G.K.}.}.}.|.}.&X XW./.V n 8.0.-._ c [ 0.0.0.[ { | l.wXwXk.' i X 4 t.2 3 X > 3 z b n z / 4 X X.2.f.Y.M.G.'.XX|.}.|.'..X&XZ.'.'.'.",
"}.P.|.}.}.P.|.}.$X&XC.j &.0.e.V t.n 8.e.8.z 0.wXz.4 & < -.wXz , W d., 3 z b C q 8 9 n C z a _.k >.h ^.}.'..X.X.X|.'.{.N.E.P.K.P.",
"K.P.|.+X|.|.|.XX$XH.Q.%.' { _ (./.B e.[ C l.) $ 4 b R ;.*X, 4 3 R v.q b z 2 4 4 4 b / s Q I.I.k I S.N.P.|..X}.E.|. XZ.].n.A.P.'.",
"[.'.+X|.XX|.'. XF.H.E.,.Q e.V W V [ { y.y.4 , 0 ( | d.l.4 3 9 3 ] *X4 4 4 4 9 0 n ) 6 -.o.B.T.[. X X.XK.Z.Z.A.H.Z.Z.A.E.P.Z.Z.'.",
".X|.|.|.P..X'.Z.{.n.T.R.V e.&.-.[ [ j.z 8 C ] | ;.;.*X5 z C 0 4 ) *X8 3 4 q n b R z -.a ,.@XL.'..XK.XXXXA.|..X{.H..X].'.G.P.n.A.",
"n.F.Z.G.Z.n.A.P.J.E.n.T.N B [ { / 0.2 n 8.0.0.0.;.rX6 x 8.e.) 3 z l.) b.q C b n W Q ~ !.Q.L.E.'.'.|.P.+XOXZ.&X+XA.P.'.'.'.Z.A.+X",
"G.E.$X{.K.}.].[.K.K.A.V.%.i ) [ [ 2 { 0.0.| | ] d.R 0 0.0.0.] 3 2 rX>XzXq n n n c d <.Q.H.A.E.[.E.'.P.'.&Xn.G.P.J.Z.E.E.F.}..X$X",
".XH.$X.XZ.P.'.'.P.n.A.#X1.n z 8 , b ] ] | | | } x.$ C Z ] 0.| 5 v wXq 9 b b Z n m d U.G.}.'.H.[.}.}.'.|.+XG.&XOX.X XA.F.}.|.[..X",
" Xn.A.P.Z.G.'.'.A.|..X$XQ , , z n _ (.c e.| ;.r.6 z 8 9 / 8./ x 8.q.> Z Z n / v _ a S.[.|.|..XH.K.}.XXK.A.Z.K.'.6XXX XF.|.|.|.{.",
"H.&X&X.X.XF.H.A..X|..XR.y X ) w.' $.V V e.e.s.} 0 b 8 0 / | D ( /.C 4 Z n n / z O >.~.'.[.|.'. XZ.K.Z.|. X$X.XL.F.J.H.G.'.|..X.X",
"Z.P.|.&XOXXXF.}.|.|..XC.+ y W 0.e.[ [ e./ | c., / 0.]  .0. .;  .=Xz n b n b / 0 -.e V.}..X X'.A.L.L.F..XE.P.&XXXJ.J..X+XK.F.K.F.",
"OX'.A.L.K.F.G..X[.}.XX$X5X_.$.' [ e.w.z 7 0.t.6 0.0.| c.0.} ; 4.*Xo i , n n ) z -.X. XA..XE.H.J..X.XP.Z.E.}.}.}.Z..X.X.X.XK.J.$X",
".X&X}.F.'.XXP.G. XE.F.H.Q.R.>.u y V V _ x ` x / |  .a.i.4.` 5 ^ ;.-.(., b n C n -.a  XT.H.F.|.|.'.'.P.P.G.F.E.F.E.OX|.|..XJ.}..X",
"}.'.F.'..X.X+XG.N.'.$X XV. XT.%XW.u %._ E j.2 / ;.a.5.i.;.} D R  .1XjXk., 4 n B W V ~.A.@X X5X$X&XOX|.|.XXXXG.H..X.X|.|.XXJ.'.&X",
".XA.P.OX|.|..XF.}.XXXX$XZ.H. X X$XQ._.j ' ] z | 4.i.4.i.a. .} f 7 4.pXmX;., s B c ..,.W.h <.).m. X$XXXXX}.}.[.F.XX|.|.|..X'.Z.F.",
"Z.G.OX|..X.X|.F.}.OX6X6XA.|.&X+XXX$X#Xa n > ] | c.4. . .a.i.a. .H : 4.pXvXc :.m s :.o.W.u r P + P S. X X X}.|.H.K.|.|.|..XH.K..X",
"A.P..X+X|..XXXF.L.K.J.G.G.|.|.XX6XXXY.p $ 0 | | 8.} 7 ` '  .i.5. .H ; 4.iXpX7 u.5 c u _.W.J 3XU @.P >.W.#XE.A.Z.F.F.K.P.G.G..X|.",
"G.'..X|.|..XK.F.}.XX.X|.Z.'.|. XK.A.I.N . x 0.c.8.9 > ] z  .i.4.c.r.E ; 6.tXx.} R z $.@.!.L.J 2XqXg e * B.A.A.@XXXP.F.|.F.|..X|.",
"N.N.E..X$XJ.J..X[.}.'.+XJ.Z.F.F.J.XXXXR.O m r.p.| b [ _ b ` a.| ` ` | 6 ; <XsXh.  $   # e J J # H ; 1./.u /.#XoXE.^.L.n.Z..X.X'.",
" X XH.H.A.G.$X.X|.[.}..XK.F. X|.|..XXX~.u.i |  .b 5 c e.) 0 ] | 0 6 ] 3 # ; pXh.# rXqX^ 3XtX2X=.H pXBXBX(.* X.D.oXXX6X'.N.L.XX|.",
"|..XH.L.Z..X+X].'..X.X$XK.F.}.}.|. X|. X%X..&.R 3 / | 0.v 5 v R 0 0 3 7 _ 4.(.D H ^ h.6.F ~ h.7.H aXmXlXBXvX9X<.#.%XXXXX[.A.|.$X",
"|..XoXG.N.E.$X'.'.'.{.&XK.G..XXX.X|.XX5X_.u &.{ | / ` R 0 0.0 0 ` 8.zXBXpXxXF % @ ; 3X- = J % @ 5.aXaX7.h.9XzXzX..!.#X#X&X'.A..X",
"&X&X&XQ.V.R. X$X.X|.&X&XH.H.$X$X{.$X#X).N & { [ x 6 E g x.xXx p. .c.xXaX2X3X3.- D D 5.4XL ^ F 7.L <XgXT >X>X .c.yXQ Q o.A.H.J.H.",
"&X&XM.C.O.o.Q.@X#X X$X&XZ.Z.N.S.Z.H.l o.< z 4 z 5 *X=X7 0Xh. .mXc.7 % 7.4XiX% S 3.D 3.>Xr Y.2X7.F F <XiXh.5.4.eXy.z -X1.U.Q. XA.",
".X%XE.e %X-Xa I.#X%X&X.XA.XX$XH.@X,.V c -.f :.=.: E % $ kX% K kXE H 3XF % - S 8XdX;XG G # e e @.J qX: # # % ;.jXnXk.:.uXP ~. XJ.",
"H.A.I.I.d d lX-Xj %.B.V.V.).~.V.Y...yX` x eX2X=.H  .% H xX@ T 3X: 7 iXK 5.sX3.NXfXdX;XG J _.5X1.! 0X~ j E s R & W $.-.N + Q.E.}.",
"$XH.T.~.W.A $././.bXs.* <.2.d Q _.BXeXx ` wX9Xg ^ pX# 5 qX% 3.6.  r iXG 4XdXY NXfXfXY G @.~.@X#.6.aX=...:.` c 1 :.s...*.j Q.'.'.",
"[.A.E. X{.R.o.* uXjXhX(.BXjX/.lXlXbXjXm =.-.x.vXMX0XH ~ (.; G <XH H 3XF :X4XT dX,X;XG F m.oXG.M.r 6.pXqX~ = d.-.= ! N l h Q.[.].",
"F.}.[.'.'. XV.O.a ..$.yXjXvXu.yXqX9X9Xd.d < X wXmXJ J f.~ ~ : 4X; y >XK 3.K 5.G Y G T k 5X6X&X%XD.!.t P tXpXg H :.~ B.Q.+.R.'.P.",
"N.'.}.|.[.'.{.N.~.Y.* $.<./.Q $.g...! %.d d < 5 iXaXt @....    .} % ~ >X^ ^ 5.F G D.<XoX6X6X&X&XF.E.5XD.= @.jX/.y O V.H.XX'.'.P.",
"A.|..X'.'.|.'.Z.E.^.R.I l j j * . & u.~ /./.s > f 0X3X: J -.  0 r.& # i.~ g.J J J ^.D..XOX&X&X.XL.F.E.oX).+.t g.uXj T.A.G..X}.'.",
"E..X{.'.P.'.H.E.|.}.^.~.!.,.B./.* r.nXd y O X $   ~ tX:XH H X o & = . j X.r !.P r S.P.XX&XXX|.H.F.L.F.L.L.^.~.X.e +.+X+X'.A.P.|.",
"A..X'.|.K.|.F.E.|.'. X!.j >.h Y.d W lXM k.W 5 $ $ # h.mXH # y o 7 1 P W.j w I #XM.M.F.L.}.E.Z.N.P.|.|.}.F.L.H.S.}. XXX+X[.F.Z.K.",
"A.G..X'.}.K.N.[.E.E.W.j Q N <.Y.& =X(.c s.hX9X` } 7 kXMX3X@.a e e e W.[.~.#X^.N.F.}.}.L.Z.F.G.F.XX|.}.|..XF.N.G.XXXX+XOX.X[.J.n.",
".XH.F.}.E.K.N.|.{.E.o.W.& (.u.$.< *X4 j.z & j.vXvXK =.uXtXJ ~.@X%X~. X X XH.M.K..X'.}.}.J.H..X|.G.'.'.'..X XL.F.|..X|..X|.'..XZ.",
"{.G.N.H. XH.Z.K.Z.H.o.V < z n u.k.s (.X & V * j 6.@.# # r t ^.[.|..XR.A.N.L. XXX.X[.[.[.'.J..X.X|.K.J.}.}.XXXXE.Z.XX|..X+X'.[.m.",
"{.K.J.N.n.N.A.G.'.N.<.u.m ) m t.c $ 4 n 4 y <.B.t * 6.2XP !.'. X|.H.N.J..X|..XXX.X|..X{.E.L.|.|.}.XX.XK.}.XX&X|.}.F.}..X[.G.A.J.",
"}.[.E.Z. XXX}.OX|.Q.#.e m 9X:.u.d . * y w 2.R.Q.H.R.P P D.D.H.R.G.N.'.'.}.P.|.|..X{.{.[.'.N.XX&XOX|.}.}.P.}.P.P.K. XF.L.F.H.{.[.",
"E.K.n.Z.'.$X X.X XE.V.h p * f *.u o.X.O.R.E..X|.}.L. XL.V.E.J.N.N.J.'.'.P.P.|.OX|.|.}..X XN. XXX|.|.OX}..XXX|.|. X|.K.Z.H.E.[.'.",
"G.J.'.E.H.Z.{.$X}.Z.T.l u.a s.j T.B.E. X.X|.'.'.}.}.P.K.n.E. X[.Z.E..X.X}.'.+X+X6X.X}..X^.F. X|.|.XX6XXX.X.X|.|..X}.Z.n.'.'.{.P.",
"P.P.'.}.|.F.Z.A.n.R.^.l ,.<.e R.V.'.|.+X|.K.'.[.P.|.|.XXJ.Q.oXG.H.Z.G. X}..X+XOXOX|.R.F.F.F.|..X|.XX|.P.[.[.|.XXXXXXZ.Z.|.+X'.|.",
"P.P.K.P.'.|.Z.J.K.'.7X~.<.<.W.V.[.|.+X'.P.}.'.'.|.P.|.|.T.H.G.K..X XL.F.}..XXXOXP.F.N.N.'.K.G.|.|.|.|.P.|.|.+X X'.G.A.P.|.P.|.|."
};
