/* XPM */
static char *_1679389519[] = {
/* columns rows colors chars-per-pixel */
"64 64 239 2 ",
"   c #1D1F00",
".  c #251C00",
"X  c #2B1B03",
"o  c #2B1D0B",
"O  c #271703",
"+  c #361D05",
"@  c #1B2200",
"#  c #252301",
"$  c #2B2402",
"%  c #2D2B02",
"&  c #2D250B",
"*  c #282807",
"=  c #322A02",
"-  c #33230C",
";  c #3C250D",
":  c #332C0B",
">  c #382706",
",  c #2B3100",
"<  c #343402",
"1  c #34310C",
"2  c #3A3808",
"3  c #2E2312",
"4  c #2F241A",
"5  c #332514",
"6  c #342A14",
"7  c #3B2A14",
"8  c #33261A",
"9  c #362B1B",
"0  c #3A2C1C",
"q  c #382717",
"w  c #3B3215",
"e  c #3B321C",
"r  c #3B3716",
"t  c #362B20",
"y  c #3A2D21",
"u  c #3E3223",
"i  c #3F3329",
"p  c #491F00",
"a  c #432404",
"s  c #452909",
"d  c #493806",
"f  c #432C14",
"g  c #482D14",
"h  c #403215",
"j  c #4D3315",
"k  c #43321C",
"l  c #4A331B",
"z  c #483C1A",
"x  c #52341A",
"c  c #563617",
"v  c #53340F",
"b  c #433524",
"n  c #4A3522",
"m  c #453B25",
"M  c #4C3B23",
"N  c #423629",
"B  c #453A2B",
"V  c #4A3C2B",
"C  c #543A23",
"Z  c #533D29",
"A  c #5A3D24",
"S  c #4A3F31",
"D  c #613E23",
"F  c #613818",
"G  c #384B03",
"H  c #3B5001",
"J  c #3F6103",
"K  c #464509",
"L  c #435609",
"P  c #484618",
"I  c #574819",
"U  c #4C5318",
"Y  c #55591A",
"T  c #61401D",
"R  c #456107",
"E  c #58681B",
"W  c #4D740D",
"Q  c #4A4423",
"!  c #4D422C",
"~  c #4E4926",
"^  c #5C4124",
"/  c #53422C",
"(  c #584728",
")  c #575527",
"_  c #4C4232",
"`  c #534534",
"'  c #544935",
"]  c #5B4B35",
"[  c #574A3A",
"{  c #5B4C3C",
"}  c #564636",
"|  c #5C5538",
" . c #63462B",
".. c #6B4B2E",
"X. c #654827",
"o. c #744D2B",
"O. c #67572A",
"+. c #644D34",
"@. c #6A4E32",
"#. c #604F3F",
"$. c #64533D",
"%. c #695637",
"&. c #735439",
"*. c #7C5B3B",
"=. c #785735",
"-. c #5A6623",
";. c #566730",
":. c #61642B",
">. c #696739",
",. c #766B3A",
"<. c #75773C",
"1. c #6A7A32",
"2. c #60721E",
"3. c #5B4E41",
"4. c #564C40",
"5. c #5E5244",
"6. c #625344",
"7. c #6B5C44",
"8. c #685A46",
"9. c #7D5D41",
"0. c #725C44",
"q. c #6D6B43",
"w. c #6C644A",
"e. c #74644B",
"r. c #786649",
"t. c #7A7749",
"y. c #7C6A52",
"u. c #7B6D5B",
"i. c #776652",
"p. c #756F52",
"a. c #8E5B2E",
"s. c #88542C",
"d. c #865A36",
"f. c #8E5C33",
"g. c #845D3C",
"h. c #8B5E3A",
"j. c #855630",
"k. c #925E34",
"l. c #935D39",
"z. c #915D2E",
"x. c #84623D",
"c. c #8D623C",
"v. c #8A6639",
"b. c #946136",
"n. c #986337",
"m. c #95623A",
"M. c #9A653B",
"N. c #9D693D",
"B. c #946A3E",
"V. c #A16B3E",
"C. c #A0673C",
"Z. c #815E42",
"A. c #856244",
"S. c #8C6443",
"D. c #826449",
"F. c #8D6A4C",
"G. c #86694A",
"H. c #926541",
"J. c #956A44",
"K. c #9D6B42",
"L. c #936C4B",
"P. c #9C6E4A",
"I. c #996741",
"U. c #877A49",
"Y. c #9D724C",
"T. c #96734A",
"R. c #856A51",
"E. c #877658",
"W. c #9C7453",
"Q. c #9C7A5B",
"!. c #997554",
"~. c #A36D43",
"^. c #A86F45",
"/. c #A57145",
"(. c #A97346",
"). c #A5734A",
"_. c #AA754B",
"`. c #AD794D",
"'. c #A7794C",
"]. c #B17B4E",
"[. c #A37551",
"{. c #A47953",
"}. c #AD7B52",
"|. c #A47D5B",
" X c #A97A56",
".X c #B27D52",
"XX c #897965",
"oX c #967D64",
"OX c #759135",
"+X c #73A127",
"@X c #7A854A",
"#X c #80AE31",
"$X c #8A8558",
"%X c #988A56",
"&X c #8D9857",
"*X c #94955C",
"=X c #9C9B5C",
"-X c #898D4C",
";X c #A98157",
":X c #B58155",
">X c #B78258",
",X c #95A658",
"<X c #8FAC4C",
"1X c #8D8469",
"2X c #93846C",
"3X c #978765",
"4X c #989666",
"5X c #8F8271",
"6X c #9A8B76",
"7X c #9D9178",
"8X c #A49D69",
"9X c #A89779",
"0X c #A18E6D",
"qX c #A5A669",
"wX c #A8A579",
"eX c #ACB374",
"rX c #B4AF79",
"tX c #9DA268",
"yX c #A8D755",
"uX c #B5C877",
"iX c #B0E25F",
"pX c #9E9281",
"aX c #AB9C86",
"sX c #ACA587",
"dX c #B3A38A",
"fX c #B7AA85",
"gX c #BBAC99",
"hX c #BAB88A",
"jX c #C6B89A",
"kX c #C5B792",
"lX c #CABBA1",
"zX c #BFC28D",
"xX c #C2C586",
"cX c #C9C998",
"vX c #C3D299",
"bX c #E3FF9E",
"nX c #D4C5A8",
"mX c #D0CAA3",
"MX c #CBEC81",
/* pixels */
"~.m.(.V.`._.m.(.`.P.S.F M.l.m.l.N.n.N.b./.).^._._././.^.).f.~.f.s.K.).m.M.).).b.V.^.(._.V.(.~.N.n.l.]._.(._.k._.].].m.(.`.`.`.`.",
"/.m.k.N.(.k.].(.^.`.S.p  X'.K.~./.].`./.~.)._.).)._.~.^.~.l.W.d.H.K.b.).).m.M.K.(..X:X]..X(._.(.~.m._./.(.].n.C.m.M.k.).(..X`.M.",
"`.(.]./.f.)._.(._.).L.p J.W.K.`.`.`..X~.l.m.M.~._._._.~.l.P.H.v h.).P.`.`._.b._._..X].`.(.^.^.(./.b.N._._.N.N._.(.^./.m.m.l.m.`.",
"^._././.m._.(.^._.M.H.d.c L.m./._.N.n.~.:X X~.~.l.k.m.k._.|.Q.s Y.)./._._.'./.n.`..X`.~.(.].^.k.n._.(.z.~.m.`.)./._._.b.(.).^.(.",
"^._.N.k.k.l.~.~.n.).'.g.c S.h.K.~./._.(.`._.K./.M.^._.K.K.J.D.s X.J.K.(.]..X(._.M.`.'.~.k.n./.`.)./._./.z.M.}./././.`.M.~.`._.`.",
"N.n.~._.).).m.m.~.}.~.J.x @.Z.).)._._._.]._.`.M._.~./.:X'.{.A.f c Y.P._._.(.`./.m.m.b.P.~.k.n.V./.`.:X_._.n./._._./.}.V.k.~.).).",
"/./..X^..X.X_.k.K.).).P.A i.@. X X/.`.`.`.`.M./._.`.`..X/.Y.0.f j L.'._._.n.M.M.'.M.`.^.(.~./.V.b.n.'.:X_.I.k.~..X`.].N.~.^.m.).",
"b.n.n._..X.X_. Xm._.`.P.( n +.*.c.M.k.n.I.m.}././././.).P.J.f 7 g F.{.M.N.'.`.`.).b.^._.^._.V._./.V./.n.m./.).k.n.M.k.k.N.M.k.}.",
"/.~./.k.B.K.M.M.I.M._.Z.( b 6. .S.`.(.V.N.k.}.]._.^.^.).I.9.b f l F.P.K./.'.`.]._.(.N.`.^.V.(.(._._.}.l.~.).~.M.l.N.M._./.(.n.`.",
"`._._._.).b./.~._.k.~.Z.n { y R.g. X~.~./._.M.n._.[.^.).!.f b y n r.J.l./._.`.`.(.].n.`.`.V.V.(._._.~.l.~.~.).~.m.b./.~.V.(./.M.",
"`.(._.`.N./.~./.).l.I.g.Z 5.b } &.|.`.^._._.].`.~.l.I.P.A n b k k Z S.}.n./.`./._././.N._.V.V.N.~.~.~.f._._.C.^.K.M.^./.(.V./.~.",
"~.`././.k.N.(.~.~.~.l.g.Z 6.] 7 i.Z.[.).)./.^.~.~.l.I.[.D k b N t Z L.K.f.)._.`.].}.'.b.`._./.~.~.~.l.l.~.~.).~.M.N.~.~.V./.(._.",
"M.V.^.M.l.`.^.K.~.l.^.P.9.Z 6.V k E.Z.K.M.n.f.I.P.M._.).F.s b N t b  .[.J.K.~.`.`._.M.m.M.N.~.~.~.l.C.`.C.N.~.^.N.M./.N./.V.].:X",
"^.~.N.m.f.).^.~.).f.).[.W.&.] 5.u ] D.H.Y./.P.l.l.[.).[.W.&.b b b q l F.g.l.l.M.n.b.m._.)./.M.n.l.(._.`./.M.k.M.M.k.M.b.V._.V.C.",
"^.k.N._._.k.~.^.I.l.[.I.P.L.0.#.{ q y.A L._.)._.l. XZ.W.W.F.q N y y n  .P.).^.~.b._.N./.~./.`.N.n.(._.`.(.~./.k.~.^._.).b.b.N.(.",
"m.]._.].(.C.k.k.l.Z.Z.v =.W.&.Z 6.N 3 7 @.{.).K.Z.Z.s A W.&.k b N 8 0  .{.).).~.b.'._./.~.V./.].(.n.(.^.`.K.k.k.N./._._.M.V.].(.",
"m.`._._.(.^.M.K.{.9.Z Z C Z.R.Z 3.4.t B R.9.F.9.l Z k 7 F.D.0 N N 0 0 l F.[.^._.n._..X_.^.^.~.~.).^.M.M.n.n.^.~.(.b.m.n.k.:X_./.",
"~.m./._.M.m.l.m.*.n 3.5.#.n R.+.S 6.4.y N 6XA f b i B 0 Z 9.q N N i 0 k g !.)._.b._._._.]._._._./.(.~.k.M.~.~.V./.~.M.n.b.}._.].",
"^.~.b.n.M./.P.W.Z 6.6.6.3.6.Z 0.b 3.6.3.y N oX3.u i i m b b 3 i N N y 0 b +.S.Z.h._./._.(.^._._.(.`.M.k.(._._.(.]._.(.~.f.~.~.K.",
"(.n.z.~./.P.P.x 3.5.5.3.Z 5.6.#.b S 6.6.6.b 0 XXi.5 u i N N q i i N N y y n n S.W.b.~.(.(.(.).^.(.(.z.^.(.(.(./.~.(.M.(.}.k.K.'.",
").z.~.(.Y.[.D.C 6.6.3.[ 8.Z ` 6.5.[ 5.5.6.5.u 9 u.XX[ 4 m u u i b N N u 0 0 n C A.W.M.M.[.[.^.^._.~.k.~.V.(.^._.(.].(._.}.k._.~.",
"b.P.^.).h.a k | 6.5.6.6.Z 8.t 4.5.5.5.4.{ 5.5.V 8 ' XX' u i m b e 3 q y u y y N l @.L.L.j...Z._.).M.M.~.~./.^.~./._._.].^.k.l.K.",
"m.N./.(.o.+ - b ` 3.6.3.3.[ } 6.5.5.4.t t y N 3.` 9 9 8.1X| N 3 ] 6X6Xw.9 0 9 t b m / f 9.D.C ..[.k.K.M.V._.(.^.(./.].`.f.~.~.~.",
"/.~.~.(.).S.j O q q 0 y S 4.3.3.5.4.4._ 4 4 8 8 i t 0 6 0 u.8.q jX2XXXaX_ t y t t y 0 i.dX9XkXC d.f.~.~.~.].(.`._.N./.z.M.K.K.~.",
"N.C.`.(.^.).W.@.l 6.i.3.4 5 8 y i u y u y t t 8 y y 0 9 3 b 9 b 2X& o [ 8.9 y 0 y N 4 V n l E.9XL.M.k.~.(.`.^.~._./.k.V.k.b.K.~.",
"(.V.`.`._._.P.W.@.X f } i.pX6.N t 8 8 4 3 9 8 q 3 3 y w.aXu./ XX5 3 9 3 8 i B B i t i t i.@.( oXJ.).(.M.z.z.l.k.k.k.n.N.N.b.k.~.",
"_.(._.^.~.(.^.h.P.@.f q 3 0 V u.5X6XpX6XB XXXX7XsXdXaX5Xi.5 8.w o N B 8 N N i y 4 t 8 5 Z.Z.x D Y.~.(.].l.^._.).n._./.~.M.K.k.l.",
"k.l.k.M.k.k.k.K.K.J.&.f S S b y 9 3 3 9 5 V [ ! m w - - o R.h XXo 9 0 9 t y y y t i t ; L.h.o.L.P.^.^.].].k.`.`.b.N.~.~.^.k.l.`.",
"l.~.`.^.~.~.(.~.M.I.S.A q y y S ' ' V 0 8 q 9 9 9 9 9 5 2Xy.] p.! 8 t 0 t y N y N i t o Z.m.P.).~.V.N.~..Xk.m.~.m.k.~.~.l.)._.}.",
"`.m._._.l.~.~.~.~.k.H.&.` 3.3.4.[ N q b N N N t y 0 8 7X8.. aXb 7X& 0 u N b 8 y N y q + W.P.m.~.~./.~._.`.M..X`._.).k.k.).(.~._.",
"~.a.m.~.k.M.~.K.k._.{.Z.] 5.5.t i.0.XX6.3.3.S 0 q ` 6X} - ] 3X: sX& u i t 9 b N y y 3 C Y.(.(.l.N./._.N.k.m.N.~..X`._.k.(._._.^.",
"n.`..X}.(.l.M.l.}.).[.&.Z 6.6.` n 7.g Z [ b q B aXu.8 9 $ sXP e wX: 0 t t y B y y 0 q @.[.(.~.).n.M.n.(./.}._.M.n.M.n.m.^.(.(._.",
"k.K.(..X.X`.k.).).).[.D.] S 5.5.5.} m 0 6 { 5Xi 9 6 9 6 q.t.* r 4X* 6 t y i u t y 8 ; L. X`.P.k.M.M.l._.N.V..X`.m.N.].`.M.n.V.b.",
"`.K.n.N.N.m.M._.).).W.g ` B B y 3 0 { 5Xu.b 6 : 9 t 6 P eX% 1 u @X% e u B y t 9 u + C S.).M.l.N._..X~.k.~./.~./.k.(._._._.M.n.`.",
"_..X(.k.~._.V.n.).h.p 7 q 5 0 u.b 8.b 9 8 t y 0 u 9 # t.~ 1 1 >.P # 0 u 0 9 u t b o x F.S.m.).)./.K.M.V.b.b.~.b.N.`._.V.`.n./.`.",
"/./.k.V._._._.C.a.J.Z.+ o & 9 9 4 8 8 8 8 y y 9 0 & wXP # 1 , 2XQ ] 9 9 . 3 0 9 M 6.g A.Z...T.'.).`.)._.}.`.M.m.`._._.(.`.N.N.].",
"_.b.~.`./.(.`.l.~.`.;X|.9.l [ { } e.u.b ' t t e % 1Xm # * Q 1 4X: 6 e [ u V 0 - q 7 c T.d.+ d O.a T.{._./././.n.(./.(.(._.V.z.b.",
"k.n.`._.(.`._.k./.`.:X XS.^ g n $.` ` ] ` y 0 & t.>.& * * w.* ~ 1 w.E.w ' 8 XX5 { ; G.[.Q.*.U.,.P X.x.[./././.M.N._._.(._.b.C._.",
"n.V._._.(._.`.b.I.N.M.M.m.).[...D  .n 5 t 9 : p.~ 1 * 6 ) q.Q r $XwXmXwX7 O Q e.w.%.G.Q.Q.|.X.%X%XI =.*.W.J.m.f.z.b.~.~.n.n.`./.",
"M.V._._./.`.M.n./._._._.k.P.).W.R.i.n S 9 ! 1X1 6 _ w.| w.>.) 1 , 2 *XcXjX~ $ e.X +.> j v c ,.d -X,.X j v x.c.).`./.b._.k._._._.",
"d.k.K.`.'.m.m.`.V.(./._.M.k.h.S.$.b } q ] p.- z ;.w.t m Q Q >.) 2 1 # >.qXuXI # # Q w ( =X8X,.d 2 %.%XnXE.l Q.[.K.K.M.a.b./.`.V.",
").).l.d.g.H.}.(././._.`.N.m.).g.l } 5 S Z 6 ' w.q.m 4 ' ;.q.q.>.| ~ w < K tXxX:.% jXzXd U Y -XT.Y qXnXnXlXe.s *.'.;X;X/.z.B.`.(.",
"/.'.H.v x L.}.~.~._._._.I.M.).d.+ X O 8 _ 5.8.5.' 6 e | w.q.>.| | ~ 6 3 : P eX, P ) ,.>.4XqX= z < xXfXkXnXnXjX!.A |._.`./.b.'.`.",
"/._.{.o.E.c '.~.~.~.)..XI.H.[.W.H.E.D.k i 5.5.t u B | w.Q 2 1 , : ~ | w.>.< U ,   U $XG ) U = 2 Y eXxXY ~ q.wXgX9X*.|. X:XN.z.`.",
":X}.:Xj.r.9XL._.'./.].}.l.M. X:XY.|.oXf ! ' ' 4.{ _ e 6 ) $ r p.Q 6XkX4X-X-X, 2 2 q.&Xt.zX~ %X8X:.OXxX1.OXvX;.| aXA x =.c.m.H.M.",
":X}.}.W.g dXZ.W.}.).`.>Xl.k.f.c.H.h.X.- gXm 5._ 6 * * sXu.# sXwX  $ ) &XeX,X@ H ;.J L 1.) ) K > . K :.,X@X;.' $X6X0.XXE.=.P.).f.",
").}..XY.c E.aX@.Q. X X_.k.{. XS. .l ] ! gXV e * | z * hX1 1 vXU P ) :.@ # , G -X+XW G Y = !.v.U.^ rX$ X * 1 q.jXjXi.7 dXx W.).N.",
"m.b.l.H.A.A Z jXD.*.J.c.c.Y.T. .oX0.pX! u.! 9 ~ p.$ < hX# P hX, U 4X-X1.:.,X<XMXyX+XJ Y d |.:XB.X.0Xh %.! / X h 7.6XdX6Xs F.K./.",
"{.m.M.).W.s kXjXkX+  .D.C g e.0XlXf p.7 2XE.b u.O.% = wX: ) tX@ H eXE <X2.<XtXbXyXiXW L %XY.`.v.,.xX,.> 3Xz / : ] M r.+.^ x.K./.",
").l.N.).~.=.D R.oX7XlXlX2XdXjXjXjXI e.k dXw.| dXwXP P 4X: z &X* 4X&XE OXE ,XOXiX<X+XR K T.).B.v.d -XrX8XX.X ( r.h w %.^ F.W.P.).",
"m./.(.~.~.).H.g f lXaXkXw.9X3X3X6Xr.5 Z n Z nXmX<.< ,.&.n : =X2 K t.OXY H &XL OX+XH E a ;X:X:X}.v.v.s O.rXwXP 1 e.7 j L.c H.K.V.",
"f.^.~.(.~.~.W.Z.9.+.@.R.%.&.!.G.R.oX0.o 7.O $.cXrX2 O.&.: | Y >.| G &XK 1.U E L H L U.'.].:X.X}.b.P.;Xv.> O.fXE.h M D S.[.~.^.~.",
"k./._.V.~.(.~.h.K.=.g.d.v p s s + X O Z 3X&.( z qXxXY = : I % U.r r t.U U.,.U.d ,.T.v.'.`..X`./.M.b.K.{.T.,.v R.aXr.o.H.l.`.(.~.",
"N.`./.V.~.).l.K./.P.P.W.W.!.Q.oX0.O } f D.+.Z X = E.rX<.) Q O 7 m & = G.%.L.I a =.B.K.`.].`._.n.b.B.M.m.M.).W.d.p s W.[.K.l.~.(.",
"k.`.~._.C.).l.~.(./.).P.*.*.Z.&.; ` nXM $.f 7 o X = U.cX) 1 7 X o ; g v ^ @.T.=.X.d.b.V./.K.k.k.N.`././.m.m.m.Z.P.Y.`.`.).k.z.V.",
"m.k._.~.^.~.s.~.B.N.K.o.@.A oXs ] S lX/ u.- k : - . p.mXxXG h f ; j !.Q.X.a H.h.k.'.P.b.k.l.M.l.`././._._.M.f.m._..X`.].`.^.l.k.",
"`.m.l.).~.K.a./._.K.I  .M X oXj k 2XXX- } gX2Xr.q.t.>.9XqX%XT.Y.;X[.~.[.Y.c.d.K._./././.M.m._.^.n.V.~.~.`./.N.b._.(.(.(.(.~._.l.",
").l.k.m.^.M.k.N.k.B.@.M ` aXn C k E.- sX` X $.9XcX8X% # $ $ B./.)._.V.k.k.M.).}._.V././.K.M.`._.(.C.n.V./.`.}.N.z._.(._.`.~.~.s.",
"^.I.M.a.f.f.k.M.~.o.+.XX5 5 XX0.y.0 XX/ X m ( + j O.$XI U.O.P./.).l.k.m._._._.`._.(.'./.I.M.'.^./.]._.~./.`..X/./.n./._.^.M.l.~.",
"/./.K.k.)._./.]._.d.C b w.6 $.] e V ; k k o x !.S.x.s d I G.m.K.M.f.~.~.~.V.(.(._././././.f.}..X`.`.^.~.~././.K.V./.b.N.l.m.^.~.",
"K.N.a.k.~.`./.`.(.P.f 9 XXk E.8.O 0 / f m x {.).P.B.'.B.x.J.M.f.a.M.~.V.~.~._.]._.(./._./.a._.`./._.].V._._._./._._.M.l.m.V.V.V.",
"m.M.~.~.m.k./.].^.h.^ 8.- n +.e.; C l h j !.)./.V.(.V.N.f.K._.~.k.~._._./.~.`._.]._./._.K.b./._._._.].]._.]._._._.^.k.a.~.~.(.~.",
"M.~.K.~._.k.k.b.f.j.&.R.j R.c A.g.Y.c.J.Y.P./.V./.(./.`.m.~._.M.m.k.M./.V._.`.].`._.N.b.b.b./._._._.`.V.V./._.`.`.`.k.k.(._.~./.",
"~.~.N.~.~._.f.I.I.J...>.%.> F.c.).).`./.N.V.V./.V.V._./.H.m.m.I._.).B.b._.(._.].K.b.f.b.K.B.n.(.(._.(.V.(._._./.V.b.k.~.^./._._."
};
