/* XPM */
static char *_1679389519[] = {
/* columns rows colors chars-per-pixel */
"64 64 241 2 ",
"   c #1F1900",
".  c #241C01",
"X  c #2A1C04",
"o  c #2B1C0B",
"O  c #261804",
"+  c #361D07",
"@  c #1C2200",
"#  c #2B2402",
"$  c #2E2A03",
"%  c #2D220C",
"&  c #252600",
"*  c #332C02",
"=  c #33240D",
"-  c #332B0B",
";  c #3B2A0D",
":  c #382308",
">  c #2C3100",
",  c #3A3C02",
"<  c #3B3A0B",
"1  c #363306",
"2  c #2E2211",
"3  c #2F271A",
"4  c #332513",
"5  c #352A14",
"6  c #3B2A15",
"7  c #342619",
"8  c #362A1B",
"9  c #3B2D1B",
"0  c #3B2611",
"q  c #3B3313",
"w  c #3C311D",
"e  c #3C3715",
"r  c #3B2E21",
"t  c #352D20",
"y  c #3D3223",
"u  c #46280B",
"i  c #443A0D",
"p  c #442C15",
"a  c #4A2D12",
"s  c #412E1A",
"d  c #4D3216",
"f  c #44331C",
"g  c #453D1B",
"h  c #483719",
"j  c #52351A",
"k  c #533A1C",
"l  c #583A18",
"z  c #51320F",
"x  c #633F17",
"c  c #433423",
"v  c #4A3522",
"b  c #463A25",
"n  c #4B3A24",
"m  c #44362A",
"M  c #45392B",
"N  c #4B3C2B",
"B  c #533B22",
"V  c #5B3E23",
"C  c #503E2C",
"Z  c #463930",
"A  c #394304",
"S  c #3E5503",
"D  c #2B4100",
"F  c #43440A",
"G  c #46570C",
"H  c #4B451C",
"J  c #484517",
"K  c #584719",
"L  c #4D5213",
"P  c #55571A",
"I  c #55410F",
"U  c #634C1A",
"Y  c #58661A",
"T  c #5B7115",
"R  c #466609",
"E  c #4C4224",
"W  c #4C4428",
"Q  c #54432B",
"!  c #5C452D",
"~  c #574827",
"^  c #5B5828",
"/  c #4D4233",
"(  c #4C4439",
")  c #534534",
"_  c #554936",
"`  c #5B4B35",
"'  c #554A3A",
"]  c #5B4D3C",
"[  c #574633",
"{  c #5C513E",
"}  c #5A5232",
"|  c #634224",
" . c #62452B",
".. c #664A2C",
"X. c #6C4B2D",
"o. c #684825",
"O. c #714E2D",
"+. c #784E2C",
"@. c #66562B",
"#. c #634C33",
"$. c #6C4E34",
"%. c #614834",
"&. c #734F32",
"*. c #63533C",
"=. c #6C553C",
"-. c #675737",
";. c #745335",
":. c #7C5533",
">. c #7C5B3D",
",. c #76583B",
"<. c #79522A",
"1. c #5B6726",
"2. c #5A6336",
"3. c #646629",
"4. c #687524",
"5. c #696536",
"6. c #756838",
"7. c #6A7437",
"8. c #787839",
"9. c #64681C",
"0. c #584E41",
"q. c #5D5242",
"w. c #635443",
"e. c #695B43",
"r. c #6A5946",
"t. c #755D43",
"y. c #7D5D42",
"u. c #6D6445",
"i. c #74634B",
"p. c #7C644C",
"a. c #786848",
"s. c #7A7847",
"d. c #7C6B53",
"f. c #766955",
"g. c #7E7458",
"h. c #8D5A2F",
"j. c #8B572D",
"k. c #835B34",
"l. c #8E5C33",
"z. c #845C3A",
"x. c #8A5E3B",
"c. c #925E34",
"v. c #945F38",
"b. c #84613C",
"n. c #8C623C",
"m. c #896B3D",
"M. c #956136",
"N. c #986337",
"B. c #956239",
"V. c #9A653B",
"C. c #9D693E",
"Z. c #837D3F",
"A. c #A16B3E",
"S. c #A0673C",
"D. c #846344",
"F. c #8C6444",
"G. c #8B6A4C",
"H. c #886948",
"J. c #946642",
"K. c #946A45",
"L. c #9D6B42",
"P. c #946D4B",
"I. c #9B6E4B",
"U. c #9B6641",
"Y. c #867A49",
"T. c #9C7046",
"R. c #9C724C",
"E. c #96754C",
"W. c #866D53",
"Q. c #82725C",
"!. c #877859",
"~. c #9D7453",
"^. c #967556",
"/. c #946F52",
"(. c #A36E43",
"). c #A56F46",
"_. c #A57145",
"`. c #A97346",
"'. c #A5734A",
"]. c #AA754A",
"[. c #AD794D",
"{. c #A5784F",
"}. c #B17C4E",
"|. c #B0774A",
" X c #A27653",
".X c #A47A53",
"XX c #AC7A52",
"oX c #AA7D58",
"OX c #B27D52",
"+X c #897B64",
"@X c #907E68",
"#X c #628E1D",
"$X c #79863A",
"%X c #6F8C2A",
"&X c #78A52F",
"*X c #598410",
"=X c #7C8240",
"-X c #82833D",
";X c #89C03E",
":X c #888648",
">X c #8A8856",
",X c #958E5B",
"<X c #949857",
"1X c #8E8F4E",
"2X c #AA815B",
"3X c #B58154",
"4X c #B88357",
"5X c #95AB50",
"6X c #8D8367",
"7X c #968968",
"8X c #9A9765",
"9X c #998974",
"0X c #9E9A74",
"qX c #A6967A",
"wX c #A48F6D",
"eX c #A3A669",
"rX c #ABB567",
"tX c #A9A675",
"yX c #B0AB7A",
"uX c #AEB478",
"iX c #B4B77A",
"pX c #9FAE75",
"aX c #A2D255",
"sX c #B6E66B",
"dX c #AFD969",
"fX c #C0E973",
"gX c #9B938A",
"hX c #AA9B83",
"jX c #B29E85",
"kX c #AFA287",
"lX c #B7A58A",
"zX c #BABB85",
"xX c #BAAB94",
"cX c #A8A199",
"vX c #C5B69C",
"bX c #C3B58E",
"nX c #D0BEA2",
"mX c #CCCA97",
"MX c #E5FF9D",
"NX c #D5C6AA",
"BX c #C5E580",
/* pixels */
"(.N.`.C.].].N.`.[.A.M.M.N.M.m.M.(.v.C.B.L.'.).].]._._._._.j._.C._.L.).B.V.`._.N.L._.].`.A.`.`.V.M.N.[.`.`.[.c.`.OXOXB.'.[.[.[.[.",
"(.N.M.C.`.M.[.`.`.].M.].3X].C.A.].[.[.(.R.R.'.]._.`._.A.(.l._.T._.L.N.`._.c.M._._.3X3X[.}.`.]._._.B.].`.`.|.M.S.V.V.M.'.`.OX[.V.",
"[.`.[._.l.`.`.`.].].C.3X[.`.C.{.[.[.XX'.x.+.V.).'.].].C.M._.V.M.N._._.}.[.[.M.[.].3XOX].`.`._._.T.M.V.].].C.C.'.`.)._.M.B.v.v.|.",
"_.].).'.B.].`._.].M.C.A.`.A.N.`.`.U.v.'.P.;.R.).n.M.M.M.'.3X[.M.]._._.`.[.`.A.N.].3X[.).].]._.M.V.'.`.N.(.N.XX].).].].M.].).`.`.",
"_.].U.v.v.v.L.(.M.'.].)._.[.c.(.).).].].F.l P.'.V.T.'._._.N.V.M.C.V.A.`.[.3X_.`.V.[.].(.v.N._.[.`._._._.M.V.XX_._._.[.V.L.XX].].",
"C.N.(.]._._.B.B.I..X).'.`.].v._.).].). XG.a /.U.[.'.].3X'.].C.V.`.`._.].[.`.3XA.N.N.B.(.(.l.N.A._.].3X].`.V.T.].].`.XXC.B.L.).'.",
"`.`.OX'.XXXX[.M.<.+.].).].].M.XXOX).XXoXG.a  . X{.[.[.[.`._._.c.`.].`.`.].M.V.V.`.V.]._.`.(.(.A.M.N.].3X].U.M._.OX[.[.C.(.'.V.).",
"B.N.v.].4XXX[..Xz.x .X].[.XXl.l.v.U.v.x.z.p V /.T.`.`.`.A._._._.V.T.{.V.C.[.2X[.`.M._.].`.`.(.`._._._.M.M._.`.l.N.B.M.c.V.C.c.OX",
"_._._.M.V.L.V.B.F.u n..XXXC.(.XXN.`.].I.z.s j &. X`.`._.(.C.].U.C.'.C.A._.[.[.[.`.].C.]._.(._.].].].XXv.L.).(.C.B.V.V.`.`.`.N.[.",
"].`.].].`.M._._. Xl O.F.l.(.(.N.v.|.).'.D.0 v v F. X'._.'.U.l.U.M.C.C.M._.'.3X].].[.M.[.].(.(._.].].).l.).(.).).B.N._.(.A.`._.N.",
"[.'.|.].C.T.A.'.~.O. .D.'._._.`.V.OX].'.D.0 0 m  .F.I.U.N._.'.XX`._.B.2XM.`.[.(.`._.'.C.].(.C.L.).(.).l.{.].S.).L.B._._.`.(._.).",
"_.].`.A.c.C.].(.).;.V ..P.'.]._.c.U.]. Xw.v s t n $.K.'.C.`.).`._._.A.A.c.`.`.[.3X3X].M.].].`.(.(.(.v.l.).).).(.V.L.).(.`._.`.`.",
"V.(.(.C.B.[.(.L.I.:.0 W.D.'.L._.].v.L.D.p c m r r v y.R.).(.(.`.]._.`._.C.C.(.XX].].V.M.V.C.).).).v.V.].C.V.).).C.V._.C.A._.[.}.",
"_.(.C.M.l.(.'.(.(.k.f v a.X. X.X].'.K.;.p m Z r 7 v B D. X'._.`.`._.]._.h.M.N.C.M.M.M.].`.'.V.v.c.].|.[.(.C.c.C.C.c.V.M.(.`.A.C.",
"(.N.V.].].M.(.).(.x.$.0 W H.H.2XXXU.v.F.6 N N m r 7 c f ;./.XX)._.T.M.n.T._._.C.M.].L.'._._.[.C.N.`.].|.`.(._.c.(.(.[.'.M.M.V.|.",
"v.[.[.}.`.U.v.v.v.z.%.c c w.,.O.x.L.l.D.n v N N Z t 7 c n $. XJ.B.C.].[.[.T._._.M.].].R.R.L.'.XX].N.`.).].A.v.l.C._.].'.V.V.[.|.",
"N.].].[._._.B.C..XR. .N ] 9 ` t.D.J.x.~.,.B N N m m r 3 9 C  .y.I.L.(.].[.'._.'.v.{.oX~.F.F.I. X'.).U.V.v.N.`.(.`.M.M.M.M.3X].`.",
"A.V.`.].C.N.c.B.V.K.B *.q.' 9 ` y.>.X.F.^.p.v v N M m 8 7 c c Q $.G.I.oXoX'.'.'.v. XD.j j j  .J.'.).(.l.C.(.A.S._._.V.N.M.XX`.[.",
"`.A.M.M.V.A.A.`.U.z.j ] w.q.) 9 Q Q.B s [ D.r.s m N m N c 8 8 y v C V y./.P.H.n.x.E.d bXbXjXqXl {.].V.l.).`.`.].[.[.`.(.l.L.'.L.",
"_.N.M.C.`.A._.`.'.L.y.B ] q.w.) 9 N +Xv s p =.w.c m N m m m b t 8 9 v v p j V ;./...p.hX=.V W.,.T.'.M.'.`.`.].`.A.`.V.].XXv.L.`.",
"`.h.S.`.`.`.|.`._.'.b.$.! *.] w.' 8 8 o C s c r 3 8 m Z M N M Z y t 7 6 q c N b c + N d.j G.V X.k.T.v.U.).`.`.`.`.OX`.].OXc.[.(.",
"v.(.`.`.`.`.`.`.(. XP.G.p.! *.q.w.] w 4 w.i.r.m m M M M m y Z Z Z y 7 o 5 } b 5 8 t c o d G.V a {.B.L.(.).`.A.(.).|.`.}._.h.N.L.",
"N.A.`.`.(.].`.}.'./.k Q ^.i.Q ] q.q.] ) y m f.+Xf.b y y 0.gXcXgXr 8 4 W zXzXzX>X% m 7 0 +  Xk.F.'.v.C.V.(.|.`.).`._.}.[.h.(.(.(.",
"(.A.A.`.(.(.`._. X .C [ %.! w.y 0.w.q.q.{ ' r r 0.+X9Xr.8 3 ( q.7 8 - xXeXL L ,Xw 7 Z 9 B ~. XL.v.c.(.(.(.|.`.|.`.(.`.h.C.L.V.(.",
"A.A.|.`.).).`.XXP.v *.w.w.[ m 8 y Z ] q.q.q.0.' y 8 C g.+XQ.+Xr.' 8 % tXs.1 & q r N N 6 $.oXL.v._.B.l.(.`.|.).C.`.].c.(.l.B.L.(.",
").(.[.|.|.].).).>.%.*.q.w.q.q.q.0.' ' q.q.q.q.q.q.' r 7 = 9 N e.+Xf Q ~ -   . 4 c N M o u D.J.U.R.R.{.J.c.c.c.N.c.h.V.C.L.M.v.A.",
"`.`.].`.).].(.l.~.%.w.q.q.0.0.q.q.q.q.q.' y r y N [ r y y 8 9 o 4 - 8X5.J X 6 m ) N 7 o + ~.F.u o.H.E.~.x.'.].`.B.'.'.L.C.A.h.M.",
"h.c.c.v.l.l.v.I.G.%.*.q.q.y ( 8 ' q.q.q.' 8 8 q.w.8 9 9 q 8 7 q.jXw W & g.$ = r.f 6 7 o l K./.| i l j j .Xl.[.].N.L.(.(.(.h.N.|.",
"V.(.}.`.C.(. Xz.C w.w.w.q.C ( 8 / q.q.{ ' / N r w y w 5 2 e.jXhX} !.q & 8X@ 5 w f.X 4 4 $.F.R.K.U ,X@.l ;.6.N.(.N.l.L.).M._.].}.",
"].N.].[.v.L.k.j [ [ ' ) ' ( ) N N N b y w q 9 4 4 8 b Q.hXhXi.- 5.6X% e >X$ . 4 i.Q % o k H.n.T.m.P 8X6.~ ..E.XX].'.v.l.L.[.).`.",
").h.N.S.l.J.F.a O 4 9 8 9 s 9 9 w w 9 5 4 2 c d.` hXxX+XW 5 5 E kX~ J u.5.F q . W 9 o X . q K I o.@.@.>X~ : ; >.2XXXXXv.`.).`.'.",
"B.XXOX[.].B.B.D.a O o 0 s m m 7 / N _ f.g.+XQ.{ 9 c 9 % 5 8 5 7X7.1X1 W ^ 8XxX5.$ g E 9Xa.J :X,X6.K # i H -.+Xd O.J.v.V.).`.'.[.",
"h.C.).OXOX[.v.R.>.u 6 9 C r.Q.` 9XQ.g.w.N 4 4 8 8 8 9 w 8 5 g.s.L <X> q 1 5.<XuX0X$ ^ uX,XA 9.9.:X:X6.@.xXNXNX+XB D.oXXXV.N.L.v.",
"}._.c.C.C.N.V.].~./.r.6 6 + 2 4 o 7 5 b / ' 0.] *._ w q - +X>X$ <XP < E - $ > 8.uX& , L ^ A 8.$X, 3.L 6.zXmXvXNX+Xk &.J.XXB.N.[.",
"|.[.).v.(.[.C.N.).I.P.y.r.` c 7 c N ] { ] q.{ q.) 9 w q } u.- W tX, h < -.-.J J >X& & =XY.; @.I * * , rXzXzX0XvXmXNX7XV ~.B.`.[.",
"'.`.c.).`.`.[.N.l.). X&.a C ` 0.0.Z t y { _ ] N 9 9 5 u.} $ * W < < g.!.7X>X7XL @ P A W 8X^ H.@.-.:XY <X5X<XA ^ u.kXbX!.,.K.L.XX",
"R.n.(.}.`._.}.M.(.].XX2X;.p ` q.8 % ( 2 M M y 9 w 5 -.5.- 1 ^ >X% # 1 ^ =XtXtX& D T R S 7.3.J Y.1Xm.P Y <XrX1.uXpX2.i.lX! ;.>.n.",
"| o.XX].`.].].M._.[.3XXXD.%.` 0.] y w 3 q w w 9 5 e.u.$ E 1 =XY - e 3.$X@ > A D &X5X#XR A > * U U K < s., $X>X1.2.2.+XlX9Xp.j p.",
"#.p.z.oX_.].[.M.L.V.V.U.D.G.] y y w w 8 w 8 3 y u.W < E < 3.7.8.& J <X-XL G rXT fXdXaX#XS L 6..XR.m.3.eXE u.e < J 9XvX@Xb Q qX..",
"! wX,.P.{.{.U.B.I..X.XK. .!.qX9XW 3 w w 8 y Q i.b e W A J s.Z.4.  1 rX4.$XY rXT MXsXsX&XG F m..X`.b.:X8X} 9Xb E . e d.qXqXd.jX; ",
"B =.i...H.n.F..X/.F.$.#.p.lXlXg.2 2 2 8 b { / - 5 e 5 q g.A 8.7.q E <X4.$X1.rXT sXaX;X#XG F T.].'.I 1XiX-.g W.g w f.f *.#.=.} : ",
"D.j lXjX..V H.a.V ^.9X=.-.jX7Xa.c 8 % 4 4 o q.g.y - e s.2.1 L 1X& * $X$XR Y :X4.;X&X*XR S K T.'.B.h.U Z.yX>XH : E f n ) d.h H.~ ",
"P.l  .!.j vXlXW.jXvXNX^.= +XW.i.i.i.f 4 s t 7 2 % _ ,Xi E # * Y.i J L <XA 7.P $XS S R 9.F K.n.M.T.T.n.U i 8XeXJ * a.Q d.! ! %.t.",
"{. XD.u #.vXxXQ.wXvXwX7Xp ; d u u u a p.Q.c O o / } ^ i 5.q K } a.H i 1X^ 5.P 6.F 3.8.K.~..XM.R.`.'.'.T.m.z 6.yXu.p u.~ t.G.,.a ",
"OXXXoXK. .=.t.#.Q !.! ~ j l I..X~..XoXI.d 0 7 o = a.tXeXF * # o u.- q q s.H H.K ^ K E.m.V.C.V.[.].].[.'.(.V.K ~ qX>XE 6 | F.J.x.",
"4X[.OXoXR.o.;.,.O.$.;.2Xn.x.v.v.v.v.l.D.B f.' 4 o X @.<XiX^ $   # = X X K ~ &.G.;.l b.[.].T.M._.]._.`._.`.].~.z.l W.7X! x.).).x.",
"'.OXXX_.B.x.U.oXoXoXoX{.v.[. Xv.'..XF.z.W.%.w.7 N N - s.mXiXA - . f p p ,.| u &.oX'.[.|.[.].C.A.[.|.A.A.`.`.]..XI.|  .z I.).'.C.",
"v.B.M.B.'.U.c.v.V.C.V.M.M._.].F.I.| G.$.%.s C 7 4 6 - 0XmXmX!.# X + d G.~.z.:.&.[.OX3X3X3X`.[.V.[.`.A.`.`.`.].[.'.oX;.x.'.(.A.'.",
"].B.N._.(.].l.U.'.M.v.C.(.C.l.J.O.D.nXC v ` y 8 9 g 6X, @.a.6.P D.P.J.x.I.'.K.l.].`.[.|.OX_.XXB.`.[.`._.A.`.`.`.`.].n.T._._.(.(.",
"'.v.(.`.(.S.N.V.K.v.].'.).'.J.R.! n vXt.= 9XxXvXnXNXyXA . * i o.K.L.U.B.v.v.OXv.].`.3X[.(.'.V.v.M.].].V.A.A.`.`.).(.l.V.].`.A.`.",
"v.(.).(.A.).c.c.c.A._._.K.z.;.D.f p lX*.f._ 4 n W.6Xs.s.g 7XY.m._.'.].).).V.).U.M.].3XA.}.4XOXOXM.[.]._.V.S.V.(.(._.l.(.).(.S.A.",
"c.(.(.`.`.).).c.'._._.R.;.,...t.v g 9Xk d.b X 4 = . I h l o.<.'.(.].).(.).].U.v.M.`.[.[.3XOXOXXXv.T.[.`._.A.A.C.(.U.l.B.|.(.`.).",
"v.`.].A.).`.(.c.(.'._.K.k t.v *.0 8 *.Q c 2 6 C B V b.'..XK.'.].A.|.`.`.`.`.).].n._.M.].[.OXOX].C.N.(.].`._._.(.).c.U.v.N.`.`.).",
"C.].).(.(.).v.U.)._.R.o.d 0 W.` m ) *.w.w c 7 [  .P.J.].]._.L.(.A.`.`.`.`.(.'.{.V.V.A.[.OX[.).N.M.V.M.N.V._._.L.v.V.`.XX(.v.(.).",
"v.].(.`.S.).c.(._.(.{.>.=.o ' C wXi.f o Q = c + P.l.I.].`.`.`._.`.|.`.`.'.'.(.].l.l.M.C.).L.v.l.C.].].T.M.B.V.v.).`.}.[.).v.l.).",
"v.N.].).).(.l.).C.C.L.o.i.Q v 9 C *.n o 9 Q 0 $.F.B.3X`._._._._.A.A.`.A.(.XX).l.v.].T.B.c.v.B.v.].`.`.].[.B.l.B.`.}.|.OX[.).v.l.",
"].B.v.'.(.L.l.'.'.(.I.k.=.c qX+Xn n e.0 ! Q l /.R.B.`.(.A.A._.'.OX_._.]._.B.l.C.]._._.).U.B.XX).N.A.A.T.XX'.C.M.`.[.`.`.`.(.].c.",
"'.B.l.B.(.V.v.V.c.N.). X| 0 C *.0 n 0 #.u k n.{.'.l.U.'.A.V.(.).].].V.N.l.V.'.[.]._.(.'.).V.].[.A.A.C.A._.[.[.C.c.[.`.].[.A.(.j.",
"_.C.V.l.h.l.N.N.A.h.c.B.D.V f ; Q.` G.x.F.K.V.x.l.B.B.v.}.[.).'.'.v.c.B.`.].`.[.`.`.]._.L.v.`.`.].3X].A.'.].[.`.(.v.(.`.).N.B.V.",
"_._.C.v.'.]._.}.].(.c.B. X;.y.=.0 u I.'.v.M.L.(.B.(.'.L.l.V.B.C.B.l.(.(._.A.`.`.`.`.`._.(.v.[.OX3X`._.A.A._._.A.(.).v.C.v.N.`.(.",
"C.C.j.c.L.].].].`.A.N.`.[.k.$.;.| X.l.v.(._.`.`.).V.`.L.n.L.B.l.j.V.T._.A._.`.|.`.`.A.`._.h.T.3XA._.3XA.`.[.`._.`.XXU.c.N.(.(.C.",
"N.V.(.(.M.v._.}._.h.).}.).'.k.&.+.x.).).].`.A.A._.`.).U.l.L.'._.M.C.].'._.(.|.|.[.[.`.[.T.M._.`.].3X`.3X[.|.`.`.].).c.h.(.(.`.A.",
"C.(.(.(.].v.v.v.c.V.OX}.`.(.XXI.l.'.`.]._.(.A._.)._.'.XXn.T.].M.M.n.V.'.'.].[.}.3X'.C.M.B.M._.]._.`.`.A.).).`.[.XX[.l.v.`.]._.`.",
"(.(.A.A.(.].l.U.U.(.OX`._.}.(.c._.`.|.(.A.(.A.A.(.).).'.V.B.V.V.].].V.M.`.].].[.A.M.k.n.T.C.B.]._._.3XA.`.`.].).).v.v.L.'.).`.]."
};
