/* XPM */
static char *collect1678864341[] = {
/* columns rows colors chars-per-pixel */
"64 64 256 2 ",
"   c #1E2B19",
".  c #392708",
"X  c #272815",
"o  c #382A13",
"O  c #293518",
"+  c #353113",
"@  c #1C3321",
"#  c #223722",
"$  c #4A1800",
"%  c #630E00",
"&  c #482A08",
"*  c #493908",
"=  c #5A330C",
"-  c #42341B",
";  c #593518",
":  c #4A2B0F",
">  c #622704",
",  c #6F380E",
"<  c #5D3B20",
"1  c #1E4D17",
"2  c #1E5219",
"3  c #1D520E",
"4  c #294B08",
"5  c #374907",
"6  c #2B4D1B",
"7  c #274D19",
"8  c #3B4414",
"9  c #354919",
"0  c #2A5316",
"q  c #35530F",
"w  c #396B17",
"e  c #3D680B",
"r  c #284E21",
"t  c #235122",
"y  c #365826",
"u  c #3B6D31",
"i  c #464706",
"p  c #585913",
"a  c #4D4F0F",
"s  c #6A4801",
"d  c #6A5708",
"f  c #755C09",
"g  c #6B4D16",
"h  c #6B5714",
"j  c #7C5210",
"k  c #4D6A0E",
"l  c #58630A",
"z  c #486818",
"x  c #586817",
"c  c #46761A",
"v  c #587718",
"b  c #686318",
"n  c #796717",
"m  c #6C7418",
"M  c #764D2A",
"N  c #795622",
"B  c #785438",
"V  c #4B7A25",
"C  c #476E2A",
"Z  c #687524",
"A  c #6A7C34",
"S  c #75712C",
"D  c #4D4E22",
"F  c #8B2C08",
"G  c #932F04",
"H  c #8D310C",
"J  c #8C3916",
"K  c #983A19",
"L  c #91330A",
"P  c #993D23",
"I  c #853F26",
"U  c #A23F20",
"Y  c #884507",
"T  c #81590A",
"R  c #9D431D",
"E  c #9C4613",
"W  c #905413",
"Q  c #AA4D1A",
"!  c #AA531C",
"~  c #A65617",
"^  c #B35A19",
"/  c #A8560B",
"(  c #876618",
")  c #976619",
"_  c #967619",
"`  c #A96718",
"'  c #BC631B",
"]  c #A57116",
"[  c #9D4324",
"{  c #964927",
"}  c #8E5B2E",
"|  c #87582A",
" . c #935C2D",
".. c #985629",
"X. c #8E5B32",
"o. c #865631",
"O. c #925E34",
"+. c #9B5D35",
"@. c #985A36",
"#. c #8C4028",
"$. c #A24A27",
"%. c #A45423",
"&. c #AB5322",
"*. c #A55A29",
"=. c #A55A39",
"-. c #B4582D",
";. c #966529",
":. c #8E6F33",
">. c #956136",
",. c #9A6336",
"<. c #966239",
"1. c #9A653B",
"2. c #9D693D",
"3. c #9A6A38",
"4. c #9C7337",
"5. c #8C6C29",
"6. c #A66D2D",
"7. c #A8772A",
"8. c #B4772B",
"9. c #A26C3E",
"0. c #A66638",
"q. c #B66C3B",
"w. c #A3723C",
"e. c #A97537",
"r. c #B5783B",
"t. c #B86F2A",
"y. c #C77B1B",
"u. c #C0681E",
"i. c #CB762B",
"p. c #DA7D29",
"a. c #C76736",
"s. c #C87639",
"d. c #D8712F",
"f. c #E56C23",
"g. c #E7752C",
"h. c #E47833",
"j. c #C15A31",
"k. c #9E6A41",
"l. c #9F6742",
"z. c #977844",
"x. c #A36E43",
"c. c #AB6E44",
"v. c #A66F48",
"b. c #A57145",
"n. c #A97346",
"m. c #A67249",
"M. c #AA754A",
"N. c #AD794D",
"B. c #A97A43",
"V. c #B27342",
"C. c #B2764C",
"Z. c #B17C4E",
"A. c #B37A44",
"S. c #AE7A51",
"D. c #B27C52",
"F. c #B26A44",
"G. c #C97947",
"H. c #5C821C",
"J. c #61841E",
"K. c #578628",
"L. c #688627",
"P. c #749832",
"I. c #AB8638",
"U. c #BA843A",
"Y. c #B6983D",
"T. c #B78E28",
"R. c #82A23F",
"E. c #BFA338",
"W. c #839A30",
"Q. c #D78826",
"!. c #D8873A",
"~. c #D8993A",
"^. c #CD8E32",
"/. c #E7912B",
"(. c #E79439",
"). c #CBA63D",
"_. c #E7A239",
"`. c #F6AF3E",
"'. c #F6A937",
"]. c #F4B33C",
"[. c #FBB43B",
"{. c #FBB83C",
"}. c #EAB43A",
"|. c #B48054",
" X c #B88459",
".X c #AF8E44",
"XX c #9DBD5A",
"oX c #B7A74A",
"OX c #AFB556",
"+X c #BDBC65",
"@X c #8B8F42",
"#X c #C69549",
"$X c #D69949",
"%X c #CF8E4E",
"&X c #EA984A",
"*X c #EF934C",
"=X c #D6AA48",
"-X c #CFAD53",
";X c #E9A947",
":X c #F9AD42",
">X c #F4AD4C",
",X c #F6A946",
"<X c #EBB749",
"1X c #F5B343",
"2X c #FBB142",
"3X c #F2B44D",
"4X c #F9BA48",
"5X c #EAAB59",
"6X c #F4AD53",
"7X c #EBB754",
"8X c #FEBC54",
"9X c #F7B856",
"0X c #D69E61",
"qX c #EEB96A",
"wX c #D3AE60",
"eX c #ADC356",
"rX c #B8CE6C",
"tX c #D6C55B",
"yX c #C0C757",
"uX c #F7C44A",
"iX c #EBC656",
"pX c #F3C55B",
"aX c #FEC45C",
"sX c #FAC755",
"dX c #FAD45B",
"fX c #EEC44D",
"gX c #C8CC67",
"hX c #CECD74",
"jX c #E9C666",
"kX c #F5C667",
"lX c #F7D469",
"zX c #FAD675",
"xX c #ECCC72",
"cX c #FEE86A",
"vX c #FEF26D",
"bX c #FDE474",
"nX c #FFEB75",
"mX c #FFE37B",
"MX c #F9E97B",
"NX c #FDF47B",
"BX c #FFF87A",
"VX c #E9F27D",
"CX c #FFDE84",
"ZX c #FED685",
"AX c #EBD283",
"SX c #FFEA84",
"DX c #FDEA8A",
"FX c #ECF886",
"GX c #FFF38C",
"HX c #FBFA86",
"JX c #FBEC97",
"KX c #FEFB93",
"LX c #FFF39D",
"PX c #FCFB98",
"IX c #E9F493",
"UX c #D3DB88",
/* pixels */
"x.,.m.k.N.M.,.n.M.9.,.>.>.>.<.<.k.3.2.,.x.b.b.N.M.m.v.b.m.X.m.2.x.2.b.<.l.M.m.<.4.x.M.n.9.n.b.3.<.O.Z.M.n.N.O.M.D.D.<.m.N.M.S.N.",
"v.<.>.2.b.>.N.n.n.N.,.N.S.m.k.k.m.N.N.x.v.m.m.M.m.M.x.x.k.<.v.v.b.2.>.M.m.X.O.v.b.|.|.Z.D.n.M.n.x.1.M.n.n.N.,.1.<.<.>.m.n.D.M.2.",
"N.m.S.b.O.m.M.M.M.n.2.M.|.m.k.N.S.N.S.b.O.<.2.k.m.N.N.k.<.k.<.>.>.b.w.Z.S.N.>.N.M.|.|.n.n.m.v.b.b.O.1.N.M.3.2.m.M.v.b.<.<.O.<.C.",
"b.N.v.b.<.M.n.b.M.,.2.n.m.k.<.b.m.3.,.b.|.N.k.b.<.X.>.>.M.S.S.<.N.w.b.n.n.n.b.,.B.|.M.b.n.N.v.O.<.n.n.O.x.,.S.m.n.n.M.>.m.v.m.n.",
"b.m.2.O.O.>.k.k.>.M.n.x.m.N.X.k.x.b.N.m.N.N.k.m.<.b.m.4.b.<.<.>.2.2.x.n.D.D.b.M.2.M.M.b.X.<.b.N.M.b.n.b.O.<.S.v.b.b.N.3.k.S.M.M.",
"k.<.v.m.m.b.>.<.b.M.b.b.m.N.<.b.m.m.m.M.S.m.S.1.B.m.B.|.m.N.k.2.b.n.x.M.M.m.N.b.<.<.,.k.v.X.>.2.z.N.|.N.M.<.v.m.m.n.S.k.<.k.m.m.",
"m.m.S.b.S.D.N.>.2.M.m.v.M.M.>.S.S.v.m.S.S.N.<.m.m.N.N.|.m.k.B.X.n.M.n.M.M.<.3.2.N.<.M.b.m.b.b.4.,.>.n.D.N.2.O.v.D.S.N.2.x.m.1.m.",
"<.3.<.M.|.S.M.S.>.M.N.M.S.S.X.X.<.<.<.<.l.<.S.m.b.n.b.b.k.b.m.m.1.v.M.1.2.M.S.S.m.>.b.M.n.n.b.n.n.b.b.<.<.v.n.O.<.<.>.,.<.1.O.S.",
"b.b.k.>.<.b.3.<.3.<.m.N.S.k.x.D.<.N.n.v.<.O.D.D.M.n.n.b.x.2.N.2.2.m.k.k.b.M.D.D.n.M.2.N.x.9.n.n.M.M.S.@.x.v.x.2.<.2.<.n.n.n.,.N.",
"M.m.N.N.N.X.b.v.m.X.b.<.>.2.v.<.,.N.x.v.v.M.<.,.n.M.m.m.n.2.X.2.X.k.2.O.z.B.S.N.n.N.<.N.n.b.9.n.M.M.m.O.v.x.x.x.<.>.b.x.9.n.M.<.",
"M.n.N.N.k.k.v.b.m.O.2.<.n.v.x.n.<.D.M.b.b.M.D.N.b.,.2.1.,.v.b.m.x.n.<.D.>.m.N.b.n.b.b.k.M.x.9.k.v.k.v.o.v.M.2.v.k.<.b.b.n.9.b.v.",
"b.N.m.k.>.k.M.k.x.k.<.b.v.n.M.v.O.3.n.b.M.b.v.x.v.O.,.M.k.m.b.n.b.x.n.k.X.m.m.S.Z.|.M.>.N.M.m.2.v.k.@.X.x.v.v.x.1.k.v.x.n.b.n.b.",
"3.2.b.2.,.M.v.l.x.O.v.v.m.m.v.x.m.<.2.2.3.>.} <.k.l.m.m.b.9.x.n.M.n.b.n.k.k.x.S.N.M.<.<.<.k.k.m.m.<.1.M.2.2.x.v.x.<.v.2.9.b.N.Z.",
"x.x.k.,.X.v.m.v.b.} v.x.m.x.b.M.m.m.k.m.b.m.m.,.O.M.m.m.n.b.n.b.m.n.N.n.X.O.;.;.5.;.>.M.m.b.<.>.O.M.N.N.b.1.O.2.2.O.<.<.x.n.w.2.",
"b.O.<.M.M.@.x.v.k.O.n.x.x.m.N.D.S.k.>.M.M.M.b.M.<.N.v.k.b.n.n.n.b.v.<. .1.0XzXzXzX-X7.4.4.b.M.3.,.n.M.N.n.x.b.O.x.v.M.m.O.>.1.n.",
">.Z.N.Z.n.k.O.O.O.O.@.O.<.b.1.<.>.k.X.>.m.M.b.3.} ;.4.4.6.e.oXI.5.:.z.:.j ( -XlXbXmXCXwX.X3.b.|.n.,.n.b.N.k.O.} 2.b.N.M.1.2.N.C.",
",.M.n.N.n.b.<.2.M.m.Z.n.O.,.m.D.S.<.O.m.<.>.3.6.I.Y.).zXbXbXbXbXtXL.x k m l f n $XzXDXGXDXhX.Xz.4.b.4.2.,.<.b.x.n.>.<.,.<.D.N.m.",
"x.,.b.M.2.<.O.,.3.M.N.9.;.B.w..XB.3.X.z.z.z.S qXCXmXbXbXcXcXvXvXvXVXeXP.J.L.Z d f f Y.zXDXJXJXxX X4.4.X.<.v.v.2.b.9.<.,.>.S.M.S.",
"b.2.,.<.<.9.x.b.3.} >. .I..X^..X:.:.A A A x p n ) jXnXnXvXvXvXBXBXBXHXFXOXv z k k l f T #XzXLXLXLXAX.X5.b.n.c.C.M.B.n.9.X.k.v.2.",
"b.,.X.v.b.b.x.M.w.9.3.qXZXCXSXzX-XL.b k z z C b b n _ iXvXnXBXBXBXHXBXHXHXIXXXP.L.L.S s d j .XCXLXLXLXAXB.n.C.n.w.n.3.M.S.O.k.n.",
"n. .9.n.n.n.C.n.n.w...~ 8.kXmXbXnXMXyXW.V c z w z k m n _ qXSXHXHXHXHXKXPXPXPXIXXXL.v v v v l h e.CXSXSX.Xc.n.n.b.Z.v.M.S.>.M.w.",
"O.x.x.n.M.n.n.n.b.V.*.~ ~ / ] pXnXNXBXVXrXK.e w w c x Z n ( _ jXGXKXKXKXPXPXPXPXKXIXR.c V V Z b j $X7X7Xe.c.x.n.b.N.n.D.b.X.<.2.",
"<.x.c.n.9.n.n.C.n.V.*.&.Q ~ ~ ~ ] kXSXHXHXFXgXP.J.K.c z z l S ( 7.kXGXGXGXSXmXpX_.=XoXK.V w 7 8 s !.3X=X6.N.n.w.n.b.S.D.O.b.2.x.",
"v.x.n.9.c.c.n.n.M.Z.*.%.&.Q &.%.~ ~ ] kXGXKXPXPXrXH.e w w z x h ( ) jXpX_._._._.'._.oX5 4 3 1 8 j ;X3X~.e.M.n.M.n.k.b.O.1.2.2.x.",
"2.2.M.M.n.n.n.N.N.,.0.Q Q ^ $.%.~ Q ~ ~ 6.jXDXKXKXPXrXk z V V A S W ` ;X_.'.'.'.].}.oX5 3 3 7 i ) 9X9X#Xe.n.b.2.m.m.O.v.X.<.k.v.",
"x.x.Z.n.C.n.9.b.>.,.0.%.^ j.> o.@...%...~ ~ 8.zXbXiXtXOXV 0 3 4 * | ^ ,X'.'.[.[.4XfXOXa C u C p ` 8X6X8. .O.>.,.X.>.+.l.k.O.O.k.",
"n.M.n.M.x.n.x.O.v.X.0...Q s.& . : B X...! ~ / !.4X}.iXOX4 1 1 7 i | ` >X4XuXuXuXsXjXrX5 7 7 7 i ] 8X9XU.;.b.M.b.<.m.m.x.2.1.O.O.",
"X.O.O.,.O.} O.x.l.l...~ ^ s.M X X X : o.} ! ^ y.4X].1XoX4 t t y D N ` 6XsXdXcXnXnXHXhX4 7 t 9 a ~.8X5XI.N.O.N.N.>.4.v.x.v.O.<.N.",
"<.x.S.v.9.v.v.v.<.1.+.../ s.,.. X @   X : O.%.u.4X{.}.E.V u C y i N ^ p.(.zXSXnXlXkXwX5 7 7 9 p ~.8X$Xe.|.} ,.k.<.>.k.k.O.b.M.N.",
"M.<.N.N.X.x.v.x.x.+.+.q.! s.%XN o X   X . M %.^ [.{.{.E.5 3 2 0 + g 6.h.g.(.qXs s =XOXi 4 8 5 s ).sX$Xr.M.,.D.S.N.m.O.X.v.m.x.M.",
"v.} O.9.O.l.k.k.O.n.M.F.! ! ! %XC.| : . o < $.' '.[.{.).5 2 t 6 8 g ^ h.g.(.U.$ > ^.-Xi x Z .X-XuXaX.X,.>.>.l.m.|.S.N.>.M.b.M.n.",
"<.D.D.M.M.O.<.O.N.m.n.V.&.&.! ! ! s.0.X.: = %.^ /.'.[.=X5 t t 6 8 g ' g.f.*X%X$ u.qXxXSXJXDXzXkXsXpX;.c.b.N.m.<.<.<.>.<.x.m.n.S.",
">.k.n.Z.S.N.>.m.v.v.v.c.0.R $.&.&.! &.q.q.-.Q ^ /.[.{.<X5 r 9 q i h ^ g.f.*X*XL ^ %X_.aXpXaXaXaX9X$X>.M.9.9.N.N.,.1.N.N.2.<.k.>.",
"S.k.,.,.2.<.<.M.v.M.D.D.F.J F J $.&.&.&.&.^ Q ^ /.{.{.fXb Z @XhXJXZX' g.f.g.&X% L h.&X4X4X/.y.y.^.A.2.>.x.b.b.w.O.n.M.M.N.<.3.N.",
"N.S.b.>.k.N.2.,.n.2.<.+.=.J K [ { , } ..$.&.Q / Q.{.{.uXcXzXiXiXpX9Xi.g.f.f.u.!.*Xh.d.Y Q.Q.(.;X-X6.3.2.<.O.v.<.k.S.b.b.M.,.b.M.",
"b.b.>.k.N.N.M.<. .v.S.M.{ P P { x.& & ; #...&.Q Q.4X4X4XuXuXiXpX7X7Xt.h.d.f.!.d.d.s.t.~ ;X,X,X,X5Xr.n.M.S.m.k.O.S.M.M.n.A.2.2.S.",
"m.<.b.N.v.m.M.>.9.M.S.D.{ { K $.k.. O O o < #.$.p.8X8X4X3X;XI.h i h *.d.j.a.q.,.} } W ;.>X:X,X>X%XM.M.n.n.n.v.<.M.n.n.B.M.2.>.>.",
"X.<.N.M.n.N.M.,.b.D.D.D.=.K [ $.l.. O # # - M F ' u.y.Q.Q.7.5 8 D + | r...> & & . * = ;.6X`.`.>Xr.n.n.n.b.b.m.<.2.M.m.n.M.,.2.B.",
"O.x.n.Z.n.N.N.>.2.,.1.,.=.#.P $.0.= + # # + I L L i.'.,X<XY.5 6 6 9 8 8 8 9 9 9 6 D = ;.3X`.`.;Xr.n.w.m.M.2.<.X.>.>.k.b.<.1.N.b.",
"<.x.M.n.n.M.2.,.b.N.n.C.=.#.U $.=.;.B - + o P K Q s.,X:X<X.X5 t t 7 r 0 0 0 0 q q 5 h ( 3X`.1X6Xr.n.M.N.3.,.,.m.M.2.>.m.<.m.M.m.",
"O.O.k.M.M.3.,.M.x.n.x.Z.0.{ [ U -.G J @.M > P P L !.:X:X<XY.5 7 7 7 4 5 z l Z OXtXjXlXT.1X`.:X>Xr.k.2.<.<.M.N.n.4.v.2.X.O.m.N.x.",
"v.m.<.3.,.<.S.m.b.n.n.n.1.{ [ $.j.L F H J { P U Q !.:X`.<XT.p k A rXUXIXFXMXbXzXdXfX4X~.:X`.].;X6.>.<.m.M.M.D.x.N.D.S.b.O.k.M.n.",
"v.M.<.<.X.m.S.m.v.v.n.C.x.{ { [ a.F G F H H P K K !.:X].}.dXcXbXSXmXlXiXiXfXfX4X4X4X8XQ.1X1X1X>X6.m.<.O.>.3.2.b.D.S.S.N.m.O.M.N.",
"m.M.N.<.X.x.M.x.x.x.v.D.=.+.=.$.G.-.R J J H K $.Q $X1X`.}.dXfXfXfXiXfX3X4X9X3X9X<X^.i./ >X1X>X>Xe.n.x.x.9.3.>.<.M. XD.S.D.l.O.S.",
"|.S.S.m.@.l.m.S.M.n.D.S.O.<.D.D.F.C.C.c.=.I P U K &X,X].1XsXsXaX9X7X5X$X^.8.6.6.;...Y ! 5X6X5X0Xw.B.N.m.c.b.n.<.>.2.k.k.<.<.l.<.",
"|.S.S.|.m.<.M.N.N.M.C.D.O.X.O.<.,.O. .O.v.=.=.R Q &X,X1X1X_.^.i.t.r.~ e.r.V.c.1.b.C.C.q.#Xr.;.e.A.b.b.b.n.M.x.v.m.m.<.X.v.k.v.O.",
"M.D.S.k.l.O.l.S.S.D.|.m.<.N.m.<.m.N.v.O.k...=.R E &X>X1X>X8.6.6.e.V. .9.x.9.9.,.Z.n.D.Z.q.V.3.9.Z.n.x.x.v.M.M.N.M.N.2.X.2.b.m.l.",
"O.<.X.l.k.l.O.O.<.2.2.<.>.k.m.<.M.v.x.n.m.<.=...Q 0X6X7X5X6.9.2.M.2.X.n.v.2.Z.O.B.D.|.Z.M.M.Z.<.M.M.9.x.M.M.M.N.M.N.,.k.m.v.k.m.",
"S.O.l.k.v.m.X.k.m.O.O.9.x.2.X.<.M.n.c.9.v.C.2.+.0.%X#XV.e.b.M.k.o.k.<.O.k.b.1.X.N.M.Z.N.|.n.S.>.n.N.n.b.x.c.b.M.n.M.>.k.n.n.b.x.",
"k.l.k.M.9.2.>.1.l.<.n.n.x.n.1.k.M.M.9.b.n.n.N.x.,.} w.M.D.M.,.<.k.k.k.<.<.<.S.X.n.n.Z.n.4.m.<.,.3.m.M.2.x.0.b.n.b.9.X.<.M.m.x.b.",
"@.k.m.v.v.v.O.O.X.k.n.x.b.k.m.k.|.N.b.m.b.n.N.B.|.M.O.,.O.O.<.m.z.n.m.b.m.<.v.k.,.M.D.b.D.|.D.S.>.N.M.b.3.9.1.x.k.b.X.v.n.v.0.9.",
"O.v.v.v.v.x.m.O.n.m.b.w.n.b.b.X.k.b.b.m.m.n.n.2.n.m.<.O.v.m.l.n.x.M.v.x.m.M.k.<.O.n.Z.N.|.D.D.N.>.k.N.n.n.9.2.k.x.2.X.<.N.x.x.x.",
"O.M.M.9.9.n.k.O.9.n.9.n.b.9.M.<.<.N.N.m.N.S.<.1.>.X.o.z.S.k.n.M.x.n.V.n.m.m.v.m.>.b.<.m.S.D.S.M.2.>.k.M.M.b.b.k.v.O.k.O.,.n.M.x.",
"k.M.x.v.9.x.<.k.b.n.9.n.n.b.M.M.<.O.<.X.X.<.X.X.m.k.k.m.b.v.9.9.9.n.n.M.M.m.M.m.3.1.k.S.S.S.b.,.X.3.<.<.3.n.b.v.O.1.M.N.k.O.x.v.",
"O.m.k.v.9.b.O.k.n.w.n.w.n.M.n.m.m.<.k.b.m.m.v.>.m.<.k.S.b.n.n.x.n.C.n.n.M.m.l.S.X.X.>.k.m.k.X.} k.M.M.k.>.<.l.X.v.n.N.N.v.<.O.x.",
"l.O.S.z.c.x.X.x.2.2.2.0.n.Z.D.m.m.X.m.v.M.v.b.b.>.<.D.m.n.v.c.b.9.x.x.x.k.S.k.X.O.m.z.>.O.O.3.>.N.n.n.N.M.<.X.<.M.N.S.S.M.v.@.X.",
"S.@.O.n.x.x.X.M.n.x.x.x.M.Z.D.N.k.B b.S.M.m.m.n.m.O.m.v.x.b.v.m.D.b.b.m.m.<.X.2.M.x.b.b.1.<.m.m.,.b.w.k.N.m.3.>.M.M.M.n.b.x.M.O.",
"v.<.O.<.v.<.O.1.O.O.v.N.n.x.2.O.<.l.<.m.D.S.m.m.S.X.l.z.x.2.k.m.M.M.2.>.X.<.m.D.M.x.b.b.k.l.S.N.b.2.3.b.m.N.N.2.O.M.n.M.N.x.v.o.",
"m.2.l.o.X.X.O.1.x.X.@.O.O.<.1.1.<.>.<.X.>.k.1.O.o.O.<.<.N.M.k.m.m.<.X.3.n.M.n.N.M.B.M.n.k.,.m.m.b.N.n.2.m.M.|.b.b.O.x.n.v.<.O.1.",
"b.v.k.O.v.M.b.D.M.v.O.<.M.D.D.S.l.X.m.m.X.O.v.k.l.k.m.k.X.<.<.k.<.X.v.k.b.9.n.n.M.b.b.b.v.O.S.S.N.M.n.x.4.b.b.2.x.b.,.2.,.,.n.x.",
"9.k.o.O.k.M.m.M.n.x.O.n.S.S.M.D.x.X.X.O.9.b.n.n.v.l.k.k.O.z.l.o.X.<.v.b.9.b.n.Z.m.n.n.m.b.X.m.S.b.M.Z.b.M.M.M.n.M.M.l.O.,.x.x.2.",
",.,.x.v.,.>.m.D.v.O.n.C.n.n.v.C.<.X.x.v.n.n.w.n.m.m.k.k.X.k.v.v.X.k.M.m.b.9.N.B.S.N.n.m.v.<.m.M.M.N.Z.N.n.N.n.n.M.v.O.X.k.x.n.9.",
"0.x.9.b.M.O.O.O. .<.D.Z.M.x.M.v.O.v.M.M.b.x.9.x.x.n.m.S.O.k.z.l.<.O.3.m.b.M.N.Z.S.m.k.O.>.X.m.m.n.M.M.w.v.b.n.S.N.S.O.O.n.M.b.n.",
"x.9.3.9.v.n.O.1.2.9.D.n.n.D.k.X.b.v.N.v.9.x.9.9.x.x.m.m.l.O.l.l.M.M.<.>.n.B.M.N.k.<.X.<.k.k.<.n.n.M.n.x.b.M.M.m.k.@.O.k.m.b.n.M."
};
