/* XPM */
static char *_001678796787[] = {
/* columns rows colors chars-per-pixel */
"64 64 239 2 ",
"   c #464D01",
".  c #4B4C01",
"X  c #474B0D",
"o  c #524D00",
"O  c #5B4808",
"+  c #4D5400",
"@  c #555504",
"#  c #464B15",
"$  c #545819",
"%  c #485015",
"&  c #625B04",
"*  c #665616",
"=  c #6C531A",
"-  c #5D6405",
";  c #5C6417",
":  c #6C6C00",
">  c #666705",
",  c #777A09",
"<  c #666A16",
"1  c #6B731B",
"2  c #787B17",
"3  c #7A6C14",
"4  c #55582D",
"5  c #5E4D37",
"6  c #5D4E3A",
"7  c #564F3F",
"8  c #5D513E",
"9  c #565338",
"0  c #4D4B26",
"q  c #765A27",
"w  c #624D36",
"e  c #614E39",
"r  c #694F38",
"t  c #63523D",
"y  c #6A543A",
"u  c #74563B",
"i  c #646929",
"p  c #796428",
"a  c #7C7E29",
"s  c #656833",
"d  c #7A633C",
"f  c #687229",
"g  c #5B6423",
"h  c #3E6757",
"j  c #367168",
"k  c #3F5A47",
"l  c #495648",
"z  c #535245",
"x  c #5C5342",
"c  c #54554A",
"v  c #59574A",
"b  c #5C5A4C",
"n  c #595B47",
"m  c #5D5D51",
"M  c #505349",
"N  c #615443",
"B  c #6B5A43",
"V  c #625B4A",
"C  c #6A5C49",
"Z  c #745C44",
"A  c #7C5E42",
"S  c #615E51",
"D  c #5B6256",
"F  c #54644F",
"G  c #686848",
"H  c #7C6245",
"J  c #7D634B",
"K  c #75644A",
"L  c #646255",
"P  c #6B6655",
"I  c #6D6A56",
"U  c #64645A",
"Y  c #6D6B5B",
"T  c #696859",
"R  c #726D5B",
"E  c #736A54",
"W  c #74715D",
"Q  c #7B785B",
"!  c #707A54",
"~  c #41786D",
"^  c #6E6E61",
"/  c #656F64",
"(  c #716E63",
")  c #6F7263",
"_  c #747363",
"`  c #7A7563",
"'  c #7B7965",
"]  c #757569",
"[  c #7C7B6C",
"{  c #78796B",
"}  c #7D7D71",
"|  c #717D71",
" . c #8B7E01",
".. c #8C6B1C",
"X. c #8D5A2E",
"o. c #8B572F",
"O. c #905B2E",
"+. c #8E5B32",
"@. c #8A5E3A",
"#. c #845C3A",
"$. c #925E34",
"%. c #905E39",
"&. c #96752A",
"*. c #99782A",
"=. c #8C6334",
"-. c #8D623C",
";. c #856337",
":. c #946136",
">. c #996336",
",. c #95633A",
"<. c #9A653B",
"1. c #9D693D",
"2. c #946A3B",
"3. c #98733B",
"4. c #8F702C",
"5. c #A16C3E",
"6. c #A27838",
"7. c #846343",
"8. c #8B6443",
"9. c #8C6B4C",
"0. c #86674A",
"q. c #946A45",
"w. c #9E6B42",
"e. c #926D4B",
"r. c #9C6D4A",
"t. c #956641",
"y. c #9C7344",
"u. c #94714D",
"i. c #9C714C",
"p. c #967845",
"a. c #856A51",
"s. c #8A6E54",
"d. c #836751",
"f. c #8E725A",
"g. c #8D7256",
"h. c #947253",
"j. c #9B7452",
"k. c #9D7955",
"l. c #98795A",
"z. c #8F6F4F",
"x. c #A26E43",
"c. c #A56F48",
"v. c #A86E47",
"b. c #A57145",
"n. c #A97346",
"m. c #A5734A",
"M. c #AA754A",
"N. c #AD794D",
"B. c #A77A48",
"V. c #B17C4E",
"C. c #A27551",
"Z. c #A47953",
"A. c #AE7A51",
"S. c #A77B58",
"D. c #B27D53",
"F. c #827E6C",
"G. c #847B65",
"H. c #817F70",
"J. c #917F67",
"K. c #7D8209",
"L. c #7D8213",
"P. c #7A811C",
"I. c #788126",
"U. c #368373",
"Y. c #5B8C6F",
"T. c #7C8172",
"R. c #778B6B",
"E. c #858301",
"W. c #898400",
"Q. c #8A8905",
"!. c #918E00",
"~. c #928F0C",
"^. c #979404",
"/. c #878813",
"(. c #9A9A1E",
"). c #A39D05",
"_. c #A8A404",
"`. c #BEB50D",
"'. c #BCB615",
"]. c #BAB51B",
"[. c #B9B618",
"{. c #ADA811",
"}. c #BDBB25",
"|. c #BEBD2B",
" X c #B7B524",
".X c #BDBD33",
"XX c #ACAF2E",
"oX c #9A9D2A",
"OX c #C6BC0C",
"+X c #C4BC15",
"@X c #C5BE1C",
"#X c #C9BF14",
"$X c #C1BE23",
"%X c #C2BD29",
"&X c #C4BF30",
"*X c #CDC10D",
"=X c #CBC113",
"-X c #CAC11A",
";X c #C6C01A",
":X c #D0C20A",
">X c #C2C029",
",X c #838558",
"<X c #B48154",
"1X c #B18258",
"2X c #A98055",
"3X c #85816D",
"4X c #89836B",
"5X c #868372",
"6X c #898673",
"7X c #8B8975",
"8X c #8C8979",
"9X c #8A8778",
"0X c #948E7A",
"qX c #968E77",
"wX c #9A9176",
"eX c #96917B",
"rX c #9B917A",
"tX c #979476",
"yX c #A19E7D",
"uX c #A58463",
"iX c #A2A175",
"pX c #4C9A88",
"aX c #6ABE9A",
"sX c #71B890",
"dX c #66B8A1",
"fX c #44A089",
"gX c #67C199",
"hX c #65C0A4",
"jX c #9B9683",
"kX c #9E9A84",
"lX c #9D9B87",
"zX c #A29C85",
"xX c #A19C88",
"cX c #A09581",
"vX c #8EB38A",
"bX c #8ECD93",
"nX c #B6ECB8",
"mX c #9EDAA8",
"MX c #C5EDB6",
/* pixels */
"x.,.m.x.M.M.>.M.M.5.5.O.>.:.:.:.w.<.<.,.b.b.x.N.M.n.5.n.m.+.j.H C C s.,.t.M.M.:.6.b.M.b.5.n.b.<.<.$.V.n.n.M.$.n.V.V.:.M.N.M.N.V.",
"c.,.$.1.n.$.V.n.n.M.$.N.V.M.<.y.B.A.N.w.b.b.M.n.M.n.5.5.w.;.9.K G n s g.m.$.$.x.5.<X<XN.<Xb.N.n.x.<.M.b.v.M.>.5.>.<.:.m.M.D.N.<.",
"N.M.V.b.O.n.M.M.M.M.5.n.A.m.w.N.N.N.1Xb.=.,.w.r.M.N.M.5.,.u.y vXnXvX! 9 Z.N.>.N.M.D.D.n.n.5.n.b.b.:.1.N.A.5.x.m.M.c.c.,.,.$.>.N.",
"c.N.x.x.>.M.n.m.V.$.5.v.m.w.,.b.b.<.:.b.<XN.x.x.$.$.<.:.p.2X4 vXnXsXY.9 l.m.b.>.N.D.M.c.n.B.b.:.,.b.b.:.x.$.A.m.v.M.M.%.m.x.n.n.",
"b.M.1.$.O.$.x.w.$.n.n.x.m.N.%.x.5.b.N.M.N.N.1.b.<.x.m.y.e.K ,XbXmXsXpX/ E 2Xp.M.w.M.m.c.%.,.c.A.m.b.m.b.:.,.A.x.c.x.N.,.r.N.M.M.",
"1.:.x.M.n.b.%.,.b.N.v.v.M.N.$.x.b.n.b.M.A.m.N.,.m.m.S.uXE s MXbXgXgXhXsX9 a.uXu.,.,.<.x.x.$.,.w.b.N.<XN.M.,.b.M.N.m.V.5.:.x.b.m.",
"m.b.D.x.D.D.M.%.w.n.v.c.M.M.$.D.D.x.C.A.S.N.,.i.k.u.t x N F MXbXgXgXfXU.l x x w h.t.C.m.m.r.m.x.:.:.B.A.M.1.:.b.D.N.V.5.x.n.<.c.",
",.,.,.N.<XD.N.N.,.M.V.m.N.N.$.$.,.t.#.#.#.u j.7.H J Q _ Y F mXbXgXgXfXj k m T P d.u #.k.e.7.u r.m.b.m.:.:.b.b.=.$.<.$.$.>.1.$.A.",
"c.c.v.$.<.x.<.<.<.<.m.A.D.1.x.N.-.l.J w w B f.6 9 E xXlX5Xl vXsXgXhXpX~ l / } F.x 6 5 G.K 6 e s.S.C.A.%.5.c.x.<.<.1.<.M.b.n.:.N.",
"N.v.M.M.M.$.m.x.m.+.x.,.%.x.c.%.-.r G.jXjXW E jXjXeX3X5X} R.F pXaXU.j ~ | } T.F.{ 3XG.N P [ F.C r S.v.%.x.x.c.x.%.$.c.x.x.n.b.<.",
"N.M.M.V.x.x.x.x.c.$.<.,.M.x.c.C.7.t W 0XqX[ R G.8X9XF.R _ | l pXdXj l F T._ _ [ 5X_ Y T _ F.H.V r h.r.o.v.M.x.v.5.>.b.n.B.5.b.5.",
"5.N.x.c.%.w.M.x.x.x.,.m.c.C.C.u.Z C R F.F.F.( z { 3XH.n L ] F Y.dXj j D { S Y } } Y z { H.H.F.C N d.8.%.r.C.r.x.<.<.x.x.5.b.n.n.",
">.5.5.1.<.m.v.w.c.%.r.j.j.l.h.H t xX0XF.[ H.( z ' T.3XF.^ c T.D l l / { z ( } F.F.Y M { H.H.F.R P x d.l.9.9.r.C.w.<.x.x.5.x.V.V.",
"5.b.5.:.$.c.v.c.j.#.u Z u y B t x lX0XF.S ( } ( L Y F.} ^ c } _ ( ( { [ M ^ H.F.L T ( } ( S ( Y P x N Z B B r u q.%.>.$.n.N.5.1.",
"x.:.<.N.M.$.x.r.9.Z x x x x n x n jX7X[ v Y ] { c L H.[ ( v [ H.} { { ] z T H.H.v S } { ^ c T T U z x c x x x 8 a.e.B.m.$.$.1.n.",
">.N.N.V.v.w.@.@.r N Y T / Y Y ^ Y 7 I } [ T M M c U } ^ Y Y T ^ ^ ^ ^ ^ ^ ^ ( H.c c M M S ^ ^ c z T ^ T Y Y Y E 8 H k.A.<.<.V.N.",
">.N.M.N.M.m.7.y J.4XG.' ' ' ' ' ' L L S H.' _ _ c m ] m v v b b v m v b m b L _ c U _ ( Y Y n { 6X' ' ' ' ' ' ' P B y 8.@.D.N.x.",
"x.>.m.m.1.-.A w rXjXF.5X3X3XF.6X3XR U c H.[ H.{ x v I N x x e N N x N v x N V I z U [ H._ P z 9XjX3X6XH.3X4X5X3XW V w 7.8.D.M.D.",
"x.5.:.:.,.i.a.6 rXxXkXxXxXzXzXxXzXxX[ z H.H.` I x w w J l.8.q.8.j.r.S.S.S.l.u w 6 V I H.] T 7 6XxXkXxXxXzXzXxXxXlXW 8 s.#.r.x.5.",
"n.>.$.w.i.;.Z cX' R R R W R R R E R R T c S P x a.h.l.#.,.r.x.b.$.1.c.v.$.%.8.0.h.B 8 I D m lXQ R R R R R R E E W P E t 8.-.w.b.",
"M.+.w.b.m.7.K kXW R ` W _ ` _ _ ` 6XG.T z c C Z h.j.q.,.x.x.M.n.v.x.5.$.m.w.w.w.r.9.Z V v b xXG.I Q W ` ` ` ` ` 6X_ I 7 9.#.A.x.",
"$.x.b.m.Z.d G kXW R F.3XT.[ H.F.F.xXH.Y z x Z j.Z.,.b.,.1.v.M.n.v.<.5.>.1.1.x.N.c.r.h.w z b xX' E T.3XT.F.F.H.F.kX3XY 8 J @.,.w.",
",.5.b.b.i.7.C xX_ R 3Xb c c z I F.zXJ.Y z Z 9.t.:.+.,.b.x.M.x.x.x.x.1.n.>.b.b.n.M.m.r.h.K b lX' R T.L M c c Y F.rX3XY 8 u i.r.5.",
"b.x.b.b.i.#.Z xXW R F.Y I Y R ` 4XzXH.P x B r.x.<.r.2.m.M.b.c.x.x.x.1.b.X.5.n.b.D.A.N.r.J C xXf.Y 3XR Y Y Y ' F.kX3XY N u e.1.5.",
"1.1.N.N.m.8.Z xX` R F.G.G.F.F.G.G.yX4XI z J r.M.N.A.m.w.N.v.x.,.m.x.m.$.1.1.>.n.V.V.n.A.0.B zX' R 3X3X[ 3XF.G.F.yX3XY 7 u 8.x.x.",
"x.b.N.n.N.j.d.v qXjXxXxXzXzXzXzXyXzX6XI 6 7.r.m.m.A.<.M.$.<.<.A.m.x.:.M.w.<.5.>.>.N.M.x.e.Z t 7XkXrXkXkXkXkXkXlXkX3XR 6 7.@.%.x.",
"n.v.n.M.x.Z.a.8 G.J.F.F.H.F.F.F.3X3X( C A 9.c.N.x.x.M.b.M.x.$.+.@.%.x.n.>.B.5.5.n.5.x.,.-.u.6 _ 3X3X3X3X4XF.3X6X3XP V K 8.w.+.$.",
"O.$.$.$.$.+.A 5 R W R P I ( I I _ I m 6 l.r.c.M.m.x.x.N.x.$.x.w.m.v.O.5.B.b.b.b.v.x.M.N.r.8.7 Y ` I I L I P W W I G 5 s.j.$.$.M.",
">.1.D.x.x.r.s.6 rXeXY z m } z _ kXI S 6 9.D.m.M.N.x.M.m.1.x.1.w.x.x.<.,.M.N.D.N.D.N.c.x.,.#.z jXlXI n z z z [ xXR V w s.%.x.N.N.",
"M.>.N.N.$.r.9.5 rXeX^ c M m _ 9XlXI S N r.$.x.m.x.M.m.:.x.x.c.c.b.<.%.,.+.b.A.1XD.M.<.$.m.8.7 8XjXI _ _ ] b G.kXY n 6 7.C.M.x.m.",
"m.o.>.1.O.q.a.5 rXqXY c M M { H.lXI m N 9.t.m.$.<.w.m.$.x.x.m.m.$.$.b.y.B.5.<.:.$.:.,.b.m.z.6 8XjXI { F.{ V 4XxXY b e A C.M.M.v.",
":.D.D.M.M.-.H 5 wXrXY c M z x ` kXI m 8 k.N.N.D.$.r.:.w.b.m.m.x.>.n.b.b.b.B.<XM.x.1.b.x.i.e.e 9XjXI ' ' z _ rXzXY S e 0.r.m.v.N.",
"O.5.n.<XA.Z.H e wX0XY ' ] ] W 7XjXI m 6 k.M.M.M.:.b.w.<.%.2.x.+.n.n.n.n.N.N.x.x.:.<.:.y.N.u.6 9XjXI ' [ ] [ tXzXR V e l.t.<.1.$.",
"N.5.:.>.2.,.H 5 wXeXI _ { ' [ 9XkXR m x e.1.$.<.1.5.b.w.m.r.o.w.M.n.x.B.n.5.M.$.m.A.b.:.b.7.6 8XjXI ` { { { qXzXR n e l.Z.<.>.V.",
"M.<Xn.:.b.B.a.6 rXrXY c z z z ` kXI m x e.m.M.M.M.m.b.1.m.m.w.@.x.<.x.b.x.b.x.:.M.N.m.,.-.;.7 9XjXI v c c z G.zXR V e h.M.>.x.M.",
"b.b.$.1.M.S.s.w rXeXI { } { z ' xXI m x Z.m.w.b.n.N.b.b.r.w.w.o.x.x.b.5.1.5.$.w.:.b.r.,.B.u.8 8XjXY v v } b G.xXR n e h.A.<.5.D.",
"m.,.x.A.b.i.f.8 rXeXI T Y } Y 3XjXI m x S.m.x.A.n.n.M.b.x.w.c.+.w.b.x.x.:.:.N.x.x.$.$.x.w.l.9 7XjXY v c U / 7XzXY V 8 h.Z.w.$.:.",
"$.,.A.M.M.S.f.6 wXeXY z m [ 3X8XzXI m 8 ;.w.b.m.b.n.A.N.v.x.%.<.X.<.M.$.x.b.n.V.N.c.<.c.A.k.5 9XjXY c z M _ eXzXY V 5 l.Z.:.5.M.",
":.1.m.N.b.Z.f.w wXeXY c z c z ` kXI m x k.1.X.:.:.b.x.M.x.$.x.b.x.x.:.D.n.n.V.V.V.M.%.m.A.l.9 9XjXI ' } [ b 3XzXW n w s.-.<.N.b.",
",.b.M.b.b.Z.0.6 rXeXI Y Y z ( H.jXI D t 2X<Xm.M.x.+.+.:.$.1.V.D.D.w.b.n.5.5.n.5.v.N.v.,.N.9.8 7XjXI P S L x G.zXY V 6 l.8.m.M.M.",
"$.X.x.V.M.t.A 6 qXcXP F.( z F.0XzXI S N Z.m.1.N.N.,.<.D.m.x.$.$.M.<.M.x.5.5.b.n.n.V.M.n.1.l.5 9XjXI v z z z G.zXW V t u ,.b.N.x.",
"m.M.$.$.,.,.f.6 rXqXP H.} } F.8XjXR b x S.B.b.b.$.M.N.m.v.V.n.n.$.,.v.x.1.5.n.n.<XV.M.D.r.7.6 9XjXE { } { [ qXzXR n w f.-.<.M.n.",
"b.N.%.<.%.Z.f.e qXrXT V v m H.0XcXR b 8 S.b.N.B.<.M.m.M.N.A.M.n.x.%.A.m.b.y.M.M.n.M.V.m.+.8.6 8XjXI ] H.b b 6XzXY V w l.m.$.M.N.",
"M.m.V.<.+.r.f.N rXjX^ c c m ] 9XkXR m x k.N.B.$.M.N.V.N.D.D.x.v.M.<.w.c.A.b.M.N.V.<.>.<.m.h.7 8XjXP ] ( m z G.zX( V 6 l.S.x.$.A.",
"D.D.D.v.$.q.f.6 rXjXY c m } z ` cXP b N k.:.:.b.n.n.M.N.n.N.x.x.x.x.%.<.:.$.,.w.>.<.n.>.:.8.6 9XjXR v v 5Xm F.zXY V w s.t.%.w.$.",
"D.N.N.D.b.,.f.6 rXeXY z c c z ` xXY m x i.:.A.B.x.5.n.n.n.x.5.b.b.M.+.c.b.N.c.,.c.V.B.V.A.9.7 8XjXI v z c R 8XzXY V 5 A i.x.v.%.",
"M.D.D.x.:.%.J 6 rXeXY m c m b F.jXI S x e.+.N.D.n.b.5.M.x.n.x.1.b.M.:.w.m.1.b.,.D.n.D.V.m.u.8 8XjXI v V n { tXzXR b w A q.x.M.w.",
"$.,.$.<.n.q.Z e rXeXY { } } H.8XcXR S x r.t.<.D.V.V.N.n.x.x.w.1.m.<.+.M.m.q.A.:.M.V.V.D.A.h.8 8XjXI [ } } F.0XzXY V w s.C.x.x.v.",
"M.,.<.b.x.m.Z w eXeXI [ ] c H.0XkXI b N i.A.<.:.1.N.M.M.v.x.M.w.X.<.<.%.r.x.<.$.N.n.N.N.A.e.t 9XjXI m c c c F.zXR V 6 s.m.b.x.x.",
"c.$.1.n.c.q.A 6 rXeXI [ ] m ' 7XxXI S 8 k.b.N.w.x.+.c.M.M.A.,.,.1.1.1.<.<.%.A.$.n.n.<Xm.b.e.6 7XjXE c M z v 5XzXR V 5 9.m.m.x.n.",
"<.c.x.v.v.C.A w rXrXI [ T.{ z ` kXI m 8 k.b.A.M.<XM.+.,.$.%.<.M.b.b.M.x.x.>.x.x.>.n.<Xb.1Xk.w 7XkXY c c 9 W tXzXI V w s.c.x.5.5.",
"%.x.x.v.v.r.f.6 rXrXP v z z z ` kXY b 8 k.b.M.w.M.b.,.:.x.x.w.M.5.M.x.x.v.N.1.$.:.n.A.N.2Xj.4 7XtXI c c R.4 Q yXR n w 0.S.v.v.5.",
"$.M.M.5.x.C.d.6 wXtXI R _ ! 0 4 G G b N S.A.,.1.$.+.+.m.M.w.v.m.x.M.n.v.m.m.x.M.$.5.:.M.B.p.0 4XkXI W ! 4 f s s P G 5 7.,.m.M.x.",
"<.m.6.y.3.p.K 6 wXtXP R.R.a.# X % G G 4 d =.=.-.M.w.1.M.m.m.x.5.x.M.n.M.M.b.M.M.<.1.1.2X2X3.X ,XtXG Q ! . 1 ; # G n 5 l.q.,.5.v.",
":.B.y.3.O o 0 4 tXyXiX$ + + I.; X X X X X q u.-.r.$.1.n.M.v.n.v.n.V.n.5.b.m.r.A.+.+.=.3.p @ a - $ ,X$ @ L.L.- X G 4 # X q ,.+.x.",
":.:.;.* 1 1 i X s i i < L.oXL.- + 1 1 1 . % O = =.:.<XM.n.v.x.n.5.5.5.n.w.N.r.+.+.B.q.* * 1 P., 1 $ 1 , XX/.-   $ g f o d c.%.$.",
"m.,.q O a a 1 +     + , ^.|.E.> + /.P.P.      . 4.=.B.5.5.b.b.n.<Xn.n.M.x.>.X.1.M.r.y.O > /.K.E., . , ~.>X~.>     1 I.+ p y.m.+.",
"v.,.;.p . - /.K.2 , K. X;X+XW.(..X&XQ.+ 2 I.a a O = 2.n.3.>.5.n.n.B.>.$.O.>.n.V.N.w.p.O > /..X|..XE.{.%X%X: : L.L.K.P.+ p 3.y.o.",
"v.w.1.p . - ~.$X$X[. . X-X*X;X;X@XW.).XX+ < 1 + i =.:.=.B.B.b.5.n.:.O.4.B.n.B.B.c.x.2X3.= @ E.[.@X@X@X+XQ.E.{.}.}.).K.L.& O =.>.",
"m.x.2.= @ : ^.@X*XOX!.'.=X*X:X=X#X^.{.@X: , L.@ 3 &.*.*.......&.....*.*.*.*.*.*.(.*.&.*.3 - !.'.*X#X:XOX!.!.{.=X;X_.^.K.: O oX..",
"w.3.* o  .).>X*X*X*X=X=X*X*X*X*X=X#X*X*X;X>X[.E. .W. . . . . .E. . .W.W. . . . . . . .E. .!.;X=X:XOX:X:X=X=X=X*X*X=X;XW.W.W. .& ",
";.o *  .%X#X;X*X*X*X=X=X#X*X*X=X*X:X:X#X:X*X=X'.>X|.%X%X$X$X$X@X$X|.%X|.}.>X%X%X>X>X}.@X}.$X-X=X-X=X*X:X*X*X=X=X=X-X-X@X$X$X|..X",
"3 & : ~.@X=X#X`.=X=X=X`.'.'.[.`.*X:X:X:X*X*X*X=X'. X X X X].;X;X;X'.]. X X X X].].@X=X;X[.].].].[.'.OX*X*X=X'.'.].'.'.=X-X;X X X",
". I.(.>X=X*X'.W.OX=X=X^.W.E.E._.=X:XOXOX*X*X*X=X!.E.W. .E.!.=X*X+XW.W.E.E.E.E.W.E._.*X*X_.W.E.E.E. .OX#X:X=X).W.W.W.W.;X=X`.E. ."
};
