/* XPM */
static char *f6a4e6f7bd964ec3a93b1909f9a68950lng2AtYBiNayGnwu[] = {
/* columns rows colors chars-per-pixel */
"64 64 245 2 ",
"   c #345215",
".  c #38500F",
"X  c #1C5A2A",
"o  c #2D5A25",
"O  c #2B6637",
"+  c #464C06",
"@  c #495404",
"#  c #565701",
"$  c #4F520E",
"%  c #695713",
"&  c #5A680F",
"*  c #686B05",
"=  c #7B7D01",
"-  c #75770A",
";  c #676916",
":  c #737716",
">  c #5B4E3A",
",  c #565533",
"<  c #624E37",
"1  c #6A543B",
"2  c #655238",
"3  c #79593D",
"4  c #725C22",
"5  c #4D6530",
"6  c #747B25",
"7  c #706835",
"8  c #0B704F",
"9  c #39796B",
"0  c #3B6458",
"q  c #4C5445",
"w  c #48594A",
"e  c #525344",
"r  c #585849",
"t  c #575E51",
"y  c #665E4C",
"u  c #655845",
"i  c #715E48",
"p  c #5A735E",
"a  c #556852",
"s  c #68634B",
"d  c #7A6549",
"f  c #6C6A5C",
"g  c #676656",
"h  c #726E5D",
"j  c #776C55",
"k  c #75715D",
"l  c #77735A",
"z  c #6C7353",
"x  c #5A7763",
"c  c #4B7869",
"v  c #6D6D60",
"b  c #726F60",
"n  c #697967",
"m  c #747362",
"M  c #7D7C6C",
"N  c #767866",
"B  c #797E71",
"V  c #81790A",
"C  c #8D5C33",
"Z  c #865D3B",
"A  c #935E34",
"S  c #925C37",
"D  c #8D592D",
"F  c #8E623C",
"G  c #876736",
"H  c #956135",
"J  c #956239",
"K  c #9A653B",
"L  c #9E6A3E",
"P  c #966837",
"I  c #8F6F32",
"U  c #A16C3E",
"Y  c #876647",
"T  c #9D6B42",
"R  c #956A46",
"E  c #9C724C",
"W  c #997247",
"Q  c #947353",
"!  c #9C7958",
"~  c #8A6F53",
"^  c #A26D43",
"/  c #A56F48",
"(  c #A57145",
")  c #A97346",
"_  c #A5734A",
"`  c #AA754B",
"'  c #AD794D",
"]  c #B07B4E",
"[  c #AC7A51",
"{  c #A47954",
"}  c #B17C52",
"|  c #817E6C",
" . c #877A66",
".. c #827E70",
"X. c #7C8408",
"o. c #6A8C13",
"O. c #7B8215",
"+. c #7C8022",
"@. c #3EAB71",
"#. c #3FAC6F",
"$. c #2E8C6A",
"%. c #728A4F",
"&. c #59826C",
"*. c #538773",
"=. c #68846B",
"-. c #79836D",
";. c #668973",
":. c #7C8172",
">. c #778975",
",. c #68927A",
"<. c #78937A",
"1. c #6E956B",
"2. c #47AA6E",
"3. c #72AB79",
"4. c #519143",
"5. c #848301",
"6. c #8A8802",
"7. c #959407",
"8. c #909215",
"9. c #A29D04",
"0. c #ABA609",
"q. c #B4AF12",
"w. c #BEBC29",
"e. c #B3B22E",
"r. c #C7BD0C",
"t. c #C4BC18",
"y. c #C1BD24",
"u. c #CDC10D",
"i. c #CBC113",
"p. c #C9C11A",
"a. c #C6C11C",
"s. c #D0C10E",
"d. c #C5C124",
"f. c #B38157",
"g. c #85816E",
"h. c #8A8572",
"j. c #8B8874",
"k. c #99947D",
"l. c #938C75",
"z. c #90A06E",
"x. c #33BDA8",
"c. c #2EB297",
"v. c #7B9C84",
"b. c #789984",
"n. c #689B82",
"m. c #5DB998",
"M. c #54AE93",
"N. c #6EA183",
"B. c #65A988",
"V. c #75A488",
"C. c #79AE92",
"Z. c #61BE9C",
"A. c #67B696",
"S. c #74BA9A",
"D. c #7ABB9B",
"F. c #77B596",
"G. c #70B38E",
"H. c #6BBCA2",
"J. c #0ECABE",
"K. c #13CABC",
"L. c #19C8B7",
"P. c #25C3AC",
"I. c #25CCB9",
"U. c #32CFB5",
"Y. c #66C09B",
"T. c #7AC29C",
"R. c #7AC08C",
"E. c #4AD5B8",
"W. c #66C5A4",
"Q. c #7EC6A4",
"!. c #79C9A7",
"~. c #77D8B4",
"^. c #71D4B1",
"/. c #78E4BA",
"(. c #06CCC6",
"). c #0BCCC4",
"_. c #03CECB",
"`. c #09CDC9",
"'. c #12CBC1",
"]. c #1CCFC2",
"[. c #01D0CE",
"{. c #0CD3CE",
"}. c #1CD1C5",
"|. c #17D4CB",
" X c #01CED1",
".X c #09CFD0",
"XX c #04D2D1",
"oX c #18D8D1",
"OX c #26D6C5",
"+X c #39DEC7",
"@X c #26DED1",
"#X c #38E1CC",
"$X c #29E4D8",
"%X c #37E6D5",
"&X c #2FE2CF",
"*X c #3CF3E5",
"=X c #30EEE6",
"-X c #44DEC3",
";X c #57EACC",
":X c #49EDD7",
">X c #52ECD3",
",X c #47F1DC",
"<X c #52EED3",
"1X c #6DFEDE",
"2X c #65FAD7",
"3X c #7BF5D4",
"4X c #74FFDD",
"5X c #7BFEDC",
"6X c #7AFBD7",
"7X c #76EDCA",
"8X c #47F7E8",
"9X c #5CFFEC",
"0X c #5AFEE7",
"qX c #48FEF7",
"wX c #56FFF8",
"eX c #48EEE0",
"rX c #6CFFE5",
"tX c #65FFE7",
"yX c #72FFE1",
"uX c #79FEE0",
"iX c #62FFF3",
"pX c #77DEC0",
"aX c #839984",
"sX c #9E9D88",
"dX c #9C9984",
"fX c #A29C86",
"gX c #A29C89",
"hX c #84BD9B",
"jX c #89B798",
"kX c #91AF92",
"lX c #94BFA0",
"zX c #A0AE95",
"xX c #90C59E",
"cX c #89CAA7",
"vX c #94C1A2",
"bX c #92CDAB",
"nX c #89D2AD",
"mX c #8FDFAF",
"MX c #91E5B9",
"NX c #B3E9B4",
"BX c #A4D6A0",
"VX c #C4E5AE",
"CX c #87F5CC",
"ZX c #85FAD4",
"AX c #95F1CA",
/* pixels */
"^ H ) T ' ' H ) ` U K S K H K H P P P K ^ ) / ' ) ) / _ ( C T Y d s ~ I K ) _ P ^ ( ' ) U ) / K K S } _ ) ) A ) } ] K _ ] ` ] ] ",
"/ K H L ) H ' ( ) ` H ] } ` K U ) ] ] U / ( _ _ ) ) ^ ^ U G Q ~ s , s ~ _ C H T ( f.} ] ] ) ' ) ^ K ' ) ) ' H U K K A _ ` } ` K ",
"' _ [ ( D ) ` ) ` ) U ` ' ) U ' ' ' ] ( H J T ^ ) ) ' U H W 2 z.VXxX%.7 f.' H ' ` f.} ' ) ( ( ( ( A K ] ' K U _ ) ( ( H K A K ' ",
"_ ` ( ( K ` ) ( ] H U U _ L J ^ ` K K / f.[ T ^ H A H H W ! 7 3.NXxX1.w Q ) W K ` } ' / ) ' U H K ) / A U K ' ` ( ) ` A _ / _ _ ",
"( _ L A A H ^ U H ) ) / ) ' F T ^ / ' ) ] ' ^ / K U _ W W 7 %.z.mXR.B.x l f.E { L ' ' ^ S S / ` ) U ) ( A K [ / / ( ' K ^ ` ` ` ",
"L J ^ ` ( ( H H ( ' / / _ [ H ( / ` _ ) ] _ ` K ' ( ! f.Q 2 NXBXR.S.Z.C., ~ ! W F H A ^ / S S K U ' f.' ` K ( ` ` ( ] L A ^ ( ) ",
"` / } ^ ] ] ' A U _ / / _ _ A [ } / [ [ [ ` R / { E 7 u u , NXBXY.Y.M.9 w r u u Q R ) / / / / / K P _ [ ` L C ( } ' ] U U ( K / ",
"J K H ` f.] ' ' A ' ] ` ] ] A A S J F Z Z Z { R Y ~ j g f q BXxXY.Z.M.9 w r g y d 3 Y { Q R Y Q _ ) _ J J ( ( C H K A H P L A [ ",
"( ( T H K / K S K K ` ' } L ^ ] J { ~ < < 1 ! u > u fXgXaXq C.S.Y.W.M.c w v B ..y > >  .Y < < ~ { { [ S ^ / U K S U K ) ( ( K ' ",
"` _ ' ' ` A _ / ) C T K A ^ / K S Z j k.dX .u l.k.k.g.g.g.=.a *.Y.$.9 0 B B B ..B M  .u f  .M i i E _ S / ^ / / H A ) ^ U ( ( K ",
"` ) ` ' T ^ / / ) A K J ) / / _ R d g l.l.| g  .h.l.| m h :.w *.m.n.9 0 B n v ....b f g b ....y 1 E / D ) / T / U K / ( ) U ( ( ",
"U ' / / S T ) ^ ^ T J / E ` _ E Z i f ..| | ..r h | M g t -.a x H.$.c w B g t ....f e ........g u ~ F S / / _ T K L ^ ^ ) ) ) ( ",
"L L ( L S ` / U / S E / E E E Q 1  .l.| ....B q v ..B j.aXx b.,.c c ;.b.c >.aXB B v e B B ....b i < Y ! R R E _ T K / ^ / ^ ] ] ",
"( U T J S / ) / / Z Y d Y d Z d e ..dX| f m B v n n b.v.aX&.V.b.;.n.b.v.c b.aXb.B v f B b f b v f e y Y Z 3 1 Z Y C K A / _ U U ",
"( A K ' / S K / R d u u r u r r r N h...y g N B n n v.aXC.n.C.C.C.C.C.C.n.C.C.v.;.;.B N v e f g g e r u e u u u Y R { ( A A K ) ",
"H ' ' } / ^ S S i < i f v f f f f t g ..B v q x *.n.C.D.D.D.T.F.H.D.D.D.D.D.hXC.n.n c w t v f r e f v v f f f h 2 d { [ K U ) ] ",
"H ' ' ' U ( J 3 ~ l...| M M M | M h g r N B <.v.V.A.F.S.A.A.A.A.A.A.A.A.A.A.A.S.C.V.V.<.-.f r M dX .| N M M M M s i 3 C F } [ _ ",
"( J ) ) U P Y 1 j gXl.......h.h.g.M f e :.b.b.jXC.A.H.H.W.H.Y.W.W.W.H.W.W.W.H.H.A.G.jXv.<.n e | dX......h.h.h.h.b j 1 Y F [ _ } ",
"U U H H K T Q 1 j fXgXgXgXgXgXgXfXfX..q b.V.C.F.A.m.m.pXyXuXZXZX5XuXuXuX5XZX3XM.m.H.S.C.b.;.q | gXfXgXgXfXgXgXgXgX .2 Q Z / / U ",
") H A U ( R 1 l.l.l k l b l ~ b l m n =.;.N.D.A.pX3XyX-XOXU.rXrXrX+XI.+XtX;XE.yX3X~.A.S.G.;.kX:.k b b ~ k l k l k j s u R S T ) ",
") H L ( ) Q < dXj.s m l m k m b b M >.b.n.B.S.^.;X;X>X-X#XL.%XeX*X}.).'.*XOX].eX:X;X^.H.A.,.jX<.n m k m k m k k | m g > ~ C [ / ",
"H T ) _ [ R > k.j.j | | | M M B B aXkXn.C.A.m.3X+XL.I.eXqX'.'.).).(.[.[.).).).'.L.-XyXW.A.B.lXv.>.:.:.M M -.| M dXh.f e Y Z J L ",
"P L ( ) T W > k.l.s M f e q q r aXkXlXD.B.^.uXI.K.}.iX#X'.`.[._._._._._._._.`.).eX>Xx.tXpXA.cXjXb.aXf e e q g g.dXj.g > 3 E T T ",
"( T ( ( ( R > dXh.f M N a g p n v.jXhXS.A.^.yX:XOX}.iX#X(.[. X[.[._._.`.$XoX_.`.$X&XL.9X7Xm.nXC.N.v.n a g y g | k.j.g > Y T L U ",
"L U ' ' ( E 1 k.h.j M -.-.aXz.v.j.jXxXS.A.^.4XrX+XOXwX$X(._.[._.(.(.`.oXqX$XXX_.`.).).0X;Xm.nXF.3.V.<.g.g. .g. .fXl.g u 3 Z ^ ^ ",
"( U ] ( ' _ ~ 1 k sXzXzXlXlXlXvXvXvXcXS.m.^.rXI.>X9XL.)._._. X_.).wX*X).'.`.[.[._.[.`.K.-XZXZ.cXbXvXzXzXsXfXfXfXfXj.f > Z S S ^ ",
") ) ) ) ^ [ Q 2 g >.V.kXhXV.F.xXD.C.G.A.7X;XOXK.<X9XJ.[._._._.$XqX@X|._._._._.[. X[._.K.-X5XZ.S.jXV.<.<.m k m m l j u ~ R T D S ",
"D A A H A Z Y 1 g ,.b.A.!.B.A.T.D.C.B.m.3X;XK.).%X8X(.[. X_.`.$XwXI.(._._.[.[._. X_.{.K.+X5XZ.S.D.b.,.;.g f f h f s 1 ~ / S S [ ",
"U U ` ) L E ! z <.vXT.nXAXW.MXMXbXcXF.m.3X:X)._.{.(.[.[. X_.).J.).[._._._._.`.`.`.$XwXI.E.5XZ.Q.bXN.;.x w e b gXh y u Q S / ` ' ",
") H ' ' H T Q d <.vXT.!.CXCX/.~.cXD.F.m.3X;X'._.[.[.[._.`.`.8X=X`. X[._.`.=X*X`.`.|.OX0X1XZXZ.Q.bXN.n.b.n r h gXb y < Z E ) ( ` ",
") D J L A R ~ j 1.vXT.~.ZXCX/./.!.D.S.m.3X2X+X)._. X[._.).&X8X=X`.[.[._._.=X*XXX_.(.L.tX4X6XZ.Q.cXN.b.aXm y M fXk y 1 Y ` ( ) ( ",
"H ' [ ' ` F Y z j.xXD.~.ZXZXAXAXmXcXS.m.7X4XtX}.`.[. X`.}.wX|.)._._.).(.K.).`..X_._.J.0X1XZXW.Q.bXb.v.>.e | h.gXh y 1 Y E ) ( ] ",
"H U ) } [ [ Y 2 N kXb.A.cXH.!.cXcXhXG.A.CX4XiX}.(.[.[.(.I.wX|.`._.).&XtX9X&XJ.(.[._.(.J.#XZXm.Q.bXN.v.v.:.| l.fXk y 2 { T S / A ",
"' U H K K J Y 1 m zXb.V.D.D.D.F.vXhXS.m.7X2X0X}.`.[.(.|.#X8X|.`.J.@X>X4X4X>X@X(._.[.[.`.#X5XY.Q.bXN.b.>.N m h.fXb y 1 ! _ K S ] ",
"' ] ( A / [ Q < l dX>.>.;.n.c &.xXjXF.m.3X;XK.`._.[.J.*XwXK.(.`.J.0X1X6X6XyX0X).`.[.[.(.#XuXW.Q.cXN.;.p q e h fXh y 1 Q ' K / ` ",
"( ( A ^ _ [ ! 1 k sXv n aXb.;.x vXhXS.m.6X<X`._. X(.L.*X0XL.).).L.2XrX4X6X4X2XL.).[.[.(.#X5Xm.Q.bXN.;.x M r h gXm y 1 ! ' K U } ",
"` H / [ / E ! 1 j sXk p p aXb.b.vXhXS.m.3X:X)._._.|.0XtX9XK.'.@X2XrX2XU.4X6X4X2X@X(.[.(.#X5Xm.Q.bXN.;.p t v h.gXf y 1 ! { L D P ",
"C J [ _ ` { ! 2 j sXf s r aXaXaXvXhXF.m.3X<XK.`._.}.rX4X0XK.'.&XtXtX,XI.rX4X5XrX&X(.[.J.+X4XW.Q.bXN.;.x q B l.gXk y 2 ! { H L ) ",
"H T ) ` ) [ { 2 j gXk t q w t x vXhXS.m.3X;X].qX$XOXyX4X0XL.J.$XwXI.J.).L.<X4X4X%XJ.(.J.-X5Xm.!.cXN.b.v.B r h gXm y 2 Q F P { ( ",
"P U ` ` ) { R 2 l dXm b v w B b.lXD.F.m.3X;XL.oXoXL.4X4X0XL.).{.@X'.`._.J.,X4X4X&X'.(.8X1X6XW.cXcXV.;.n t e h gXv y 2 ! J ) ` { ",
"A C L ' ` R Y 1 j gXb b B q B aXvXhXS.m.3X;XL.J.`.}.yX4X0XL.).(.).)._.[.J.,X4X4X&X).).wXtX5XY.Q.bXb.;.p q e k fXm y 2 G Z _ ` / ",
"( _ K K S J { 1 j sXm N B B b.v.vXhXS.A.7X1XiX}.`.}.yX4XtXL.(.=XwX'.`.).L.:X1XtX$X).).K.-XZXm.Q.nXN.b.v.>.:.j.fXh y 1 ! S L ` ) ",
") ' K J S { ! 1 j gXv g r e n v.lXhXD.m.7X6XtXOX).'.rX4X0XL.{.`.K.wX*XOXtX1X2XL.).[._.'.-X6XZ.cXnXN.b.b.n q v sXf y 1 ! / A ` ] ",
"_ _ ' J C E { 1 j sXb t e t B b.vXhXS.m.CX1X0X}.(.}.0XrX1XI.).`.J.qX%XI.4X4X0XJ.`. X_.).#X4XZ.T.cXN.<.<.x a n sXm y u { [ / S ` ",
"} ] ] ) A R ! 1 h gXb g r B n &.vXhXF.m.3X;XJ.`._.`.K.:XyXtX|._.[.(.J.I.rXrXwX).[._.(.K.-X5XY.Q.bX3.;.x b.x -.dXv y 2 R J S K J ",
"f.} ] } ( F { 1 ~ gXb y q e p n vXhXS.m.6X>X).[.`.`.'.eXyXrXI.).).K.#X9XrX#X].(._._.).wX1X6XY.T.bXn.;.x ,.V.kXzXn y 1 d _ / / S ",
"_ } } ^ K C Y 1 j gXb h m N -.<.vXhXG.m.3X<X).(.%XeX).@X+XrX<X2X<X<X1XtX&XoX`._.[._.J.9X4XZXZ.Q.cXB.C.C.D.hXjXlX>.g 1 Y R / { T ",
"J J S K / R Y 1 j gXh b B B <.aXvXhXS.m.3X<X).(.,X9XJ.(.I.iXrXyXuX4X1X0X'.`.`. X X_.).9XrXZXY.Q.bXn.H.!.!.Q.xXvX,.f 2 R / ^ ^ / ",
"` S T / ( { 3 1 j fXh m M w B v.vXhXS.m.3X<XJ.(.,X0XJ.).(.K.tXrXrXrX,XK.`. X X[. X_.[.K.-X5XY.!.nXS.MXZXCXAXMXbX,.z 2 Q ( ( T ) ",
"/ J ^ ` ^ R Y 1 j fXh m M v n =.vXhXS.A.3X<XJ.(.OX%X8XoX_.(.&X+X+X&X|.).`._. X[._._.[.).#X4XY.T.nXW.pXZXCX/.mXxXn.1.s ~ _ ) U ) ",
"A ^ / / ( ( Y < j gXk m g.>.n =.vXhXF.m.3X;XK.).).|.iX#X)._.(.(.(.(._.`.).)._._.).(.[.(.#XuXZ.!.nXY./.ZXZX^.T.cXV.>.j Q ( ( L U ",
"A ^ ^ / U W E 1 j gXh s e > a &.xXhXF.m.3XrXwX|.`.oXiX#X)._.[._._.[. XoXqX$X`.`.*X*X(.).#XuXY.!.nXA.MXAXcXMXMXbXV.1.s Y { ^ ( U ",
"A ) ) U U _ T 1 j sXk l M l 5 5 5 ;.F.M.ZX;X}.`._.`.].%XqX'._._.[.[. X[.{..X_.).:X8X(.).-X6Xm.T.cXB.T.xXO 5 5 5 <.1.z d F ` ` ( ",
"K ' ( U I I 7 < j dX .l l z 5 $ . %.3.3.~.E.I.)._._.).=XqX'.`. X_._.[._._. X_.oXeX%X).K.U./.3.3.jX3.C.3.  @ $ . 1.=.7 ~ G J T ) ",
"S ` T W % $ $ , z z.fX%.+ + * +.. .     o 9 x.U.'.(.(._._._.).)._. X X X X X{.wX@XJ.'.P.$.X o   5 3.5   . 6 ; . %.z + + 3 J C ^ ",
"S K W % ; 6 7 $ $ 4 $ ; O.e.8.- + + . . . o 8 8 c.J.(. X_._.qX%X).`._. X.X X`.oX X(.J.$.O   . & 6 $ & @ - O.; . $ & 6 + G T K C ",
"` F C % 4 : O.# @ @ # * 7.d.8.6.@ @ . . @ @   X $.c.).[.[.`.qX,XOXOX'.`.[.[._._.[.J.I.8 o . @ : +.@ @ # 8.- ; @ @ & 6 + G U ) A ",
"/ H Z I ; + 8.V 5.X.5.7.d.a.9.5.X.& + + 6 ; @   X 8 L.J.(.K.L.U.iXrX8XK.).).).(.J.L.x.8   @ o.O.X.X.5.8.w.# * 5.X.O.: # I I U D ",
"( U R D # # V w.d.y.6.0.a.i.d.w.X.X.& @ @ & 6 . $.M.P.P.P.P.P.x.P.P.P.P.P.P.P.P.P.P.c.MX3.. X.X.6.y.y.q.8.5.9.y.w.q.X.: % # I I ",
"( U P % % - q.t.p.i.0.q.u.u.u.u.0.q.8.* * : X.& 4.2.2.#.#.#.#.#.2.2.2.2.@.@.@.@.#.2.2.3.4.X.X.7.q.p.i.r.0.0.q.p.i.q.0.X.V * I : ",
"L L 4 # * V i.u.s.s.i.s.u.u.u.u.i.a.q.5.5.5.X.X.o.o.o.o.o.o.o.o.o.o.o.o.o.o.o.o.o.o.o.o.X.X.5.0.i.u.u.u.r.i.i.u.s.i.t.6.5.V 6.* ",
"G % # - e.y.i.i.u.r.s.r.i.p.t.i.i.u.t.t.t.t.t.y.a.d.w.w.w.w.w.w.w.w.w.w.w.w.w.w.w.w.y.t.y.w.y.y.a.i.i.u.u.u.i.i.i.t.y.t.t.t.w.w.",
"% ; V w.t.p.t.7.0.i.t.q.7.7.7.7.s.s.u.u.i.i.a.a.0.7.7.8.7.7.w.i.i.7.7.8.8.6.8.8.7.q.p.i.q.7.7.7.7.7.0.i.u.i.q.7.7.7.9.t.t.t.7.8.",
"+ - 6.t.p.r.r.7.9.p.r.0.5.X.X.6.q.r.u.u.u.u.u.q.7.= = X.= X.q.u.a.6.X.= X.X.X.X.5.9.i.q.0.X.= = = X.0.r.u.u.0.V 5.5.6.t.r.r.V V "
};
