/* XPM */
static char *_ace2d7bfada42b6c2f7ce6e9986e68ctilUb2NKZ0GMW1nr[] = {
/* columns rows colors chars-per-pixel */
"64 64 141 2 ",
"   c #8B572E",
".  c #8E5A2E",
"X  c #905B2F",
"o  c #8E5B32",
"O  c #925E34",
"+  c #935F39",
"@  c #956136",
"#  c #986437",
"$  c #966239",
"%  c #9A653B",
"&  c #9D693E",
"*  c #A0673C",
"=  c #A16B3E",
"-  c #9C6741",
";  c #9E6B41",
":  c #A26E43",
">  c #A46F48",
",  c #A67145",
"<  c #A57245",
"1  c #A77344",
"2  c #A57046",
"3  c #A47146",
"4  c #A77047",
"5  c #A67147",
"6  c #A57247",
"7  c #A77246",
"8  c #A67346",
"9  c #A57044",
"0  c #A77447",
"q  c #A57145",
"w  c #A87244",
"e  c #A97345",
"r  c #A87246",
"t  c #A87347",
"y  c #A97347",
"u  c #A87445",
"i  c #AA7446",
"p  c #AB7547",
"a  c #A97346",
"s  c #A47048",
"d  c #A57048",
"f  c #A57149",
"g  c #A67149",
"h  c #A77248",
"j  c #A67348",
"k  c #A6724A",
"l  c #A7734B",
"z  c #A77449",
"x  c #A67648",
"c  c #A6754A",
"v  c #A67249",
"b  c #A87148",
"n  c #A97249",
"m  c #A87349",
"M  c #A9724B",
"N  c #A8734B",
"B  c #AA734A",
"V  c #A97448",
"C  c #A87548",
"Z  c #AA7448",
"A  c #AA7549",
"S  c #A97649",
"D  c #A9744A",
"F  c #A8754A",
"G  c #AB744B",
"H  c #AA754B",
"J  c #A9764B",
"K  c #AB764A",
"L  c #AA774A",
"P  c #AC7648",
"I  c #AD7749",
"U  c #AC764A",
"Y  c #AC774B",
"T  c #AD774B",
"R  c #A9744C",
"E  c #A9754D",
"W  c #AA754D",
"Q  c #AB764C",
"!  c #AA774C",
"~  c #AB774F",
"^  c #AD764D",
"/  c #AC774D",
"(  c #AA754A",
")  c #AB784B",
"_  c #AC794A",
"`  c #AE784A",
"'  c #A9784D",
"]  c #AB784D",
"[  c #AD784C",
"{  c #AC794C",
"}  c #AE784C",
"|  c #AE794D",
" . c #AF794D",
".. c #AD7A4D",
"X. c #AD784E",
"o. c #AC794E",
"O. c #AF784F",
"+. c #AE794F",
"@. c #AD7A4F",
"#. c #AF7A4E",
"$. c #AE7B4E",
"%. c #AF7C4F",
"&. c #AD794D",
"*. c #B07A4E",
"=. c #B07B4F",
"-. c #B17B4F",
";. c #B17D4E",
":. c #B07C4E",
">. c #AC7751",
",. c #AC7850",
"<. c #AD7951",
"1. c #AF7A50",
"2. c #AE7B50",
"3. c #AF7A52",
"4. c #AF7B53",
"5. c #AF7C51",
"6. c #AE7A51",
"7. c #B07950",
"8. c #B07B51",
"9. c #B27B52",
"0. c #B07D50",
"q. c #B27C50",
"w. c #B27D51",
"e. c #B17E51",
"r. c #B17C52",
"t. c #B27D53",
"y. c #B17E53",
"u. c #B37E52",
"i. c #B27F52",
"p. c #B47F53",
"a. c #B37E54",
"s. c #B47F55",
"d. c #B27D52",
"f. c #B38053",
"g. c #B38055",
"h. c #B58054",
"j. c #B48154",
"k. c #B68157",
"l. c #B58154",
"z. c #B88457",
"x. c #B9845A",
/* pixels */
": $ j : ` I @ e I : # # # @ $ $ ; # & $ ; z 3 ) H 2 9 2 0 . 6 & 3 ; 2 @ & i 0 @ 9 = ) i = i 9 # # @ 5.H H I O I p.9.$ 2 ^ ^ @.` ",
"> # @ & 9 @ @.e e I @ ` 5.z - ; 0 ....9 6 z z z 2 i 9 = = O 3 3 s & @ H 2 O @ = 2 f.f.:.:.0 ) 2 9 # ) 0 i @.@ % # # @ j H t.@.# ",
"o.z @.2 O 0 H H H H & H 5.x ; ' .._ e.9 @ @ & s z H @.& @ = % O # 6 9 ..:._ @ _ i f.e.H H 2 2 0 9 O # ` ^ # ; G n 2 3 $ % O # ^ ",
"3 o.: 2 $ H i 2 ^ @ % e z ; $ 6 i % @ 9 f.o.; : @ @ @ # x f.' @ _ 9 9 i i 0 9 % ) k.^ > 2 ^ 9 @ $ H 2 @ : @ 1.J 2 H J @ J : 2 H ",
"2 J & O O O ; ; @ i n : z J O ; : > I e @.^ : j $ 3 z 3 9 @ % @ & & = 2 :.f.2 ) & o.H : O $ 9 @.x 6 e 2 O # 1.: 3 9 o.% ; ,.J J ",
"& $ : H n j @ @ 3 ) 2 e j o.$ j j H e H @.n ^ # ) 2 x f.0 ) ; % 2 0 : ) H i ..9 $ @ @ : : O @ & 9 ..p.@.J # > J H 0 5.; $ ; j j ",
"z z e.2 9.9.o.@ & z H : J n O 1.9.: ^ 9.@.J @ e ) o...f.6 ; z @ i H z o.o.$ % & H # I > e : : : @ # x e.J - O : e.@...& : 2 % > ",
"$ $ @ J k.1.J @.$ ) ^ J @.9.O o # $ O O : O @.0 : 0 0 9 3 9 s s % 3 x % & o...o.e # : H e I : e 1 9 0 @ $ > n O @ $ @ @ # & O 9.",
"9 9 3 @ $ 3 % # # $ o.o.@.& : 9.$ I n 2 % o e.f.0 0 H 2 : ; n - & 0 & ; 9 o.....H H & ` 2 : 9 I ^ n >.+ : > : % $ & # i e e # ^ ",
"H 0 z o.H O j : z O ; & O & > $ $ ^ : : > J $ $ z i 0 e n & O & o ; & @ ; H f.) ) @.@ ` H : = e H G > O > : 4 > $ @ 2 : : 1 n # ",
"` 0 ) o.; ; : > 2 @ # $ e > > y # f.H 2 n >.4.,.9 @ & ; O : e H 9 0 % ' @ ) @.2 i 2 9 & J : ; : : : > o n 4 & > : % > 9 i = 2 > ",
": H 3 3 @ ; n : : ; # s 3 H n 4 @ # z z J j > : ; @ # H = H : e 9 1 6 = . 0 e ..e.e.) @ ^ J e * : : + O : 4 4 : % % : > 9 i 2 e ",
"& = 9 & + I > : : O > 4 2 e : > 0 $ & & - $ o $ ; % J j 2 : = n ) 0 0 0 & % : 1.@.n $ $ $ & 4 > > # % H & % > e : % > & = 9 ` :.",
": : * @ O > 4 > 4 O 4 : 2 > 2 ^ 0 3 & z s l > $ $ J n j e > p e 2 0 ' 6 . @ @ & $ @ $ ) ) 0 $ + O H ^ I 2 % O % & O # + : I = & ",
"9 @ # @.G O : > * O B = : 2 @.e.1.; @ J ' J 3 J @ ^ : j : n z x 2 3 @ o s 6 3 ; O H ; 2 : : @.& @ i I ` i : > O : : J j @ O & I ",
"@ ` @.-.e * O O @ O + O $ 2 % @ O : o + j J 2 & O + : : : 3 ' $ @ % J o.o.; 0 3 @ ^ H 3 3 ; e 9.H # i 9 ` * O O & > J ' % & ` I ",
"$ J H I 2 : # & J j 4.G O $ n e...# O > $ + & : ; s $ $ - - + $ > = : H @.2 2 n O @.9.@.e 9 : 2 2 9 & # + # 4 w e O @ O $ t.^ j ",
"> # j I & # O # $ ' 1.: $ ^ e @.@.&   : > n > : s ; % % c $ + x 1 : 9 @.H H H ^ @ H n H e.i @.n 2 H : o % > : * e : & $ + t.n 1.",
"j : @ @ # : : 2 - o @ O 1.@.e I 9 O i @.2 = : = s s s + c $ - @ 9 : I t.-.j $ O O e 2 i H : 2 I i ` # O e H 1 I ` i e ; o ; j ; ",
"2 # X = 9 : : I 3 ; @ % t.H e.# # i H : : = = 9 s c '   $ ; s s X % 2 2 O O # & e O : i i : J e j H O j 2 e y e 9 i & n @.O ; j ",
"H . = 9 1 i ` i _ 0 o o ; & . = e I : * & : = 9 x c - + : : H i e > # O H = # & : > % # 2 2 e : e & @ : : 0 w y 1 :.2 ^ e.O ) : ",
"@ 9 9 9 ` 9 1 0 = x 5.& & ) # H n B 4 > I n ) 1 ' + s - * 9 2 i e & > # * = 2 ) > : & : & $ 2 H 2 # * : : 2 : : 1 @.n e.2 O # & ",
"# ; 9 i = I 9 ;.1 _ _ O o.& . O : ^ > J z 2 & $ + o $ ; 0 0 9 : : : & > $ : 9 H H e : 2 2 n $ - H X & % : I n 4 e 9 @.@.o 3 & 9 ",
"2 ; i i = = 9 1 _ f.@ # ; ; ; ; #   $ ; % o ; 9 - ; - z z 0 2 ; : * : e . : e 2 -.-.i 9 n H ^ : @ O : : : -.e I i & 2 O & & & = ",
"& & I I e e 4  .-.# > : & 9 2 i n : - j O ^ : o.J ,.j - >.j ; % j : : O - & @ ) :.` H :.-.@.; O 2 % X : y  .: : H 0 @ ; @ @ ; : ",
"9 9 *.H } y : 4 O $ & & = 2 i 9 H & o + & ^ 2 z J t.; z $ $ % 4.' : O ' ; & & # % @.H : = O % : 9 n 4 & X O @ @ X O $ - ; @ O : ",
"p y e i : ^ : O : O # & : i 9 & n 4 + O : e 9 ` 9 1 2 2 ^ : O o o o j l % 0 9 & H * : # O n # : e * n @.+ 4 ^ 2 # ) s s - % o @ ",
"X O O @ O X O : * & O # 9 2 i 2 : > + >.9 9 9 9 9 = 9 H : $ : ; l > o : 0 9 0 1 : j n @.: & ; : : 2 : p.9.O J @.@ & : ; : O $ ^ ",
"# : @.2 : > 9 : & & O X 0 ) 3 & : ; O + - 9.0 x ` 9 c x % 6 & & ; s $ $ o.o.f.x e.I > * @ $ : 2 = : & > 5.o # : % O ; : $ : J @.",
"H @ o.o.O : > : * O @ @.2 & & @ O + j 1.: O ; 6 : 0 c + 3 & 9 2 0 ; o $   6 g.g.s.e # # j : $ : 9 e : I 5.# t.1.' j + O : ' : H ",
"2 . # & O $ : ; @ z o.1.e.@.e I : o z o.- % s @ % ; E + ; ; 2 2 o $ 0 3 0 9 & @ O @ $ > j n H @ & 2 J # @ @ & : e.o.J @ H j H e ",
"# ....o.j @ $ + 1.z H H H 9 : 2 j & o $ ' >.o.f.$ ; + - ' s 0 9 $ x ; 0 2 @.5.x : * > : j n 2 2 @ # $ n 2 @.i % # $ @ $ 3 j e I ",
"@ & i f.@.@.@ 2 > j j j ` ) 9 : > ; + s.' G H H + x ; - o - s o z z _ = ;.H 0 : @ % $ s x z : + & % O I * : @.-.# # ` ` & $ : O ",
"..= @ # % # $ ) > j 1.1.g.) 0 3 $ o - $ ; & O & & ; ; ; c ;   - z 2 = I i : j O 6 5.; $ H & + % n @.* O : > 2 : O H ) i H # %  .",
") :.2 @ = _ ; @ n * $ $ ; & % # @ ; l o - l 2 j f.3 x ; c c ; + 9 & 9 9 : : : $ x f.z $ @ @ z z > : & * @ @ : # = @.i 9 ` # > I ",
"2 9 @ = ) ` ) # O : ,.' o s # @.,.3 - - J > 3 z x x ; c ; - ; o 9 ; 9 & & : @ ; @ 9 s o ` 0 ` g.9.^ H J e.^ # @ ` H i i ` % * -.",
"H # : 5.0 2 ) @ : ` :.1.o $ 0 2 @.` @.$ o.s s ' x 6 x 9 3 ; s o ; z : 9 # O -.: 9 O @ 3 & j.f.z.-.-.` H 2 2 9 @ ) 0 0 ) ) = @ @ ",
"o $ 5.z z ) ) @ i @.p.e.O H ..:.) @.k.* @ & ; x : x .._ 2 & $ $ o # 2 O : 9 i *.` : $ z _ f.f._ I e 2 H 9 9 i # % 0 ) z ) @ & z ",
"@ & 0 ` 1 ) _ @ & # # # O H n ^ p.@.: O ) & o @ $ 3 3 ) : O 3 3 s ; # 9.i = ;.*.I I O H I f.z.I 2 9 = e H = @ . @ @ : ; $ $ o.s ",
"$ 9 H 0 i ) & # = ` _ H O : H J & @ & ` ..f.z ) ; o o @ @ % @.f.t.; > 1 1 i = = e B e @ ) 1 :.H 1 2 I I & @ X _ _ & O z @ ' J ' ",
"o O : I n $ $ @.2 e : @.$ O O O # ` I ^ ) 0 = ) ,.% $ 4.G % @ X ' $ J : : = 9 i I -.e > % t.t.H 0 ; & $ % J o.z & 9 % X O i ` : ",
"s z $ # $ $ 1.n 2 9 e I * + n > n I H e ` ) 0 6 + l 1.l j 1._ i @ $ > : & & i 2 f.-.n s.: % : H $ @ @ x J J e.: @.5.e.: O % H n ",
"s ,.$ % o G 1.j 9 i i H ; $ 2 e H J e I ..6 ) 0 - j n j 1.-.H i ; @ 5.j 3 3 ' J i n 9.J o & o @ ; 0 $ . $ % * n g.e.@.^ j @ J ^ ",
"z z @.$ o : J : : = 0 e.% # ^ @.n j @.@.) ..0 @ J 4.1.@.t.e.= 2 ) $ ; j ,.z J ' @.* $ $ ' o.$ 3 9 0 3 3 ; $ O # H x.9.@.9.& + 1.",
"f.e.9.j $ & J J H e 9...O $ 1.e.9 @.5.s 0 $ @ x i H H ` H H : = 9 ; + $ @ O - ; # % i @ # % $ 5.) 1 _ 0 : 1 i % O & : : $ $ - + ",
"f.@.@.1.: + J 1.I j H k.$ O o @ @ O o $ ; @ 4.z : : 0 2 i 2 = 2 6 ) o > 6 ' ; % 2 ..I *.@.j $ 3 ) 9 _ = > I : : n > @ . > : > + ",
"z e.1.: $ + - 4.e.9.e.0 @ ' ,.$ 9 ` x o ; o J t.H 0 = _ 9 9 : & 9 z O ; 0 ; ; % e.i p.;.n @.% ; :.i = 9 : } I I I @.& X ; : n & ",
"@ + + % > - O + $ & & @ O 3 s @ ) 9 s s s % $ g.:._ I _ = = : & z & o ' z ; <.$ o.e.:.f.@.H e.# @.` = = H I n I n @.@ : j : : j ",
"' $ $ j : I o ; j O O & : & O $ I 9 : * > @.% $ & 5.H z 2 2 J ; . - % O ; : % O ` H ;.*.:.0 @.@ 2 ) i 9 = e e B y e @ 3 3 9 : : ",
"> + ; n : % + % - $ I p 9 e % ; I I = 1 H i @.& & o 3 o.^ >.$ $ & - - @ $ $ 9.O i e ;.p 9 0 $ @ $ ) H & = = e e : : o % H 0 w 1 ",
"+ : G : : e + + O : 2 = = 9 3 ; s.I : n 2 H @.e :.H o $ O O $ 4 6 6 j > j $ > & @ H -.: e.z.p.9.@ o.i 9 & = % : : > O : 4 : * * ",
"O > > 4 > : > O 2 0 9 = i 3 3 o : > 2 4 e n e : ) z $ $ : > : B = x > : j G - O O e @.@.p.e.e.I @ ; 1.i 2 = * ; : &   $  .: w : ",
"+ G ` = = p ; O = ` = ` 2 * H $ $ B ^ G ,.,.$ % O O o > >.- B B 9 p i 1 x s s j O 9 # ' @.e.e.H & @ : ) i 9 : : > O * + + y B : ",
"- G = : = 9 $ - P = = = i 9 H @.% O + O o + o O l ; - J G n : * = i e p z s ' ' & % ; o.1.@.2 # o & $ # # 2 j : O % n ^ : + : e ",
"o >.: 0 = 1 O : p = 1 = 1 i n 2 j + : j l j s $ > + ; J > e e : 1 } y e s x s '   o @ - j ; O . & ) z ; $ $ % O > e  . .B + o : ",
"+ $ n 2 9 = o : = = = = 1 *.e.H > O j > J j 3 3 + $ g.' e > > e = : : w 3 ' s   + c 3 + o $ $ @ @.i 0 H o.$ o $ I -.*.9.^ : + o ",
"^ + + l : : O j e * : : I :.p.@.; o s 4.' j 2 6 z o ' : : 3 s x p.e 3 z 3 $   & J : 2 2 % % ' s # = = 9 ,.z % @ n H i H 2 : H O ",
"4 + O $ : $ O & O $ n B e : & O % $ $ c 4.,.s ' ' o - 3 ; & & s l G & $ o & H 5.J : 2 2 ; % ,.J 1 & & = 6 ' ..; O ` e i ` : :   ",
"e * -     O @ $ : X O + + + # % $ + % o $ ; - o   $ $ + o.H s s j + O % i i e ` I e I 2 ; $ z z 1 _ _ & 6 _ f.9 : O > H 2 # @ # ",
"9 > ; + > G j 1.I > O $ n t.s.>.- o s 2 o o ; > $ : s ; @ $ + - $ o : ; : : 2 i ` 1 2 : : + 1.t.' _ x = = 9 6 & : 2 @ & @ $ 2 2 ",
"* ; o O : J n I 4 : O e ^ @.^ 9.- o O O : e y 1 2 # z ; + ; - o   % 3 9 : = _ ;.0 2 2 i 2 o H ' 0 I ` 1 i ` i 2 G G - O $ * : = ",
"# # : : @ @ 2 9.: O e ^ n i : @.$ O > > e p = e 9 0 3 & o ; c s @ - H z 9 = _ i e.) i H 3 @ z z ) @...` I ` 0 i J > O o : > i = ",
"& 9 * 2 H O O O X % 9.-.I : ^ 2 O 2 B } e : = = : 2 2 o.+ ; ' $ $ o % 0 2 x ..:.5.z ; $ @ o s z n I ` 9 : 9 n I >.1.o $ 2 H 9 e ",
"= = & = : n O & * = s.I e :.& O 2 2 I 4 * : = : 9 : j j - $ $ - l ' % @ 0 i ) :.; $ o + ; ; $ z 2 H i : e H H 2 : $ O : 2 2 H I "
};
