/* XPM */
static char *player_U1679154275[] = {
/* columns rows colors chars-per-pixel */
"64 64 250 2 ",
"   c #0C0901",
".  c #140502",
"X  c #1C0401",
"o  c #1B0B02",
"O  c #180A07",
"+  c #081901",
"@  c #151400",
"#  c #1B1403",
"$  c #151B01",
"%  c #1B1C01",
"&  c #1B180C",
"*  c #220501",
"=  c #240B01",
"-  c #2A0C01",
";  c #240D0A",
":  c #2A0805",
">  c #330D01",
",  c #380B00",
"<  c #231203",
"1  c #2C1102",
"2  c #231B01",
"3  c #2B130C",
"4  c #271708",
"5  c #331303",
"6  c #33160C",
"7  c #381707",
"8  c #2C1916",
"9  c #361B14",
"0  c #082504",
"q  c #192300",
"w  c #1D2900",
"e  c #162503",
"r  c #183514",
"t  c #12320B",
"y  c #242203",
"u  c #272506",
"i  c #372709",
"p  c #2B2B16",
"a  c #3B2314",
"s  c #3C231C",
"d  c #382817",
"f  c #283719",
"g  c #33391C",
"h  c #2F3303",
"j  c #1E3A21",
"k  c #3B2721",
"l  c #233C22",
"z  c #2A3922",
"x  c #363D26",
"c  c #41190A",
"v  c #47240E",
"b  c #552A0E",
"n  c #472718",
"m  c #522D1A",
"M  c #5A2C1A",
"N  c #4C391A",
"B  c #55341B",
"V  c #433708",
"C  c #632B14",
"Z  c #642B1A",
"A  c #682B18",
"S  c #69331B",
"D  c #6F3114",
"F  c #462C24",
"G  c #47352C",
"H  c #593926",
"J  c #553A33",
"K  c #4F352D",
"L  c #663824",
"P  c #6F3824",
"I  c #1D4513",
"U  c #164408",
"Y  c #2E4902",
"T  c #2A591A",
"R  c #335014",
"E  c #2B6318",
"W  c #33681B",
"Q  c #3B731E",
"!  c #246A02",
"~  c #2C4C2C",
"^  c #254626",
"/  c #364527",
"(  c #27532A",
")  c #2B542C",
"_  c #2D582D",
"`  c #2A5725",
"'  c #325C24",
"]  c #31552D",
"[  c #335B2C",
"{  c #3A5828",
"}  c #384B33",
"|  c #2D5531",
" . c #2E5931",
".. c #325532",
"X. c #335A33",
"o. c #3B5937",
"O. c #386526",
"+. c #3C6637",
"@. c #346D26",
"#. c #1C6A00",
"$. c #55421B",
"%. c #485B15",
"&. c #594627",
"*. c #464A35",
"=. c #58483B",
"-. c #455836",
";. c #485733",
":. c #664627",
">. c #754225",
",. c #684B35",
"<. c #784A34",
"1. c #6B5334",
"2. c #785638",
"3. c #6A502B",
"4. c #477C28",
"5. c #45643C",
"6. c #4F6C2D",
"7. c #726C33",
"8. c #58551B",
"9. c #565D46",
"0. c #5A4744",
"q. c #654A44",
"w. c #6A5C43",
"e. c #78584C",
"r. c #4B6C43",
"t. c #4A6848",
"y. c #556A48",
"u. c #497145",
"i. c #56764C",
"p. c #597756",
"a. c #6E674C",
"s. c #7B6661",
"d. c #8D5A2E",
"f. c #8B572E",
"g. c #854E36",
"h. c #8E5B32",
"j. c #8C5D3B",
"k. c #855938",
"l. c #925E34",
"z. c #935E39",
"x. c #945A37",
"c. c #804422",
"v. c #8D623D",
"b. c #85653D",
"n. c #946136",
"m. c #986337",
"M. c #95623A",
"N. c #9A653B",
"B. c #9D693D",
"V. c #A16C3E",
"C. c #A0673C",
"Z. c #865C44",
"A. c #935D43",
"S. c #8C6441",
"D. c #8C6C4B",
"F. c #866548",
"G. c #936541",
"H. c #956B44",
"J. c #9D6B42",
"K. c #9B6E4B",
"L. c #956B4B",
"P. c #9C724D",
"I. c #97754C",
"U. c #896B54",
"Y. c #936D54",
"T. c #9D7452",
"R. c #9D7954",
"E. c #9A7559",
"W. c #8D714F",
"Q. c #A36E43",
"!. c #A66F47",
"~. c #A57145",
"^. c #A97346",
"/. c #A5734A",
"(. c #AA754A",
"). c #AD794D",
"_. c #B17B4E",
"`. c #B0774C",
"'. c #A47651",
"]. c #A57A54",
"[. c #AD7B51",
"{. c #A97B58",
"}. c #B27D52",
"|. c #847767",
" X c #2E8000",
".X c #5EB71E",
"XX c #64BE1C",
"oX c #488229",
"OX c #579737",
"+X c #4E8C31",
"@X c #73983A",
"#X c #5DBB24",
"$X c #5CB62C",
"%X c #5BA836",
"&X c #62BE23",
"*X c #66BC29",
"=X c #62B534",
"-X c #66B837",
";X c #78BB36",
":X c #449B10",
">X c #64C11D",
",X c #6BC31E",
"<X c #73C61F",
"1X c #5CC022",
"2X c #65C222",
"3X c #6CC422",
"4X c #6EC72A",
"5X c #73C523",
"6X c #75C924",
"7X c #7ACA25",
"8X c #7CCA2A",
"9X c #75C62B",
"0X c #7BC639",
"qX c #7CD239",
"wX c #5A824F",
"eX c #63865C",
"rX c #739944",
"tX c #69AC42",
"yX c #78AB43",
"uX c #7ABB49",
"iX c #6EB046",
"pX c #7DBC61",
"aX c #678760",
"sX c #7CCC45",
"dX c #7DC84E",
"fX c #82B43F",
"gX c #87CB39",
"hX c #8BD233",
"jX c #92D83D",
"kX c #A9805D",
"lX c #B48154",
"zX c #B88359",
"xX c #8AB653",
"cX c #8A9A7B",
"vX c #B3857A",
"bX c #89B273",
"nX c #C48C7D",
"mX c #83CC4A",
"MX c #89C44B",
"NX c #82D147",
"BX c #86C554",
"VX c #97CC5A",
"CX c #94D14D",
"ZX c #A3D258",
"AX c #97C362",
"SX c #AC9386",
"DX c #AB9C86",
"FX c #CFAA93",
"GX c #D9B8A5",
"HX c #EBC6AB",
/* pixels */
"J.n.^.V.[.[.n.^.(.Q.M.n.m.n.n.n.B.B.N.m.~.^.~.(.(.Q.!.~.^.h.~.B.B.~.~.n.B.^.~.m.V.V._.`.V.V.^.N.M.z._.^.^.`.n.^.lX}.M.~.(.(.[.`.",
"~.N.n.B.~.n.(.^.^.`.M.).}.^.B.J.~.).).B.~.~.~.(.(.(.!.Q.B.n.~.~.~.B.l./.P.n.n.V.V.lXlX_._.`.^.^.Q.N.).^.^.`.n.N.m.N.M.~.(.}.(.B.",
"(.(.).~.h.(.^.^.^.^.B.(.).^.B.).).[.lX~.n.N.B.~.(.(.[.J.n.J.N.n.n.~.V.lX).).n.lX^.lX}./.^.^.^.^.~.l.N.).).N.J./.(.Q.~.n.M.z.M.`.",
"!.(.!.~.M.(.^.~.).m.B.^.(.J.M.~.(.B.n.J.}.).J.H.j.S.S.j.].kX].M.).~.~.^.^.^.P.n.(.lX[./.^.`.V.l.N.^.^.l.Q.M.).(.!.(.(.n.(.Q.^.(.",
"~.(.J.x.z.z.J.Q.n.(.(.Q.(.).h.B.J.~.).(.^.I.J.'.D.2.3.:.1.,.D.v.J.B.Q.(.lXlX~.(.B.).(.~.z.M.~.).^.~.^.~.h.N.[.Q.~.~.).B.J.[.(.(.",
"J.M.Q.(./.~.M.M./.(.!.~.~.).n.~.~.(././.lXI.kXV y % y u w w 2 V b.I.J.].^.^.).~.m.n.n.J.Q.l.n.V.~.).lX).(.M.~.(.(.^.).J.n.J.~.~.",
"^.!.}.Q.[.[.).z.J.(.(.Q.).^.v.).lXV.).kXD.Y y R xXZXZXZXZXZXxX6.w w 2.R.].N.N.N.(.n.(.~.(.Q.Q.V.n.n.^.lX(.J.z.Q.[.).).B.Q.~.N.!.",
"m.m.n.(.lX[.].).M.(.(.(.).).v.n.n.v.b.B # %.xXVXNXjXhXhXhXhXgXCXVX6.w i 7.].[.].^.n.~.(.~.(.Q.^.^.V.^.M.M.~.~.h.M.M.n.n.N.B.z.[.",
"~.~.~.n.n.~.B.M.N.M.(.(.).B.Q.[.H.I.h h @XZXCXNXhXgX6XhX<X<X7XgXgXMXfXY # 1.kX[.^.~.B.^.^.V.^.^.(.(.[.z.J.!.Q.N.M.B.m.(.^.^.n.).",
"^.^.^.).(.h.~.~.(.l.Q.N.n.Q./.v.2.h %.xXCXgX8X8X<X6X6X7XhXhX<X7X<X8XgX;X+X$ $.[.'.lXn.lX^.V.V.^.(.(./.x.!.Q.!.!.M.n.~.Q.V.^.^.N.",
").^.^.).J.J.Q.~.!.l.N.M.~.~.T.2.$ %.BX0X8X8X8X8X5X6X<X6X<X<X6X6X<X6X9X;XxX@Xw $.kXV.B.B.(.~.B.Q.Q.Q.!.f.(./.C.~.Q.M.!.~.^.V.Q.!.",
"J.).~.~.n.J.(.Q.Q.Q.n.Q.~.'.1.$ 6.VXgX6X6X6X7X6X5X7X6X<X<X<X7X6X7X<X<X<X9X;XrXq %.kXkXn.(.^.!.B.C.Q.G.h.Q.!.!.Q.M.B.!.Q.~.^.^.^.",
"B.Q.Q.B.n.).Q.C.Q.n.~./.P.D.$ R xX0X7X5X<X<XgXXX5X7X7X7X7X3X6X7X7X<X,X3X5X0X;X@X$ &.H.M.M.J.!.~.~.M.B.(.B.N.!.!.B.M.~.B.V.~.)._.",
"!.Q.B.n.h.!.^.Q.~.h.~.H.D.u Y xX;X8X3X5X<X<XXX5X7XXX*X7X8X3X5X5X5X<X,X6X3X5X;XMXO.$ 3.]./.^.M.n.l.(.(.(.Q.B.l.N.B.l.N.z.Q.^.V.V.",
"~.n.m.).(.l.J.!.J.z./.I.N w yX0X5X5X5X7X<X<X5X<X5X5X7X7X8X6X6X3X3X3X,X<X,X,X6X*XxXY < D.J.~.).J.m.^.(.`.(.Q.~.l.Q.!.)./.n.n.N.).",
"n.).).`.^.B.z.z.z.j.v.&.$ %.CX*X5X<X*X*X7XXX5XXXXX<X5X*X7X,X,X3X,X,X,X,X3X,X,X5XmX+Xy i I.H.~.[.(.m.^.^.).C.l.d.J.~.(.(.N.B.`.^.",
"m.(.^.`.(.!.M.J.(.P.U.2 R 4.NXXX5X5X3X5X3X3X3X3X3X3X3X4X5X&X>X>X3X3X,X<X3X3X,X3X0XiXR % 2.I.J.^.~.J.B.n.m.m.~.~.^.z.m.n.n.[.(.~.",
"Q.N.^.).N.M.M.M.N.R.i p { +XmX5X3X3X3X3X2X2X3X2X2X&X2X3X5X,X>X>X3X9X4X*X3X3X>X2XsXuX{ g 2 D.kX^.~.(.J.n.m.V.!.C.^.Q.N.n.n.lX(.).",
"~.~.n.n.N.V.J./.H.3.@ -.[ @.mXqX3X>X>X>X2X2X>X>X4X2X2X2X2X>X>X>X>X1X.X*X2X3X>X9XmXOX{ o.u N P.^.^.).B.h.!.`.^.(.`.).V.V.d.J.~.J.",
"^.M.d.V.V.V.V.].D.6 *.-.{ W iXmX0X>X,X>X1X&X&X2X2X$X2X1X>X>X1X.X&X&X X-X&X&X9XsXuXQ [ o.t.% D.P./.^.h.^.!.(.^.^.V.^.B.).).n.J.(.",
"(.d.V.V.^.^.`.(.,.2 t.{ ..O.W tXdXgX4XXX*X:X=X-X$X1X#X1X1X1X1X1X=X%X#.-X4XqXsXdX4.O.' X.o.f N K./.V.l.B.Q.^.~.^.^._.~.).[.n.).Q.",
"n.~.^.~.`.^.^.P.d *.o...o.[ ' W OXdXsXqX0X=X! %XdX1X$X1X1X1X$X=XtX! +XdXsXsXtXQ T [ o.X.X.y.2 F.I.B.B.~.Q.~.Q.Q.^.(.(.}.^.d.n.B.",
"n.J.~.~.^.^.~.F.% t.] ..o.] X.' E Q OXdXdXdXoX+X+X1X$X1X$X$X=X%XQ U pXpXtXoXW ' [ [ X.o.X.-.p *.R.n.J.m.V.).~.(.^.Q.).`.d.~.V.Q.",
"~.B.~.~.~.J.R.$.x o.o.X...X.X.) [ ' E E W oXwXt wX@.%X=X=X%X+X@.+.I O.W W T ` [ | ..X.[ ) o.y.@ 2.M.J.~.Q.).(.[.(.C.~.l.B.B.B.V.",
"B.B.).).!./.D.u ;...] ] | X. .[ [ [ ` [ ` ` +.r O.5.E OX+X#. .wX0 ) X.[ _ [  .X.|  .| X.X.| t.u 1.S.h.Q.(.(.!.Q.(.(.h.Q.l.n.B.Q.",
"^.V.).^.`.'.w.u p...X.] )  ._ _ ..) | X.) ] ] ~ 0 eX@.` _ u.eXt ^ | X. .X.X. . .| X.X.) | ..o.x i R.(.N.l.l.z.M.z.h.N.B.B.n.z.Q.",
"^.^.^.(.Q.].,.f 5.) ..) ) ) | | | | ) | ) ) ....j r aX+.eXo.0 l | ..| X.X.X. .| | | X.X.) ` ..;.< D.'.}.l.Q.(.^.n.).~.Q.N.B.h.n.",
"d.m.l.n.n.k.i g ] ` ) ) ) | | | | | | | ] ] ] ....+ i.wXj + j o.| | ( (  .X._  .| |  .X.) [ [ -.< Y.~.}._.l.).).n.B.J.Q.Q.l.n.].",
"m.C.).~.Q.T.:.g o.` (  .| ( | | | ( | ) ) X.] ] | r 0 0 t | ] ~ _ _ ( )  . .) ( ~ (  .|  ._ ..-.< W.J.^._.d.m.Q.N.h.J.!.n.~.].).",
").n.).[.z.H.F.y i.~  .| ( ( | ( | ) ) ( ) ) ) ` | ~ l ~ ..~ ` ) _ ) ( ) | | ) ) ) |  .| ( ..i.z i T.~.^.).N.}.`./.(.x.h.~.^.V.^.",
"/.d.M.B.l.G.K.N g y.| ( ( | ( ( ( ~ ( ( ) ) ) ) ~ | | ) | ) ) ( ( ` ) ) ) _ ( ) | ( ( ) ) +.y.# e.'.).N.n.z.N.Q.lX[.(.z.(.^.^.^.",
"M.)._.).(.x.G.2.2 ;.u.( ( ( ( ( ) ( ( | ) ) ) ` | ( ..X.| ) ) ) ( ( ] ) _ ) ~ ..| ) _  .o.y.@ 7.v.N.n.~.~.[.(.N.n.B.n.M.~.^.^.`.",
"n.B.^.).lX].n.I.2.% -.p.) ( ( ( | ) ` ) ( ) _ ( ( _ | X.( ( ( | ( ( ( | ) ..} j ~ | _ +.i.% &.S.H.B.M./.Q.Q.`.).M.B.).(.B.N.B.n.",
").V.n.B.B.M.m.).R.2.% / p.) ) ( ( ) ] ) ( ) _ _ ( ( |  .| | ( ( ` ( ) | } z + p z } t.r.% &.S.N.(.).Q.l.Q.~.!.Q.h.(.~.).(.N.B.(.",
"^.lX^.n.J.).V.m./.H.2.u / p...( _ _ ) ) ) | ) _ _ ( | X.| | ( ( ) | | l & K G k x p.y.q 1.F.(.(.!.J.N.J.M.n.P.v.J.[.~.^.^.m.!.(.",
"V.V.n.J.^.).^.m.n.P.].W.i p i.i._ ( ) ) ) )  . .( _ X.X.( | ( ( ( ~ } & k 0.3 k x x 2 1.R./.).}.`.).(.(.[.'.:.L 2.[.(.^.).B.Q.`.",
").n.~.).V.V.lXn.V.).).lX2.&.% } eX5.( ` ( (  . .) | _ | | | | | ~ } x & O F e.J X o ,.I.V.lXlXlX_._.).).K.v 1 < : F./.(.^.B.n.m.",
"n.M.).(.^.^.).l.^.).lXlXS.E.w.+ 0 r.aX+. .| ) X.) | ( X.....~ r + & & G e.s ; ; 0.9 B ].).lX).lX).^.~.].v d k ; * :.].(.).n.B.^.",
"M.J.(.`.V.lXlXn.B.m.M.M.S.F.u t e 0 ^ t.p.u.+.| ) X.] ..} z   4 G ; 0.0.8 9 9 K ; ; 2.].[.lXlX).^.~.J.2.1 J 5 &.:.j.J.Q.M.M.).^.",
"M.~.^.^.V.lXn.n.~.).).T.S.7 g cXcXo.+ ^ I ) r.p.i.u.-./ u u o K J 3 O 8 X s ; ; J * Z.S.'.~.).(.~.^.R.v F a H '.].B.M.(.n./.).^.",
"h.h.J.(.(.n.n.).~.!.!.{.e.1 6 d y.y.0 i.T U 0 t / y.x 2 ,.F.9 F n 6 X =.O X J e.J O 9 e.H.}.}.(.~.K.g.: ,.- Y./.B.V.M.d.n.(.).J.",
"~./.n.N.n.N.).^.!.(./.{.H n DXFXH < 0 eXT W ' R # u H F.G.A.P * 9 6 ; . G s.9 ; ; J k n L.G.~./.M.v.b m 2.5 {.!.)._.lX~.n.N.(.^.",
"~.(.M.N.h./.).(.^./.Y.M 1 DXHXHXnXY.# eX` T u 2 S J.x.D P Z H , 3 s s o G 8 9 k K 3 8 8 2.D.v.v.Y.,., <.n v K.~.lX}.).(.~.n.(.(.",
"/.(.).m.z.Q.).Q.V.P.Z.* - m {.FXnXvX# a.w q H S.x.x.c.C D Z Z F : 9 s a . 0.8 ; s F O O a H b b 5 > <.Z.7 :.h.M.).zX}.).[.B.z.[.",
"}.}.}.~.l.B.(.`.(./.F.* H n 6 : c K . < N v.N.x.P D A A S A Z Z > n J F O J O . ; k k o = : b C c.x.>.B 5 P.(.N.h.N.J.J.M.M.N.n.",
"}.}.[.}.!.M.(.[.(.].,.: m m F 3 3 ; = 2.A.g.P C A A P A S C P Z.H : > X   O 8 8 k 3 ; ,.F 5 Z.j.l.g.S > k./.~.!.(./.M.h./.Q.~.h.",
"(.}.}.J.z.l.G.[.[.kX7 1 m v 6 * O 8 : e.P A D C Z Z A A D g.Z.M > n M q.k . ; ; * J K s K 1 m v c > 7 2.P.).(.(.).).J.h.J.~.(.N.",
"z.z.z.N.!.J.x.z.N.L.7 6 n 5 * ; O . X c M C Z Z M S Z g.2.v : 7 K n m n O   O ; * 3 q.3 H 5 m H :.W.P.J.(.(.(.(.).).M.Q.~.Q.Q.~.",
"[.M.N.!.Q.(.d.J.P.S.v - n 6 3 8 8 . . o m M Z C L e.1.v : a d d 8 2 @ $     & 8 6 ; s 4 5 2.{.v.'.[./.Q.V.^.^.^.^.(.n.~.~.~.Q.Q.",
"!.z.Q./.Q.C.M.N.J.j.F.> - 3 k k 4 o   . 9 K M B 1.a o       @ $ / 6.y.5.    X s 9 6 a - 2.T.G.n.M.(.(.B.V.V.^.^.Q.Q.h.N.(.~.Q.^.",
"M.Q.!.!.Q.^.z.x.l.Q.P.2.5 * = = - s.@ *.4 =.w.i o *.;.{ 5.{ { { %.O.E wX$ & n * = : - :.{.zXlX).n.).(.Q.N.V.N.Q.Q.Q.z.Q.^.!.C.V.",
"l.Q.Q.!.Q.Q.~.l.~.^.!.P.T.2.&.L D.W.O a.a.p u x g I r r I I I I O.bXDXbXu k W.1.L 2.E.{.}.}.lX).z.Q.).(.^.V.C.B.Q.B.f.n.(.Q.!.V.",
"z.(.(.Q.Q.!.J.l.~.~.~././.Q.'.G.M.R.G o g 9.-.1.r.r.r.u.i.5.5.r.;.i.;.% i F.K.T.S.P.M.'.`.lX).).B.n.~.).^.~.~.Q.!.l.B.M.M.(.(.Q.",
"N.(.!.Q.Q.!.z.J.~.Q.!.~.(.Q.(.(.N.S.2.< SX|.G 8 q e e w w e $ e 4 =.DX2 2.K.].^.N.H.J.).).).^.n.h.B.M.n.N.~.~.J.l.M.(.[.Q.l.Q.!.",
"z.(.!.~.B.!.l.Q.~.Q.~.~.Q.(.(.!.(.j.D.1 U.GXSXSX=.1 B N $.i < SXvXGXSX. S./.J.].d.d.z.B.!.J.l.h.B.).(.J.n.M.N.z.!.^.`.).!.z.h.Q.",
"M.M.(.!.!.Q.h.Q.B.J.Q.C.^.`.}.^.~.j.Y.: 9 = c n : Z.kX].R.Y.1 9 s 6 9 X 2.(.P.d.n.(.~.n.z.z.M.M.).^.~.(.(.M.h.M.(.`._.`.`.!.z.h.",
").n.z.~.Q.C.l.!.!.Q.V.^.`.}.}.).J.k.Y.> J q.F - 7 Z.'.Q.J.T.:.: s 0.q.X j.M.h.B.(.Q.~.!.N.M.(.^.m.V.V.~.)./.B.n.(.(.^.^.^.Q.(.l.",
"~.M.h.M.!.M.l.B.l.n.^.(.^.V.B.z.N.N.v.:.: - * - 2.j.J.~.Q.H.W.5 X : : 7 k.N.P.lX(.Q.!.Q.!.N.(.(.~.B.B.V.~.).[.B.l.).^.(.).Q.Q.f.",
"~.B.N.h.h.l.z.N.C.d.l.z.M.l.N.M.A.z.M.j.k.:.L 2.k.j.z.z.[./.K.K.2.$.<.G.^.lX^.).(.(.(./.B.n.(.^.^.lX^.V.~.]._.^.Q.l.Q.(.Q.M.n.N.",
"^.V.J.x./.(.!.}.(.~.l.M.(.}.}.[.G.h./.Q.l.z.L.K.M.Q.~.J.j.N.n.B.M.d.~.Q.V.V.V.^.).~.~.~.Q.z.).}.).^.^.V.B.~.~.B.Q.~.n.B.m.M.^.Q.",
"C.B.d.M.J.[.~.(.^.V.n.^.(.`.`._.J.f.l.z.J.!.(.^.!.B.~.B.h.H.N.h.h.M.P.~.V.V.).lX(.^.~.~.P.d./.).~.).).^.^.).^.~.(.(.B.z.M.Q.Q.V.",
"m.N.J.J.n.z.~.}.^.n.V.`.^.^.!.`.M.l.Q.!.(.^.!.!.~.~.Q.B.h.J.[.!.x.J.(.~.~.V.).^.).).~.(.J.n./.(.^.).lX).).`.^.^.(.!.l.f.Q.Q.^.V.",
"V.Q.Q.~.(.n.z.n.h.N.}._.(.Q.`.!.l.!.^._.Q.C.Q.!.V.^.^.(.M.J.(.G.v.z.N.(.V.^.).lX).(.J.n.n.n.~.(.^.).^.V.Q.^.(.(.[.(.h.z.(.(.Q.^.",
"V.V.B.V.Q.^.d.N.B.J.}.(.~.}.J.h.~.^.`.V.C.~.V.V.^.V.~.^.G.M.N.H./.~.N.n.^.^.).).J.M.h.n.J.B.m.^.^.^.^.V.^.^.(.!.Q.M.z.J.!.^.^.^."
};
