/* XPM */
static char *player_a1679151639[] = {
/* columns rows colors chars-per-pixel */
"64 64 254 2 ",
"   c #0B0A01",
".  c #1C0501",
"X  c #120C01",
"o  c #1A0701",
"O  c #0C1602",
"+  c #131300",
"@  c #1B1400",
"#  c #1B1B00",
"$  c #161906",
"%  c #230400",
"&  c #230B02",
"*  c #2B0C01",
"=  c #2C0603",
"-  c #360A01",
";  c #2D1302",
":  c #261706",
">  c #341303",
",  c #371808",
"<  c #291815",
"1  c #371A14",
"2  c #192404",
"3  c #152E0F",
"4  c #262707",
"5  c #362704",
"6  c #293805",
"7  c #27241A",
"8  c #392716",
"9  c #263717",
"0  c #38360A",
"q  c #292D23",
"w  c #382922",
"e  c #263424",
"r  c #353628",
"t  c #313D34",
"y  c #1E3C22",
"u  c #441B05",
"i  c #441F14",
"p  c #47270B",
"a  c #472718",
"s  c #522A16",
"d  c #47361A",
"f  c #57341A",
"g  c #563506",
"h  c #62330F",
"j  c #482B24",
"k  c #4A3625",
"l  c #583826",
"z  c #443E34",
"x  c #5A3931",
"c  c #6B3A25",
"v  c #1C5C09",
"b  c #2A4305",
"n  c #265819",
"m  c #3A541A",
"M  c #305008",
"N  c #276806",
"B  c #296417",
"V  c #336619",
"C  c #337513",
"Z  c #384829",
"A  c #255524",
"S  c #2B5729",
"D  c #375826",
"F  c #3B4A35",
"G  c #355832",
"H  c #2B4A28",
"J  c #396726",
"K  c #3C7433",
"L  c #48481C",
"P  c #4D5215",
"I  c #744B0B",
"U  c #594627",
"Y  c #435727",
"T  c #464335",
"R  c #584438",
"E  c #485539",
"W  c #535134",
"Q  c #674729",
"!  c #68562A",
"~  c #684A37",
"^  c #754D38",
"/  c #6A5537",
"(  c #785839",
")  c #784C2C",
"_  c #486826",
"`  c #467728",
"'  c #506E34",
"]  c #77623D",
"[  c #676B27",
"{  c #517219",
"}  c #395443",
"|  c #5B4A46",
" . c #475848",
".. c #535A52",
"X. c #4E544A",
"o. c #785744",
"O. c #6D5347",
"+. c #58764A",
"@. c #526A4F",
"#. c #7B6249",
"$. c #657757",
"%. c #6F714F",
"&. c #6B786B",
"*. c #5F6F64",
"=. c #8C592E",
"-. c #8E5B33",
";. c #885A39",
":. c #925E34",
">. c #935F39",
",. c #905B2F",
"<. c #8C623C",
"1. c #88633C",
"2. c #956136",
"3. c #986337",
"4. c #95623A",
"5. c #9A653B",
"6. c #9D693D",
"7. c #97683E",
"8. c #8B7038",
"9. c #A26C3E",
"0. c #AF7835",
"q. c #945D18",
"w. c #885C45",
"e. c #915C4D",
"r. c #8D6443",
"t. c #886749",
"y. c #9D6B42",
"u. c #936B4B",
"i. c #976844",
"p. c #9D724C",
"a. c #97714A",
"s. c #896A56",
"d. c #946A55",
"f. c #9C7452",
"g. c #9A7855",
"h. c #8A7554",
"j. c #A36D43",
"k. c #A86F44",
"l. c #A26C49",
"z. c #A57145",
"x. c #A97346",
"c. c #A5734A",
"v. c #AA754A",
"b. c #AD794D",
"n. c #A0794E",
"m. c #B17B4E",
"M. c #A47653",
"N. c #A47954",
"B. c #AE7A51",
"V. c #A97A57",
"C. c #B17D52",
"Z. c #AD6D54",
"A. c #947367",
"S. c #A67B65",
"D. c #A05E4E",
"F. c #C87F6E",
"G. c #3F801A",
"H. c #468918",
"J. c #5BBD1D",
"K. c #53BA1C",
"L. c #64BD1E",
"P. c #539729",
"I. c #508F30",
"U. c #6A923A",
"Y. c #5CBD24",
"T. c #59B729",
"R. c #5BA633",
"E. c #53AA2C",
"W. c #67BC2A",
"Q. c #64A838",
"!. c #68B637",
"~. c #75BB3A",
"^. c #74BF2E",
"/. c #5EC11F",
"(. c #6DC51D",
"). c #64C11E",
"_. c #74C71E",
"`. c #5DC221",
"'. c #64C223",
"]. c #6CC423",
"[. c #6BC52B",
"{. c #73C523",
"}. c #75C923",
"|. c #7CCB24",
" X c #76C52A",
".X c #6AC737",
"XX c #76C636",
"oX c #5C8745",
"OX c #6B8958",
"+X c #779C5A",
"@X c #6F8F4E",
"#X c #69AA46",
"$X c #6CB648",
"%X c #77B550",
"&X c #738D66",
"*X c #718F69",
"=X c #7FA764",
"-X c #77C648",
";X c #7AC755",
":X c #BC8937",
">X c #80BD3E",
",X c #C99030",
"<X c #83C928",
"1X c #90D132",
"2X c #80C71F",
"3X c #B48156",
"4X c #B99346",
"5X c #85A756",
"6X c #82BB5B",
"7X c #8AB448",
"8X c #8A9472",
"9X c #B38D70",
"0X c #86B865",
"qX c #8FAC78",
"wX c #8E8356",
"eX c #DEB34C",
"rX c #CB8777",
"tX c #CE9077",
"yX c #D0A374",
"uX c #DFB25A",
"iX c #84C459",
"pX c #8ECA4D",
"aX c #A9D754",
"sX c #8BC563",
"dX c #89C468",
"fX c #93CA68",
"gX c #9CCB74",
"hX c #A2CB7A",
"jX c #A9D66D",
"kX c #A8E24B",
"lX c #F7CA65",
"zX c #F3C25B",
"xX c #B5938B",
"cX c #A2A284",
"vX c #CB9485",
"bX c #E79D85",
"nX c #D5A994",
"mX c #D0AD8F",
"MX c #E8A794",
"NX c #EABA98",
"BX c #F8B99B",
"VX c #EEAB8F",
"CX c #D2B0A4",
"ZX c #E9BBA6",
"AX c #F4BBA3",
"SX c #E4B9AD",
"DX c #A3CF82",
"FX c #F6C29E",
"GX c #E7C29E",
"HX c #DAC5B1",
"JX c #EAC6A7",
"KX c #F5C3A4",
"LX c #E3C5BA",
"PX c #F0E0D7",
/* pixels */
"j.3.c.y.b.b.3.x.v.9.3.2.2.2.4.2.6.2.6.2.y.x.z.v.v.z.9.z.v.<.z.6.9.j.z.2.6.n.z.2.k.k.b.x.9.x.x.6.3.3.m.x.x.b.:.v.C.m.3.c.v.b.b.b.",
"j.5.2.6.z.:.v.x.x.v.3.v.3Xc.6.y.z.3Xb.z.z.z.c.b.x.v.9.z.y.,.z.z.z.6.2.v.z.2.2.9.x.C.C.m.b.x.x.z.9.3.v.x.x.b.2.6.3.5.:.c.v.C.b.6.",
"b.v.B.z.:.c.v.c.v.x.6.v.B.c.y.b.b.b.C.z.2.2.7.y.x.n.b.9.3.z.6.,.3.z.z.b.b.B.2.m.c.C.m.b.x.z.z.n.k.:.9.v.b.5.9.v.c.z.z.3.2.:.2.b.",
"z.b.j.z.3.v.x.z.m.3.9.k.c.y.4.z.v.5.2.j.3Xb.y.z.2.2.2.,.9.3Xb.2.b.y.z.p.g.p.a.7.B.C.v.z.x.v.9.2.6.x.k.:.j.3.b.c.z.x.b.:.c.j.z.v.",
"c.c.6.:.:.:.y.y.:.v.x.j.x.b.:.y.j.z.b.x.b.b.y.c.7.c.z.a.9.7.3.1.a.t.( =.] ] 1.g.i.M.b.j.2.4.z.b.x.j.x.z.2.2.B.j.j.j.B.6.j.b.v.v.",
"y.3.j.v.c.z.4.3.z.b.j.x.c.b.4.z.c.c.v.v.b.c.B.6.c.c.z.3Xn.p.a.! 0 # : P P M 4 @ 5 ! 1.a.i.2.2.y.l.B.3Xv.v.4.z.c.b.c.B.y.2.j.z.x.",
"c.c.C.j.C.C.b.:.6.v.c.j.v.v.:.b.C.l.b.b.b.v.4.c.b.b.b.3XwX! : $ [ aXaXkXaXkXaX7X{ 4 4 ( g.c.z.y.3.4.c.3Xv.6.2.z.C.b.B.6.j.c.4.z.",
"3.4.2.b.3XC.b.b.4.v.b.b.b.B.:.:.3.3.:.>.j.>.B.c.y.v.p.a.P : { hXaXkXkX1X1X1XkXaXaXpXP : P a.y.c.c.z.z.2.2.z.c.-.>.5.:.2.7.6.2.B.",
"z.z.y.2.4.z.6.5.5.2.c.b.B.6.j.B.2.b.x.j.5.,.3Xb.v.a.( X 6 7XpX<X1X<X<X<X<X2X2X<X1X1XaXpXM & ! M.M.v.b.:.j.j.l.y.>.y.3.v.x.k.3.b.",
"v.v.v.b.c.:.z.j.x.:.z.5.2.6.c.3.5.v.j.k.j.x.6.<.g.! $ U.7X>X<X<X X<X<X|.|.|._.2X2X|.<XkXjX@X# ! f.c.v.,.9.j.k.k.3.>.x.k.j.c.c.3.",
"v.x.b.B.y.z.j.l.z.2.5.2.c.k.j.v.5.C.v.z.x.v.B.g.U 2 U.pX X|.|.|.|.|._.|.<X|.|.|.<X<X}. X<XaX5X# 5 u.p.-.j.c.j.j.j.3.l.c.v.j.k.k.",
"z.v.z.y.2.6.v.k.j.y.4.z.j.v.c.k.2.6.x.x.v.p.a.! O U.7X<X}.}.|.}.|.|.|.|.}._._.}._.}.{.|.<X XpX#X@ L r.>.j.k.z.j.3.6.j.j.z.z.z.x.",
"5.6.x.6.>.b.j.j.k.:.k.j.c.c.k.j.n.2.9.6.y.1.U O _ $X X|.{.}.{.{.|.}.}._.{.{._.}._._.(.}.}. X X7X{ @ / N.y.4.z.j.y.5.j.j.j.z.v.m.",
"z.9.y.2.:.j.k.l.j.:.l.j.c.j.x.b.z.z.6.c.f.U + P 7XXX X{._.{.{.{.}._.}.}.{.(.}.(.(.(.|.}. X}.{. XiXM + ( p.6.-.y.6.:.5.2.9.v.j.9.",
"z.2.5.v.v.>.j.j.j.:.v.j.k.c.b.C.v.6.2.M.t.O m #X~.].].].(.].{.(.{.{.].{.].{.(.(.(.(.(.{.}.[.].[.XXU.b # u.a.c.-.j.k.v.x.2.2.5.x.",
"2.m.v.m.k.9.>.>.:.,.:.:.3.j.5.>.2.y.;.t.@ m ` pX XL.].(.(.{.{.].{. X[. X X[.^.]._.}.).].[.{.{.].^.pX_ D 5 u.;.-.j.l.v.v.2.6.b.b.",
"5.v.v.v.x.j.3.y.x.x.m.x.:.3.v.B.B.7.1.d 2 _ %XXX].].].].(.'.W.]. X^.$X!.R.Q.~.XX^.W.].].].].].].[.-XU.' : f a.p.x.2.2.2.2.C.b.z.",
"j.5.x.x.9.3.>.5.3.b.v.z.3.b.j.b.b.i.l X oX` pX'.(.).).[.[.[. X^.!.H.N H.Q.H.v H.!.W.^.W. X].).].{.^.iXC +.X g.7.n.9.6.3.2.C.c.b.",
"z.z.2.2.3.j.j.l.5.=.2.:.m.C.x.b.y.1.4 ' J Q.-X`.).'.'.'.].[.!.R.N P.pX;X7XsX7XP.N R.-XW.XX'.).L.].].XX#X` 9 5 g.v.x.n.6.-.j.c.y.",
"x.2.=.9.j.k.j.b.z.6.2.7.m.b.C.3.i.#.2 OXC -X.X/.'.[.L.'.'.!.H.N %XsXiXfXjXfXfX6XiXN R.!.XX[.L.J.'.W.[.-XV &X+ / z.x.3.b.b.:.j.c.",
"x.,.9.z.z.x.v.x.x.x.2.-.y.6.=.u.g.: E J G.-X`.`.J./.`.W.!.P.C iXsXfXhX5X@X5XgXfXiX%XN P.!.W.'.J.'.'.L.-XC ' Y 5 M.B.z.b.C.:.b.j.",
"2.j.k.z.b.x.z.x.9.x.b.7.9.n.2.3X( + OXB I.-X`.`./.J.W.T.R.C iXiXDX@X6 ! [ P 6 0XhXiX0XH.P.!.W.J.'./.'.-XR.J &X  u.B.v.m.j.:.3.6.",
"2.6.k.x.9.m.z.m.z.b.b.2.b.9.=.1.# Z @.B -X-X`.T.J.T.W.P.N iXiXhXY 0 5 t.9X=.U b Y DX0XiXN P.W.W.[.Y.J..X#XB K Z 5 g.B.v.-.j.y.j.",
"z.9.k.x.x.9.9.x.b.3X2.2.7.9.i.1.2 8XS B ;X.X`.K.Y.T.P.N sXsXgXP U JXnXu =.p mXGXL Y hXsXsXN P.T.`.`.K.[.%XB G $.@ s.n.,.5.y.6.j.",
"6.6.b.b.k.c.c.b.C.3.j.j.y.z.p.U 3 OXS V ;X.XK.K..XT.B ;XfXgXb 8XJXKXZXS.- rXJXGXGXwXM hXsXiXN #X.X`.K.`.;XN A OXO k >.y.2.2.y.j.",
"9.z.m.x.b.k.j.k.:.3.j.5.6.c.a.: $.K S B ;X.XK.T.E.v %X;XhXb mXJXFXFXNXt.nXf.NXBXGXJX%.M hXsX#XN $XE.T..X-Xv A +.Z : r.y.y.:.>.j.",
"b.x.x.x.k.v.j.:.z.-.5.6.y.M.h.+ *XA S B ;X.XE.E.C G.;XDXP P GXJXGXFXFXtXNXi.FXFXFXGXyXP _ hX6XI.G.E.`..X$Xv A S *XX g.j.5.6.:.:.",
"=.:.:.3.:.,.:.j.6.y.-.5.j.p.t.@ +XS A A E.;XE.E.B dXgX' P 8.P I yXGXyXNXKXNXyXNXyXI g 8.! { sXiXv E.E..XR.A A S *X+ w.i.j.:.3.B.",
"3.j.C.j.j.j.k.k.5.3.3.:.c.M.#.# OXA S A B %X$Xv ;XdX5X0 :XzXlXeXI p s ( JX) p p I eXlXzX4X6 %X=X;Xv ;X$Xn n A G *XO ( l.:.j.b.b.",
"v.3.b.b.:.j.j.j.9.2.>.b.c.i.t.# =XS A S A I.oXI.=XgX6 8.,X:X,XeXzXuX9XQ JXh 9XzXzXeX,X,X:Xh.6 DXqXK #XG.n A A G *X+ 1.-.j.v.j.v.",
"l.=.2.6.:.5.j.y.:.v.b.C.C.b.n.p F *XS S A G 3 +.*X@.  k p =.:X:X,X,Xk.) AXh 0.,X,X:X0.] p d O @.*XK 3 A A A G &X7 8 N.:.b.j.v.x.",
"3.B.C.v.v.>.4.>.b.c.v.c.x.k.j.t.$ E +.S A S y @.@.9 T LXCX#.; I q.0.6.c AXh 0.:Xq.g ; O.CXLXT 3 @.} 3 A G S @.' & h.r.>.k.x.k.b.",
":.6.x.C.C.B.:.c.z.v.z.x.m.x.z.u./ O $.E } H  . .t O.xXj PXPXo & > u s ^ JXc g p ; o w PXPXz xXO.q  .y G H +.$.@ ( i.C.b.6.5.6.2.",
"m.k.:.6.9.:.i.b.z.z.B.b.3Xb.x.c.r.! O $.@.A } ..7 z SXA.8 A.cX~ #., c mXNXnXc , s.| cXA.j A.SXO.t ..e F @.' @ o.1.c.v.v.b.4.3.C.",
"b.v.l.:.j.b.j.>.v.y.2.3.9.5.5.>.-.a./ + } @.e ..} < xXMXnXA.w.s.S.yXNXFXFXFXKXtXS.s.e.S.SXSXS.< ..@.3 *.E : ( 1.y.b.v.x.v.:.k.b.",
"z.x.:.j.Z.v.M.r.;.p.N.z.2.z.y.b.b.a.u.R   } q X. .q x vXMXAXAXAXAXKXBXBXVXBXFXKXAXAXAXAXMXF.x t  . .T 7 4 t.u.4.v.x.n.9.v.9.j.m.",
"v.2.9.b.x.i.a * , ( 3XB.>.4.j.x.v.b.V.f < w $ q *...7 | rXrXVXBXBXAXBXD.c Z.BXBXBXBXbXtXF.O.q ..&.q @ d a.l.c.2.b.x.x.x.x.9.:.3.",
":.3.C.b.x.( ; j j * u.V.3.c.B.b.v.3X3X( ; $ r   t &.... d.tXrXrXtXbXVXBXBXBXVXbXtXrXF.rXA.. ..&.t   ~ g.c.c.z.5.6.b.v.x.m.:.9.x.",
":.9.x.b.z.i.u > & k > u.<.c.l.b.C.B.a.t.% < o   $ $ w t . x 9XrXbXF.rXrXF.rXrXrXtXvXS.x . r e 3   | g.M.c.6.3.-.,.2.y.y.2.5.v.z.",
"2.j.b.z.c.N.d.t.& k * Q r.y.b.v.6.3.w.l . | |   q @.T t Z 4 Z 5 f w.w.D.D.e.e.;.U d / 4 T t F $.7 $ t.N.5.2.4.c.b.6.2.v.2.c.b.x.",
":.=.y.v.v.i.i.V.~ p j - i.-.3.:.5.V.f , R = <  .F 9 H S D b 5X%X6 %.4 ~ ^ o.5 @X6 5X5Xb S H H 9  .T > u.i.v.b.v.9.z.6.,.-.c.b.9.",
"z.v.>.i.>.>.Z.c.u.- O.= ( ;.c.z.c.N.^ , < x . < T &.8XcX+.n !.!.U.' &XwXHXh.&Xn Q.%X%XN oXcXqX%.r : . d.M.v.C.j.b.b.3Xz.2.y.b.z.",
"z.m.:.5.-.v.m.c.u., o.c u e.c.l.x.b.p.u.O.= s.d.^ j : 9 9 B $X.X~.V oX' +.' I.I.~.!.#X{ 3 9 : k ^ s.x , w.y.y.j.3XC.m.v.l.>.b.v.",
"c.v.m.3.-.j.b.j.p.f , f u i i.B.M.n.V.s.w = xXrXCXJXHXW 2 J $X!.!.Q.v 0X+X+XV %X!.!.$XJ O W HXSXMXxXxX% s r.>.5.b.3Xm.v.C.y.>.b.",
"3XC.C.c.:.6.v.b.c.;.* o.w.h u u u u > % . . j s.CXSXHXk 3 m ` $X!.$X#Xn @XN #X!.Q.#XK S 9 T LXSXCXw.1 . & f N.5.:.6.y.j.3.4.y.>.",
"3XB.b.B.l.>.Z.b.b.n.u , e.>.c ) O.& R < = < < . = a ~ @ Z Z D V I.P.#X#X` =X$XoXH.J G G T @ ~ s = = = < o l M.j.c.j.>.-.l.j.l.:.",
"x.C.C.j.3.:.6.B.B.B.i.u u ;.e.w.o.% x 1 = 1 < j j 1 1 : o $ 2 6 M b D _ Y D D b 9 9 O $   & 1 , s i 1 1 : l c.b.v.m.y.,.j.j.v.6.",
"2.2.>.5.l.y.-.3.5.6.D.;.c u - > > , O.= 1 = 1 j a * < . @ R R k l 8 : : 2 2 4 X     q | w . l s l a - 1 : ; N.b.x.b.3.j.c.j.j.z.",
"c.3.4.c.j.b.-.y.l.:.:.y.l.5.=.;.f = , . < > 1 l = #.i j 8 < l ~ w.^ o.o.O./ : < | | < < w . l a s s - 1 1 * M.k.c.c.2.j.z.k.k.9.",
"c.:.y.v.j.6.:.y.y.>.c.x.z.c.i.i.N.u.~ % > 1 1 1 = ~ = | x , - - i s u u = * R k @   O +   < a - a i i i ; p M.v.j.j.-.5.v.v.k.z.",
"3.l.c.k.j.z.4.:.:.y.x.9.9.9.j.i.3XN.f.^ % 1 1 w . & > s.% x ^ =.- - = = ) / : O 3 M ' E T $ o w 1 a x j * u.y.j.j.j.:.l.c.j.6.9.",
":.j.l.j.k.j.z.-.z.x.z.z.x.k.j.-.y.z.c.l.^ = . o . . . < . a t.^ ;.w.t./ o.: ' =X0X%X0XoXF O o & . < = - ( u.y.y.j.y.-.3.m.j.j.9.",
":.v.x.9.9.x.y.-.9.x.9.x.z.9.b.3.3.v.b.c.V.M.) l a k : z ..q 8 L t.#.s.d 4 +.U.oX` V n 9  .X., l a l ( M.M.c.z.y.k.:.9.:.>.v.v.k.",
"6.v.k.k.9.9.4.y.x.x.9.x.x.9.x.v.y.:.:.:.>.-.;.<.N.d.U : r T 8X%.w o 8 W 2 8XOX+X=X8X+XE r $ ~ t.<.y.7.3.5.z.z.y.:.5.x.m.j.>.j.k.",
":.v.j.x.9.z.:.j.x.z.z.9.x.x.x.c.c.:.j.z.c.M.c.<.f.;.f.~ % < : : 8 T %.4 + 9 $.E 6 : & 4 : k r.;.y.b.l.j.>.4.4.2.k.c.m.x.k.:.,.j.",
"4.3.v.l.z.z.-.j.6.9.9.9.z.b.C.b.c.:.c.j.c.k.z.j.>.5.3Xt.= A.s.h.%.X @ R #.U : @ W h.s.t.* x r.3.b.c.x.c.b.4.-.4.b.m.m.m.v.j.>.-.",
"b.3.>.k.j.j.-.k.c.9.k.j.b.m.C.b.l.,.k.C.x.x.x.c.n.2.v.f % > , p , ; d.M.f.t./ ; , 5 , * & 8 M.z.3.9.k.z.b.z.6.2.v.v.x.x.x.j.b.-.",
"l.>.:.>.j.5.>.y.:.3.l.v.x.j.6.:.y.>.>.l.m.m.c.l.v.-.y.s * O.s.t.p l u.3.:.7.f.p a o.s.O.% p N.v.x.6.5.9.z.v.b.y.:.v.x.c.b.y.l.=.",
"x.6.i.-.-.-.:.3.j.,.:.>.>.3.5.5.>.>.5.:.3.y.5.:.-.>.<.;.* * s > > ;.;.4.v.c.c.i.- , a > * ( B.v.z.m.b.9.z.b.C.c.k.:.j.b.l.5.:.9.",
"z.k.y.-.c.v.c.m.c.k.:.3.c.C.C.b.y.-.c.l.:.:.l.l.5.y.c.i.w.s s c ;.;.c.j.j.j.z.c.d.s p f u.;.b.C.b.b.x.9.9.9.j.j.j.l.3.y.3.>.k.k.",
"6.9.=.:.j.b.c.b.x.9.3.v.m.v.v.m.y.-.-.>.j.z.b.l.l.6.z.5.1.a.i.;.;.5.j.z.9.z.x.v.B.p.l.v.c.-.v.v.z.v.m.x.x.v.x.z.v.b.y.-.>.9.j.k.",
"3.5.j.y.3.:.l.C.k.:.k.v.k.x.z.b.3.-.j.l.x.z.k.j.z.c.j.6.=.i.c.j.-.y.B.c.z.9.m.b.b.b.c.c.z.2.c.v.x.v.3Xv.b.b.x.v.v.l.-.-.j.9.k.j.",
"6.j.j.j.c.:.:.:.,.5.m.m.x.k.b.z.:.k.b.v.z.9.k.j.j.k.c.b.4.y.v.i.5.>.5.c.x.x.b.m.b.b.y.4.<.-.z.x.x.v.x.9.k.k.v.m.b.b.-.3.x.x.j.k.",
"j.9.6.j.j.b.-.5.6.9.3Xc.x.C.y.:.x.x.x.k.9.9.9.j.k.j.c.c.i.4.>.y.c.c.7.2.x.x.x.m.y.4.;.4.i.6.7.z.x.x.x.z.k.k.b.k.j.>.:.j.x.z.x.v."
};
