/* XPM */
static char *player_L1679154112[] = {
/* columns rows colors chars-per-pixel */
"64 64 252 2 ",
"   c #0C0C00",
".  c #0E0300",
"X  c #140501",
"o  c #130B02",
"O  c #1D0A02",
"+  c #1C0904",
"@  c #091600",
"#  c #141301",
"$  c #1B1203",
"%  c #141D02",
"&  c #1B1B01",
"*  c #17150A",
"=  c #220400",
"-  c #240B02",
";  c #2B0C00",
":  c #260806",
">  c #320C01",
",  c #380B00",
"<  c #2B1201",
"1  c #221C00",
"2  c #24140C",
"3  c #281607",
"4  c #341302",
"5  c #381808",
"6  c #2C1611",
"7  c #271B14",
"8  c #361D14",
"9  c #072503",
"0  c #1A2505",
"q  c #1B350D",
"w  c #142A16",
"e  c #1B3818",
"r  c #0D310A",
"t  c #272805",
"y  c #382707",
"u  c #283901",
"i  c #252818",
"p  c #382618",
"a  c #283716",
"s  c #343815",
"d  c #303B01",
"f  c #362924",
"g  c #373822",
"h  c #353B30",
"j  c #2C342B",
"k  c #183820",
"l  c #421B04",
"z  c #47250A",
"x  c #472717",
"c  c #542D18",
"v  c #463517",
"b  c #57341B",
"n  c #552F09",
"m  c #63391A",
"M  c #452D27",
"N  c #47352A",
"B  c #573826",
"V  c #4E3A34",
"C  c #523A34",
"Z  c #633C27",
"A  c #1E4115",
"S  c #19560A",
"D  c #27431B",
"F  c #255B1B",
"G  c #314608",
"H  c #256803",
"J  c #286618",
"K  c #316619",
"L  c #377A17",
"P  c #2A4928",
"I  c #364927",
"U  c #265326",
"Y  c #2B542C",
"T  c #2B592D",
"R  c #275725",
"E  c #335B2E",
"W  c #37582A",
"Q  c #344A35",
"!  c #2E5632",
"~  c #345532",
"^  c #345B32",
"/  c #3A5C33",
"(  c #395937",
")  c #2E4B33",
"_  c #386427",
"`  c #3C6337",
"'  c #366A27",
"]  c #415A1A",
"[  c #524519",
"{  c #457017",
"}  c #584538",
"|  c #465A37",
" . c #4B4D32",
".. c #67462C",
"X. c #654838",
"o. c #764B35",
"O. c #6B5435",
"+. c #785639",
"@. c #6C5329",
"#. c #47663B",
"$. c #4C702D",
"%. c #7D6137",
"&. c #6E5A15",
"*. c #3D5543",
"=. c #3D6545",
"-. c #445B4B",
";. c #495D51",
":. c #544F45",
">. c #674D42",
",. c #775846",
"<. c #765954",
"1. c #645551",
"2. c #476946",
"3. c #526746",
"4. c #54734A",
"5. c #476153",
"6. c #5B7957",
"7. c #556E50",
"8. c #6A674C",
"9. c #7B6346",
"0. c #657757",
"q. c #706858",
"w. c #756A61",
"e. c #8C592E",
"r. c #8A572E",
"t. c #8E5C33",
"y. c #875C3A",
"u. c #925E34",
"i. c #935E39",
"p. c #905B2F",
"a. c #8D623C",
"s. c #88613A",
"d. c #956136",
"f. c #986436",
"g. c #95623A",
"h. c #9A653B",
"j. c #9D693D",
"k. c #97683E",
"l. c #A26C3E",
"z. c #875945",
"x. c #896747",
"c. c #926543",
"v. c #9E6B42",
"b. c #9B6E4A",
"n. c #946A48",
"m. c #9C724B",
"M. c #99744B",
"N. c #8B6956",
"B. c #9C7552",
"V. c #987656",
"C. c #8F7151",
"Z. c #A36D43",
"A. c #A76F47",
"S. c #A57145",
"D. c #A97446",
"F. c #A6734A",
"G. c #AA754A",
"H. c #AD794D",
"J. c #A5784D",
"K. c #B17B4E",
"L. c #B1774E",
"P. c #A37652",
"I. c #A57953",
"U. c #AC7A52",
"Y. c #A87C5A",
"T. c #B27D52",
"R. c #907368",
"E. c #A47F64",
"W. c #3B8416",
"Q. c #398229",
"!. c #4BB51C",
"~. c #4AB71E",
"^. c #53B91D",
"/. c #56B91E",
"(. c #66BE1E",
"). c #52892D",
"_. c #599A37",
"`. c #4C8A2D",
"'. c #66883A",
"]. c #54BB23",
"[. c #5CBC23",
"{. c #58B526",
"}. c #5BA837",
"|. c #53B32B",
" X c #62BE23",
".X c #66BD28",
"XX c #64AA3B",
"oX c #67B636",
"OX c #72B936",
"+X c #468B1E",
"@X c #65C11F",
"#X c #79C81F",
"$X c #5FC12E",
"%X c #64C123",
"&X c #6BC324",
"*X c #63C12A",
"=X c #6CC42A",
"-X c #6DC82F",
";X c #74C525",
":X c #76C825",
">X c #7BC926",
",X c #73C52A",
"<X c #74C92C",
"1X c #7CCA2A",
"2X c #79C525",
"3X c #69C438",
"4X c #77C536",
"5X c #5A8B42",
"6X c #6A8D52",
"7X c #5BA942",
"8X c #66B84A",
"9X c #72AD4E",
"0X c #698664",
"qX c #758A68",
"wX c #76926D",
"eX c #72AC62",
"rX c #7AC849",
"tX c #72C14C",
"yX c #C0883B",
"uX c #83CB2A",
"iX c #86C737",
"pX c #81D12C",
"aX c #B58255",
"sX c #B2884F",
"dX c #83B948",
"fX c #84BA5A",
"gX c #85A451",
"hX c #8A8C73",
"jX c #B2856C",
"kX c #87BC65",
"lX c #8BAE6E",
"zX c #829E47",
"xX c #C39048",
"cX c #86C644",
"vX c #98C957",
"bX c #92C94E",
"nX c #86C266",
"mX c #92C76A",
"MX c #A3CD62",
"NX c #92AA86",
"BX c #95B188",
"VX c #B5A99C",
"CX c #9F958B",
"ZX c #C28E84",
"AX c #EFB99B",
"SX c #EBB8A7",
"DX c #CFAE9D",
"FX c #EBC1A8",
"GX c #EBC5B0",
"HX c #ECC2A6",
"JX c #DED2CB",
"KX c #F6EBE5",
/* pixels */
"v.d.S.l.G.L.f.D.G.Z.g.g.g.u.g.g.v.h.h.h.l.S.Z.D.H.S.S.S.S.u.Z.v.S.v.F.f.h.D.D.g.Z.Z.G.D.Z.D.S.j.g.d.H.D.D.G.u.G.aXH.g.D.L.G.L.U.",
"S.g.d.j.D.i.L.D.D.G.f.H.T.H.j.v.F.H.H.Z.S.S.F.H.S.F.F.v.m.s.m.B.M.M.a.I.m.a.k.n.m.aXaXK.L.D.G.S.Z.h.G.D.D.H.f.h.f.f.i.D.G.T.H.h.",
"G.D.sXl.u.F.G.D.D.l.l.G.K.D.v.G.H.sXH.S.u.d.j.Z.F.H.I.C.@.v y 4 & t y y v x.N.Y.J.aXT.D.L.D.Z.D.S.u.j.G.G.h.v.H.D.D.S.i.g.t.f.G.",
"S.G.Z.S.f.G.D.S.H.f.j.D.D.j.f.S.S.h.f.Z.aXU.b.v.s.%.[ 1 0 G G $.$.$.] G 0 # t v C.aXU.Z.D.D.Z.d.h.G.S.d.Z.g.H.D.l.G.H.u.H.S.D.D.",
"S.G.j.u.i.i.v.j.d.D.D.Z.D.G.p.Z.Z.D.H.S.H.J.b.x.y & G zXvXvXbXiXiXbXbXdXdX'.] ] # 3 x.m.a.k.M.G.F.S.S.S.u.h.H.Z.Z.S.H.h.v.G.G.G.",
"l.f.Z.G.D.S.g.g.S.H.Z.D.D.G.d.S.Z.G.D.H.sXM.+.1 d gXMXbXiXuXuXuXuXuXpXuXiXdX).$.6X} 1 v x.s.d.S.Z.H.aXH.D.h.Z.H.G.S.U.Z.u.Z.D.D.",
"S.F.T.Z.U.U.H.u.v.F.D.Z.G.G.d.I.T.b.H.sXx.y t zXMXbXiXiXuXpXuX1XuXuX2XuX4XiXdX$.| #.qX#.# [ B.M.g.g.G.T.H.v.u.Z.T.U.U.v.Z.D.f.S.",
"f.f.d.G.aXK.H.I.g.H.H.G.H.T.t.u.g.g.a.%.t G fXvXiXpXuXpXpXpXuXuX#XuXuX2XuXuX4XOX{ $.#.qX0.% y V.J.S.S.u.i.Z.F.u.g.g.i.g.h.j.t.H.",
"S.S.Z.d.h.l.h.f.k.k.G.H.H.j.Z.U.g.B.x.t ] MXcXuXuX>X1XpX1X1X1X>X#X2X>X#XuX2X2XiX).W #.#.#.qXt y sXJ.J.d.v.A.Z.h.g.v.g.G.D.D.i.T.",
"G.G.F.H.D.d.S.S.F.t.Z.h.i.l.F.g.k.M.0 G bXiX1X>XpX:X1X1X,XpX>X>X2X>X2X>X;X>X2X4X9X{ _ #._ 4.hXt t B.M.d.v.Z.S.S.i.i.D.l.Z.A.A.h.",
"H.S.G.H.j.l.l.D.F.u.v.h.Z.S.F.F.n.n u vXiX2X2X1X>X#X1X>X;X1X:X:X;X:X>X>X;X;X,X,XcX)._ ` E W | 0Xi v M.y.I.G.Z.Z.l.f.A.D.D.Z.Z.S.",
"l.H.S.S.d.j.D.l.Z.v.i.Z.D.D.G.m.O.& dXcX1X;X2X1X:X;X:X>X,X>X;X:X:X:X:X:X,X;X,X1XcXXX_ E ` #.W 4.qX# ..y.b.S.S.l.f.j.l.S.A.D.D.D.",
"j.Z.S.j.i.G.S.l.Z.i.Z.Z.l.D.l.M.$ ] dX;X;X;X1X:X@X:X&X<X:X:X<X;X:X<X;X,X<X<X;X>X-XrX{ W ~ / / #.#.8.# C.n.h.Z.Z.j.f.Z.l.Z.Z.H.T.",
"Z.Z.v.d.u.Z.S.l.A.i.A.Z.D.S.S.x.% 9X4X;X;X<X<X;X;X&X:X<X;X&X:X:X=X<X2X,X1X.X>X2X.XcX).K _ ~ W / / 6.I p B.c.d.j.j.i.h.i.Z.D.Z.v.",
"A.d.h.G.D.i.v.A.Z.i.D.Z.l.m.B.[ G 9XOX&X<X<X1X&X@X&X=X;X&X&X=X=X&X&X=X,X4X,X;X@X;X4XXXK E ` D E ` ( qX1 O.F.b.u.Z.Z.G.D.u.u.h.D.",
"g.H.H.H.A.v.i.i.i.t.u.d.h.S.x.t '.9XOX=X=X=X:X@X@X@X=X=X@X&X=X%X&X&X&X&X<X,X=X@X@X-X9XK W E E e ~ ` |  .1 b.a.t.Z.F.G.G.h.j.K.G.",
"g.H.G.G.D.D.g.h.G.D.L.D.u.g.C.# G _.8XoX.X.X(.@X%X%X=X&X@X&X%X%X&X X&X&X=X=X@X@X@X3XcXK _ E ( ~ e ( | 0.o 9.m.Z.D.d.f.d.d.T.H.F.",
"Z.g.D.G.h.g.u.g.f.H.K.Z.h.I.+.0 lX5XS +XoXoX.X X%X%X%X&X%X%X%X%X%X&X.X.X=X%X&X%X@X=XrXW.K E ^ / ( e | | g x M.l.S.Z.j.f.d.U.F.U.",
"D.Z.d.d.f.Z.Z.D.f.p.i.u.U.Y.X.0 mXnXnX`.S OXoX(.[.[.%X X%X%X%X%X%X&X=X,X&X%X@X(.@X[.rX).F ^ E P 2.9 Q |  .- J.H.H.G.D.j.t.v.F.v.",
"F.g.u.v.D.l.Z.L.S.l.i.c.T.P.v t lXmXnXtX9XH L oX.X X X X[.%X%X%X@X X*X=X=X%X X%X X X4X_.J ^ ` / ~ 7.@ h  .y I.D.Z.D.h.G.U.u.Z.F.",
"D.u.Z.S.D.D.G.D.D.S.s.t.Z.n.m $ | lXnXnXbXtXH W.XXOX.X[.[.*X X.X X=X-X=X*X*X.X%X X.X4X}.K ` ` ^ ( 7.w   O ..M.D.D.K.D.G.T.u.G.l.",
"u.Z.Z.D.G.D.S.D.l.J.sXf.j.H.x.+.v % A 5XnXnXnX).H OXoX{.[. X[.^./..X*X[.-X*X%X[. X.X4XXXK E ^ ^ ! #.0.* 9.I.S.l.A.L.D.K.Z.u.f.l.",
"d.l.Z.G.Z.G.S.K.D.H.H.d.J.j.r.a.n.O.% % ] lXnXfX_.J 7XoX[.[.[.[.[.[.%X$X*X[.*X[.[.*XoX}.J E ^ ^ ^ / 0X& 9.J.J.S.D.Z.H.U.u.S.l.l.",
"l.l.Z.D.A.Z.S.D.H.H.d.f.j.j.l.Z.g.@.- w.[ u gXmXkX7XH XX{.{.^.].[.].].^.[.[.[.%X*X*XrX}.F T ^ ! ^ ! 6.0 @.J.G.H.D.l.S.u.h.j.j.l.",
"l.j.H.H.A.G.A.H.U.f.Z.l.l.Z.D.G.G.c.- ,.x.@.0 lXmXeXXXH }.{.!.^.].].!.]./././.[.%X$XrX`.J ^ ! ! Y ^ 4.i b P.A.Z.F.F.e.S.t.i.Z.Z.",
"l.S.L.D.L.D.Z.D.u.f.Z.l.Z.Z.A.l.G.n.< B M.B.9.u '.kXnX_.H oX].].^.$X~.~.^.!.^.^.~.$XtXW.' T =.^ ^ E =.s t i.i.i.e.d.f.j.v.g.i.Z.",
"G.D.D.G.Z.G.Z.u.Z.t.g.h.Z.H.Z.v.G.m.5 v B.n.C.@.% eXnXnX`.W.oX|.].~.~.~.~.~.^.!.~.tX7XJ R T =.! ! ^ 7.P y F.P.A.f.G.S.Z.h.h.t.i.",
"p.u.i.i.u.p.u.Z.l.v.u.h.Z.F.D.F.S.n.c 4 x.z n m @.t 9XfXeXW.Q.|.|.~.~.~.~.~.~.~.$X3X_.F R T U T T ` 0X0 O.y.L.U.i.l.Z.Z.S.u.i.H.",
"d.l.U.A.Z.Z.A.A.h.h.i.p.D.H.S.v.j.b...; +.m xXxXyX&.d lXnXeXH |.|.|.~.~.!.~.].$XtX7XJ F R Y Y T T ` 0X& 9.s.g.Z.h.u.v.Z.d.m.G.H.",
"F.f.H.H.u.Z.Z.Z.Z.i.i.H.F.g.k.f.d.y.,.: b n xXyXsXsXv s eXmXeXJ _.|.~.~.].oX3XtX7XJ F T U U Y Y ! 6.Q s aXg.aXT.H.F.i.t.S.F.Z.G.",
"F.e.g.Z.t.g.Z.v.i.D.H.L.T.H.D.G.S.y.9.O 5 z aXK.M.z s w D #.wX` Q.8X8X8X8X8X7XQ.S R Y Y Y Y R W 2.0.$ ..s.d.j.v.U.H.H.u.G.D.G.D.",
"g.K.K.G.G.i.k.t.H.D.G.G.G.S.l.D.F.n.O.: x 4 n , O hXKXJXw -.=.=.A U J J J J S F R Y Y Y Y Y T 2.qX& v B.F.U.D.j.f.g.d.g.Z.A.D.L.",
"u.v.D.T.K.H.d.S.S.S.D.S.K.D.S.Z.Z.b.O.- ,.X., B <.JXJXVXf w =.5.k k T U U U U U U U Y Y U Y ` qXa s x.G.j.l.H.H.f.j.H.H.h.f.j.d.",
"T.Z.d.h.h.d.h.G.S.F.H.sXaXG.G.Z.f.y.,.= C.SXSXE.x 5 l >.CXf *.=.=.w ) Y T U Y Y Y T ! U R 2.qXw o R.b.u.S.S.S.Z.u.F.G.G.H.f.f.H.",
"G.T.D.d.Z.H.Z.g.F.Z.d.d.j.h.g.g.i.b.N.- ,.GXSXGXSXAXAXGXJXM j ;.5.k *.) T ! T U U Y Y ^ 6.7.w 7 2 N.c.j.f.d.Z.d.Z.H.D.S.H.h.S.G.",
"D.Z.u.l.G.G.G.f.i.Z.J.S.d.F.v.P.H.b.n.z 4 C Z z.AXAXAXSXVX2 *.;.=.w ) ) ! U T T T U =.0X2.@   2 O [ B.H.H.G.f.g.G.D.G.D.H.j.v.K.",
"D.d.Z.K.D.D.H.d.Z.H.T.K.t.g.F.D.H.U.U.+.; p R.DXAXAXHXSXC h ;.;.) w ! Y U T T ! =.6.0.i   - V <.6 - ..P.F.A.S.d.H.l.l.D.D.l.u.u.",
"u.g.K.D.l.H.H.d.Z.T.T.K.u.H.T.L.H.H.T.b.+.; > o.jXjXZXo.i ;.;.*.w ) Y ! T ! =.0X6.k   * N w.M = 8 V > C.b.A.G.h.j.H.H.D.H.d.l.H.",
"g.l.D.G.D.J.H.d.l.h.h.g.i.F.D.H.T.K.Z.i.I.n.z ; + x <.6 *.;.;.w ) *.=.=.4.6.=.r @ @ 7 1.:.: 8 V M + p V.I.v.i.t.f.d.Z.j.f.f.H.Z.",
"g.Z.G.D.S.G.h.a.F.P.P.P.i.v.D.D.h.i.h.H.T.U.P.V.M p V $ j ;.) Q 2.*.k r 9 9 A 4.* o * + X + 8 2 V + O o.n.g.i.G.D.l.d.G.a.F.D.D.",
"u.t.Z.H.D.g.k.b.o.B B +.c.t.u.u.f.K.H.H.D.G.S.B.B w.VX .I @ @ I ! P P e e _ ' 6X% f O X : V M 6 : 6 x 5 k.G.J.F.l.l.h.u.u.D.H.Z.",
"A.G.i.g.i.h.Y.m + ; 5 ; z x.H.Z.D.G.H.D.H.D.S.M.y q. .hX2.D q | P P w w 9 _ ' 5X@ :.$ 6 <.M : 6 >.4 4 o.J.G.U.S.H.aXT.Z.i.h.D.D.",
"S.H.g.h.i.F.Y.n + = : C ; Z b.D.G.G.D.G.H.D.J.M.1 s wX#.#.S #.lXBXBX7.3.P e ' 5X@ 7 N + O O 6 M : B x.y.g.h.j.S.aXaXH.H.F.d.G.H.",
"S.G.I.g.e.Z.I.n...z.x 5 N : x.Y.F.D.U.U.H.U.F.9.# 0X$.`.6Xr #.| s s 6 i a r _ ).9 o N } 8 N N 6 x.P.F.Z.Z.h.u.f.S.aXK.H.T.j.u.H.",
"T.T.T.D.i.v.F.P.P.P.V., } x 5 E.F.H.H.F.S.i.a.9.# D $.eX7XA 0 ,.R.jXz.<.7 D W 4.@ 7 . 7 V h + ,.V.P.L.G.D.D.G.f.u.h.v.v.g.g.v.i.",
"T.H.K.U.Z.g.G.G.U.P.Y.Z < X.: c x.s.y.g.m.c.Y.} % W ' L ] a  .GXSXSXZXZX>.g W 2.  o 7 * . . X p ..b.F.A.l.G.l.D.G.S.g.t.A.Z.Z.u.",
"D.T.T.Z.g.e.h.T.T.U.T.b.- B Z , Z x.x.,.y.X.,.p # & t s s # 3 C <.N.,.<.g . o $ o o 7 7 X 2 f 8 ; x b.Z.l.K.D.H.G.K.j.u.v.A.D.h.",
"g.i.i.h.Z.Z.u.i.g.v.v.g.c , z.Z l > > > ; - - $ i } N s p O 8 x 5 5 , : 2 X 7 :.i f w.+ 7 :.: : : ; c.Z.D.G.D.G.G.H.g.v.F.Z.Z.D.",
"U.g.h.A.S.G.t.v.A.i.d.v.n.4 Z z.c.r.c Z r.c x } 8 >.,.+.,.< p B m c x 5 6 + f N i 2 O x >.3 c o.c m P.Z.l.A.D.D.D.L.u.Z.Z.A.Z.Z.",
"A.i.v.F.Z.j.i.h.h.i.D.G.B.y.> m v.i.r.Z z.x 8 x = ; 5 5 3 < B c c c c l 8 X o * O - C M - Z x.c.c.P.H.j.l.l.A.D.Z.Z.u.l.G.D.Z.A.",
"g.Z.G.Z.Z.F.i.g.u.l.D.l.Z.F.o.l , , l 4 : = C } X i t s o s N 5 m c x 5 8 * *.1.6 X.1.> l jXaXI.s.I.F.v.h.l.l.l.l.Z.u.Z.D.Z.l.l.",
"y.Z.Z.A.Z.v.F.t.S.D.l.D.D.Z.Z.y.z.o.b Z ,.c l : & hX| 0.i # - f c c 8 8 8 * Q k 3 <.4 z Y.aXT.H.g.v.U.H.Z.l.l.l.Z.l.r.u.H.l.A.Z.",
"i.H.G.l.l.D.v.t.l.D.l.D.A.l.D.g.c.I.I.F.Y.Y.x.+.$ 8.lX2.D t * f M 8 8 M   i *.w.O O z b.U.T.T.G.j.g.v.J.D.S.Z.Z.Z.i.j.d.i.D.G.l.",
"h.D.A.Z.l.l.f.j.D.l.A.A.A.A.A.U.h.d.u.u.u.t.t.s.9.& 0.lXlXNXq.* 2 8 8 3 :.CXw.7 3 O.n.U.H.H.F.g.a.k.f.f.j.S.D.Z.i.h.G.H.Z.i.l.D.",
"i.G.A.G.l.S.p.Z.D.l.Z.A.D.G.D.S.F.i.Z.F.F.G.S.k.C.v & @ @ e h i + : X f 7   3 ..+.y.i.v.S.Z.d.e.j.D.D.S.i.g.g.i.A.F.L.H.A.i.u.Z.",
"u.h.A.A.D.l.p.Z.l.l.Z.Z.D.H.T.F.F.u.Z.Z.H.A.Z.m.a.x.V.& f 1.f f 1.w.<.R.p X.C.y.i.P.Z.g.u.d.g.d.H.S.S.D.G.d.u.g.H.H.K.L.L.Z.i.p.",
"L.i.i.A.Z.l.u.F.A.Z.Z.A.G.T.T.U.v.t.Z.K.D.D.F.F.F.y.V.< : 2 + 6 <.CXR.>.: ,.t.v.G.S.S.S.g.f.G.S.f.l.l.S.G.G.h.i.F.H.G.D.S.Z.G.u.",
"A.u.i.i.Z.g.u.h.u.d.A.L.D.Z.h.i.g.g.g.D.aXH.F.F.P.y.y.> C X.M 8 M x : 8 : y.F.H.L.l.S.S.F.g.G.H.S.j.h.l.S.H.H.v.t.H.F.D.H.Z.Z.r.",
"S.j.c.u.e.u.d.f.l.p.i.u.d.i.h.h.i.i.h.u.d.v.h.u.e.g.y.z = = = p >.M M x 5 b.G.G.D.D.L.A.v.g.F.G.D.H.G.v.S.H.K.D.Z.d.Z.F.A.g.i.v.",
"S.S.v.t.F.H.S.K.D.Z.u.g.D.T.T.H.v.t.A.Z.t.u.v.v.g.b.m.n.+.Z B 8 , > > x o.Z.S.G.L.l.A.A.v.i.I.T.H.H.F.S.j.S.Z.l.Z.S.g.v.g.g.A.Z.",
"Z.v.r.i.Z.G.D.G.S.l.u.D.H.G.L.L.h.u.u.i.l.S.D.A.S.h.F.v.y.b.n.y.o.y.c.n.F.Z.G.H.G.D.A.D.D.t.D.H.D.G.L.S.G.H.D.Z.D.D.j.t.g.Z.Z.l.",
"g.h.Z.v.d.i.S.T.S.d.S.H.D.D.l.H.g.e.Z.Z.D.D.A.A.D.D.Z.v.t.j.F.A.d.v.H.F.Z.S.H.H.L.G.A.G.v.d.J.J.D.H.sXH.H.U.D.D.H.S.t.e.Z.Z.A.l.",
"l.l.Z.S.G.i.u.g.e.h.K.K.G.Z.K.Z.u.A.D.H.S.Z.Z.l.A.D.F.D.d.m.J.g.g.g.v.F.D.G.H.K.T.F.l.i.g.s.S.S.D.G.D.l.Z.A.D.G.H.H.p.d.D.G.A.D.",
"Z.l.l.l.Z.D.t.k.j.l.aXD.A.T.Z.i.F.A.H.S.v.Z.Z.l.l.l.D.F.h.s.k.v.F.F.g.f.D.D.D.H.Z.g.t.s.v.j.f.l.D.G.G.l.A.G.H.D.Z.f.u.j.D.A.D.G."
};
