/* XPM */
static char *player11678864209[] = {
/* columns rows colors chars-per-pixel */
"64 64 256 2 ",
"   c #0D0C00",
".  c #070900",
"X  c #140500",
"o  c #1C0501",
"O  c #140A02",
"+  c #1C0A03",
"@  c #190D09",
"#  c #091701",
"$  c #131200",
"%  c #1B1401",
"&  c #1A1B02",
"*  c #161807",
"=  c #1C1D14",
"-  c #230500",
";  c #230B01",
":  c #2B0C01",
">  c #280C07",
",  c #330D01",
"<  c #380900",
"1  c #2B1302",
"2  c #241A01",
"3  c #281707",
"4  c #321302",
"5  c #33150A",
"6  c #3A1909",
"7  c #291A13",
"8  c #3A1D13",
"9  c #331B15",
"0  c #092307",
"q  c #192606",
"w  c #1A3909",
"e  c #122B16",
"r  c #173517",
"t  c #0D2E0E",
"y  c #272605",
"u  c #362508",
"i  c #293802",
"p  c #2B2816",
"a  c #3A2619",
"s  c #263819",
"d  c #34371A",
"f  c #383301",
"g  c #392A25",
"h  c #283A25",
"j  c #383925",
"k  c #2D2F21",
"l  c #1C3522",
"z  c #441A03",
"x  c #401E12",
"c  c #48260B",
"v  c #472818",
"b  c #522D17",
"n  c #49331B",
"m  c #58381B",
"M  c #41330A",
"N  c #663612",
"B  c #452B24",
"V  c #4B3628",
"C  c #553827",
"Z  c #543A32",
"A  c #4C362E",
"S  c #653D24",
"D  c #185B02",
"F  c #184F0D",
"G  c #274716",
"H  c #25591A",
"J  c #365010",
"K  c #1D6400",
"L  c #276714",
"P  c #35681C",
"I  c #367319",
"U  c #2B6A0B",
"Y  c #2A4927",
"T  c #364928",
"R  c #2C542B",
"E  c #2D592C",
"W  c #275526",
"Q  c #34592C",
"!  c #374934",
"~  c #2D5531",
"^  c #325433",
"/  c #345B33",
"(  c #3C5D34",
")  c #3C5939",
"_  c #2E4737",
"`  c #396629",
"'  c #3D6234",
"]  c #3C623B",
"[  c #397226",
"{  c #554215",
"}  c #5B442A",
"|  c #564337",
" . c #445A37",
".. c #495030",
"X. c #67442A",
"o. c #73472D",
"O. c #674937",
"+. c #754A3A",
"@. c #6B5536",
"#. c #785639",
"$. c #466724",
"%. c #436538",
"&. c #4A7538",
"*. c #4C772E",
"=. c #7A6231",
"-. c #596318",
";. c #3D5649",
":. c #5A4844",
">. c #485847",
",. c #565A53",
"<. c #695548",
"1. c #7A5943",
"2. c #68524B",
"3. c #456643",
"4. c #4C7044",
"5. c #476154",
"6. c #597655",
"7. c #566E4C",
"8. c #78685A",
"9. c #677250",
"0. c #74786C",
"q. c #8B572E",
"w. c #8E5B32",
"e. c #885B3A",
"r. c #925E34",
"t. c #945F39",
"y. c #985E36",
"u. c #905B2F",
"i. c #8A623D",
"p. c #946136",
"a. c #956239",
"s. c #9A653B",
"d. c #9D693D",
"f. c #986336",
"g. c #917631",
"h. c #A26C3E",
"j. c #B57339",
"k. c #844711",
"l. c #C17E37",
"z. c #865D46",
"x. c #8B6444",
"c. c #896849",
"v. c #936543",
"b. c #9E6B42",
"n. c #9C6E4A",
"m. c #956947",
"M. c #9D714C",
"N. c #967349",
"B. c #876A56",
"V. c #946C52",
"C. c #9C7352",
"Z. c #987758",
"A. c #887251",
"S. c #A36E43",
"D. c #A66F46",
"F. c #A57145",
"G. c #A97446",
"H. c #A6734A",
"J. c #AA754B",
"K. c #AD794C",
"L. c #A57B4F",
"P. c #B17C4E",
"I. c #B67A49",
"U. c #A27553",
"Y. c #A47A53",
"T. c #AD7B52",
"R. c #A77C58",
"E. c #B17D52",
"W. c #B87F52",
"Q. c #987A68",
"!. c #A57D68",
"~. c #4BB61B",
"^. c #4AB619",
"/. c #55BA1C",
"(. c #5BBD1C",
"). c #56B81A",
"_. c #44AF13",
"`. c #62BE1D",
"'. c #568A39",
"]. c #559A37",
"[. c #4D8E2A",
"{. c #689136",
"}. c #4EB424",
"|. c #54BB23",
" X c #5BBD22",
".X c #54B728",
"XX c #56A633",
"oX c #55B12E",
"OX c #64BE23",
"+X c #65BC2B",
"@X c #69B93A",
"#X c #77BB38",
"$X c #5CC01F",
"%X c #63C11E",
"&X c #6BC21E",
"*X c #73C61E",
"=X c #5CC023",
"-X c #5CC02B",
";X c #5DC532",
":X c #64C223",
">X c #6BC423",
",X c #6BC42A",
"<X c #69C428",
"1X c #71C624",
"2X c #73C924",
"3X c #7CCA24",
"4X c #74CA2A",
"5X c #7CCB29",
"6X c #77C628",
"7X c #7ED02D",
"8X c #6BC337",
"9X c #76C537",
"0X c #5C874C",
"qX c #65825C",
"wX c #70944B",
"eX c #6BB947",
"rX c #77B84B",
"tX c #77B858",
"yX c #6DAC51",
"uX c #688464",
"iX c #768F6C",
"pX c #6BC446",
"aX c #77C546",
"sX c #7CC556",
"dX c #7FC062",
"fX c #C88338",
"gX c #82C929",
"hX c #86C838",
"jX c #84D032",
"kX c #B58153",
"lX c #B58357",
"zX c #AE8157",
"xX c #85BC55",
"cX c #8D8C6E",
"vX c #85BB68",
"bX c #88B972",
"nX c #8DAA73",
"mX c #B2956C",
"MX c #D2A44B",
"NX c #86C646",
"BX c #84C657",
"VX c #95CA52",
"CX c #A4D05C",
"ZX c #88C369",
"AX c #95C866",
"SX c #A1CE65",
"DX c #E4C072",
"FX c #B69389",
"GX c #B0AB97",
"HX c #CEA28D",
"JX c #F1B898",
"KX c #D4B7AA",
"LX c #E7BAA3",
"PX c #F4C2A3",
"IX c #E9C6AC",
"UX c #E3C2A5",
/* pixels */
"S.f.H.b.K.K.p.G.K.S.a.p.s.p.a.a.b.s.s.d.b.F.F.J.K.h.G.F.H.w.M.d.F.d.H.a.s.J.G.p.h.F.P.h.h.G.J.a.s.p.T.G.G.J.r.K.E.K.p.J.J.J.K.K.",
"D.a.p.d.F.p.K.F.F.K.p.K.E.J.b.b.J.K.K.d.H.F.F.J.F.L.n.n.N.i.N.N.N.m.i.Y.M.i.p.b.h.kXkXkXP.I.H.H.S.s.J.G.G.K.p.d.a.s.p.H.J.E.J.d.",
"K.G.P.F.w.J.J.G.G.G.d.G.zXH.b.J.K.K.T.F.a.a.s.n.U.U.Z.c.X.{ y & $ f { @.A.zXi.zXG.kXP.K.G.F.F.H.S.r.d.T.K.s.b.D.G.D.H.f.a.p.p.K.",
"D.K.S.D.a.J.J.F.K.p.d.G.G.d.a.F.G.d.a.S.zXzXN.m.#.f 2 & q J J -.$.J i i & y { =.C.zXT.F.F.G.F.p.s.H.H.r.D.a.T.J.D.G.J.r.H.n.H.G.",
"F.H.b.r.r.p.b.d.p.J.F.F.G.J.p.b.b.F.J.H.Y.C.#.2 $ q J *.xXVXgXhXhXVXCXCXAX-.i q n c.C.n.a.a.d.zXG.F.F.F.u.f.T.D.D.D.K.a.b.K.L.J.",
"b.a.S.H.H.H.t.f.F.K.F.F.F.J.p.M.H.T.H.Y.=.u & 9.9.*.'.xXhXgXgXgXgXgXgXgXhXVXSXxXf % { N.m.p.a.d.h.K.kXG.G.s.D.K.J.D.E.S.p.F.H.H.",
"H.H.T.H.K.P.J.r.d.F.J.F.J.J.p.K.E.n.Z.O.y ..cX&.$.[.xXhXjXgXgXgXgXgXgXgXgXgXhXVXCX{.q f N.N.F.d.p.a.L.zXL.d.p.F.E.K.E.b.S.F.s.S.",
"f.f.f.J.lXP.T.T.p.J.K.J.J.K.p.w.m.=.4 y nX6. .*.$.rXhX3XgXgXgX*XgXgXgX3X3XgXgXgX6XVXVXJ 2 c.n.J.J.F.F.p.p.F.F.w.f.a.t.p.s.d.u.P.",
"F.F.S.r.s.S.s.s.s.a.G.L.K.d.F.R.#.y d iX7.%.` ` {.NXjX3X*X3X3X6XgXgXgX3X3X2X3X3X2X3XjXCXJ y N.H.J.T.T.t.b.S.D.s.p.m.s.J.F.H.f.K.",
"J.G.G.K.H.t.D.D.J.r.M.a.p.b.M.c.% s iX&.%.%.%.I NXjX5X*X3X*X*X*X*XgX7XgX4X2X2X2X*X*X3X9XCXJ f N.U.D.H.r.S.D.D.D.p.p.F.S.S.G.G.a.",
"K.F.J.K.b.S.S.H.F.r.s.f.F.H.c.% ..0.' '  .%.` {.9X5X4X4X2X2X*X1X2X7X7X2X2X2X*X2X2X4X2X5X#XVXi u N.S.S.q.G.H.h.S.b.a.F.F.J.S.D.D.",
"S.K.F.S.t.b.J.S.S.S.a.n.M.Z.a y iX%.' ' ( ` I rX9X>X2X2X2X*X1X2X>X2X*X2X2X2X%X>X1X>X2X4X3XhXwX$ @.n.f.r.d.D.D.S.s.d.S.D.D.D.G.G.",
"d.S.S.d.y.J.S.d.S.p.S.F.C.@.& iX .%.( ( %.` I sX6X6X`.*X2X2X2X1X2X2X4X2X>X&X&X2X>X1X,X4X4X9XNX$.y i.d.H.d.s.S.D.b.a.S.S.S.F.K.P.",
"S.S.d.p.u.S.G.S.H.w.D.N.c.& 7.7.Q (  .' %.P XX9X1X`.*X3X2X>X>X>X:X:X>X>X2X&X>X>X>X>X>X,X4X,X#XxXq } L.zXG.a.r.d.b.t.s.t.S.G.S.d.",
"F.p.s.K.J.y.b.D.b.r.H.M.a y 9. .) ^ Y  .$.*.BX9X6X1X6X*X&X>X>X&X2X4X4X2X:X:X2X4X>X4X4X>X>X2X,XrXJ f zXF.D.S.D.r.b.S.K.F.p.r.s.G.",
"p.K.K.K.H.d.t.t.a.w.p.@.% 0. .3.^ G ( ( [ $.NX9X1X>X1X2X&X&X&X>X:X<X:X&X:X2X<X:X>X,X,X>X+X+X9X#X'.0 c.F.K.b.t.w.S.F.J.J.s.d.K.K.",
"p.J.G.K.G.D.f.b.H.U.R.m p 6. .! t ^ / ' P [.9X+X>X>X>X>X`.&X%X%X%X>X>X<X>X:X:X:X<X<XOX:X<X9X@XyX&.# @.v.a.s.S.D.G.p.f.p.t.E.J.H.",
"F.s.G.K.h.y.t.t.s.M.Z.% 9.) ) r ) ) ] / ` ].9X>X:X:X`.(.(.:X%X%X:X:X>X,X:X:X:X1X<X<X,X8X@XeX[.K 0Xi u e.v.S.D.d.G.S.s.f.a.T.J.T.",
"F.S.p.p.f.S.b.F.b.e.} 3 >.! e T 3.] ) ` I tX9X:X=X:X`.%X%X%X(.:X:X<X<X:X<X,X>X`.<X X+XeX[.D yXZXbX$.2 i.D.G.D.K.K.G.G.S.w.b.F.d.",
"F.a.r.d.F.S.F.J.F.N.C y ..h t 7.^ ) ] ` P sX8X=X%X%X%X%X(.%X$X(. X X:X,XOX:XOX+X+X@X@XI L tXZXZXnX&.2 C.H.G.K.G.D.G.s.G.T.p.b.H.",
"G.u.h.D.F.G.K.F.J.M.X.2 p # ) / W ' ^ ` I aX8X=X(.$X(.).$X$X/.=XOX:X:X:X`.`.+X+X@XXXU [.sXZXZXbXnX..1 N.F.J.G.G.F.K.D.K.E.r.K.D.",
"r.h.D.G.K.F.G.G.h.H.zXO.d # 0./ ~ / / ` I rX+X(.$X/.%X(.^.$X=X$X XOX X(.`.<X+X@X[.K yXvXxXZXyXG # y m N.S.F.F.S.F.K.J.E.S.u.a.d.",
"f.S.G.G.D.K.h.I.F.K.R.x.| * 6.R / ` / Q I aX,X=X(./.(.$X/.$X=X=X X=X(. X:X X@XXXD tXxXtXbX$.# & =.c.m.d.d.K.G.S.G.F.P.K.r.S.h.S.",
"D.b.G.h.D.G.h.G.K.E.r.x.3 ) %.Q E R / ` L pX8X).(.$X/.~./.=X=X=X X/.OX X<X#X[.U tXvXvXxX# T % Z x.p.b.h.h.K.J.K.J.d.D.r.s.h.s.h.",
"d.d.K.K.D.J.D.T.E.a.S.#.% 6.) E R E ^ W L pX;X|././.|. X-X=X}.$X|.|.|.}.@XXXD tXBXvXwX$ =.Q.- O.M.s.u.S.H.K.D.b.J.F.r.S.t.t.S.S.",
"S.D.K.G.T.G.D.D.r.t.S.#.$ iXR W / ~ ^ H L XXaX-X-X|.|.-X-X^.=X}.|.~.}..XXXD tXZXvX$.2 A.N.#.- z.H.F.J.d.w.r.y.f.w.p.s.v.b.r.r.S.",
"J.J.G.G.S.J.S.r.b.w.v.#.q uXE W W E Q E L [.BX<X|.-X}.|.}.$X}._./.}.oXXXF xXZXZX$.q A.v.x.#.o c.U.S.G.P.p.G.K.D.a.K.H.S.s.s.q.t.",
"q.r.r.f.r.w.r.S.b.d.w.#.& uXQ W W E Q W H I sXpX.X~.~.~.^.^.^.^.~.}.XXK yXZXvX*.$ M m c Z.b , c.S.S.h.P.P.u.J.K.p.b.S.S.S.r.f.K.",
"p.d.K.D.h.D.D.D.s.s.p.#.& >./ W W E R R W H XXpX;X_.^.^.^.^.~.}.}.oXL '.sXAX{.f MXg.g.{ Z.b b Z.b.b.d.F.T.w.s.S.a.r.b.S.p.F.J.K.",
"J.s.K.K.r.S.S.S.h.p.p.R.{ q qXW E W ^ Y R H H XXpX;X}._.^.^.~.}.XXL [.bXvXwXy i.fXMXDX-.Z.6 m C.M.F.h.K.T.s.zXK.J.H.t.r.D.G.S.J.",
"J.w.p.b.w.s.S.S.p.J.L.R.B.* 9.4.E E R R R H H I XXpX8X;X-X}.}.}.].L vXdX0Xq f R.l.l.fXN Z.5 o.x.b.F.K.f.p.p.d.h.E.T.T.r.J.G.J.F.",
"p.T.T.T.J.t.t.r.K.J.H.H.C.{ y iX/ ~ ~ R R R E W H L XXeXpXpXeXeX[ &.%.%.s j c z k.j.I.N c., 1.H.i.s.p.F.F.K.G.s.p.s.t.a.D.H.G.K.",
"w.b.J.E.E.K.r.F.F.F.h.M.T.Z.y s iX] W ~ W W ~ ~ W W H H L H W F F ;.;.! = cXZ.+.4 : 4 6 Q.5 S v.b.s.y.J.d.F.K.K.f.d.K.K.s.f.b.a.",
"T.b.p.s.d.y.s.K.F.G.kXzXkXY.c.$ R qX] R R ~ ~ ~ ~ ~ W W W ~ ~ t ;.;.;.= + X.m.#.8.a : O.KX5 S m.D.E.b.r.d.F.G.h.p.H.J.kXP.p.a.K.",
"K.P.G.y.S.K.h.p.F.b.f.p.b.m.m.C $ h iX3.~ W Y W W ~ W W E ~ ~ e ;.5.;.g KXmXc.e.!.HXLXIXIX5 S U.D.h.s.h.p.p.F.p.d.P.h.h.K.f.G.K.",
"F.F.r.S.J.G.K.f.u.F.K.H.u.M.V.} * * r uX4.~ W W ~ ~ ] ~ W ~ Y l 5.;.l ! IXIXPXLXPXPXIXLXmX> v.E.T.K.G.G.zXJ.p.p.K.J.P.h.P.s.d.P.",
"J.p.S.T.h.G.K.f.h.G.K.kXr.v.c.; | @ . * 3.uX3.E W ~ ] E ~ _ ~ e >.5.;.@ FXIXPXJXJXC.b B 3 c zXlXT.E.I.G.F.F.b.p.J.G.G.J.G.h.u.p.",
"r.f.K.G.G.K.K.u.J.kXlXK.f.#.: X g 8.|   # l 0.qX] ~ ~ W ~ ~ ~ e ;.5.5.;.a UXPXJXJXHXQ.> ; x.zXK.J.G.G.G.F.F.L.a.d.J.J.F.G.f.d.J.",
"f.b.J.K.G.J.K.t.b.s.f.a.i.C 5 g > > A 2.Z . # Y 6.uX6.~ ~ W R ! e ;.5.>.g C FXHX!.b : 4 x.zXkXJ.F.h.h.G.J.b.p.w.u.p.F.b.p.s.K.F.",
"a.S.G.G.F.J.d.f.D.K.J.L.x.B.> o A 8 5 9 :.:.. 0 0 r / 6.0X6.) ) h l ;.>.,.- <.b : : m #.L.n.zXJ.G.F.K.K.s.p.p.J.zXd.p.J.p.H.J.J.",
"r.w.S.K.G.f.a.P.F.S.F.T.1.u X 7 B > 7 @ @ @ . = G '.G t 0 t r G h e e _ k   8.O.; 1.U.U.d.T.E.J.J.S.s.f.s.G.K.G.d.S.s.u.r.J.K.S.",
"H.J.p.a.t.a.T.G.F.H.F.Y.m 1 V + > 7 A g @ X + j J 0X&.&.s _ !  .;.Y 0 0  .j GX8.; O.R.E.d.s.S.J.p.t.f.G.J.K.T.S.K.P.P.F.p.s.J.H.",
"D.J.a.v.w.G.K.D.D.H.J.L.z.4 ; Z g X 7 2.:.X 7 ..H '.$.Q # e t s G %.r Y R nX..9.O <.Q.Y.t.m.r.r.b.F.p.r.p.s.b.F.kXP.I.K.H.r.J.K.",
"H.J.T.f.w.S.J.D.D.D.H.U.z.z.O.9 > g @ o @ 3 :.O J ].I F _ >.7.nXnXnX .Y 0X` nXj   + : b Y.J.f.D.H.M.U.C.N.s.r.f.K.kXP.K.E.d.r.K.",
"E.E.E.H.t.b.H.T.H.C.O.5 - 1 | Q.p ; | 7 7 :.9 O J '.` 0 ! k 7 g T 9.6.w yXI ` 6.$ O 7 ; x.s.s.R.C.@.v z #.Y.H.s.r.s.b.S.f.f.b.p.",
"E.E.K.E.D.t.J.K.T.e.- a B Z ; a B.1 5 V B @ @ * J 0X` t p 8.8.!.cX@.$ G yXyX'.G # 7 % + c.C.i.x.6 + Z B ; N n.F.H.S.f.q.D.b.F.w.",
"J.E.T.S.t.w.s.T.T.i.: o + 5 Z ; V B.V ; + * @ . Y &.) s <.FXFXLXUXUX..Y ` $.[  .$ a v 1 1 V.8.6 v A > ; : 6 M.J.K.T.b.r.d.S.H.b.",
"t.t.y.s.D.b.t.t.a.b.+.O.#.a 8 2.- X.Z.@.v @     # # # $ C +.S z.x.@.p $ w F w s X a n n + <.4 u | : C O.C c.H.K.J.K.a.S.G.S.S.H.",
"T.a.a.H.S.J.u.b.D.a.t.m.n.x.: v C : O.V.Z.Q.<.X V g * + - - < < 4 9 7 O * y a A 9 9 a 3 X - , <.6 C C.C.D.H.H.H.H.J.t.b.G.S.S.S.",
"D.t.b.J.h.d.p.s.b.t.J.G.D.U.S - +.S : b S m } + 7 3 + ; 9 5 B v v u > X 9 7 v C 9 3 + 1 - 8 Z b c m.J.h.h.S.D.J.S.S.w.s.G.J.h.G.",
"t.n.H.S.S.G.r.r.w.S.F.S.h.n.V.c z +.S z < < : 5 5 9 <.> 8 5 b b v 6 8 : :.B < x > o - - x +.O.: o.Y.U.S.s.h.s.S.S.F.w.D.G.D.d.h.",
"w.D.D.H.S.S.G.r.F.F.F.F.J.D.b.e.z b v.e.o.o.m +.B 9 Z ; B 5 b b z Z Z 5 O.5 b <.C C +.o.+.#.< S x.b.E.G.H.h.s.S.h.d.u.f.K.S.F.h.",
"t.J.K.h.S.G.b.w.h.G.S.G.G.h.G.s.e.< c z.v.m.V.1.v g 8.o g < x b v B Z 5 <.v n #.e.#.z.m.z.6 c C.b.p.h.G.G.F.D.S.S.r.b.y.y.J.J.S.",
"b.H.S.D.h.S.f.b.G.S.S.G.G.h.J.J.v.e.z < < < < - o @ 7 @ 7 9 9 x a ; O O 2 2 3 1 - z z z < z C.t.p.s.f.f.d.D.H.b.t.b.D.T.S.t.S.D.",
"r.J.D.G.d.F.r.b.G.h.D.D.S.K.G.G.D.e.n.v.q.o.i.v ; 2.0.,.7 7 7 9 7 O ..cXcXiXcXd v m N S m.n.t.w.b.G.G.F.y.a.s.p.S.D.E.J.D.y.u.S.",
"t.a.G.D.D.S.w.S.s.h.S.h.G.K.P.G.H.t.D.D.U.H.M.V.n @ = A ,.g @ X O j >.5. .T y 2 #.U.H.v.e.t.f.t.J.J.G.F.J.y.q.f.J.K.K.P.J.D.y.u.",
"T.y.t.H.S.b.w.H.F.S.S.D.K.W.E.K.b.e.H.T.H.J.H.H.C.#.} 1 7 g > - @ @ = k k O B z.U.S.H.D.b.f.J.H.p.F.d.F.K.H.s.r.J.J.G.G.G.D.G.r.",
"D.t.r.a.S.s.w.s.r.p.D.K.D.h.d.r.a.a.p.H.T.T.H.J.U.t.m.C 8 FXFXKXGX9 9 7 = > V.T.J.S.D.D.n.a.J.J.G.d.s.F.D.K.T.S.p.J.G.J.K.h.S.q.",
"D.d.s.q.w.r.y.f.S.u.r.r.y.t.s.a.p.t.a.w.p.n.a.w.q.a.z.C - g x B > o 9 :.:.- c.K.J.G.K.F.b.a.J.J.F.K.J.d.D.K.E.G.S.r.D.G.S.s.t.b.",
"F.S.b.t.H.J.D.E.G.S.u.f.J.E.E.T.b.w.H.D.w.p.b.M.t.D.C.S - 8 V O.2.< 5 8 8 z m.J.K.D.D.F.S.w.T.E.K.J.F.S.b.D.S.h.S.F.t.b.t.y.D.D.",
"S.b.q.w.S.J.H.K.G.h.u.G.K.K.K.E.b.q.w.t.S.F.G.D.D.b.H.#.: > 9 5 a - - 4 b e.T.K.G.G.F.G.F.i.F.K.F.G.P.F.G.K.G.S.G.G.d.y.a.S.S.S.",
"f.s.D.b.p.p.F.E.F.u.G.K.F.G.F.J.f.w.D.H.G.G.S.G.D.H.S.m.X.b v 5 6 O.V.V.n.b.K.K.P.K.F.J.h.p.F.G.J.P.kXK.K.P.G.G.J.S.r.q.S.S.D.h.",
"s.S.b.F.G.p.r.t.w.s.E.P.G.D.K.S.r.D.G.K.F.h.S.S.S.F.G.T.t.n.U.v.m.e.v.C.H.G.K.P.zXF.d.p.p.p.F.G.G.G.G.h.D.D.G.K.K.T.w.t.D.I.h.G.",
"S.h.h.S.F.F.w.s.b.S.W.J.D.E.b.r.D.D.K.G.h.h.h.h.F.S.H.S.v.t.v.b.J.K.s.f.G.G.K.K.b.a.q.i.b.b.s.F.G.K.G.h.D.K.G.F.b.f.t.S.D.h.G.I."
};
