/* XPM */
static char *rev_91679747539[] = {
/* columns rows colors chars-per-pixel */
"64 64 241 2 ",
"   c #1F1A00",
".  c #241B00",
"X  c #2A1C03",
"o  c #2C1D0A",
"O  c #281804",
"+  c #361D04",
"@  c #1E2000",
"#  c #2B2501",
"$  c #2E2A02",
"%  c #2E220B",
"&  c #232800",
"*  c #322C03",
"=  c #32230C",
"-  c #3B250D",
";  c #352B0C",
":  c #3A2607",
">  c #2D3101",
",  c #3C3B03",
"<  c #39330D",
"1  c #393707",
"2  c #2E2311",
"3  c #322512",
"4  c #3A2714",
"5  c #362A14",
"6  c #3C2B15",
"7  c #362A1A",
"8  c #3B2D1B",
"9  c #32261A",
"0  c #3B3313",
"q  c #3C311C",
"w  c #3E3A11",
"e  c #3B2F23",
"r  c #3E3223",
"t  c #47280A",
"y  c #512C0A",
"u  c #48370B",
"i  c #452C13",
"p  c #422E1C",
"a  c #4B2E13",
"s  c #4C3116",
"d  c #43331C",
"f  c #4B341B",
"g  c #463B17",
"h  c #533315",
"j  c #53361B",
"k  c #543A1E",
"l  c #5C3D1E",
"z  c #573A14",
"x  c #533B0E",
"c  c #653E17",
"v  c #433423",
"b  c #4A3621",
"n  c #463A24",
"m  c #4B3A24",
"M  c #46392A",
"N  c #4A3C2B",
"B  c #45372A",
"V  c #543B23",
"C  c #5A3D23",
"Z  c #553D29",
"A  c #493F33",
"S  c #384307",
"D  c #364A00",
"F  c #464408",
"G  c #47560A",
"H  c #4B441C",
"J  c #4A4616",
"K  c #5A4719",
"L  c #4A5414",
"P  c #54561B",
"I  c #55410F",
"U  c #624C1C",
"Y  c #586619",
"T  c #536C12",
"R  c #626A1E",
"E  c #4D4223",
"W  c #4E4825",
"Q  c #5D4224",
"!  c #53442B",
"~  c #5B442C",
"^  c #584A26",
"/  c #5A5728",
"(  c #4D4333",
")  c #534534",
"_  c #5B4530",
"`  c #564935",
"'  c #5D4B34",
"]  c #554A3A",
"[  c #5B4D3C",
"{  c #5D513E",
"}  c #5B5132",
"|  c #644323",
" . c #62452B",
".. c #694A28",
"X. c #724D2B",
"o. c #7A4E2A",
"O. c #655629",
"+. c #78512D",
"@. c #654B32",
"#. c #6B4E32",
"$. c #624D3A",
"%. c #714F32",
"&. c #63523C",
"*. c #6D543B",
"=. c #675838",
"-. c #735233",
";. c #73553A",
":. c #7C5C3C",
">. c #795837",
",. c #5B6227",
"<. c #5C692C",
"1. c #646428",
"2. c #696737",
"3. c #776839",
"4. c #77783B",
"5. c #6B752D",
"6. c #5A4E42",
"7. c #5E5142",
"8. c #625342",
"9. c #6A5946",
"0. c #7B5D42",
"q. c #755C42",
"w. c #6D6446",
"e. c #74644D",
"r. c #7C634B",
"t. c #796948",
"y. c #7B7848",
"u. c #7C6B53",
"i. c #776956",
"p. c #7E7557",
"a. c #7F7262",
"s. c #8D5A2F",
"d. c #8C572F",
"f. c #8D5B33",
"g. c #855D3B",
"h. c #8A5E39",
"j. c #855B34",
"k. c #925E34",
"l. c #945F39",
"z. c #915E2F",
"x. c #8C623C",
"c. c #87663C",
"v. c #946136",
"b. c #986337",
"n. c #95633A",
"m. c #9A653B",
"M. c #9D693E",
"N. c #96693E",
"B. c #88723C",
"V. c #A16C3E",
"C. c #825D41",
"Z. c #856343",
"A. c #8B6443",
"S. c #8F6846",
"D. c #83664C",
"F. c #8B6A4C",
"G. c #87684A",
"H. c #936643",
"J. c #936A44",
"K. c #9D6B42",
"L. c #946D4A",
"P. c #9C6E4A",
"I. c #9C6741",
"U. c #87784B",
"Y. c #9D7046",
"T. c #95724D",
"R. c #9D734B",
"E. c #98794A",
"W. c #896E55",
"Q. c #956F51",
"!. c #8D765B",
"~. c #85795A",
"^. c #9D7351",
"/. c #977758",
"(. c #A26E43",
"). c #A36F49",
"_. c #A57145",
"`. c #A97346",
"'. c #A5734A",
"]. c #AA754B",
"[. c #A5794E",
"{. c #AD794D",
"}. c #B17C4F",
"|. c #B0774C",
" X c #A37651",
".X c #A57A55",
"XX c #AC7B52",
"oX c #A57C59",
"OX c #AA7E59",
"+X c #B17D52",
"@X c #897D64",
"#X c #867765",
"$X c #917E64",
"%X c #5F8017",
"&X c #7A8639",
"*X c #6E902D",
"=X c #7EA53A",
"-X c #7B8244",
";X c #818E3F",
":X c #88844B",
">X c #8A8756",
",X c #978859",
"<X c #95975A",
"1X c #8B9352",
"2X c #B48154",
"3X c #B58258",
"4X c #AA805D",
"5X c #93B251",
"6X c #8E8664",
"7X c #998966",
"8X c #999467",
"9X c #998A73",
"0X c #9D9B72",
"qX c #A68464",
"wX c #A39B6C",
"eX c #A59777",
"rX c #AD9478",
"tX c #9BA560",
"yX c #A6AC6C",
"uX c #A9A878",
"iX c #B3B57D",
"pX c #ADB372",
"aX c #A4CF5E",
"sX c #B8E471",
"dX c #B2D76D",
"fX c #C2E67A",
"gX c #9C9387",
"hX c #A79A83",
"jX c #B59C82",
"kX c #AFA485",
"lX c #B7A687",
"zX c #BAB789",
"xX c #B3A997",
"cX c #C6B699",
"vX c #C4AE8F",
"bX c #CBBAA3",
"nX c #CCC99A",
"mX c #C3E380",
"MX c #E2FF9B",
"NX c #D5C5A8",
"BX c #CDC0A0",
/* pixels */
"{.{.].{.`.l.+X+X{.l.].`.].}.v.b.M._.`.V.`.].V._.v._.`.m.v.`.(._.K._.s._._.V._.`.|._.).K.n.N.m.M.v.n.x.v.b.v.`.[.`.b.{.{.V.[.b.M.",
"M.].+X`.`.l.b.m.V.k.|._.`.].b.(.`.`.`.}.}.+X2X_.V.v.v.`.`.v.K.(._.Y.k.(.(.(.`.`.].).).'.Y.{.{.`.(.M.{.{.{.v.].`.V.{.z.`.M.v.m.V.",
"{.b.l.m.l._._.`.`.I.M.{.{.m.k._.'._.).].|.+X2X].{.v.{.{.{._.`.b.v.m.(.v.V.].{.].).J.o.g.Y.XX}.{.{.V.`.{.].N.].'.`.2XV.z.`.{.`.{.",
"`._.).].l.].]._.`.|.b.(.l._.].m.n.(.].`._.{.2X].m._.`.`.`._._.{.v.{.+X'.v.v.x.v.).P.+.P.Y.n.M.].(.v.(.`._.M.v.].`.`.`.b.'.`.}.V.",
"].{.{.I.m.{.(.(._.XXb.k._.`._.`.{.(.b.k.(.].{.M.].`.2X}._.V.m.M.k.m.b.(._.'.).n.).L.z S. X{.(.(.(.l.]._._.'.'.v.V.V.v.h.k.K.]._.",
")._.(.l.(.XX`.].].).b.].{.+X{._.V.b.k.(.(.v.v.b._.{.`.].{.V.`._.b.(.].].2X[.[. XH.P.y S. X'.{.'.(.l.{.]._._.{.).n.v._.'.].K.b.M.",
"_.l.].(.M.}.}.+X_.k.K.].+X].v.v.V.(.`.`._.].m.`.m.M.b.{.].[.`.`.z._.(._.XX{.XX X X| y A.OX{.P.+XXXv.].'.Y.].o.o.v.].XX+X).+X_.`.",
"+Xk.V.m.k.k.b.l.k.'.(.n.n._._.`.`.(.`.`.`._.v.`.{.{.{.N.m.]._.m._.`._.(._._.[.Y.L.| a C.C.H.n.v.k.f.XXXX.X.Xc j..XXXXX2X].n.b.b.",
"}.b.`.V.`.m.M.l.M.(.).(.l.|.).|.]._.(._.{.M.].`.{.{.]._.K.K.'.M.M.].K._.].'. X X%.j t C.^.).|.b.{.(.K.XX.Xl.y A.n.m._.n.v._._._.",
"b.`.`.V.(._.l.n.(.).(.).k.).).].`.V.(.`.{.v.}.].{.2X].Y.k.M.M.k.M.f.M.'.).)..XA.b f 4 C.)._.|.l.v._.K.f.H.X.z  XY._.z.[.].`.].].",
"`.(.V.`._.(.m.K.(.(.`.].d._.).).(.K.K.].M.(.`.`._.{.].v.{.m.`._.{.'._.v.(.H.A. .b 4 i C.^.).+XM.`._.).R.Z.| X.R.].(.(.m.{.].`.{.",
"`.`.`._._.(.K.m.V._.).(.k.l.(.(.K.'.].XXk.{.+X}.}._.`.z.V._.(.(.'.(._.(. XS.#.b 4 p v ;. X).M.l._.].[.P...C -.R.K.].K.v.(.(.{.(.",
"}.}.V.V.V.(.b.K._.).m.V.|.m.b._.(.).K.n.n.m.`.XX{._.M.M._._.`.{.`.(.(.).^.:.b p 8 v p a C.P.n. X(.P.^.A.D.t >.K.K._.[.v.V.(.V.M.",
"V.V.`._.v.b.k.I.V.k.m.(.|.].].k.l.m.).].].n.l.b.M.b.v.s._.{.'.`.].'.'.^.Z.V v 7 v B B i -.J.'.]..X XX.0.j a >.).(._._.s.l.V.(.(.",
"`.b.v.v.(.{.(.(.s._.(.`.|.].].l.I.+X_.(.'.K.].l.(.(._.K.l.l.).).'.oXQ.;.f d 7 e B B N i A.n.J..XqXF.r.! - *.C.K.).M.k.].].M.l.(.",
"{.{.M.m.].].).V.k.k.V.|.(.].m.].OX'.K.R.P.].].n.).'.P.XX]. Xm.H.H.^.#.V d 7 7 B B N b V C.f.P.h.X.*.*.f f @.g.v.x.k.K.`.}.XX|.b.",
"V.2X+Xn.v.v.v.`.(.(.m.m.m.m.K.'.'.L.A.F.^.OX].n.'.'.'.].].P.P.Q.0. .N p 2 8 B B B N V ;.^.x.S.Z.;.' 8 ' Z  .^. XM.b.V.`.{.`.{.b.",
"2XV.OXl.n.m.V._.V.(.(.I.d.(.'.'.J. .s h h A.^.x. X[.'..XoX^.L.#.Z b p 3 7 B B A N b 0.$XG.#.;.0.' d ] 8.$.C L.N.v.l.b.V.`.`.m.(.",
"V.`.(.f.V.`.{.{.|.`.`.).k.m.{.[.z rXvXvXvXh /.C.g.A.Q.Q.0.C V b v 7 8 n N B B B p 9.r. .p k !.! 8 ) 7.8.' j j.K._.(.V.b.v.v.V._.",
"`.V.k.|.[.M.`.V.`.`.`.`.`.k.).Y.>.G.C #.jXD.#.W.;.C j i f b p 7 7 v B N M M B e 8.9.i 6 b @Xm 8 ) 8.7.$.Z :.L._.].(.V.`.(.z.b.`.",
"(.{.k.}.`._.}.`.|.(.`.(.K.k.P.j...C F.s r.V + v n n d 5 4 7 e e B M M M B B e e p p p Z 2 7 8 ) &.{ &.~ @.c.R.'.|.|.`.`._.(.f.`.",
"(.b.z.(.2X`.`.`.(.).`.).(.K.N.R.y | D.h o p 8 7 5 E } 0 X 7 e M B M r B A A r B B 9.i.8.2 r [ 7.{ [ _ D.F.L. X(.`.V.`.|.`.`.(.l.",
"(.I.(.z.}.XX`.`._._.].(.m.K.v.[.H.j./.- 4 4 v = >XzXzXzX! = 7 e gXxXgX[ r r B i.#Xi.v e ) [ 7.7.[ ! 0.!.Z j L. X}.`.`.V.`.V.(.l.",
"(.M.M.M.k._.V.].|.].].(.).(.k.k.P. X^.j p M 5 q 6XP W uXzX% 7 9 6.( 9 e 9.$X$X$.e v ) 6.7.7.7.6.q 9._ ' _ ~  .^.'._.`.V.`.(.(.(.",
"(.V.l.k.(.k.`.`.M._.{.`._.f.N.'.h.L.oX*.6 M N 8 0 # < y.eX% 0 ` 9.a.a.#Xi.( 5 v ] 6.7.7.7.[ ( e e B Z 8.8.8.j F.XX`.`.`.`.|.V.V.",
"V.k.k.(.I.I.f.k.v.k.k.f.J. XR.R.H.J.A.+ o n N n = #   ; } W d #X9.( q 3 5 q ` { 7.7.7.7.7.) ] 6.6.8.8.8.6.8. .g.'.(.`.].].}.(.(.",
"l.k.m.I.I.'.].b._.{.'.n.T.T.c...t A./.+ + 9 N ) v 6 . g 2.9X; ; o 8 7 q q q ) ( r 8 q ] 7.7.7.7.6.6.6.8.8.$.@./.h.(.].(._.].`.].",
"|.l.s.).(.(.(.v.{.XXx./.h z x y | L.L.C X 7 4 d 9.; % ~.. W d kX7.7 5 q 0 q 5 7.7.7 7 ] 7.7.7.] e A B 6.8.&.@.F.P.l.f.k.k.k.l.k.",
"|.{.).k.(.(.k.v.K.n.j.O.I O.,XU J.Q.G.#.3 5 X u.q ; . 8X& 0 ~.` hXkX9.3 3 q q 8 r M ( ] ] 7.7.( 9 A ] 7.8.[ $.~ C.^.(.M.`.|.(.n.",
"|.(.{.(.k.k.'.[.oXT...K 3.wX/ c.T.A.F.k o o ( w.= . # 6Xw # 6X2.3 w.kXeXa.n q 2 3 q q q r M N N A A Z ] ) ` ` _ s j.P.k.|.|.n.{.",
"`.`.).`.v.[.OX4X:.t # ^ ,XO.O.U I K u . O o q E . < J 2.w.J W kXn 3 5 ( 6XxXhX] i.n 3 9 q q e 8 8 7 e e p 4 + O a H.H.k.(.b.f.).",
"|.`.`.(.n.x.H.X.f $X*.H g X H 3.<X:Xg t.7Xg g ; w.zX8X/ W > <Xw.8X0 6 3 % 7 n 8 { a.a.p.w.` Z N 7 n B p 4 o O a C.H.l.].].+X|.b.",
"l.K.N.M.[.4XZ.k @XNXNXiX/ 3.:X:X1.1., <XzX} > 0XiX8X2.> ; > 8XP t.p.3 8 8 q 7 5 q 3 3 M 9.u.a.9X] W.9.A 6 i t >.R.v.{.+X+X_.(.k.",
"XXm.n..XS.%.k 6XbXcXnXnX4.I 1.1 :X4., P L S & xXy.> * > H w P <X5 -X6X3 q 8 ` 7.] { ] ( n 5 3 2 2 o = 6 6 *.Q./.{.m.l.M.m.k.(.}.",
"{._.N.E.K 7XnXBXcXwXiXiXpXu * * J O.1 U.y.& & -XJ J } =.< S 1 uXW > w.} 0 6 q ( 7.{ 7.7.{ ] ( r 7 v ' 9.r.S.J.'.n.K.|.).k.'.|.].",
"XXL.S.>.!.vXkXw.} S <XtX<XP :X3.O.4./ 8XL S L @ J 1X>X8X~.~.1 1 W > > { w.; 0 q M { ) ] e q E 6.6.[ Z i -.^.'.f.N.].].].(.f.'.'.",
"A.:.;.Q lXe.} uXiX<.yX5XY P B.>XU.I 1.2.L T T D > 0XuX-X/ $ # * >X/ 1 ; &.{ < q 8 r M M 2 ] 2 e 8.' 4 ;.OXXX]._.v.[.`.'.{.K.x.R.",
"Z.j 0.9XlX@X<.w.<.1X-X, 4.u P U U * > D G %X5X=XD 1 > @ y.2.w > ,.>X> E ; w.w.5 q q q q 2 e r ] [ ' @.Z.OX+XXX'.v.[.].'.{.OX..| ",
"@.eX_ n 6XcX9XH < w 2.H wXO.B.E.E.3.L D *XaXdXfXR yXL L 1X<XJ # 4.5.<.< W 0 W w.8 9 8 8 e e 8 r p ' W.C.J.H.n.I.v.[.{._..Xc.Z.#.",
"4 jXi.eXeXu.0 . m E 6X} wX:X>.[..XB.F T =XsXsXMXT yXT &X5.yX$ & 2.-Xy.H S H q n e.( r 7 8 q 5 N 9XeX!.| L.oX.XP.n.K..X XL.;.qXQ ",
"+ ' *.O.&.f e.q g U.g ;.zX,XI [.[.E.F G *X5XaXfXT aXR &X5.<XH 1 4.4.S p.w ; 0 5 % ( [ M 7 % 2 3 ~.lXlX0.%.%.A.L./.J.c.F. .;.;.K ",
"~ D.f u.! m d W ; E ~.uXU.U j.c.R.Y.K F T T ;X5XR :XR G &X&X> # >XP > } p.0 ; n p.{ o 5 = = 4 v i.6XjX=.*.7X!.C r.F.l @.rXvXj r.",
"q. . .~ u.W t.* H yXqXx U c._.M.v.x.B.F R G G G &XL y., <XL J u U.* $ H F 6X^ % o 3 7 v = i i.q.q.W.@X- $XNXcXjXt.vXvXj !. .z Q.",
"a ;.F.0.! e.i w.uX3.I c.V.E.[._.R.x.[.E.B.4.R G 2.P 2.,.1Xw H w.=.H < 2.g O.} E o O v #XD.a t t t s t s $XrXvXeX!.lXcXX.t G.^. X",
"C.S.A.| t m /.eX| K H.Y.[.].].'.XXv.N.B.B.:XI U K D.J y.0 0 ; w.# # > F wXuXt.= o 2 8 a /.oXoX^./.^.h z l  .W.Q #.0.;...L.OX+XOX",
"l.'.P.Z.^ 7XF.K 3.R.'._._.`._.{._.v.V.{.2Xs.x +.F.X.Q K X . % #   # / iX8XO.# = 3 ] e.C C.g.h.n.n.g.h.A.qX-.-.X.;.-.| ^.OXXXXX3X",
"V.'.K.T.y | | L.[.].].(.V.(.].XXM.M.`.{.[.2X[.4X-.t | 3.t i s . $ w iXnXy.* m n 7 8.$.r.C.A.oXR.H.{..Xl. XOXOXoXOXJ.g.x.(.XX+X`.",
"(.(.'.R.c.>..XXX{.|.`.`.(.(.].{.m.+X[.{.2X2X2X].o.+.g.^.F.s + X # >XnXnXeX; ; 3 3 ) 6 @.#.L.| ^.h.'.).l.l.M.I.m.l.h.K.'.N.l.v.l.",
"(.(._.`.R.x.'.'.].'.`.V.(.`.{.`.l.XX`.+X{.{.].{.x.K.P.L.h.H.L.c.K 3.y.} < <Xg 8 8 r ] g ~ bXD.X.H.f.K.'.K.k.l.'.N.d.]._._.b.n.{.",
"`.(.].`.m.f.K._.`.`.V.V.V.].].n.m.b._.(.`.}.'.`.k.XXn.b.n.H.L.J...u # . w kXNXbXcXxX9X= q.cXj Q P.H.'.).'.].l.K.N.v.V.V.`.M.v.'.",
"(.M.(.`.(.f.).V.(.M.V.b.(.].{.k.}.+X3X2X_.2X`.v.I.).b.).'.].'.'.c.U.,Xz U.y.!.p.M 3 ` i.&.lXd i G.-.g.P._.'.(.v.k.k._.V.(.`.(.l.",
"V.(.).|.l.s.M.).M.M.V._.`.XXK.l.}.+X+X+X{.{.`.v.k.K.].'.(.).].(.[.+...z x H O = = o M W.m 9Xs m q. .;.-.R._._._.k.'.(.(.`.(.(.k.",
"(.`.|.l.l.I.k.).(.(.(.`.{.(.l.(.].+X+X|.].n.(.k.].).).`.`.`.`.(.`.].L..XE.c.Q k _ 5 2 v ! *.6 = $.f r.h L.'.'.(.k.(.`.(.V.`.`.b.",
").(.l.I.|.|.M.l.(.`.`.M.v.b.m.k.b.).XX+X{.K.I.m.'.].(.].].`.`.(.V.K.'.'.].N.L. .~ 5 v p 8.$.` g $.u.= f | Y._._.I.n.(.(.(.(.`.M.",
"(.k.m.(.`.|.].).k.m.b.l.(.].].(.f.k.K.'.K.n.f.f.{.).).`.`.`.}.`._.`.]._.].Y.h.L.+ p 4 N o d e.9XE ' = *.c.R._.'.(.f._.V.`.(.].k.",
"k.l.(.|.|.|.|.|.n.f.l. X].`._.{.k.m.k.k.n.(.].k.f.(.XX(.(.(.(.V._.(._._._.3Xn.C.#.t Z p o b 9.! p f ! q.| K.K.m.).f.(._.).].b.l.",
"k.].(.'.|.`.|.].l.M.'.{._._.(.b.'.].m.I.(.'._.`.M.s.n.(.].(._.+X`.`._.(.(.'.x.[.T.C C ~ - 9.n N ~.eXf ;.>.P.K.`.).f.(.K.`.l.l.].",
"d.(.(.|.`.(.].z.(.XX[._.Y.b.M._.].{.m.(.(._.(.{.+X`.m.k.v.M.].].(.(.I.K.'.K.f. X^.A.l t #.- m = &.! - | [.).b.l.m.f.m.(.m.k.l.'.",
"m.l.b.(.].(.k.)._.}.]._.V.].{._.`.].m.M.'.].`.`.{.`.`.`.b.k.v.'._._.].{.l.k.l.j.h.H.P.A.g.A.@.W.4 s C A.l.l.z.(.m.l.k.s.f.m.M._.",
"(.`.b.b.M.b._.).M._._.M._.`.`.{.}.{.k.V.(._.`.].`._.(.(.(.(.s.n.I.n.m.k.K.).).v.(.K.k.f.'./.t t *.q.%. Xn.f.(.].+X).].`.k.V.(._.",
"V.(.(.l.l.I.].].`.`.}.`._.{.`.`.{.`.z._.`.`.V.`.}.`.V.V.(.'.m.s.f.I.K.k.K.`.I.'.`.`.(.(.l.j.X.| ;.X.j. X].v.M.`.].`.].(.l.d.M.V.",
"(.`.(.(.d.k.).].`.`.}.`.{.{.{.{._.[.v.Y.].`.{.2X`.}.V.`.'.].K.f.K.'.K.f.m.(.`.'.`.(.`.`.).).h.o.X.g. X).{._.z.(.+X_.v.v.(.(.m.l.",
"_._.`.`.k.s.XX|.].].`.(.V.{.`.`.`.Y.v.v.v.K.[.{.2X{.].`.'.n.l.n.N.{.P.n.|._.)._.V.V.(.(.{.].'.l.).{.(.].XX+XM.f.v.k.v.'._.(.(.M.",
"|.{.(.).(.l.b.(.`.].`.`.(.`.].`.`.v.N.K.x.f.n.M.{.`.[.`.l.I.'.].m.n.n.H.'._.).).V.V.V.(.(.{.).).s.(.}.`.].+X(.I.I.f.].(.(.M.K.K."
};
