/* XPM */
static char *rev_41679747538[] = {
/* columns rows colors chars-per-pixel */
"64 64 236 2 ",
"   c #1F1E00",
".  c #241B02",
"X  c #2B1D02",
"o  c #2C1E09",
"O  c #281A07",
"+  c #321B03",
"@  c #381E06",
"#  c #1D2600",
"$  c #2B2403",
"%  c #2C2900",
"&  c #2D230B",
"*  c #242500",
"=  c #322305",
"-  c #332B02",
";  c #33240C",
":  c #3A250D",
">  c #322B0C",
",  c #3B2A09",
"<  c #2A3200",
"1  c #333502",
"2  c #383708",
"3  c #2E2212",
"4  c #2F271A",
"5  c #332513",
"6  c #342A14",
"7  c #3B2C14",
"8  c #322619",
"9  c #342B1C",
"0  c #3B2C1B",
"q  c #3C331B",
"w  c #3C3616",
"e  c #362C21",
"r  c #3A2E22",
"t  c #3C3324",
"y  c #3E3529",
"u  c #3C3525",
"i  c #472A0B",
"p  c #532F0D",
"a  c #43370B",
"s  c #442D13",
"d  c #402E1B",
"f  c #482D13",
"g  c #433B15",
"h  c #44331C",
"j  c #4B331B",
"k  c #423C1B",
"l  c #4A3817",
"z  c #54391D",
"x  c #5B3C1C",
"c  c #543517",
"v  c #623F1F",
"b  c #433523",
"n  c #493523",
"m  c #423A25",
"M  c #4C3B24",
"N  c #42362B",
"B  c #443A2C",
"V  c #4B3C2A",
"C  c #533E24",
"Z  c #5B3D21",
"A  c #503F2D",
"S  c #493D31",
"D  c #663F20",
"F  c #3B4905",
"G  c #364B03",
"H  c #47470A",
"J  c #4A4517",
"K  c #5B451D",
"L  c #554A18",
"P  c #58531C",
"I  c #45550B",
"U  c #61481C",
"Y  c #476408",
"T  c #58671A",
"R  c #4F6C13",
"E  c #4B432C",
"W  c #4B4425",
"Q  c #5E4325",
"!  c #594B23",
"~  c #54442C",
"^  c #5C452B",
"/  c #5B4C2B",
"(  c #524825",
")  c #5A5527",
"_  c #4E4733",
"`  c #5C4B34",
"'  c #544B3B",
"]  c #544A33",
"[  c #5D5635",
"{  c #624326",
"}  c #63452A",
"|  c #68472A",
" . c #634A2D",
".. c #6B4A2B",
"X. c #684924",
"o. c #744C29",
"O. c #655A2B",
"+. c #685729",
"@. c #73572A",
"#. c #634D33",
"$. c #6B4D33",
"%. c #634B35",
"&. c #625233",
"*. c #64533C",
"=. c #6A5737",
"-. c #735335",
";. c #795A38",
":. c #714F33",
">. c #5D6724",
",. c #5D6033",
"<. c #666928",
"1. c #69782A",
"2. c #696434",
"3. c #786739",
"4. c #79763C",
"5. c #707434",
"6. c #63671B",
"7. c #6B5B43",
"8. c #695845",
"9. c #735C44",
"0. c #7D5D42",
"q. c #745F4A",
"w. c #746144",
"e. c #7C6245",
"r. c #74634B",
"t. c #786C45",
"y. c #797647",
"u. c #776954",
"i. c #7B7553",
"p. c #6C6441",
"a. c #8D5A2E",
"s. c #8B572F",
"d. c #905B2F",
"f. c #8E5B33",
"g. c #835C3B",
"h. c #8B5E3A",
"j. c #835B37",
"k. c #925E34",
"l. c #955D37",
"z. c #8D623D",
"x. c #876439",
"c. c #946136",
"v. c #996437",
"b. c #956339",
"n. c #9A653B",
"m. c #9D693D",
"M. c #946A3F",
"N. c #A16C3E",
"B. c #835F43",
"V. c #846344",
"C. c #8B6442",
"Z. c #8D6B4A",
"A. c #886849",
"S. c #916642",
"D. c #946945",
"F. c #9D6B42",
"G. c #956C4B",
"H. c #9A6E4A",
"J. c #996641",
"K. c #867546",
"L. c #9D7146",
"P. c #9C724C",
"I. c #977549",
"U. c #866D54",
"Y. c #946F52",
"T. c #877457",
"R. c #9C7553",
"E. c #9D7854",
"W. c #987759",
"Q. c #A26E43",
"!. c #A36E48",
"~. c #A96F45",
"^. c #A57145",
"/. c #A97346",
"(. c #A5734A",
"). c #AA754A",
"_. c #A4794D",
"`. c #AD794D",
"'. c #B17B4E",
"]. c #A37651",
"[. c #AC7750",
"{. c #A47954",
"}. c #AD7B51",
"|. c #A37B5A",
" X c #AA7D5A",
".X c #B27D52",
"XX c #8D7B63",
"oX c #937D63",
"OX c #957F68",
"+X c #75853A",
"@X c #6C8D2C",
"#X c #7D8A46",
"$X c #81883A",
"%X c #88874A",
"&X c #888354",
"*X c #938759",
"=X c #95965C",
"-X c #899352",
";X c #A3824E",
":X c #B58154",
">X c #B98356",
",X c #AB8157",
"<X c #92AE4E",
"1X c #978669",
"2X c #989865",
"3X c #9C8B74",
"4X c #9F9176",
"5X c #8F8666",
"6X c #A49A69",
"7X c #A68D73",
"8X c #A8967A",
"9X c #AD8F70",
"0X c #A7A76B",
"qX c #ACA676",
"wX c #B3AA7B",
"eX c #B7AA7C",
"rX c #AEB16D",
"tX c #9AC452",
"yX c #A8D75C",
"uX c #B2C971",
"iX c #AB9B85",
"pX c #B49C82",
"aX c #B8A789",
"sX c #BAB786",
"dX c #BDAC93",
"fX c #AEA387",
"gX c #CCBA9E",
"hX c #C4B697",
"jX c #C3B689",
"kX c #D3BFA4",
"lX c #CFBEA2",
"zX c #C4C587",
"xX c #C9C797",
"cX c #CFF885",
"vX c #D7C9A9",
"bX c #D4D0A1",
/* pixels */
"`.`.).)./.c.}..X).c./././.'.c.v.n./.(.Q./.`.N.^.c.^.(.n.n./.F.N.N.^.a.^.^.Q.^.'.).~.^.^.c.m.n.F.b.n.k.v.v.v.N.)./.v.`.`.F.^.b.Q.",
"m.`..X/.^.k.n.n.v.c.`././.`.v.^.(.)./..X'.:X.X~.^.c.c.(./.v.m.^./.L.d.N.Q.Q././.)./.^.^.F.`.}.(.Q.J._.}.).v.)././.`.c.^.m.c.n.^.",
"`.n.c.n.b.^.~.)./.m.m.`.`.m.k.^./.^.^.^.).'..X).`.c.`.`.,XN./.v.k.m.L.c.F.[.).(.Q.J.n.k.^.'.`.`.`.J.(.}.).m./.)./.).(.d.^.[.^.`.",
").^.Q.).k.).).!.).`.v.Q.c.^.(.v.c.Q.`./.^.'..X`.M.^./.(./.^.N.`.c.`.,X/.b.b.k.l.Q.Q.[..X^.c.n./.^.v.Q.(./.m.v.)././.).n.^.Q.`.^.",
").).`.Q.n.).~.!.^.[.b.k.^.^.^./.).^.v.c.Q.`.`.J.).).:X:XN.N.n.m.k.n.b.^.Q.(.^.n.^.Q.`.[./.`./.Q.F.c.).^.~.(.).c.F.Q.b.k.l.F.).^.",
"/.^.Q.c.Q.'.(.).).~.n.).`.:X`.Q.m.c.a.F.Q.n.l.n.^.[./.).`.N.^./.n.F.).).:X(.^./.n.`.~.[.)././.^.^.c.`.).^.^.)./.c.b.!.^.).Q.v.J.",
"^.v.^.!.J..X[..X!.k.m.)..X/.v.c.L.^.!.!.!.).n.(.n.M.v.).`./._._.k.^.Q.^..X[.`.`.^.v.`.[.[.`.Q..X}.k.).).Q.).(.m.c.`..X.X^.}.^.(.",
"`.k.m.n.l.l.n.l.f.(.^.c.c.^.^.).^.Q.].].{.].z._._.`.`.m.v.).N.n.^.).^.^.^.^.).Q.).`.z.J.b.b.b.l.f.k.[.`.).`.).b.`.`.[.>X).b.v.v.",
"`.n.)./.).M.m.c.J.Q.!.F.b.[._.).].!.Z.| Z Z B.W.|.,X[.Q.Q.J.!.J.F._.Q.F.^._.^.^. X}.f.F.~.(.).n.[.Q.Q.[.).).b.n.v.m.Q.n.c.^.^.^.",
"n.^.~.Q.Q.L.c.z.^.H.R.H.B.R.].{.R.A.v U.oXOXZ Z A.Y.R.H.h.G.H.h.D.h.J.].^.!.[._.n.n.).Q.Q.~.[.n.n.~.F.k.n.Q.k.).H.^.c.(.`.(./.).",
"Q.Q.N./.^.^.b.F.P.D.C.D ^ 0.V.V.B.D pX7XOX3XiX7 o ; j j A.0.Z.A.Y.R.R.C.G.D.k.!.}.`.).).Q.)..Xv.~.~.~.^.b.n.k.^.^.Q.Q.m.`.`./.).",
"/./.^.^.Q.^.m.J.S.X.9X7X1X@ i s 7 @ U.^ M &.7 0 V n V V V n j j n ` D | 0.g.C.H.I.L.^././.Q.m.l.!.)._.Q.^.v.F.Q.Q.).m.c.^.^.).Q.",
".X'.~.Q.J.~.n.F.h.g.oXU.8.0 n n b d 8 8 0 & & 5 E m 9 q u E m u d d n n d n %.Z.C.f.k.J.Q.m.M.).~.Q.^.^.^.~.l.Q.F.~.).l.m.Q.Q.n.",
"m.Q.(.Q.l.n.k.D.z.x p z j @ 5 b t e 0 y B m ' 0 8 _ m 8 9 9 u E N e 9 8 r n n f } A.|.!.^.J.^.^.).^.!.).F.~.k.^.Q.).~.d.c.F.Q.Q.",
").n.c.k.~.`.!.F.k.H.G.R.W. .%.3 9 8 4 9 9 e 8 r.u.5 E V 4 4 9 9 N S N e 8 8 0 b n j %.Z.E.b.F.`..X`.!.Q.Q.~.l.Q.!.F.l.)./.v.c.^.",
"`.`.m.v.).).(.F.f.b.F.{.].-.*.u.; . 4 e 9 9 4 4 ' 8.7 E E 9 4 4 e e N S N N r 8 0 r V j %.-.Y.z.b.J.~.v.k.k.f.l.k.l.N.).'.'.`.c.",
"/.)..Xc.b.b.l.).^.H.n.z.Z.{ X = 2.h o u N 9 8 9 4 O & O E _ 9 t e e 4 y S S S y r 8 8 N A f 0. X X_.l.k.(.`././.n.n.~.!.`.).).v.",
"`.(.}.k.b.n.~.~.J.^.^.M.-.@.c *X3.=.&.; 9 N 9 9 5 3 8.5 & u _ 4 e ' e 4 4 y y y N 8 ' 8 8 r n D R.].[.n.Q..X/.n.v.c.b.m.)./.n.Q.",
"Q.(.Q.f.N.).).`.).(.].j.{ Q x.=XP T.t.w.& O q 0 5 M p.= & $ E W 4 9 3 4 e e e S N d 8.q.%.8 d n $.Y. X Xf.k.a.n.^.Q.Q.n.v.k.Q.~.",
"(.F.l.[.).v./.Q.^._.C.c ! K.2XP +.! a 3.[ $ 3 m ; r.( g > i.q _ V 9 4 ' 4 y e e S S b N N r r 8 j c Y.}.M.c.^.^.).^.Q.^.Q.k.n.~.",
"Q.`.k..X).~..X^._.I.: j = l l X P 3.6X4.> w [ > X ~ , ( fXxX5Xw ' B e u y y N y r N N N y N N r Z f p C.h.k.^.).'.'.~.~.~.F.k./.",
"m.c.a.^..X)._.^.G.X.=.hX8XT.) +.*X%X+.y.- ( 2X5Xk = 2.fXsX&XJ % F ' 9 e N N S y d e N S N 8 d n 0.A.R.F.n.`.).Q.N.N./.'.~.^.Q.k.",
"Q.N.L.d.[.[.H.E.A.i dXvXbXfX6.<.&XH y.zX2.y.qXqXW 2 qX2X) # > k $ ] u 9 y y N N N r e N A n 8.%.B.j.J.).k.}.`.^.'.N./.N./.^.m.b.",
"Q.m.F.v.c._.C.| K 1XvXhXzXsX0XH $ - L >.2 H P 2 J 1 %X>.2 F w m q 6 E 9 e y y N N N r e N V n 0.G.H.J.Q.v.c..X`./././.N.N.^.L.L.",
"Q.N.l.k.H.j.x U.gXgXaX&X2XrXrX6.<.+.L % F w 2XP   < 1 H y.u.1X*.i._ E m 6 u y B t ' t 9 q B V j W.P.Q.m.Q.Q.n.[.'././././.'.N.N.",
"N.l.l.F.G.| V.lXhXi.) 1 +XzX$X1.%X%X*X3.% 5.y.< < 1 < &X*X*XfXxXfXr.w E 9 t u u y ' ' t 9 r B 7 } R.^.Q.m.H.b.k./.N./.'./.'.N.N.",
"l.f.F.G.Y.l 1Xi.,.2XxX1.=XrXH L H +.@. .a P G Y >.F # P qX6X2Xp.W . > E t 9 u e y t u u y e m d @ G.].Q.J.n.k.~.v.N.`.N.).~.~.'.",
"'.n.B.V.x 9.hXp.,.2X5.y.%XH P qXL K.K.3.) +XG Y @X+XF # 1.1.< J g = 6 E B 4 u ' q N N N N u e b + Z.].!.n.k.J.F.N.c.d.d.l.l.l.d.",
"[.].B.Z oX7.8.fXfXy.2 - = 2.O.6XK.U 4.3.I <.Y @XtXyX#X>.1.G < 2X&XW w q _ 9 q ' 3 0 N m N B r b + B.E.(.f.b.J.n.^.^.^.F.N.'.N.l.",
"(.!.| 7X~ V iXhXr._ 7 ( l 2.+.6XjX+.M.M.L I R tXyXcXuX>.uX>.>.#X=X1 & 3 _ w 9 _ & 8 h m h N 8.3X: z ;.R. Xk.l.Q.Q.Q.F.k.'.'.l.[.",
"_.].Z 8XU.4XXX#.* ~ ; C &.! O.aXx.@.;X;XP I R yXyXcXuXR rX1.+X5.=X*   * _ E u q n &./ &.0 V 5XdXd M { Z.[.`.].k.!.!.n.k.N.l.d.~.",
"[.].@ j s =.M 7.&.r.` J a ! eX3.U M.I.I.P H Y @X#XyX<X@X0X@XY #X#X< * > & W t q T.2.*XzXgXu.T.XXV *.7XG.].(.).[.l.l.l.).)..X`.n.",
"k.D.@ T.i T.^ z T., ( w a qXK.L x.I._._.I.1 6.Y R @XR +XT T F -Xp.w % i.6 m u q =.O.) wXvX5XW 0 7 1XaX-.R.^.^.^.^.k..X`..X).Q.k.",
"[.D.p V. .| 3.e.0.^ 3.- 6X*Xx I.n.x.F.P.x.@.x.6.I I I %X1 <.1 =XP w J &X> W t q / L >.zXaXl X 7 w.aXkXT.Z.{.(.(.).n.k.F.m.k.Q.`.",
"[.!.o.p I.D.z.Y.Q u.= T.6Xi ;.L.^.^.M.c.M.L.;X%X<.H <.P 4.) 2.t.W % t.) > J w 6 / ) jX0X( X 7 *.7XhXlXkX1Xx G.].b.Q.[.Q.l.(.'.[.",
"[.Q.h.S._.].{.E.x $.( 8Xx x. X[.,X`./.`.c.L.L.M.x.p K =.K.+.K.K w.w =.( [ W ( w O.wX2X! =.7 n w.U.OX1XaX3XC $.x.D.].).).Q.l.(.~.",
"c.k.J.).)./.(.;X= f 8X3...|.[..X:X'.>XN.L.c.c.P.o.c @.V.z  .K Z.Q ; 7 ] F 6 ( J rX2X! > M d n b c ;.oX7X8.XX..V.C.{.^.).[.Q.l.).",
"`.m.v.`.)././.M.p E.A...].].^.`.'.'..X'./.v.m.;X}.{.R.p i x g.V.9.+ 7 ; O t J qXsX2.X 7 o o V q.j s =.C ` hXkXaXz R.{.].)..Xk.k.",
"(.`.v.c.m.N.v.x.;.X.X.H._.Q.^./.`.:X.X`./.c.`._.}. XP.o.z.z.P.P.;., ; X & w ) xXbX4X> w 9 7 ] q.j ^ @ d XXdXdXkXw.{ Z.G._.).Q.l.",
"^._.(.c./.c.m.`.(.z.M.J.`.(.^././.'.~.`.v.N././.^.^.^./.P.P.J. XZ.p z = % * 2.sXwXi.g $ 7 q *.0 q.OX9.n Z e.8XdX#.pX;.x H.].Q.v.",
"^.).^.k.l.J.Q.F./.`._.b.b.m.Q./.`.'.,Xv././.`././.^.Q.H.Q.(.n._.z.;.X.:.;.K 4.5.l $ qXi.7 6 ; o d *.9.j A.f ;.C T.dXvXW.0.S.h.f.",
"(.).m.k.!..X.X`.Q..X).).(.c.d.c./.N.n.m.:X/.`.:X/./.F.F.!.!.b.c.^._. X]._.3.+.) - / qXxXdX4X1XU.9.h =.U.-.e.} x ^ T.hX#.U.| P.R.",
"`.).l.^.[.'..X.X/.m.N.v.f.c.^.N.c.c.m.c._.`././.`./.Q.^.).'.k.Q.).).[.}./.L.3.*X! l  .i.U.q.A A o *.aXgXX.Y.].P.;.Z ^ s pXU...R.",
"[.k.N..X[..X>X).l.k.v.N.Q.^./.^.^.v.).).v.n.m.`.).).^.[.^.m.v./.^.N.:X.X;X).;X@.U c : o . 8 7 iXM OXfXQ ;.].L.H.P.,XA.s U.aX$.W.",
"b.v.c.b.Q.F.n.k.N././.N./.`.).`.'.v.n.v.v._.n.n.F.n.k.b.M.c.m.^.N.Q./.`.`./.(.I.R.;.^ ~ 5 3 5 *.5 4X*.f W. X^.[.[.{.G.V.Z 0.$.U.",
"k.^.Q.^.s.b.!.).N./././.N./.^.`.~.k.^.`.`.`.`.^.n.!.[.^.N.a././.^.Q.Q./.^./.^.L.(.9Xj ` 8 o b u.V 4Xj : R.].].[.[.).b.H.| $.pX} ",
"m.(.^.m.f.m.}.`.'.N.,XN.N.N./.`.m.n.`./.`.:X(.:Xn.Q.N.(.L.c.(.^.F.m.Q././././.^. X|.s h ; X d 8.h h O C oX..o. X XJ.f.z.C.f oX$.",
"^.F.^.^.L.v.`.)././.`.`.N.N.).`.v..X_.`.:X.X.X).b.;Xm././.a.n.(.m.^.^.Q.).).`..X}.S.{ s d O : O ^ 8.d q.$.c } g.B.l.Q.Q.D.;.c x ",
"^.Q.Q.^.L.c././././.N.N.N.`.`./.c.`./.`.`.`./.'.d.N.Q.Q.c.M.n.f.F.).~.~.).).'.m.b.J.-.j / n O 5 0 3XT.] A M $.B.J.l.).Q.^.D...D ",
"/.Q././.n.a.N.^././.N.N.N.'./.v.c.n.^.^./.:X/./.k.'.b.b.c.m.F.m.v.b.`.`.).^.a.F.m. X{.p c  .j ~ q.~ r.~ q.o @ B.D.k.m.Q.(.H.b.H.",
"N.m.^./.Q.k.Q.Q.m.v.N.N.^./.`.c..X.X>X.XN.;X/.v.m.^.n.~././././.^.v.k.k.b.f.)..X^.}.].h.o.:.j ` V ] d ~ o s =.;.h.l.(.~.H.(.H.z.",
"N.~.Q.`.b.s.m.Q.m.m.N.N./.`.F.c.`..X:X.X:X`./.d.k.J.).~.N.N.`.N.).J.!.Q.k.b.(.).F._.!.(.].W. .: 5 V iX*.%.^ | S.h.(.!.!.~.^.^.f.",
"~.).).n.k.J.l.Q.Q.~.^.).).F.b.F._..X.X`.).b.F.c.).!.^.).^.)./.N./.).m.).P.f.k.k.n.b.`._._.]. .7.u.n ~ 7 e.x C.I.f.Q.).Q.Q.).).k.",
"~.N.k.F.`.).m.k.Q.^.^.n.v.v.m.k.v.^.`..X`.m.m.n.(.).Q.).).^.).N.m.N./.(.[.J.F.(.b.f.f.k.f.c.x j C s : ^ ..Z.L.L.F.l.!.Q.Q.~.).n.",
"Q.l.l.~.`.`.~.~.k.v.b.c.Q.).).F.f.f.F.^.F.z.f.f.[.!.^.(././.)./.Q././.^.).Q.k.H.z.^.).(.!.H.v  .W.e.c Z.P._.m./.Q.l.^.F.^.~.).b.",
"f.l.!.`..X`.'.).b.f.b.`.(.^./.`.c.b.c.c.c.^.(.c.f.Q.[.Q.Q.^.Q.Q.).^.^./.)..Xn.b.^.(.^.).^.P.h.x x { @._.L.m.N.m.Q.f.Q.^.Q.).b.l.",
"l.(.Q./.).).).).c.m.^.`.L.L.N.v.^.[.M.n.!.^.Q.).m.a.c.^.).~.^..X).~.^.Q.Q.).k./._.).).)..XH.h.H.G.H. X[.~.Q.Q.^.!.f.Q.F.^.k.b.).",
"s.~.N.)././.).k.F.[.`.^.^.n.m.^.).[.n.Q.Q.^.Q.`..X(.m.f.k.N.].].Q.Q.m.Q.^.m.k.).^.^.[..X).l.v.S.k.J.Q.(.^.).l.k.b.l.n.!.b.k.l.~.",
"n.l.n.Q.).^.k.Q./.,X`./.N./.`.^.^.).b.F.^.).)./.`./.).^.n.f.l.(.~.^._.[.c.l.k.s.l.b.Q.k.k.b.z.b.J.n.l.l.b.k.k.Q.n.b.l.f.f.n.N.~.",
"~.^.n.c.m.c.~.Q.m.^.N.N.^.^.).`..X`.k.Q.^.^.^.)./.^.Q.Q.Q.Q.f.b.J.b.b.f.F.!.Q.n.Q.F.k.l.~.^.a.n.`. X.X).n.f.Q.).[.^.).(.k.F.Q.^.",
"m.^.F.c.k.J.).).^./.'././.`.)./.`.).s.~./.^././.'./.N.^.Q.^.n.s.f.J.F.f.F.^.J.~.~.^.^.F.k.f.f.J..X).`.`./.c.N./.`.^.[.Q.k.s.F.F.",
"N./.^.Q.s.l.!.`././.`./.`.'.`.)._.(.b.Q.)./.).:X/.'.N.^.^.).F.k.!.^.H.l.J.~.).^.!.!._.).~.Q.k.n.'.~.).~./.Q.k.^..X~.k.l.Q.Q.n.b.",
"/.~.).^.k.f.`.`.`./.~.~.Q.).).)._.^.x.c.c.J.(.'.'.;X/./._.n.l.b.n.[.Q.k.`.^.^.Q.Q.Q.Q.~.`.).~.l.~.`.~./..X.Xm.f.k.k.k.).~.N.~.m.",
").).^.^.Q.k.v.N.^.`.)./.N./.).~.^.v.J.F.c.f.v.F.'./././.k.n.(.).J.b.v.v./.^.~.Q.Q.Q.Q.N.Q.).~.!.f.m..X^.)..XQ.F.n.f./.Q.Q.N.N.N."
};
