/* XPM */
static char *rev_61679747538[] = {
/* columns rows colors chars-per-pixel */
"64 64 246 2 ",
"   c #261B02",
".  c #2C1C02",
"X  c #2C1A07",
"o  c #381B04",
"O  c #2A2502",
"+  c #2E220D",
"@  c #272803",
"#  c #312501",
"$  c #342C02",
"%  c #34240D",
"&  c #3B240C",
"*  c #332C0C",
"=  c #3C2705",
"-  c #2E3601",
";  c #39330B",
":  c #383604",
">  c #2F2513",
",  c #332515",
"<  c #3B2612",
"1  c #342A14",
"2  c #3B2C14",
"3  c #33261B",
"4  c #34291C",
"5  c #3B2D1C",
"6  c #38271C",
"7  c #3B3413",
"8  c #3C321D",
"9  c #3A3714",
"0  c #3B2E22",
"q  c #362D22",
"w  c #3D3223",
"e  c #3D3328",
"r  c #1D2C00",
"t  c #421D01",
"y  c #43250C",
"u  c #442A0D",
"i  c #482A05",
"p  c #483709",
"a  c #56340D",
"s  c #422C14",
"d  c #462D16",
"f  c #43321B",
"g  c #4A321C",
"h  c #433A1B",
"j  c #4B3B1D",
"k  c #483414",
"l  c #543214",
"z  c #52351B",
"x  c #533A1D",
"c  c #5A3A1C",
"v  c #593816",
"b  c #512D11",
"n  c #633D1A",
"m  c #433424",
"M  c #443A25",
"N  c #4C3B24",
"B  c #42362A",
"V  c #45392A",
"C  c #4B3C2C",
"Z  c #4B3624",
"A  c #533C24",
"S  c #5A3D22",
"D  c #513D2B",
"F  c #4B3F31",
"G  c #453B31",
"H  c #523F30",
"J  c #613F21",
"K  c #3C4307",
"L  c #3E5505",
"P  c #485705",
"I  c #494619",
"U  c #57451A",
"Y  c #4B5311",
"T  c #545817",
"R  c #4D4509",
"E  c #65431D",
"W  c #644B18",
"Q  c #66591D",
"!  c #47640C",
"~  c #5B781B",
"^  c #54661D",
"/  c #4B4223",
"(  c #4C422C",
")  c #4D4926",
"_  c #5D4224",
"`  c #524C23",
"'  c #54432C",
"]  c #5C442B",
"[  c #564A28",
"{  c #5B552D",
"}  c #595426",
"|  c #4D4132",
" . c #524434",
".. c #5C4A34",
"X. c #564A3A",
"o. c #5B4C3B",
"O. c #564836",
"+. c #5B5537",
"@. c #624223",
"#. c #63442A",
"$. c #6B4A2C",
"%. c #664B27",
"&. c #754C29",
"*. c #675629",
"=. c #77532C",
"-. c #644D37",
";. c #635234",
":. c #64513D",
">. c #685838",
",. c #745334",
"<. c #7B5433",
"1. c #7C5B3B",
"2. c #765939",
"3. c #5A6923",
"4. c #65672B",
"5. c #6A6638",
"6. c #77673B",
"7. c #707233",
"8. c #5B4F42",
"9. c #5E5343",
"0. c #5D554A",
"q. c #625444",
"w. c #6B5B43",
"e. c #6B5C4B",
"r. c #665944",
"t. c #7A5C42",
"y. c #745D44",
"u. c #604E42",
"i. c #6A6444",
"p. c #6B6746",
"a. c #746C44",
"s. c #746D4A",
"d. c #776348",
"f. c #6F7141",
"g. c #777447",
"h. c #7C6C54",
"j. c #756855",
"k. c #7C7654",
"l. c #6D6151",
"z. c #797062",
"x. c #8E5A2E",
"c. c #8B562E",
"v. c #8D5B33",
"b. c #845D3C",
"n. c #8A5E3A",
"m. c #835834",
"M. c #925E34",
"N. c #955E38",
"B. c #915C2F",
"V. c #8C6036",
"C. c #8B623C",
"Z. c #86643D",
"A. c #946135",
"S. c #996336",
"D. c #95623A",
"F. c #9A653B",
"G. c #9D693D",
"H. c #966A3F",
"J. c #A16C3F",
"K. c #A0673C",
"L. c #835E41",
"P. c #856242",
"I. c #8C6442",
"U. c #8D6945",
"Y. c #8D6B4C",
"T. c #846849",
"R. c #926543",
"E. c #946944",
"W. c #9D6B42",
"Q. c #946C4A",
"!. c #9B6E4A",
"~. c #9B6740",
"^. c #857A4A",
"/. c #9D724B",
"(. c #997349",
"). c #856D52",
"_. c #936F52",
"`. c #86765A",
"'. c #947252",
"]. c #9C7452",
"[. c #987859",
"{. c #A26D43",
"}. c #A86F46",
"|. c #A36F49",
" X c #A86E48",
".X c #A57145",
"XX c #A97346",
"oX c #A5734A",
"OX c #AA754B",
"+X c #AD794D",
"@X c #A4784C",
"#X c #B17B4E",
"$X c #A27551",
"%X c #A57A54",
"&X c #AD7A51",
"*X c #A87C59",
"=X c #B17D52",
"-X c #887965",
";X c #947E63",
":X c #857E73",
">X c #6C832E",
",X c #7AA137",
"<X c #7C8546",
"1X c #809F38",
"2X c #87884D",
"3X c #978248",
"4X c #8A865B",
"5X c #958A59",
"6X c #96965B",
"7X c #A7814D",
"8X c #B58155",
"9X c #B58259",
"0X c #AA8D5F",
"qX c #8E856A",
"wX c #93816B",
"eX c #978669",
"rX c #979666",
"tX c #988A76",
"yX c #9D9774",
"uX c #8F8271",
"iX c #A08B68",
"pX c #A58D74",
"aX c #A8997B",
"sX c #A8976C",
"dX c #9EA36A",
"fX c #A3A869",
"gX c #AAA77A",
"hX c #B5AB7B",
"jX c #B2BA77",
"kX c #ACB36F",
"lX c #AED06B",
"zX c #B0D669",
"xX c #9C9285",
"cX c #A69983",
"vX c #B49C80",
"bX c #B7A88A",
"nX c #BBB787",
"mX c #BDB594",
"MX c #AFA789",
"NX c #C6B698",
"BX c #C4AC91",
"VX c #CEBCA3",
"CX c #CCC598",
"ZX c #D4C6A7",
"AX c #CBC5A1",
"SX c #DEF9A1",
/* pixels */
"+X+XOXOXOXA.&X=XOXN.+XXXXX#XN.S.K.XXXX.XXX@XJ.{.D.].[.t.H A t I.!..Xv.oX.X.X.XOXOX{.XX{.F.F.S.{.N.S.M.S.N.S. X&XoXA.+X+XG..XA.{.",
"G.OX=XOXoXA.F.S.G.A.+XOXXXOXS.}.J.OXXX7X8X8X=X|.(.b.z s Z s z !.(.W.V.W.W.(.XXXXOX}..XoXW.+X+XOX{.G.OX#X&XA.OXoXoX+XA..XG.A.F..X",
"OXS.N.F.A..X.XoXXXG.F.OXOXG.M.}..X.X.X@XOX=X9X$X1.d f m 6 o t.R.A.F.W.V.W.+X+X.X{.J.F.M..X+X&X+XOXW.XX=X&XF.OXOXOXXXXXB..X+XOXOX",
"OXOX{.OXM.OXOX.XOX+XS.{.M..XoXF.D.J.OX.XJ.=X9X'.y f D 6 6 < z $XD.+X8XoXA.A.A.A.{.W.+X8X.XA.W.@X/.D.!.$XoXR.S.OXoXOXXXS..X}.OXoX",
"OXOX+XW.F.+X.X.X{.&XF.M.XXXX.XOX&XW.H.A..XoX'.S s B 0 3 6 s s L.V.G.A..XJ..XJ.S..XW.oX&XOX$XoX!.Y.<._.$.$.,.&.&.W.W.N.N.A.G.XX{.",
"oX XW.A.W.&X.XOX+X.XF.OXOX8X+X{.H.D.B.G.!.R.c < m 6 q 6 0 Z g <.E.W.@XOX8XOX.X@XF.%XoX*X$X$XE.$.J w.$.o y t t n.D.A. XoXOX{.S.J.",
"oXS. X.XG.+X+X=XW.A.~.OX=X+XA.A.J..XJ.@X/.1.o Z 6 3 3 B Z Z y <.n.@XW..X=X&X7X+XoXD.%X].'.,.S S y.g f O.H J _.!.N.&X&X=X}.=XXXXX",
"=XM.F.F.A.A.F.A.v.oXoXA.A..X.X.XOXJ.OX.XQ.u f 0 4 q B B m Z Y.Y.].]./..XoXoX@XW.$X'.,.,.d.y.' 2 Z o.u.-.S *X$XD.&XOX&X9XOXN.S.S.",
"+XS.XXJ.OXS.~.D.F.{.|.W.N.&XOXOXOX}.W.].S < F q 4 e V w < -.[.@.v ].E.!.oX@X!.U.T.-._.-.5 s B o.9.9.q.-.b Q.R.F.D.~.|.F.M.{.}.}.",
"F.XXXXJ.{.OXA.A.}..X{.|.M.oX XOX X X!.$.o Z B 3 e e V 8 Z :...d g z J Y.].C.l g ).w.5 0 V 8.q.q.9.q.:.Z ,.!.v.OX{.|.M.OX&XOXOXOX",
"{..XJ.XX}.{.F.~.}.F.OXOXc.|.{.{.{.E._.t 6 C 0 0 e ( e 4 , 0 B B B Z Z y #.-.] s m 5 Z  .0.u.q.q.:...A b L.~.M..XoX{.{.G.+XOX.X+X",
"XXXXXX.X.X{.G.F.{.}. X{.M.A.{.|.!.].t.< f B q B e w 4 4 4 0 G 3 4 0 5 5 r.e.5 1 0 C 8.q.u.q.o.D ;.$.1._.].N.{.{.W.OX~.A.{..X+XJ.",
"#X#XJ.J.G.}.A.{.}.{.G.F.OX~.S.oX|.'.d < V q q e e 4 q , q > :Xq 4 , w -Xq.5 w B  .u.9.q.u...g t.'.Y.Y.].!. XN.{.~.|.OXA.G.J.J.G.",
"K.J.OX.XN.F.N.F.F.M.K.{.OXOXOXN.n.b.o F 0 q q G 4 4 4 4 q 3 3 3 , C uXC 5 w w X.9.q.o.| f ..y.).2.S b Y.!.|.v.oX{.oX XM.A.G.}..X",
"OXS.A.B.XXOX{.{.M.}.{..X+XOXOXN.!.J 6 e 3 q xX:X4 , 4 0 w w B 5 o.xXm 8 w e 0.9.q.9. .F F C V D D :. .z I.$Xv.{..X~.N.XXOXS.A.{.",
"+X+XG.G.OXOX.XG.M.M.J.+XXX.XF.$X*Xb m e 3 z.0.q q e B V G | V o.xXC w w e 8.9.8.9.q.0.9.9.9.q.O. .q.q...z b.v.A.A.A.J.XX#X+X#XA.",
"XXOX=XA.A.S.N.OXXXJ.S.S.S.G.!.oX'.d F 0 3 q q B G | | F B V V tXF 0 e B 8.G 0.0.X.9.9.9.0.0.| q.C u.q.-.S _./.OX~.S..X.X+XOXOXS.",
"#XXX=XA.S.F.{..XK.XX.XS.v..XoX$XP.s C 5 4 B G B B B B B w 0 tX..f 0 0 X.q q z.q.9.q.q.q.9.9.8. .X.u.q.q.-.$.$XR.D.N.A.F.XXXXG.{.",
"G..X{.v.{.}.OX&XOXJ.OX.Xv.W.*X$X,.Z m 6 B C B 5 , , > 3 , -Xe.5 m 0 0 B 0 B |  .o.8.8.u.8.X. .Z  .o.O.o.o.y <.E.oXW.{.F.M.N.{.oX",
"OXG.A.+XOXG.OX{.OXOXOXoX/.<.1.#.s 0 6 M C 0 ,  .tXxXz.X j.:X6 5 0 m V  .q.j.-X..z.j.e.q.9.q.r.m 8.q.C 5 X = o m.&X{.{.}.J.M.A.oX",
".X&XV.&XOX}.+XXXXXXXXXW.n.n [.wXm , w w 5 4 , -XwXwXmXf V B w V l.uXuXe.| 5 5 6 0 0 m m m Z V H | X.o.O.A y E m..X+XXX}.}.J.M..X",
"~.A.M..X=XOXOX.XJ..XXXW.n aXpXtX-X> 4 0 B V V ..f % e.l.r.  l.-X8.6 , 2 m 0 m 5 m B H 8.:.-.V 8 Z V ' z -.*X].W..X.XXXOXXX.XJ.A.",
"{.J..XB.+X+X.XXX.X.X&XW.E Y.S A d X w | F C V > 5 m % V `.m r.cXtXtXuXj.F B 5 0 Z 8.8.m H H o. .( g ,.Y.C.%X+X.X#XXXOX{.XXJ.J.S.",
"J.K.G.G.A..XG.XX+XoX&XW.!.b n 2.>.f M | B w w m B B , m X B qX' 1 5 m +.j.tXj.V 5 H o.m w.u.Z f :.& P.Q.A.A.8XOXXXXXXX}.}.}.J.{.",
"{.K.N.M.{.M.oXOX~..X&XOX/.v.H.Q.b d./ / V C m 0 4 4 > e.r.+ m qXk.M 5 8 5 > , j.j.r.( (  .o.o.O.u.d C.!.W.{.S.+X+XXXXXOXOX+XK.K.",
"{.N.M.{.G.S.M.v.S.N.M.v.G.+XoX/.'.b _ j C F F F V w % :X( 1 8 % +.MX+.7 8 w w w 4 5 e.q.D O.u.u.-.] /.{.G.{.A.M.XXJ.OXOXOXOX}.{.",
"D.M.F.G.{..XOXA.XXOX}.N.+X.XW.oXW.E.Z.= f F H B V V Z  .r./ w K ; 9 rXa.* 8 w w 8 8 6 , o. .V  .D g '.{.G.F.M.{.M. XOX{.OXOXXXXX",
"&XA.v.}.{.{.J.A.OXOXM.#X+X.X.X{.|.E.E.P.d m F B M V M + gXw 9 ) ) ; 9 4X+.* 8 8 w 8 6 5 , Z j.C X S (.(.F.v.~.{.{.M.c.N.N.N.N.x.",
"OXOX.XA.{.G.M.F.J.S.M.&X}.~.~.{.|.!.N.I.o 8.m G B B e e ) gX9 ) +.9 9 r i.5.1 w w 5 o. .s f 0 5 < & Q.@Xv.N.F.F.}.}.{.K..X+X{.A.",
"OX}.oX.XM.M.oXOX&X=XS.#X+X{..X.X|.N.|.].d h.m F B , e -X) ) yX9 ) 9 q 9 @ s.+.1 8 | C ..C o.q.o.D o l !.&XN.N.{.J.{.{.M.OX&XF.OX",
".XOXoXoXN.OX&X8X{.F.M.N.F.+XoXG.A.@X].].l u.Z F w 4 , 1 * +.<Xi.* 8 1 q > * f.+.1 8 o.u.q.q.q.f d o o ~.&X&XOXN.J.{.F.M.G.A.v.oX",
"OXOXoX.XA.S.F.A.G.XX#X.XoXA.R.n.(.C.n _.g D m H 6 4 , + M ) { K 9 ) 1 q * q 9 <Xh < m D u...N s T.].&.R.OXoXOXOXN.S.S.OXOX=X+XN.",
"A.G.F.G.OX+XF.F.&X&X}.W.%XV.&.i W i o _.g % m C m 5 4   qXqXk.; M p.) 9 w / 9 / h.* f :.x s _ J E.!.$X&XoXXXOX.XoXN.&X=X=XXX{.M.",
"+XG.A.+XOXOXOXM.{.oXoXW.V.E U i U.%.$.[.< + B ( , q.* i.AXrX9 9 +.p.f.i.p.p.+.9 { ' & ' >.c 1.R.oX$X&X=X&X+X.X.XOXF.S.G.F.N.J.+X",
"&X}.F.@X.XXX+X~.N.|.A.b.@.*.*.3XT.*.6.T.s 6 B 8 w.j 9 mXgX; K +.f.f.5.p.p.p.s.+.1 j.Z < 2.]./.n.A.F.F.{.A.A.G..XA.G.+XJ.A..X#XOX",
"+XW.G.+XXXOXOX+XA.R.'.i = 2 5X^.T Z.%._ % X M 8 h.O rXMXI ; +.f.f.f.+.k.X.) p.p.X.3 C s S R.{.&XOXG.oXv.OX+X.XB.F.+XOXOXJ.v..X.X",
"A.B.G.OXXX.XoX+XC.(.u ).eX` k # i 4.^.5XI 1 2 5 N s.gX5.; I f.g.g.f.) ( 0.e M p.9.B , , y ].&X&XoXoXA.v.=X=X+XW.A.#XJ.}.+X.XA.oX",
"OXG.A.+XOXOX%XC.<.j ;.AXZXBX6.6.5X2X7.$ *.gXs.[ [ MX4X$ 9 ) 5.+.i.p.9.( +.uXz.8.0.| 1 X c *X&XOX+X+X&XA.=X=X&X.XB.XX#XXX+X+XD.V.",
".XOXS.S.{.!.m.v ,.eXZXbXCXnX2XR 5.R 5X*.g.rXf.{ @ yXU ; * M ( 8 M 8.X.e 0.<Xl.G 9.X.0 X $.!.&X9X=XOX}.A.~.F.~.G.A.#XOXXXOXoXW.A.",
"XX&XoXA.$XL.y aXZXMXyXf.rXfXjXK : $ R : $ 4.: - r I ` gXyXj.| 3 w ( e e e X.M V B X.f X Y.R.N.~.XXOX{.M.oXOX+X{.B.K.+XOXoX&XW.F.",
"{.OX$Xn.,.S x aXs.+.4XK dXkX6X7.6X*.*.T 6.2Xr - K 5.6X5XnXAXmX8 z.> p.MX8 ( V w ( ( 0 X L.*X*XN.A.A.B.G.+X{..X.X#XS.S.OXOX{.M.v.",
"oX&XE.v #.y.bXaX/ rXgX<XdX3.Y K Q 6.6.# 2X3.3.3.K - dX6X6Xk./ * CX) p.mX+.>.k.j.1 8 f & J [.*X X.XXXV.G.OXXX.X.XJ.#XS.S.F.N.OX X",
"OX%XC.k ;Xs -.cXmXi.) I - $ hXR 6.=.v # L L ! >X3.r 4.7.- { k.; gXrXK yXk.O s.i.; >.e.f o J L.$XoX{.A.G.+XXXoX.XXX+XOXM.A.F.OX{.",
"+Xv.<.#.;X-XaXtXf 7 h ..{ ; sX%.6.V.5X$ 3.! ,XlXlX~ 2X: - gX) } 4.nX@ 5.4X@ k ` } g.aXeXZ -.J T.*X$XF.A.8X.X{..X.X+X{.v.F.OX+XoX",
"S.E.i #.A y.g d f / [ [ _ U hX3X=.Z.U.i L ~ lXzXSX4.lXY 3.rX4.- - nX- I 4X$ p 5./ { qXtX[ ;.vX#.*X*XH.v.+X=X XOX&X&XW.N.oX=X=X=X",
"N.oXi '.b ;Xu A < #.[ U >.hX6XR V.V.(.R Y ~ lXzXSX3.jX4.3.<X{ { r dXI 5.a.U I mXa./ eX).;.;.NX_.$.<.1.Z.iX%X$X%X$X$XC.|.*X&X&X9X",
"R.@Xn a ,.%.1.>.' i.# 7.hX6.a (.(.H.@X7.: ! >X,XlX~ fX7.K 6X} yX4.k.; `.%.6.U hXZXeXk.Z N ;XNXVXBXU _ #.$.<.'.1.L.P.b.P.E.*X*XoX",
"oXW.&.<.(.<._.x 5.2 5X0Xa %.(.@XG.7X.X7XR Y P L ! >X! T K dX9 @ <XI   I *.a.: rXAXr.  1 ;.eXaXpXbXw.bXBXBXS [.pXt.$.,.J 2.&.n m.",
"{.W.oXoXoXP.@.$.f aXY.i 1.(.+X@XA.+X@X7X7X3X1XQ p 4.T %.7.5.* 9 k.$ O h $ O ^.nXg.O 1 % ;.y.h.-X;Xj bXbXVX#.aXBXeXwXNXT.'.Y.a &.",
".X}.OXoXF.b.b U iX6.x I.H.+X+XA.A.F.XXJ.@X7X@XW U W 6.p ^.# = ..7 O = +.` g.hX6.+ + 1 ' 2.s < N N N ).T.iXk L.2.2.z _ @.$.&.m.$X",
"}.F.{.XX Xn.R.v J n Q.~.|.OX+XV.#X8X8X8XXX7X@Xa v T.k %.U ,.  7 2 . * $ 5.hXa.7 . 8 + 1 Z ' `.%   S #.l b c &.J %.<.I.I.!.oX|.N.",
"{.}. XOXN.v.E.<.n.~.~.oXOX&XW.A.#X#X#X8X#X+X@XV.C.v t v P.].&.u k = : : nXhX; h 8 + f -XN h.VXj d t.'.].!.].$X$Xn.|.|.|./.oX|.n.",
"{. XOXN.A.~.N.|.{..X.X+XOX{.M.W.OX&X=X#X+XS.!.V.+XD.H./.oXoX@XU.C.(.Q 2XCXCX*.I M h.cXk.% -XpXf d <.U.'.$X|.oXW.v.W.}.{.{.oXoXV.",
"}.{.S.G.OXOXF.M.{..X.XS.S.N.~.M.A.oX&X#X+X~.W.F.XXXX.X+XoX.X+XW.W.(.W 0XfX6.k nXAXaX( q.j.d.wX% x 2.b =./.oXXXoXW.A.}.K.{.{.+XW.",
"{.M.M.XX#XOXOX XM.F.S.A.J.OXOXG.v.N.~.|.~.A.v.v.+XJ..X.X.X.X+XXX.X@XQ p p   U 4X>.2 2 2 [ ' tX= T.T.c %.P.oX|. X{.N.}.J.OX}.OXM.",
"M.N.J.OX=X+X=XOXF.v.A.XXOX.XXXOXA.D.A.N.A.|.oXM.B.{.+XJ..XJ..XG..X.XE.W iX4.U i E >.& g ' ..' 2 #.] & z v ~.~.F.{.v.{.}.{.OXS.N.",
"M.oX{..XOXOXOXOXM.G..X+XJ.J..XS..XXXS.F..X.X{.OXJ.m.F..XoX{.oX=X.X.XW.V.=.*.W $X/.].@.< Z & ' -Xh.).:.g $.I.W.oXoXv.W.{. XN.F.OX",
"c.}.{.+XOXXXOXN.W.&X+X.XW.S.J.J.OXOXG.{.{.}.}.OX#XoXF.v.A.~.OXOX.X.XW.W.(.H.v.$X$X|.*Xl u . N :.r.% ..] %.U.F.v.~.M.F.oXD.v.N.|.",
"F.N.S.}.OX{.A.{.oX#X+X.XJ.OX+XXX.X@XF.~..XOXOXOX+XXXOXOXF.v.N. XoX XoX&XA.V.A.m.M.R.(.C.&.x ] :.D ;XD t.n n.v.oXF.A.M.c.m.F.~.oX",
" XOXS.A.G.A.oX{.J.{..XJ.J.XXOX+X8X+XM.{.}..X}.OXXX.X{.{.W.{.c.R.~.A.R.M.!.oX|.S.{.J.A.V./.1.y A s i.& k <.n.W.OX&X}.OXoXA.W..X.X",
"~..X~.S.M.K.OXoX#XJ.8XJ..X#X+X.X+X.Xv..XoX}.XXXX#XOXJ.J.{.}.R.c.m.G.W.A.F..X~.}.XX.XJ.J.V.b.@.y.y.. y Y.].A.W..XOXXXOX{.M.x.G.G.",
"{..X}.{.x.M. XOXJ.J.7X#X+X7X+X+XOXoXA.{.OXOXOX=XOX#XJ.}.OXOX{.M.oXoXW.m.W.{.}.{..XJ.XX@X.X!.=.o ] y.x U.+XXXM..X#X.XM.N.W.{.S.S.",
".X.XOX.XA.B.#X#X8XJ.J.J.J.+XXX.XoX.XM.A.M.~.@X&X#X#XOXXX.XS.M.R.F.OXW.V.OXOXXX.X.XJ.{. X+X@XoXv @.J c !.#X#XG.v.A.M.N.OX}.{.{.K.",
"OXXX}..XJ.A.S.J.XX#X#XJ.J.XXOX.XOXF.F.W.N.v.F.~.#XOXXXXXN.F.OXoX~.D.A.G.oXoX{.}.{.G. X~. X&X$X!.%.%.%X/.OX=X{.~.R.v.oX|.W.J.J.}."
};
