/* XPM */
static char *rev_81679747539[] = {
/* columns rows colors chars-per-pixel */
"64 64 239 2 ",
"   c #241D00",
".  c #2B1B02",
"X  c #2A1A07",
"o  c #341C01",
"O  c #341F0C",
"+  c #3B1903",
"@  c #1C2200",
"#  c #252301",
"$  c #2B2502",
"%  c #2D2B02",
"&  c #2D240C",
"*  c #2B2808",
"=  c #332A01",
"-  c #33240C",
";  c #3B240B",
":  c #322C0D",
">  c #3A2C0B",
",  c #3A2203",
"<  c #2C3200",
"1  c #34320B",
"2  c #3A340C",
"3  c #373604",
"4  c #2E2313",
"5  c #2E2810",
"6  c #342514",
"7  c #342B15",
"8  c #3B2B15",
"9  c #33261A",
"0  c #362A1B",
"q  c #3A2C1C",
"w  c #3B2714",
"e  c #3B321C",
"r  c #3A3413",
"t  c #3A2E21",
"y  c #372D21",
"u  c #3D3223",
"i  c #3F3529",
"p  c #451F00",
"a  c #432B01",
"s  c #41260C",
"d  c #472809",
"f  c #46370A",
"g  c #50370B",
"h  c #432B13",
"j  c #4A2E14",
"k  c #432C18",
"l  c #4C3215",
"z  c #43321C",
"x  c #4B331C",
"c  c #433C1C",
"v  c #443616",
"b  c #593313",
"n  c #52351A",
"m  c #553718",
"M  c #562F0F",
"N  c #633D1B",
"B  c #433424",
"V  c #4C3522",
"C  c #4B3B23",
"Z  c #423629",
"A  c #453A2A",
"S  c #4A3C2A",
"D  c #433B22",
"F  c #543A23",
"G  c #5B3E22",
"H  c #533E2A",
"J  c #5B3C28",
"K  c #4E3F31",
"L  c #394B06",
"P  c #454809",
"I  c #475908",
"U  c #484519",
"Y  c #57481A",
"T  c #4D5516",
"R  c #585A1B",
"E  c #64481E",
"W  c #586919",
"Q  c #527111",
"!  c #4B4323",
"~  c #4D422C",
"^  c #4C4924",
"/  c #5B4225",
"(  c #53432D",
")  c #5B432B",
"_  c #564927",
"`  c #585527",
"'  c #4D4232",
"]  c #544534",
"[  c #554A35",
"{  c #5C4B34",
"}  c #5B4C3C",
"|  c #574737",
" . c #5C5536",
".. c #64472B",
"X. c #6B4C2D",
"o. c #654826",
"O. c #744C2B",
"+. c #74552C",
"@. c #6A4D31",
"#. c #624E3B",
"$. c #664E35",
"%. c #63543C",
"&. c #6C553B",
"*. c #685838",
"=. c #73543A",
"-. c #7C5A3C",
";. c #795736",
":. c #69562E",
">. c #5B6724",
",. c #5C6435",
"<. c #69683A",
"1. c #786936",
"2. c #767539",
"3. c #656E30",
"4. c #5B4E41",
"5. c #564C40",
"6. c #5E5243",
"7. c #625344",
"8. c #6C5B43",
"9. c #685B47",
"0. c #785D43",
"q. c #664F41",
"w. c #6E6A44",
"e. c #6C644A",
"r. c #73644B",
"t. c #786748",
"y. c #787645",
"u. c #7C6D5B",
"i. c #786954",
"p. c #7D7657",
"a. c #8B572E",
"s. c #905C2F",
"d. c #865A35",
"f. c #8E5B33",
"g. c #835D3B",
"h. c #8B5F39",
"j. c #855531",
"k. c #925E34",
"l. c #925E39",
"z. c #8E6136",
"x. c #84613D",
"c. c #8C623C",
"v. c #88683A",
"b. c #956136",
"n. c #95623A",
"m. c #9A653B",
"M. c #9D693D",
"N. c #96663B",
"B. c #A16C3E",
"V. c #855E42",
"C. c #836345",
"Z. c #8C6443",
"A. c #83654A",
"S. c #836B4C",
"D. c #8D6B4C",
"F. c #8B6944",
"G. c #946541",
"H. c #946B44",
"J. c #9D6B42",
"K. c #936D4B",
"L. c #9B6E4A",
"P. c #9D6741",
"I. c #897749",
"U. c #9E7046",
"Y. c #9D724C",
"T. c #95744A",
"R. c #866A51",
"E. c #887657",
"W. c #957355",
"Q. c #9B7452",
"!. c #9B7957",
"~. c #936E51",
"^. c #A26D43",
"/. c #A46F49",
"(. c #A86E47",
"). c #A57145",
"_. c #A97346",
"`. c #A5734A",
"'. c #AA754B",
"]. c #A5794F",
"[. c #AD794D",
"{. c #B17C4E",
"}. c #A37551",
"|. c #AB7751",
" X c #A57A54",
".X c #AD7A52",
"XX c #A27B5A",
"oX c #AB7E5A",
"OX c #B17D52",
"+X c #B57F59",
"@X c #8A7B66",
"#X c #967C62",
"$X c #A67F60",
"%X c #759234",
"&X c #7C854A",
"*X c #84AA39",
"=X c #8A8358",
"-X c #9B8659",
";X c #8B9259",
":X c #94995C",
">X c #86914B",
",X c #A88157",
"<X c #B48154",
"1X c #B18458",
"2X c #93A758",
"3X c #93AF51",
"4X c #8D836B",
"5X c #93846C",
"6X c #968667",
"7X c #979564",
"8X c #978975",
"9X c #9B9176",
"0X c #8E8170",
"qX c #A39969",
"wX c #A79877",
"eX c #AA9274",
"rX c #9DA16C",
"tX c #A8A47A",
"yX c #B6A87C",
"uX c #B3B17C",
"iX c #A9AD6F",
"pX c #B2D86A",
"aX c #A5CD5A",
"sX c #9F9282",
"dX c #A99B84",
"fX c #B59D84",
"gX c #ADA587",
"hX c #B5A588",
"jX c #B9B787",
"kX c #BBB096",
"lX c #C7B998",
"zX c #C3B18D",
"xX c #CBBBA1",
"cX c #C2C38A",
"vX c #C8C797",
"bX c #E2FF9D",
"nX c #D4C6A6",
"mX c #D1CAA2",
"MX c #CCEA88",
/* pixels */
"[.[.'.[.`.m.[.OX'.k.[._._.{.b.m.M.).(.B._._.).^.b.`.'.N.N.`.L.j.f.^.f.(.(.(.`.'.[.^.(./.l.P.b.B.b.N.l.G.N G.^.[.`.m.{.[.B._.k.^.",
"M.'.+X_.`.b.m.m.M.b.[._.(.'.m.^.`.'._.OX{.<X<X_.^.b.l.`.'.f.J.H.d.Y.f.^.(.^.'.)._.`.'././..X.X).^.J.}. Xp n.|.^.`.|.k.^.B.s.m.(.",
"[.m.k.m.b.).^.'._.M.M.[.'.M.k.^.).).)._.[.{.<X_..Xk..X[.[.).`.h.b G.L.l.J.|.'.'.^.P.m.k./.OX[..X'.J.}.H.a G.`.[.'.'._.f.).{._.|.",
"_.(./._.b.'.'.)._.OXk.^.k.).'.m.b.)._._.(.[.<X_.m.^.'._._.).L./.d Q.oX}.z.n.k.k.^.^.|.OX^.b.M.'.`.l.L.b d.H.N.'.`._.'.m.^.^.[.(.",
"[.'.'.J.m.[.).^.)..XN.k.)._.).'..X).b.k.).].[.M.'._.+X.X(.P.P.o.d C.Z.L.).'.U.m.).J.[.[._.'.).J.J.h.Z.m d.|.`.z.^.^.k.k.k.B._.^.",
"`.(.^.b.J..X_.'.'.^.N.'.[.<X[.^.P.b.k.^.M.n.b.N.^.[._.[.[.^.Q.m d C. X`.1X`.)._.N.[.'.[._._.'.`.Y.g.X.m H.U.[.).b.l.(.(.'.^.b.B.",
"(.m.).^.M.[.[.OX).k.P.'.OX'.b.b.^.^.(._._.].m.'.M.m.m.'.'.}.K.l h -.L.}.OX,X'.[.).b.|..X{.'./.oXXX=.A.J Y.`.`.J.k.|..X+X^.OX_._.",
".Xk.M.m.b.b.m.b.f.`.`.b.b.).)._._.^._._.'.).b.'.[..X'.B.N.}.D.j h h K.U.`._._.B._.{.k.^.b.b.n.Z.-.$.j ) K.].[.n..X|.OX+X[.k.m.b.",
"{.m.B._._.m.P.m.M.^./.J.l..X`.[._._.B.)._.B._._.OX.X[.).J.K.D.x k x 0.L.`.`.`.'.{.OXs.M.^.`. XZ...8.z J V.}.m.b.m.m.^.m.b.^.^.).",
"m._._.B.^.`.b.b.^.^./.(.k.(.'._._.B.B.[.[.b.{._.'..X'.^.h.H.A.B k x s W.`.(.'.`.N.b.[.^.).J.XXV.i.k } V V./.f.|.^.).k._.[.'._.[.",
"B._.B._.^.).n.P.(.M._.'.a./.^.^.M.B.^.'.M.).)._.^.[.`.b..XZ.J k q V x G L.P.l.^..X.X'._.`.}.$X=.) V q.V V.P.l.(.).^.^.M..X'._.[.",
"_._.).).^.^.M.M.^.(.(.^.k.b.^.^.M._._.'.b.[..X<X[.'.'.f.H.~.F 0 Z B z ..}.l.l.^././.(.'.`.Y.C.R.w } q.J V.G././.^.'.B.k.^.^.[.^.",
"{.{.B.B.P.).m.P.(.^.m.M.'.m.l._.).).m.N.b.m.'..XOX^.P.H.Q.X.k t B V s R.}./.P.^.P.a.n.N.K.x.E.z S 7.) 0.Q.L.l.^.^.^.'.b.P.).^.M.",
"B.B._.).b.m.k.M.m.s.B.(.[.[.'.k.b.m.'.'.|.m.l.b.M.b.n.g.D.x t k B z 0.W.}.}.|.l.n./.`.`.F.t.{ z #.) q.!.Q./.k./.^._.^.k.b.P.^.B.",
"_.m.b.b.(.'.^.^.k.(.^.(.[._.'.l.M.[.).B.(.P.'.b.^.`./.Q...V q u V w D.W.~.Z.oXl.`.`.}.K./ i.w } $.0.Q.Q.H.Q.h.J.^.^.k.'._.m.b.^.",
"[.[.M.m._.[.^.B.s.k.B.[._.'.m.'.[.).B.).).'.'.b.^.).Y.!...w q B Z z =.W.J s V.V.K.T.!.@.s O V 7.J q.W.;.M A.h.l.k.k.B.'.{.'.{.m.",
"B.{.OXb.n.N.b._._._.m.m.m.B.^.(.).^.).).{.{.[.b._./.Q.D.x q q u Z q 0.R.h z F x -.~.0.R.V y 5.q.H R.0.J J F 0.XXJ.m.(.`.'.'.'.N.",
"<X_.OXb.b.m.^.).B.B.(.b.s.B._._._.[._.{._._.'.b.`.}.Q.x z q B Z Z w i.H q A B B h ) 9XV t 5.7.5.} i.V #.7.#.x =.Z.l.m.m.'._.m.J.",
"M.).J.f.^.(.[.[.{.B._._.s.m.{.(._._.^.`.'.).'.h.V.D.#.B q q Z Z Z 6 z z B Z Z u { 5XV t 4.6.6.y 9.K #.q.7.7.%.F W.L.^.N.b.b.^.).",
"'.J.k..X'.M.'.^._._._.[._.s._.'.`.'.).'.'.J.z.Q.V.V V k q Z Z B Z 9 B B B t 0 i.@X8 Z 4.7.7.K y 4.q.q.K 4.6.7.$.n Y.Y./.M.b.b._.",
"^.|.k.OX'.(.OX(._.B.[.B.B.k.^.`.L.`.`.L.N.F.Q.A.V V k y u Z B i B B t Z 4 [ @Xu.9 B 6.6.6.6.5.6.q.K K 7.4.q.7.7.F A.Q.Y.].J.s.'.",
"^.b.k.^.OX_.[.).B.(.B.B.B.M.m./.}.h.O.d.~.D.@.x Z k t B q 7 & e B B B B ] @X] 6 S 7.6.5.6.6.6.6.q.9 r.S 4.7.7.7.$.j d h._.).J.z.",
"^.J.^.s.{.[.^._.)._.'.^.m.M.l.}.X.m A.t.h J V B q 0 q 0 r.8X8X[ & Z } @X9.0 y K 5.i y y 9 5.7.6.7.| K 6.4.7.4.] B , p +.`.).M.b.",
"^.P.B.M.s.).B.'.'.'.'.^.^.^.h.d.G zXwXhXi.y k t t q q S gX@X0XxX6 e.u.e 9 y y i y 9 9 9 K 6.4.4.4.5.5.K t t 6 w . l F.T.).).B.).",
"^.^.k.s.^.s._.'.M.(.'.'.).f.N.H.eXR.j C K 4 Z Z y t y 7.| & 4 0XZ 8 k O 0 y y 0 9 0 y y t t t B t 0 9 4 } i.8.x @.Q./.`.'.[.B.B.",
"^.l.k.^.m.m.k.k.k.b.k.s.m.`.`.H.XX..$.t.9 B y t Z Z Z 9 & q 4 9 @X( u.hXe.u 4 4 0 0 9 4 4 0 0 y Z 6.sXi.] w o X.Q.L.|.'.[.[.B.(.",
"l.k.m.B.^.).'.m._.[.).b..X'.J.`.N b V.A.w 9 y 9 y B Z B 0 A Z 4 q 9.6 r.0XdXgXgX9X@X@XA 8XsX8X@Xu.K t 4 w d X.T.h./.'.^.(.[.(.(.",
"|.l.f./.^.^.P.k.[.'.k.{..X).`.J.K.O.V.R.O t t y t q t 9 0 0 0 X @Xz u.. & 5 u Z ' | ' 6 0 6 9 y t u ] S h =.K.L.^.f.s.k.m.k.l.s.",
"{.|.(.b./.J.k.m.^.b.f.OX).M.^.J./.L.Z.V.O q B B t Z t t q q 9 S u.[ i.5X6 7 7 7 0 0 9 6 y S K | K t t w F Z.P.m.^.(.^.^.(.[.^.l.",
"(.(._.).k.k._.'.[.OXm..X'.).).).L.n.L.Q.O w y Z B 0 Z B t q & sXc wX# %.9X6 q u 0 Z Z B B k S | 5.} 7.] =.Z.f.^.^.^.^.k.[.|.l.[.",
"_._._._.l.|..XOX^.M.b.l.m.[._.M.l.'.}.Q.m O t t Z t y y i e & gX: 5X{ - } 8X] 0 q K 4.q.9.@X8.i.6 7.#.{ V.XX}.k.^.^.m.k.B.m.k.^.",
"_._._.(.b.b.m.m.m.'.OX(.`.b.M.k.).^.'.}.@.h t y y Z y y 0 e : tXe c hX$ 7 6 u.dXZ 9 B | K k 8.V K 7.7.H =.Q.`.|.l.m.k._.|.OX{.b.",
"k.B.b.M.[.[.M.b..X{.M.B.'.k.m.P.h.^.}. X~.; 8 t y y ~ y y 7 * 9Xr % y.y.7 e 5 0 u 0X} 9 q B ] } 6.6.~ { S.W.`.`.).k.[.OXOX'.J.k.",
"[.m.M.[._._._.b.).)._.B.k.^.oX`.m.h.P.}.Z.F O q 0 7 e i u e * &XU 1 < gX! 5 q 0 6 6 A u.0X} q 4 e Z S ( l Q.`.`.'.m.b.M.m.b.^..X",
"'._.b.[.)._.[.U.l.).z.b.^.M.J.^.'.Y.n.Z.~.x O e u 0 0 y u e # U *.: 1 ^ p.$ 7 e q e y 9 q B 7.Z u.t 6 w h + c.`.b.J.[.^.b.).{.'.",
"{.B.B.[._._.'.[.b.N.[.[.'.`.[.]. XY.X.V.V.j 7.C 0 q 4 X 7 7 [ ! 7X5 1 # r tX5 8 0 q t 0 6 6 q 6 0 9 O + + g.G.f.H.'.'.'.B.k.).).",
"k.b.M._.'.`._._.n.(.`.).'.].H.d +.g + -.W.x k 7 & 7 S u [ e 7 : 9X1 ^ # * ! 4X% e 7 t | Z R.r.} } } j 0.XXoX'.).b.[.(.(.{.^.b.'.",
"'.M.b.[.'.[._.m.N.`.`.`.U.v.o.P 1.I.-.XX!.S.- %.6 @X6 [ 7 =Xw.1 ^ * w.* # 5  .p.* e 0 ] 4.K | q.V j o.Z.oXOX{.).b.'.|.'.'.[.N.f.",
"_.'.b.b.J.^.k.k.f.n.H.}.-.;.Y -X:XE 6X!.!.S.&.8.r.!   > tXmXtX=X1 U e. .r 5 1 ^ i.: 0 q 6 V ) ) @.Q.Q.n.b.m.m.M.b.[.|._.[._.B.b.",
"_.[.'.b.'.b.J..X`.c.h.j m o 2.I.a v.m g g , ... w.$ ^ lXvX7X2 % 1 ` ,.w.,.e.~ 7 : 4X~ 0 H B r.S.Q. XJ.l.[.'.[.^.k.M.'.'._.'.^.b.",
").[.).z.s.m.J.L.Y.-Xj W.nX!.*.3 P 1.qXqXY v U     ^ jXiX<.$ 1 2 ` w.U ^ D r e.,.i * p.[ q ] z @.C.z.f.G.[.)._.B.{.m.b.|.|.J.f.f.",
"_._.M.b.U.1X,XY.;.d t.xXnXmXqXR >X=XR P f cXlX% <.cXiXP % r ^  .w.w.w. .[ 5 D e.e.[ 5 ' H - { x g.Y.n.P.|._._.).(.|.P.h.j.l.`.`.",
"_._.s.U.[. XXXE I.lXnXvXlXuXcX3 f % rXqX<.w.` U 3 uXL % : : ^ [ ` <.w.w.9.y 7 [ 6.e.6.' w X . o d.Y.G.P.'.'._.).(.oXK.b M G.}.'.",
"[.b.B.1X XoX-.eXkXgXw.^ ` cXuXR 2 = ` ` 3 ;XT @ < U : <.w.%.^ : * 2 r ^ ,. .A u 7 6.6.i 8 i.W.D.Q. XG.P.+X(.^.^.).Y.m W.O. X`.`.",
"l.P.G.h.=.l J yX .<.vX&X2.cXy.3.7X7X^ jX&X;Xy.L L < ;X>X7XlX7X! w.r * ` 5 e ' 5.} [ [ A k 6X!.Q.oXoXm.l.|.+X(.`. XH.eXV.;.,XoX+X",
"k./.L.;.W.@X8.8X4X` ,.&X2X` P $ , P :.R 3.T L W L @ :XuX:X` # @ tXgX# p.gX* 5 7 ~ 6.Z kXO ..C.Z.n.d.l.l.+X.X}. XQ.t.fXj  X.X[.+X",
"P.`.Q.n hXw t.lXlXw.1 % $ = yXY T.v.T.= W L Q %X&XL < * @ 3.` U ` vX1 r kX# L  .* e ~ kXS { j ..F. X|.l.|.oXoX!.=.wXE.m Y..XoX_.",
").L.K.+ eXgX9X8.r $ ~ ! *.h qXY F.,X-Xf T Q %XaXMX2X2X>.3.>X7X` < cXU @ jX3 & i._ 7 ~ p.S wX0.#X..K.Q.h.V.H.-.Z.lX/ m x.G.n.n.b.",
"^.L.x./ $.t.C { - U C 6X> y.zXv.v.,XT.-XI Q pXpXbX3X3X>.2X>.iXL @ rX^ 1 uX= % *.p.z p.5X> i.j xXeXt.j m A.@.+ zXlXzXd `./.m.N.}.",
"`./.W.D./ &.z k t._ . ` qXyXv.g v.N.U.v.P I %X3XpX%X3XW %XW :X:X% 7XU : 7XU U qXhX .r.hXz r.H lXlXlXfX#XxXlXwX5X~.G ;.Y.`.P.l.`.",
"J.P.G.M ~.x w t.> U yXyX:.a v.v.[.1X1X,Xg R I Q >XI >XI I &Xy.P 3 7X% c $.1.> y.nXnXH x ( - t.9X6X6XdX0.lXwXlXh d Z.Y.J.^.).(.n.",
"^.`.U. XG.m n l E.zXE a v.,XT.N.[.<X<X,XU.>XR P I R T 2.I :XU ` <.` *.> *.` P jXvX9.. 8.X e.@XR.F.W.&.&.S.=.:.-.V.Y.^.`.).^.).f.",
"^._.'.n.c.O.C.wXD.f 1.Q.,XB.v.M.'.{.OX[.,Xv.T.1.f v.<.I.Y y.v r p.% U > $ _ cXqXx ) &.6XC . o o , j ; l g.d.;.Y.h.L._.^.M.'._.k.",
"_.^.b.M.'.Q.d d ;.Q.Y.N.z.N.N.z.b.).{.OX[.M.H.;.a Y ~.+.I.= $ c r   U ` y.jXE.= . ! &.t.e ] . 0.#X!.W.Q.Q.U.U.Y.P.m.(.^.).^._.M.",
"B.s.k._..X.XY.T.c.N.n.b.U.`.[.M.f.b.M.).M.z.d.E +.T.X...l l ; .   > 3 ` vX=X.   . w k #.C nX( ; =.C.-.g.Y.`./.`./.f.`.P._.).'.b.",
"k.k.(.'..X.X.X[.n.z.N.'._.)._.[.b.N.b.z.N.B.}.z.v.F.a E Q.T.m s d f f vXmXy.  = - z O u.] lX( { h #XJ X.o.L.P.P./.a.^.`.).'.b.b.",
"l.'.^.^._._._.'.z.m.(.|.^.^.^.m.(.'.N.m.`.).^.`.P.d.c.Y.`.Y.Q.$X!.I.-XtX9X<.y.y.y.5XkX{ - @X5X8 x 6Xo x ..E K.`.(.f.P.^.`.l.b.|.",
"a.^.B.{._.).{.s.B..XOX^.^.m.B.^.'.[.N.J.U.).^.[..X`.H.f.z.P.|.`.Y.G.o > # = wXlXwX*.X ( dX- @Xx C x dX( x @.G.l.m.f.m.^.n.k.l.`.",
"m.l.m.(.[.^.k.^.'.oX[.).B.[.[.)._.'.N.J.).'._._.[._.'.'.G.f.b.`.).U.:.I.Y =X:.m o / V X H @Xq t.8.E.O w E.$.O./.m.b.k.k.f.m.B.).",
"(.(.b.k.^.b.`.^.P.`.).B.B.B.{._.OX[.k.J.^.).).[._._.^.^.^.^.f.m.P.c.v.Y g a x.F.W.n + z z w S z  .%.6 r.B F g.'..X).'.`.k.M.).).",
"B.^.B.b.k.M._.'.`.'.{._._.[._.B.[.'.f.`.`.).)._.{.'.).^.^.).m.a.f.N.H.v.H.T.N.Y.Y.!.m V k ( 8   8.E.z @X8 h T.`.'._._.(.k.a.M.J.",
"^._.^.^.f.k.^.[._._.{._.{.{.{.{._.].b.J.'.).[.{.'.[.^.).`.'.P.k.).].M.a.P.U._.).).`.!.j j x m ; t.$.x O &./ h./.OX_.k.b.^.^.m.n.",
"_.).'._.k.f.[.{.[._.).(.^.'._._._.).f.b.b.P._.OX{.[.'.).'.n.k.b.N.`.U.b.,X_.).B.).^.L.T.H.x.Q.g.Z.m R.v S.=.;.f.b.k.k._.^.B.^.M.",
"_.'.^.).^.s.b.B.(.'.'._.B._.[._._.b.M.J.b.f.m.B.[.]._.).b.N.'.'.P.m.N.N.U._.B._.B.B.L.L.U..X`.Y.Z.D., *.=.X.L.J.G.f.'.B.B.B.^.^."
};
