/* XPM */
static char *rev_71679747538[] = {
/* columns rows colors chars-per-pixel */
"64 64 240 2 ",
"   c #241B01",
".  c #2B1C04",
"X  c #2C1C08",
"o  c #321D05",
"O  c #391B03",
"+  c #1F2400",
"@  c #2D2401",
"#  c #2E2A02",
"$  c #2D220C",
"%  c #232400",
"&  c #3C2204",
"*  c #33230D",
"=  c #382807",
"-  c #3A350D",
";  c #383708",
":  c #332513",
">  c #3A2611",
",  c #362A15",
"<  c #3C2A14",
"1  c #362B1C",
"2  c #3A2C1D",
"3  c #342619",
"4  c #3C3314",
"5  c #3D311D",
"6  c #3B3716",
"7  c #2D290D",
"8  c #3B2E21",
"9  c #362D21",
"0  c #3D3223",
"q  c #393124",
"w  c #472807",
"e  c #4B330C",
"r  c #483605",
"t  c #442C14",
"y  c #4A2D13",
"u  c #422E1A",
"i  c #432913",
"p  c #44321C",
"a  c #4B341B",
"s  c #433B1D",
"d  c #493817",
"f  c #51361A",
"g  c #543B1C",
"h  c #5C3B1B",
"j  c #573616",
"k  c #55350E",
"l  c #643C1B",
"z  c #433523",
"x  c #4A3521",
"c  c #453925",
"v  c #4B3B25",
"b  c #43362A",
"n  c #463B2B",
"m  c #4A3C2B",
"M  c #543C24",
"N  c #5B3D23",
"B  c #513E2B",
"V  c #553B25",
"C  c #4C3E31",
"Z  c #423930",
"A  c #603F20",
"S  c #374305",
"D  c #454507",
"F  c #48590A",
"G  c #4B441B",
"H  c #494616",
"J  c #554619",
"K  c #4B5313",
"L  c #565619",
"P  c #64421D",
"I  c #69461F",
"U  c #577319",
"Y  c #58651B",
"T  c #4D422D",
"R  c #4C4423",
"E  c #5D4125",
"W  c #54422B",
"Q  c #5B442D",
"!  c #594B28",
"~  c #5A5626",
"^  c #4E4332",
"/  c #534533",
"(  c #554B35",
")  c #5C4A34",
"_  c #564A3A",
"`  c #5C4D3B",
"'  c #574634",
"]  c #5B5434",
"[  c #5C523D",
"{  c #5E593A",
"}  c #595333",
"|  c #63472B",
" . c #644A2C",
".. c #6B4B2C",
"X. c #674624",
"o. c #744B29",
"O. c #69582A",
"+. c #74532D",
"@. c #634D33",
"#. c #6B4D32",
"$. c #614E3C",
"%. c #604733",
"&. c #635C34",
"*. c #63523C",
"=. c #635C3D",
"-. c #6C5A3D",
";. c #6A5437",
":. c #745335",
">. c #7C5936",
",. c #755A3D",
"<. c #7B5B3C",
"1. c #785637",
"2. c #734F34",
"3. c #646927",
"4. c #6A6739",
"5. c #6D7535",
"6. c #76773E",
"7. c #766932",
"8. c #5E6720",
"9. c #5C4E41",
"0. c #5D5243",
"q. c #5F554B",
"w. c #615242",
"e. c #655B42",
"r. c #695A47",
"t. c #785E43",
"y. c #624F40",
"u. c #6C6B45",
"i. c #6B6547",
"p. c #72634C",
"a. c #7C664D",
"s. c #786745",
"d. c #7A7548",
"f. c #6D6351",
"g. c #776957",
"h. c #7C7257",
"j. c #7F7261",
"k. c #8E5A2E",
"l. c #8C562F",
"z. c #835A34",
"x. c #8D5C33",
"c. c #845E3C",
"v. c #8C5E3A",
"b. c #925E34",
"n. c #945F3A",
"m. c #905B2F",
"M. c #8D623C",
"N. c #886138",
"B. c #946135",
"V. c #996336",
"C. c #95623A",
"Z. c #9A653B",
"A. c #9D693D",
"S. c #96693E",
"D. c #81723B",
"F. c #A16C3F",
"G. c #825E42",
"H. c #846242",
"J. c #8D6443",
"K. c #8D6B4A",
"L. c #856849",
"P. c #936643",
"I. c #956A44",
"U. c #9D6B42",
"Y. c #946D4B",
"T. c #9B6E4A",
"R. c #996540",
"E. c #857849",
"W. c #95704D",
"Q. c #9C724C",
"!. c #997448",
"~. c #826C54",
"^. c #876E55",
"/. c #87755A",
"(. c #957354",
"). c #9C7452",
"_. c #997959",
"`. c #A36D43",
"'. c #A46E49",
"]. c #A86F44",
"[. c #A57145",
"{. c #A97446",
"}. c #A5734A",
"|. c #AA754A",
" X c #A5794D",
".X c #AD794D",
"XX c #B17C4F",
"oX c #B0764E",
"OX c #A37652",
"+X c #AC7651",
"@X c #A47A54",
"#X c #AD7A52",
"$X c #A57B59",
"%X c #AB7E5A",
"&X c #B27D52",
"*X c #B07E59",
"=X c #857965",
"-X c #887A65",
";X c #9B7E62",
":X c #A17E60",
">X c #6E862D",
",X c #7F8549",
"<X c #848549",
"1X c #888656",
"2X c #968758",
"3X c #94945A",
"4X c #8E8D4E",
"5X c #A8835A",
"6X c #B48154",
"7X c #B38159",
"8X c #8CA54A",
"9X c #8E8367",
"0X c #968668",
"qX c #9B9365",
"wX c #988B76",
"eX c #9C9178",
"rX c #8E8374",
"tX c #A4996C",
"yX c #A89777",
"uX c #A48C6A",
"iX c #9EA762",
"pX c #AAA477",
"aX c #AFB075",
"sX c #B2CB71",
"dX c #ACD267",
"fX c #C1E579",
"gX c #9F9586",
"hX c #A79984",
"jX c #ADA583",
"kX c #B7A888",
"lX c #BBB882",
"zX c #B8AC96",
"xX c #BBB4A4",
"cX c #C1AA8D",
"vX c #C5B896",
"bX c #CAB996",
"nX c #CFBCA3",
"mX c #CCC597",
"MX c #E1F99D",
"NX c #D6CAA5",
/* pixels */
".X.X|..X}.V.+X&X|.B.|.{.}.XXn.V.A.{.'.`.{.{.F.F.Z.{.{.Z.C.'.T.T.H.$.V i P.'.'.+X|.[. XU.Z.Z.V.F.B.B.B.Z.n.n.'. X}.C.|.|.`.}.C.`.",
"A.|.&X|.[.n.Z.V.A.V..X{.{.|.Z.`.{.}.|.&X&X&X6XF.F.V.B.[. Xv.J.#.t i i #.T.'.{.}.{.}.{.}.U.XX.X[.U.A..X#X+XR.}.}.}..XB.[.A.C.V.'.",
"oXn.n.Z.V.].[.}.{.F.A.|.|.A.b.].{.[.}.{.|.&X6X{..XB.|.%X@XG.y a p 2 > #.T. X.X}.[.Z.B.B.[.&X|.%X+XR.Q.5X+XJ.Y.}..X{. Xm.].+X.X.X",
"{.|.`.|.n..X}.[.}.oXV.`.b.[. XV.n.`.|.{.].XX&XoXZ.!.OXQ.o.y x 2 2 u < w z.n.n.V.[.A.#X&X[.B.T.}.T.z.>.A h w O l T.{.}.V.}.].|.'.",
"|.|..XU.Z.|.[.`.}.|.Z.b.{.{.[.{..X`.V.B.`..X}.A.|.OX_...t u u 8 2 2 u f I. X`.C.[.`.{. X}.@XK...| t.V y & i h c.U.`.B.b.b.R.|.].",
"}.{.`.B.`.#X[..X X'.Z.{..X&X.X`.F.B.b.U.`.V.V.C.Q.(.f t u 2 2 3 3 u > N Y.}. X|.C..XOX%XT.2.#.a.v p < v Q N (.OXC.B.[.}. X`.V.U.",
"'.V.'.`.A..X.X&X[.b.R..X&X{.V.V.F.F.}.}.]..XC.@XH.a t 2 8 3 8 2 i a #.(.5X%X X XQ.J.Y.<.t.t.t.u , b _ 9.) ,.).U.b.{.&X&X`.&X|.}.",
"&Xb.A.Z.B.B.V.B.b.}.[.C.C.[.[.}.|.F.}.}.|.'.J.K.M u z 2 8 1 8 2 i a.(.:...Y.).Q.K.<.| L.B 2 b _ w.0.9.0.*.N T.C.|.#XoX&X.Xn.Z.C.",
"XXV.F.{.{.Z.A.n.Z.`.'.`.n.+X}..X{.[.`.].#XY.K.i a b u 3 2 2 8 u $.~.2.u a x #.:.O ;.a.u v ` 0.q.0.w.w.*.E G.P.R.R.I.!.Z.m.`.{.'.",
"Z.{.{.F.`.].n.n.`.].'.'.b.'.}.|.`.`.`..XOXG.y u b 8 3 2 8 z b 2 u u x m B b y r.) > z ` w.w.0.0.w.*.` Q g :.z.+X'.}.B.}..X|.}..X",
"`.[.F.{.[.[.V.U.].F.|.'.l.`.`.`.`.A.'.+XY.N u p 2 2 2 z b m n n b C b m z z ~.y.2 T 0.0.0.w.w.w.) %.#.:.J.I.M.].}.`.T.Z.6X.X{.|.",
"{.{.{.[.`.`.A.A.U.}.`.`.b.Z.`.`.`.].OX@X2.i m 8 3 8 z b m m T Z b zXj.b z =Xr.z ) w.0.0.w.0.0.` V G._.(.W.M.U.].`.{.A.B.F.F.{.F.",
"XX.XF.F.A.].C.U.].`.Z.A.|.A.V.|.`.'.T.H.i x b 9 8 q C Z n n n b b 8 8 2 =Xr.2 _ w.0.q.9.9.9.C / a.^.L.| X.Y.M.T.F.F. XV.A.F.F.A.",
"A.F.|.{.n.Z.b.Z.A.b.Z.]..X|.}.b.n.R.T.:.i C 8 q 8 9.C b b b q 2 9 9 8 g.=X1 _ 0.0.w.9.q.0.Z n m ' Q V $.V ..c.T.[.F.[.x.B.F.F.F.",
"F.A.B.b.}..X`.`.b.].`.{.oX|.|.n.R.@X).h u b q q q.zXC 8 1 1 q 0 b b w.hX2 m 0.q.q.q.9.0.q.0.0.0.y.y.$.y.y.@.E Y.}.U.b.{..XA.V.[.",
".X.XA.Z..X{.[.A.x.b.F.|.{.{.Z.}.#X}.G.i m u q Z -XC 9 8 q Z T 0 2 8 gXC b 9.0.q.rXgXf.9.9.0.0.0.' _ m w.w.$.Q 2.M.b.U.}.&X#X.XB.",
"F.6X6XM.n.V.C. X`.].V.C.V.A.`.[.`.Q...i m 2 0 q 1 3 z n b q 1 1 : =Xr.1 / 0.0.0 9 9 9.0.w.9.w.w.' 9.b 9.0.w.$.%.Y.C.'.'.|.|..XC.",
"6XF.6XB.B.Z.`.`.F.F.].Z.x.`. X[.OX_.a x z 2 9 1 8 n z 1 1 3 1 1 ' rXz 8 w.9.9._ _ _ 0 b / _ ` ` ' ' C / ) 9.w.V 2.J.R.R.oX'.V.`.",
"F.}.A.x.F.{.|.oX|.|.|.[.b.Z.@XK.H.,.> m 0 1 3 b b 2 : =XhX-X: X f.$., z m / p.-XwXeXg.r.f.f.r.f.f.f.r.g.=X9.p u y J.'.n.n.n.`.[.",
"{.F.B..X{.F.{.F.{.|.{.{.'.M.1.y ;.g : n 0 3 b b 1 : -XyXg.yX~.X > * W f.wXwXr.c : : : $ u z 0 z 8 u : : $ : X * O w l.'.`.b.C.|.",
"T.#Xb.+X|.{.XX]..XF..X{.`.o...kXkXjX0 n C C z 0 0 1 rXv : m ) h.) c 9Xw.2 : b C ^ ^ n m ` 0.0.0._ C C / ' %.W N X.o.x.}.}.`.k.|.",
"U.C.b.].&X|.|.{.F.F.F.F.'.o.;X;Xi M : n z z C n b 1 m * 2 $ 2 ) h.$ ` [ 1 C _ 9.0.0.0.0.0.0.0.0.w.C 2 2 z N a :.).}.}.|.}.[.`.b.",
"`.`.`.b.&X+X].}.}.[..XF.Z.z.K.t.2. .o u ^ b n n 0 1 : X 2 : r.2   5 [ g.wXwXj.9._ ) 0.0.w.) m ' $.9.9.b V K.Y.}.%X[.{.[.{.F.F.b.",
"`.A.A.A.b.}.`.{.|.{..X`.T.T.h :.j _.y u m n 8 8 q ^ b z 1 : f./ , p wX*.: : 1 g.wX0.z [ w.` M r.B *.w.$.g <.5X+X{.{.{.{.F.{.F.].",
"`.`.b.m.`.b.}.{.U.[..X}.[.k.M.I k J.G.Q p ^ b 1 2 1 1 z n 0 j.T 1 2 : =Xw./ n 2 $ / h.C ` w.B ~.-X) ' %.#.Q.Z.+X|.{.{.{.|..XF.F.",
"F.b.b.F.A.C.b.x.C.n.b.b.Z.{. X[.}.R.H.N @.p / m z 8 1 8 1 1 =X' 1 1 2 , h.f.0./ 5 , 9 r.r._ ` B B B y.A :.Y.C.b.{.`.{.oX{.oX].F.",
"n.m.F.n.`.].{.V.].|.].n..X|.A.|.`.Z.OX>.d ;.z B n n z 8 9 1 =X/ 2 0 m z , =Xe.0.[ / C 9 b f._ 0.$.$.$.V P.R.x.[.b.`.}.`.{.|.].}.",
"oXn.b.].`.`.`.B..XXXb.XXoX`.`.`.`.A.I.W.W.E ) W m m n 0 j.^ j.0 3 / w.0.c 4 rX=.0.0.w.[ b 3 w.^ ' $.B N J.v.U.A.`.b.m.b.B.b.b.m.",
"oX|.}.b.'.U.b.V.`.b.m.&X`.F.`.U.'.`.v.M.T.<.a v m m n 0 xXrXrX$ 1 _ 0.0.0.q R f.} [ 0.0.0.^ 3 _ 9./ u #.c.n.Z.A.].].`.F.F.oXF.V.",
"|.`.{.[.b.b.{..XXX&XA..X.XF.].].`.n.'.}.C.J.f a v m m Z 1 3 rXR 1 9.0._ T T 7 h.[ [ [ 0._ _ n : 0 z M ,.$XC.b.U.`.`.`.b.XX.XZ.|.",
"|.}.{.{.b.|..XXX`.A.b.B.A.|.{.A.C.{.{.}.}.J.f W c ^ n n Z 7 e.[ 6 ^ 0.T q 1 0 5 e.*.[ w.m /.%.B 8 : > E OX+X}.n.U.`.Z.b.U.Z.k.[.",
"oX{.{.`.B.B.Z.V.A.'.+X[.{.b.A.b.[.T.{.}.T.).2.o c / C n T 1 ^ h.} s [ T 5 5 n 5 [ f.*.*.m W ) ) w.W o w R.|.|..Xb.n.n.|.+X&X+XC.",
"B.A.V.V..X.XZ.V..X+XF.F.{.B.A.Z.n.U.|..X}.M.w @.z ^ n n b m 6 -X4.6 } { } } 0.^ 7 f.e.T w.` ` *.$.Q y O z..X}.[.'.b..X&X&X}.F.b.",
".XZ.V..X.X|.|.b.[.].{.`.B.[.|.{.Z.n.U.}.v.Q...;.z / m n , 5 . /.=.- } =.i.0.[ 0.5 e.0.4 z $.$.` %.@.(.%X#X|.[.}..XZ.B.A.A.b.`.&X",
"|.}.V..XF.{..XF.C.U.b.V.A.A.T.`.{.}.C.C.Z.Q.f *.m C m n 7 /.[ 4.! 6 _ e.u.u.{ } T c ' c Q N V y w 1.Y.T.C.C.U.[.C.`.|.`.b.{.XX|.",
"XXA.A..X{..X{..XB.V..XXX}.{.#X6X#X%X}.OXM.).N W C B 2 * h.jX9X} R S } e.u.u.u.0.T , f.v %.#.y (.$XP.Q.v. X+X`.b.V.|.|.|.F.b.].].",
"V.n.F.|.{.{.{.|.B.!.[.{..X@X@X Xz._.N.h Y.<.! x B z * *.mXpX4.0 s } ] i.u.u.u.u.[ 0 _ ' g _.W.@X}.OXV.b.+X&X.X`.B.{.].].XX`.b.|.",
".XR.V.oX{..X{.A.S.}.}.[.}.Q.M.I O I w e K. .-.p x e.R vXpX4.- S ] 4.u.i.} } e.u.0./ , W f ).@X|.+X&X|.b.&X6XXX}.V..X|.{.{.&XV.b.",
"`..XV.B.F.F.B.b.x.n.I.$XY.+.l O.O.qXk !.(.y m > s.4 pXtXu.; R { u.u.] } ( 5 } 0.[ [ 2 o y J.%X6X.X|.].n.V.V.A.A.m..X|.{..X'.`.n.",
"|.|.}.B.}.B.U.+X+Xv.J.c.& w g qX4XJ D.(.2.@.s v } E.tXd.; R =.u.u.u.] c _ 7 9 [ i.e.p . N v.B.A.}.|.`.b.{..X.X`.B.F..X}.}..X].n.",
"F.oX}.B.k.Z.F.A.}.@XW.e ^.,.w d & J I ; @ % @   d.jX<X- 6 { ( ( =.i./ v / _ n [ i.e.x O K.@X.XZ.B.B.m.Z..X].].'.oXV.Z.+X+XU.x.x.",
"{.oXZ.x.!.6X#X XN.X.& /.NXNXpXG O.2XtXuXO.9X0X@ d.pX- # 1 ( 5 5 [ ) 5 ^ *.m 2 c *.@.p ,.). X X{.U.}.B.Z..X].'.|.|..XV.C.C.C.}.[.",
".X}.n.}.|.OX5X+.<.0XvXNXlXmXlXG 6.u.~ D u.d.R G H 1X&.} 6 1 q 5 R 0 , b 0.[ / 1 / %. .:XQ.{.|.{.F.[.B.U..X}.}.].}..X{.x.C.n..X[.",
".Xb.U.*X@X5XK. .zXvX1Xd.7.lXsX5.  @ H # ; qXS + 7 S pXjXNXzX{ ( 0 5 [ c ( ( ^ ` ' $.p (.5X.X}.{..X.XZ.Z.&X}.`.`.[..XT.x.C..X.X}.",
"C.Z.v.M...E E eXu.} 1X,X3.sX<XL 7.H O.L 4X4.K S # Y 3X4XkXpXu.( i.0 jXj.6 R 5 c ` ' * N _.@X+X}.6X.XV.B.+X&X}..X+X XU.v.Q.%X&X&X",
"n.}.T.K.1.0Xa -.yX4.5.d.iX<XD D 7.E.6.r 8XY S 8.S # aX3X5.# d i.mX&.h.eX5 9X/., s < x > | l v.v.B.N.b.b.*X+X}.@X@XT.A o.1.l.&X&X",
"Z.}.}.P uX;.~.nXkX=.@ @ o = uXJ O.w = @ F F >XdXiXS ; + K 3XH H lXH 7 lX7 @ R ; ] i.s ;.V N >.).C.OX#XM.+X*X$X$XG.j :X:Xw Y.&X}.",
"{.T.T.O M *.*.W * R 6 R d J tX! 7.5X1XK F F dXfXMXU iX5.K pXd ; 3X3.+ jXH % } G &.9XeXs / yXX.J.G.).Q.c.H.z...h (.cXg y v.v.C.C.",
"`.T.T.j ,.Q t.-.< G ! =.! :.cXD.O.5X!.O.F U fXfXMXY iX<XK iXd % d.3.# qX= # jX~ d -XeXQ x yXNX_.E f :.,.O t.nXK.K.#.A Y.).R.C.+X",
"[.`.}.j l N ! * @.p.= ! qXaXD.r z.N.[.7.D F >X8XdXU 8X>XD 3XH G <XK - d.R d tXNXvXh.;.*.z kXbXcXkX^.kXNX-XyXcXuXw A Y.Q.}.U.C.T.",
"A.U.U.o.Y.G.E ,.d g yXyXP k S.N.5X6X6X6Xr U F F F 5.F 8.K <X- - 2X- ! ! s.J L mXwX@ > s s.0X0X0XyXt.bXkXyX@.| k o.v.}.`.`.`.].C.",
"F.`.].+XR.c.o w /.aXO.w N.2X!.B..X.X6X6X5XF.D.D F 7.L ~ d.~ # ] [   . O.O.e lXtX< : p a *.!  .s.#.A ^.t.@.& H.).v.'.`.`.[.].].x.",
"[.}.oXn.n.R.j uXL.e X.!.!.!.B.S. XXXXXXX5XM.F.J J J 6.J s.@ 7 =.5   &.G ; 3XtXp * p a.^.W p.= o O j h h l Y.}.T.b.A.[.[.U.{.}.n.",
"{.A.b.`.+X+Xo.w O.).!.S.S.V.U.B.V.}.oXXX.XU.M.w J W.e  .g O * . .   H J <XtX!   @ . = u a bX*.* ^.G.1.W.).}.'.}.U.B.[.U.[.[.oXA.",
"A.k.V.].oX+X+XT.B.B.Z.B.`.{.{.U.k.b.F.!.A.B.z.z. XP O h I.h w u . < @ G mX6.@ @ $ 6 m ~.M zX/ x L.g 2.h W.Q.T.'.`.b.[.A. X].|.b.",
"b.V.`.|.oXoX&X+XC.z.C..X{.[.{..XC.V.B.B.B.U.}.n.x.!.@X!.Q.Y.e w w e O.qXNXkXd } } 0XhXr.B /.-Xo ~.t.N N h Y.U.R.`.k.T.[.`.{.C.n.",
"b.|.].[.|.{..X{.B.S.[. XF.F.F.V.}.|.V.Z.}.Q.].{.Z.k.C.T. X}.Q.5XQ.).J tXqX&.J cXzXd.* p a.u =X> %.r.^.> ^.X.U.}.[.x.U.U.}.B.C..X",
"l.'.U.+X|.[..Xm.F..X6XF.F.A.F.F.|.|.Z.[.'.].`.|..X}.S.v.B.Z. X}.!.!.k r @ @ 3.E.g = B o o -Xp g.p.v p < V X.M.b.A.m.V.`.S.x.C.].",
"R.n.V.].|.[.b.`.}.6X|.[.F..X.XF.}.}.C.U.'..X}.}..X|.{..XC.x.M.}.}.!.!.I 2XD.& e c.1.i < v < X v -.v Q a H.z.v.A.V.B.b.x.x.R.Z.[.",
"'.}.V.b.F.n.].`.A.[.[.F.F.F..X6X6X|.b.`.'.'.|.|.{.F.F.`.`.!.k.C.U.V.M.N.I I Y.J.T.Y.:.O i & o a t.-.0Xa w +.}.{.XX[.{.}.b.U.].[.",
"`.`.U.C.b.A.{..X{.{.XX{.F.F.XXF..X}.m.[.{.[.{.{.6XF.F.F.`.[.V.l.x.S.T.v.Z.Q.I.`.}.OXT.I.o...X.e @.a & y h v.T.}..X}..X`.b.l.U.U.",
"`.].`.`.m.b.].{.{.|.XX{.6X6XXXXX{.{.B.]..X}..X.X{.XXF.F. X|.U.B.T.}.U.l.Z.[.}.}.].`.{..X}.Q.c.J.j s.a t.P P.b.].&X[.n.C.`.`.Z.C.",
"|.F.{.{.b.m.XX{.|.|.F.{.F.XXF.XX{.[.b.b.b.U.{.6X6XXX6XF.}.C.b.V.Z..X`.C.{.{.}.].].`.U.]..X}.'.c.I.w G.1.h T.R.x.b.b.B.{.[.F.`.A.",
"oX|.].].`.b.V.F.{.|.XX{.F.F.XXF.}.C.U.`.x.x.V.A..XXX{..XB.Z.}.}.R.Z.C.Z.{.{.`.].`.A.`.`.`.+X'.'.v.Y.<.>.).7X`.U.R.x.{.F.A.A.F.F."
};
