/* XPM */
static char *rev_21679747537[] = {
/* columns rows colors chars-per-pixel */
"64 64 238 2 ",
"   c #2A1C03",
".  c #251A09",
"X  c #291A04",
"o  c #3C1D02",
"O  c #361B04",
"+  c #2A1E13",
"@  c #1B2300",
"#  c #2D2503",
"$  c #2C2A00",
"%  c #2D220E",
"&  c #2B2707",
"*  c #3D2100",
"=  c #34240D",
"-  c #3B250C",
";  c #3B2C0C",
":  c #342A03",
">  c #2B3202",
",  c #343102",
"<  c #393506",
"1  c #2E2414",
"2  c #2E241A",
"3  c #2F2818",
"4  c #332514",
"5  c #352A15",
"6  c #3B2B14",
"7  c #32261B",
"8  c #352B1D",
"9  c #3B2D1C",
"0  c #3B2613",
"q  c #3D321D",
"w  c #3B3513",
"e  c #362C21",
"r  c #392D22",
"t  c #3D3224",
"y  c #3E3429",
"u  c #451E00",
"i  c #44290B",
"p  c #462609",
"a  c #512A0A",
"s  c #45390B",
"d  c #442D15",
"f  c #4C2D10",
"g  c #442E1C",
"h  c #402615",
"j  c #512F13",
"k  c #433115",
"l  c #43321C",
"z  c #4C341B",
"x  c #493B1D",
"c  c #483817",
"v  c #533415",
"b  c #54361A",
"n  c #54391C",
"m  c #5A3C1D",
"M  c #5A3A15",
"N  c #54300C",
"B  c #633E1A",
"V  c #423425",
"C  c #493524",
"Z  c #423926",
"A  c #4C3A23",
"S  c #42362A",
"D  c #43392B",
"F  c #4A3C2D",
"G  c #533C24",
"H  c #5B3D22",
"J  c #503B2A",
"K  c #493E31",
"L  c #463B31",
"P  c #533F34",
"I  c #3A470A",
"U  c #3A5101",
"Y  c #3E4614",
"T  c #48460C",
"R  c #484516",
"E  c #574719",
"W  c #495813",
"Q  c #4C5715",
"!  c #64421D",
"~  c #5D651F",
"^  c #507312",
"/  c #4D432D",
"(  c #4D4725",
")  c #55442C",
"_  c #5B442A",
"`  c #594628",
"'  c #595826",
"]  c #4C4133",
"[  c #524434",
"{  c #5C4D34",
"}  c #5C4D3C",
"|  c #554739",
" . c #5D523E",
".. c #5E5337",
"X. c #644424",
"o. c #6B4524",
"O. c #63462A",
"+. c #644B2D",
"@. c #6B4C2B",
"#. c #694826",
"$. c #714E2D",
"%. c #724B24",
"&. c #695528",
"*. c #72512F",
"=. c #6C4F33",
"-. c #654E32",
";. c #6C5234",
":. c #64533B",
">. c #6C553B",
",. c #655C37",
"<. c #735233",
"1. c #7C5534",
"2. c #7C5A34",
"3. c #7C5B3B",
"4. c #74583B",
"5. c #724D30",
"6. c #5C692C",
"7. c #6A6837",
"8. c #78663C",
"9. c #696A32",
"0. c #5E5243",
"q. c #5F5249",
"w. c #5B4C41",
"e. c #615444",
"r. c #6B5A42",
"t. c #655748",
"y. c #7C5E42",
"u. c #755D44",
"i. c #7C6344",
"p. c #75644B",
"a. c #776849",
"s. c #6E7342",
"d. c #7B6A53",
"f. c #776755",
"g. c #7D7752",
"h. c #71684E",
"j. c #8C592E",
"k. c #8B572E",
"l. c #8E5C32",
"z. c #845D3B",
"x. c #8C5F3A",
"c. c #835833",
"v. c #925E34",
"b. c #935F39",
"n. c #8C623C",
"m. c #89623B",
"M. c #946135",
"N. c #996336",
"B. c #95623A",
"V. c #99653C",
"C. c #9D693D",
"Z. c #A26B3E",
"A. c #A0673A",
"S. c #845E41",
"D. c #836343",
"F. c #8B6542",
"G. c #8D6A45",
"H. c #83654A",
"J. c #8C6B4C",
"K. c #85694A",
"L. c #926641",
"P. c #946A45",
"I. c #9D6B42",
"U. c #956C4A",
"Y. c #9A6E49",
"T. c #976745",
"R. c #897A4B",
"E. c #94714E",
"W. c #9C724C",
"Q. c #9D7349",
"!. c #856A53",
"~. c #84745A",
"^. c #8A7659",
"/. c #947353",
"(. c #9B7553",
"). c #997959",
"_. c #966F50",
"`. c #A36E43",
"'. c #A86F44",
"]. c #A46F48",
"[. c #A57145",
"{. c #A97346",
"}. c #A5734A",
"|. c #AA754B",
" X c #AD794D",
".X c #A5784D",
"XX c #B17B4E",
"oX c #A27652",
"OX c #AC7751",
"+X c #A47954",
"@X c #AC7A52",
"#X c #AA7D59",
"$X c #A47D5B",
"%X c #B17C52",
"&X c #887864",
"*X c #947B63",
"=X c #A17F63",
"-X c #688C2B",
";X c #7F8A46",
":X c #87854A",
">X c #8A8358",
",X c #939458",
"<X c #938656",
"1X c #A8845B",
"2X c #B48155",
"3X c #B48158",
"4X c #8AA351",
"5X c #91BB4D",
"6X c #8E8468",
"7X c #968466",
"8X c #9C9468",
"9X c #9D8B74",
"0X c #978977",
"qX c #8C8471",
"wX c #A38868",
"eX c #A39179",
"rX c #AA9779",
"tX c #A8936F",
"yX c #A8A574",
"uX c #B5B17B",
"iX c #A0C65F",
"pX c #B2D070",
"aX c #BBE575",
"sX c #B29E87",
"dX c #BAA88A",
"fX c #BAB387",
"gX c #BCAB92",
"hX c #BFB790",
"jX c #C1B88A",
"kX c #C1AC95",
"lX c #CBB79A",
"zX c #D2BC9F",
"xX c #CCBAA3",
"cX c #D2BDA0",
"vX c #CAC692",
"bX c #D6C6A6",
"nX c #DBC9B3",
"mX c #DDE7B2",
/* pixels */
"@XOX|.|.[.B.@X%X|.M.|.{.|.XXM.C.V.{.{.Z.{. X`.Z.N.[.}.V.M.[.Z.Z.Z.[.l.}.[.Y.}.|.|.`.}.`.B.C.V.I.B.B.M.B.M.N.Z. X{.N.|.XXZ.}.M.`.",
"C.|.%X|.}.B.V.N.C.M. X|.{.|.T.I.{.}.{. XXX2X%X}.`.B.n.[.|.v.C.[.[.[.l.Y.Q.[.}.{.|.].|.'.`..X@X{.`.C..X@X XM. X{.{. Xb.[.C.M.N.[.",
" XN.N.N.B.'.[.{.|.I.C.|..XI.l.`.{.[.{.{.{.XX2X|..XM. X X@X`.Q.C.M.B.Q.B.I.|.@X|.`.C.N.b.`.XX X X XC.}. X XC.{.{.{.|.{.l.[.@X}. X",
"|.{.Z.{.b..X{.[.[.@XV.].n.}.P.L.M.[.{.{.{.XX3X XC.Q.P.I.}.}.Q..Xc.C..X.Xl.b.b.b.`.`. X%X[.M.C.{.[.B.I.|.{.C.B. X[.|.|.V.[.[.|.}.",
".X|.|.I.C.|.'.'.`.@XB.M.Q.n.o x.+X}.V.l.`.|..XU.U.! u o.(.F.z.o.v o o.Q.}..X`.V.].I. X X|.OX|.`.I.M.|.}.`.{..XM.I.`.v.b.b.C.|.'.",
".X{.`.M.I.%X'.|.|.Q.G.! 2.E o W.Y.n.l.Y.I.B.F.m.M X.#./.3.X.E.3.H y./.1.c.I.}.@XV.%X{. X|.'.|.'.[.M. X|.[.'.|.{.M.M.[.[.|.`.M.I.",
"[.N.{.Q.I.+X@X#X}.m.%.* T 1Xo.F.W.W.B.oX}.+XF.M J.f H.O.m ).=.@.S.<.O.v o.Q.oX.X}.b.|.OXOXOX'.%X XM.|.|.`.{.|.C.M. X%X%X[.%X[.}.",
" Xl.C.C.M.M.V.B.x.D.8.M 8X' G.(.m.M o 1..XW.B 8.` D.).b /.n @.K.X.K.<.#.W.(..X}..X+XB.I.B.M.V.b.l.M. X X|. X|.B. X XXX3X|.M.V.B.",
"XXN.].'..XV.I.B.P.X.E :X8XE m.&.&.9.! Q.1Xm.i H.z *Xz u.K.;./.#.H.=.<.W.E.G.o.%.1X#Xl.C.`.[. XN.@X`.C. X|.|.B.V.B.C.[.B.M.[.[.[.",
"N.'.|.`.'.`.n.F.E @.` <XE s s ,XtX#.8.G.G.E * { - G = r.( { ;.<.i.v J./.#.=.M F.F.U..XY.`.`. Xb.N.'.`.M.V.`.v.{.[.[.M.}..X|.|. X",
"Z.{.`.|.`.}.V.G.o b ; c : 8.:X:XR s   g.yX8.<X( X X l ..p.) ; >.n -.K.m J.O.8.E.2.B B I.Y. X%XC.'.].[.}.B.V.b.'.}.`.I.C. X|.[. X",
"{.{.'.].}.Q.G.v tXzXjX7X: R.R.T fXfXR >XuX>X,.;   9 6 ] f.{ d.!.&X) - b G >.i.+.-.b P.oX}.'.T.b.'.|.{.[.[.B.I.`.`.|.C.M.[.'.|.`.",
"%XOX'.`.Y.W.S.i bXbXbXjX' T , < yXyXs ,.' $ : @ / t Z Z Z Z | qX&X/ r.7X0XA C z O.=.F.U.Y.T.V.}.].`.|.'.'.].b.`.`.].|.b.C.'.C.C.",
"I.`. XY.m.<.z rXbXuXjXuXuXT ' ' R 7.( 8.>X& > #  .l Z / S S q V t V / r.e.9 g.:.A H K.(.B 1.}.}. X].`.}.`.'.v.'.`.'.'.v.B.I.`.`.",
"{.V.b.x.<.4.gXvXyX9.,XpX:X~ ,X,X:X9.> ' Y R s.> a.l Z ] S S S S D D S D t t f.eXkXd.- x n v T.OX%X X'.`.Z.{.v.Z.].I.v.|.|.N.M.`.",
" X XP.G.n vXbX>X9.s ;XvXE Q , < , $ ' Q 6.W 6.> a.k F / S L S S S y y y y Z D t f.&X= A kX_ _.n.B.T.].N.v.v.l.b.b.v.Z.|.XXXXXXM.",
"{..X#X2.8.dXg.7.mX6.8X,X$ 8X: R.R.T :XW ^ ^ 4XT 7.l / F S S V S y 3 t y y Z y t Z % s.lXbXd ;./.oX+XN.v.}.@X|.{.C.N.`.{. X|.|.N.",
"@X.XoXj wXrXw s.6.s.6.$ # 7X<X&.(.E 6.U ^ 5XpX^ 6.q ] S S D S y e t e 1  .3 8 t t q x 7XnX9 O i f _.OXV.`.@X|.V.N.b.N.C. X'.C.`.",
"U.F.H *Xg.d.vX0XR w ( k : R.vXE 8.8.W U -XaXpX;X( q [ r S L S S y t 1 . h.3 t e V 4 5 { gX6 k u.*X2.$X#Xl.b.l.C.[.Z.`.B.B.M.`.'.",
"(.p sXJ K gXgXR h.x k ,.: <XjXs 8.&.I W -XiXaX6.Y t [ S r r r V t e e 3 t t t y y 7 t &XlXl x >.sXH (.#XC.M.Y.[.|.[.`.[.I.l.B.[.",
"/.* lX_ sX*Xx   r.6 ; ~.` fX' s ( g.I I U -X4X> > t ] S t t e e e e e e 8 t 8 r r t.0Xd.d.{ ; 7XzX).<.D.x.x.}.}.{.{.{.'.[.`.l.|.",
"E.* K.~.[ A A r...x ; < hX,.< d.../ & @ U I Y > w y D D e e e 8 t t y y y y y y y 9 &XD 4 :.) dXbXlXlX+.2.(.}.Y.{.{.{.XX{.[.`.v.",
"E.p d.; ^._ ; eX( ,.# yX6X$ ( q { 4 8 5 w > > & 3 [ / y e y 3 3 0.w t y y t % 3 t y 8 . l G ).7XwXwXdXi.+.3.+X.XXX{.XXZ.{.Z.Z.B.",
"U.p ).i b _ O l ^.& g.eX# X l e.X V 5 & 3 ( y / [ / y y y y % / / 1 3 y 8 e 3 q y Z D t 0 +.u.D./.7XtXd ^.y.m.(.{.{.Z.{.Z.[.Z.[.",
"Q.P.X.*.G.X.;.c >.x dXR { = eXxX5 t.q % q D [ ] K t D D S S S t t y D D D D y ] K P V h !.S.5.v n 4.G +.zXzXrX*.+X[.|.].|. XZ.Z.",
"I.B.a m.U.G.D.i ; yXh.w p.= 9XnXsX&X1 1 ] F F | ] F D y L S D ] / / L L D t t t r r 9 d S.S.U.U.<.p i ^.dXkXcX_ J.Q.|. X|. X`.`.",
"V.v.T.C.I..X(.* J.7XC = X ) } dXnXxXt q [ F V V S D L L y r e D y t e 8 e 7 5 e e 9 ) H.H.F.oXoXY.U.<.f 8.dXrXd @.E.+XY.'. X'.|.",
"|.B.l.`.I.I.Q.@._ _ f.4 6 q X :.*Xp.1 r ] F S t 9 e 8 e e e e 7 8 8 8 t e e e e g } d.-.<.1.U.].Q..X(.F.b y.G ~.eX=.z.n.V.v.b.j.",
"OXOX].b.`.I.M.F.f eX} 4 g 5 = | 5 % 3 e L K D D y y y t e e e r e e e e e e + K K + X J ^.b L.Y.I.`.oXoXo.p +.dXcXsX@._.}.OXI.N.",
"|.`.OX`.v.v.}.+Xo 9XC r V 9 8  .qX8 t t 9 S ] D D y D y y y y D y e e y y S y r 7 8 4 A !.O.1.x.B.C.I.W.+XJ.X.4.kX^.u.5.+X+XL.OX",
"|.{.|.}.v..X#XwXG sXg g 9 t V 8 1 7 8 D r 9 r F ] D D D D y ] D L D y y y D e w.. 5 4 } r.O.z.]..X[.@X%XOX+XU.j >.o rXy.5.S.z.Y.",
"|.{.}.'.M.M.B.G.9X9X5 r t A V V t 9 D t K r e e y L F F L y y D D y D y Z y r t.t 7 9 P C S.P.(.}.].`.OXOX}.oXT.#.g ^.xX<.X.3.P.",
"v.`.V.N..X@XT.o.kX| 8 V 9 | 7 f.0.8 D 8 L y e e e e r r S K P L D D t y y y D D y y D Z J y.n J.Y.`.|.#X}.].|.}.(.S.b 4.4.tX4.=.",
"XXN.N. X X.XoXv kXA g 9 g 0.} Z h.q F t e w.y e r e e e e y S L ] L ] ] / t D ] L y D 9 O ` wXM Y..X X%X@X%X}.'.oXT.z.<.@.O.<.v ",
"|.[.N. X[.}.#XM zXc 9 t t 0.q.} K e ] 3 e y w.y r e e e e e e e e 8 8 9 y y y ] ] / K D q 9XlXG z.T.C.I.M.M.C.}.B.Y.@XQ.x.oX(.c.",
" XZ.C. X[..X+XM lX6 g 9 9 e.e.e.| 9 ] 3 e e y y S V e e e e e e e 8 8 8 w 3 e 8 8 8 t 5 [ gXr.O 2.P.`.b.|. X'.b.C.}.|.[.`.x.oX].",
"B.M.C.|.|.}.oXm lXh g 9 t e.0.q.w.e K e 2 2 y ] L D y t e e e e 8 r 0 4 3 t 3 3 1 % D / p.9X- ) H /.n.n.%XXX.X[.M.|.Z.{. X[.n.}.",
"|.V.B. X|.oXoXb kXg g 9 9 0.q.q.w.+ K e 2 y 2 e S ] ] y L y y e 7 t.f.&XF 7 e 3 % 6 % h.h.7Xl G +.#.W.B.%X3X X{.M.XXXX{.|. Xn.M.",
"|..XV.M.`.I.L.*.eXC 6 t q 0.0.q.q.2 L y e y y e t y ] ] S S S S r P [ | d.7 e 7 1 V 5 d.) A = -.^.f 3.F.V.V.B.C.M.{. X{. X}.I.M.",
"|.|.|.M..XB.I.$X>.[ = 9 q } 0.0.q.+ y S e 7 7 2 7 e y L ] S S S S r y S S t l 4 V 6 q   ~.,.= -.k O.O.c..X|.|.[.M.Z.|.}.|.|.`.N.",
"`. X}.M.j.V.I.E.O G A 6 q [ :.q.e.7 t F e 8 e 2 e e e S S L S S y D 7 8 V V 9 9 g g X X 6 eX~.d.p.l i m..X[.Z.[.XXM.V.|. X`.l.v.",
"{.{.V.M.[.2X X1XO._ &X0 q t 0.e.e.9 7 S e e y y e e e e S S F L D S S e r w.g u.>.g = C r.) p.A ) O H $.@X{.{.{.[. XB.B.V.b.].'.",
"|.{.B.[. X XXX3X(.p eXg w q  .0.q.r 3 S F e D y e e r 8 e e r S t S S D g S f.!.).J.+.>.6 d._ C 6 f y.%..X|.{.`.{. X.XM.V.B.OX'.",
" XM.C. X X%X3X.XL.S.#./.+ q F e.q.] + r ] e y L V e e r 2 7 e e t K | D S C g G S.(.=Xh k 5 eXp._ u.X.L.#X'.Z.`.Z. XZ.j.B. X|.{.",
"B.C.M.B.Z.C.C.v.V.(.1.9X) 4 t  .q.q.e e ] r y y S r r r 7 q.7 r 5 y K K S S S h H.D.F.b *X6 G = H <.F.l.@X%X{.|. X|.V.M.[.XXXX2X",
"b.'.`.[.j.B.[.{.`.}.+Xb 7XC = [ 0.t.S 7 ] r 8 D S S 8 r g V r e e 9 e V K F C g 4.wXH.o j d z H #.z.n.x.#X@X|.|. X|.M.`.XXXX X2X",
"C.}.`.I.l.I.@X X|.}.OXU.p p.0 9 } e.F 4 F y 8 y S V 7 V V V r r e 8 r 8 r V V A H _.S.a H./.8.$.n.+X|.B.|.%XOX%XXXC.v.b.`.@X2X.X",
"'.I.'.}.I.C. X{.|.|.OXoX$.>.~.= F e.t t t Z 8 8 S V 7 f.t.C C S S V e 9 9 g h f j o.S.L.N M %..Xn.Q.[.b.V.N.`.V.b.v.I.].V.b.B.M.",
"'.`.[.'.[.M.}.}.{.{.'.`.}.<.p.l 0 } g &X7 S 8 8 y y t J !.H.V L S C C d _ J.wXU.n.L.+X[.I.}.[..XC.v.C.`.C.M.B.[.I.j.|.`.].b.V.OX",
"'.`.|.|.V.l.`.[.{.[.Z.Z.I.$X4.z X z g i.g F 8 9 t D V g H.!.z h g g _ !.$XW.c.I.Y.@X|.|.[.Z. X|.T.V.{.`.{.{.M.I.V.b.Z.`.|.`.b.].",
"Z.A.`.{.[.l.`.I.Z.C.A.C.'.oX+XS.5.u j K.O.C V e 7 S S C ).(.U.4._.P.S.B.L.x.|.%X|. X.X[.}.[.|.3XI.[.`.Z.Z.{.I.M.b.b.'.`.'.].].b.",
"Z.'.`.|.M.k.I.'.`.V.Z.[.|.@X].b.OXwX(.$X).O V e e e S C H /.+XI.oXI.].I.b.B.|..XC.|.}.{.}.{.[.I.M.[.[.{.Z.[.[.[.v.|.`.`.'.'.].l.",
"Z. X{.N.b.I.v.`.`.`.{..X|.].b.C.|.2X+X$X).p C L e r V V C X.oX`.|.'.I.|.'.l.b.l.C.n..X@XOX|.|.B.n.{.Z.'.{.Z.{.[.v.I.{.`.`.|.|.v.",
"'.Z.b.`.OX|.A.b.`.}.}.V.b.B.C.v.M..X X1X$Xa h P V r 8 V h y.oX`.`.Z.'.|.|.I.I.}.B.l.b.l.v.v.v.V.|..X`.{.{.Z.[.{.I.N.'.Z.'.Z.'.`.",
"`.l.b.'.|.XX'.'.b.B.B.M.[.}.|.C.j.l.U.].T.S.* F V r 9 g i (.OX].`.{.|.'.OX`.b.Y.B.[.{.{.].`.b.].[.}.{.{.Z.{.Z.{.`.l.'.C.|.`.OXv.",
"v.N.`.|.XXXXXX|.B.l.B.|.|.[.}.|.M.B.b.b.L.U./.h C 8 0 C 5._.].`.{.`.].}.|.%XB.M.[.[.[..X].|.v.|.|.2XXX{.Z.Z.Z.A.`.l.`.].'.|.b.b.",
"v.|.'.'.{.{.|.|.M.C.}.|.`.Z.'.N.{..XB.V.{.Q.E.X.g g 0 r.).].}.%X{.[.[.'.`.|.b.}.}.{.{.|.#X[.l.I..X%X%X|.`.`.Z.'.].v.`.`.].b.b.OX",
"k.`.Z.XXXX{.|.v.I.@X X'.`.V.Z.`.{. XV.`.[.[.Q.(.4.v h H S.Y.|.}.[.`.C.I.}.C.j.|.{.{. X%X|.N.V.V.M.C.`.{.|.|.B.v.N.v.V.].V.v.b.'.",
"V.M.N.'.{.'.b.`.[.%X X'.`.|. X{.{.|.B.C.[.|.}.@X+X3.p j T.l.M.}.].`.|.OXb.B.M.k.l.B.I.M.l.V.b.B.C.V.b.M.b.v.v.`.N.b.v.j.k.C.Z.'.",
"`.{.b.b.Z.b.}.`.`.`.'.`.`.{.|. X%X Xb.`.}.'.'.OX}.(.z.M Y.].l.B.I.B.V.x.I.}.`.B.[.Z.v.l.'.}.k.T.OX%X%X}.N.v.].|.%X].|.}.l.I.'.'.",
"Z.Z.`.B.b.C.|.|.[.{.XX{.'. X|.{.|.{.l.[.|.].'.|.%X.X].Y.'.].V.l.l.V.I.M.I.}.C.`.[.{.[.`.v.v.j.I.%X|.XX X{.b.'.'. X|.|.`.b.k.I.C.",
"Z.{.`.`.j.l.`.|.{.{. X X XXX|.|.|..XM.Q.}.|. XXX X X].`.|. XT.l.[.}.`.j.V.[.}.[.{.{.[.{.[.`.l.B.OX[.{.{. X{.v.'.%X[.b.M.`.`.V.N.",
"{.{.|.[.v.v.XXXX X{.'.`.`.|.|.{.}.[.l.M.b.C.}.%X%X|.|.|.{.N.b.V.B.|.Z.n..X[.[.[.Z.Z.`.[.|.|.].v.'.|.'.|.XXXXA.l.b.v.N.{.`.Z.`.C.",
"{.{.[.[.Z.M.N.Z.Z. X{.'.`.|.|.{..XB.C.C.l.l.B.`.XX|.|.].M.B.}.}.P.V.M.V..X[.Z.[.Z.A.`.Z.}. X}.].l.`.%X'.|.%XZ.V.N.l.|.Z.Z.A.Z.`."
};
