/* XPM */
static char *rev_51679747538[] = {
/* columns rows colors chars-per-pixel */
"64 64 241 2 ",
"   c #1E1B01",
".  c #231601",
"X  c #2B1502",
"o  c #241A01",
"O  c #2B1C03",
"+  c #2B1E0B",
"@  c #361B03",
"#  c #2B1F11",
"$  c #1F2100",
"%  c #2C2303",
"&  c #2B2A01",
"*  c #2C230B",
"=  c #262603",
"-  c #322205",
";  c #322C03",
":  c #34230D",
">  c #3B250C",
",  c #332B0C",
"<  c #3B2908",
"1  c #2B3200",
"2  c #383506",
"3  c #2E2211",
"4  c #2E2810",
"5  c #342513",
"6  c #342B14",
"7  c #3B2B14",
"8  c #352A1A",
"9  c #3B2C1B",
"0  c #392714",
"q  c #3D3314",
"w  c #3D321C",
"e  c #3B341C",
"r  c #3C2C22",
"t  c #3D3322",
"y  c #411F00",
"u  c #46280A",
"i  c #463707",
"p  c #422C13",
"a  c #4B2E13",
"s  c #422F1B",
"d  c #4D3315",
"f  c #433B13",
"g  c #42331B",
"h  c #4B341B",
"j  c #433A1D",
"k  c #48371A",
"l  c #543314",
"z  c #54391C",
"x  c #5B3B1C",
"c  c #553717",
"v  c #552E0E",
"b  c #623E1B",
"n  c #433523",
"m  c #453A25",
"M  c #4B3B24",
"N  c #4C3D2A",
"B  c #463627",
"V  c #533D24",
"C  c #553D26",
"Z  c #4C3D32",
"A  c #3D4807",
"S  c #395000",
"D  c #464508",
"F  c #475609",
"G  c #484418",
"H  c #524B1C",
"J  c #574618",
"K  c #545A17",
"L  c #505F0A",
"P  c #65461B",
"I  c #69511D",
"U  c #4D680E",
"Y  c #4D4324",
"T  c #4D4429",
"R  c #53432C",
"E  c #5C442B",
"W  c #554A2D",
"Q  c #5C4C2E",
"!  c #574623",
"~  c #5B5828",
"^  c #534433",
"/  c #5B4B33",
"(  c #5B4C3B",
")  c #574733",
"_  c #5C5237",
"`  c #4F4233",
"'  c #634424",
"]  c #6A4C25",
"[  c #67492A",
"{  c #714D2A",
"}  c #675628",
"|  c #73562D",
" . c #664C34",
".. c #6C543B",
"X. c #665738",
"o. c #735435",
"O. c #755B3D",
"+. c #7C5B3C",
"@. c #775637",
"#. c #724F31",
"$. c #5A6927",
"%. c #64632A",
"&. c #687728",
"*. c #696539",
"=. c #79683A",
"-. c #78743B",
";. c #707837",
":. c #5D5140",
">. c #6C5C44",
",. c #695B48",
"<. c #745C43",
"1. c #7C5E41",
"2. c #6D6447",
"3. c #736345",
"4. c #7C6344",
"5. c #75634D",
"6. c #7C664C",
"7. c #726B49",
"8. c #796949",
"9. c #7A7648",
"0. c #7A6A52",
"q. c #7C6D59",
"w. c #766854",
"e. c #7E7255",
"r. c #6E7041",
"t. c #8C5A2E",
"y. c #8B572F",
"u. c #905C2F",
"i. c #8E5B32",
"p. c #835D3A",
"a. c #8B5E3A",
"s. c #925E34",
"d. c #925E39",
"f. c #85623D",
"g. c #8C623C",
"h. c #86693A",
"j. c #946136",
"k. c #95633A",
"l. c #9A653B",
"z. c #9D693E",
"x. c #976538",
"c. c #84703E",
"v. c #A16C3E",
"b. c #A0673C",
"n. c #815F41",
"m. c #856442",
"M. c #8B6542",
"N. c #8E6A44",
"B. c #836649",
"V. c #886849",
"C. c #946641",
"Z. c #9B6640",
"A. c #946A44",
"S. c #9D6B42",
"D. c #946E4B",
"F. c #9B6E4A",
"G. c #877547",
"H. c #9C7146",
"J. c #95714D",
"K. c #9C724C",
"L. c #967849",
"P. c #896E53",
"I. c #877559",
"U. c #957453",
"Y. c #9C7553",
"T. c #9F7A53",
"R. c #977A58",
"E. c #906F50",
"W. c #A36E43",
"Q. c #A66F47",
"!. c #A57145",
"~. c #A97346",
"^. c #A5734A",
"/. c #AA754A",
"(. c #A5794F",
"). c #AD794D",
"_. c #B17C4E",
"`. c #B1774F",
"'. c #A27551",
"]. c #A37A54",
"[. c #AD7B52",
"{. c #A47D5A",
"}. c #AE7750",
"|. c #B27D52",
" X c #8B7A62",
".X c #8E7E69",
"XX c #957D62",
"oX c #A47A61",
"OX c #7A853B",
"+X c #6D962C",
"@X c #65891D",
"#X c #7C8646",
"$X c #88B03D",
"%X c #8B8858",
"&X c #988858",
"*X c #989459",
"=X c #8D8F51",
"-X c #AA8258",
";X c #B48153",
":X c #B58358",
">X c #94B551",
",X c #8D8566",
"<X c #948C63",
"1X c #94826A",
"2X c #998868",
"3X c #9A9767",
"4X c #9E8B73",
"5X c #9E9374",
"6X c #9D9773",
"7X c #A48A6E",
"8X c #A5976D",
"9X c #A58E73",
"0X c #A69878",
"qX c #B29E7E",
"wX c #A5A66A",
"eX c #AAA678",
"rX c #B4AA78",
"tX c #B8B67F",
"yX c #A5A95F",
"uX c #AAD35D",
"iX c #B3C76E",
"pX c #C3DD7C",
"aX c #C9EE7C",
"sX c #AC9C83",
"dX c #B69E85",
"fX c #B7A78A",
"gX c #BDB785",
"hX c #BAAE91",
"jX c #C4B989",
"kX c #C4AE93",
"lX c #C6B599",
"zX c #C9B295",
"xX c #C6BCA3",
"cX c #BCC681",
"vX c #C2C288",
"bX c #CDCB98",
"nX c #CADE89",
"mX c #D5C4A8",
"MX c #D5C7A7",
"NX c #D2CDA6",
"BX c #ECFFA8",
/* pixels */
").).~.).^.k.[.;X(.j.).~.~._.x.l.Z./.Q.v.~.).v.v.z.!./.x.j.!.W.W.v.!.t.!.!.v.~.)./.Q.!.W.k.z.l.z.j.h.j.k.x.x.W.).~.j.).).v.~.k.W.",
"l.).;X~.^.j.k.k.l.u.`.~.~.~.l.W.Q.~./.`.;X;X;Xv.H.x.j.~.(.s.b.W.!.W.i.W.W.W./.!./.~.~.Q.W.(._.~.v.z.(.|.).x./.!.v.).u.~.z.j.l.Q.",
").l.j.x.j.!.Q.~.~.z.z./.`.l.s.Q.^.^.!.^.v.;X;X~.[.k.(.|.[.Q.Q.l.d.l.W.k.v.(.(.~.W.l.l.s.W._.).)./.Z.~.[.(.z.~.v.).~.~.u.Q.).~.).",
"~.~.W.~.j./.~.!.~._.l.W.s.Q./.k.j.!./.!.~._.;X~.l.W.~.~.^.Q.W.).k.`.|.^.j.j.s.j.W.v.`.|.!.x.l.~.Q.l.S./.~.v.x.;Xv.).).x.Q.Q.).W.",
"/.}.}.S.l./.Q.Q.Q.[.k.d.~.^.Q.^.[.S.k.j.W./.}.S./.!._._.).v.z.v.j.l.j.!.v.~.!.l.^.W././././.!.W.W.s.).!.v.~.~.j.S.v.s.s.s.A.).W.",
"~.Q.W.s.W.|.~././.W.l./.}.:X).!.z.j.j.S.F.C.d.k.H.).~.).).v.!.!.x.z./.^.;X(.!./.l././.[.(.~.~.!.!.j.).Q.!.!.).v.j.j.!.^./.W.x.l.",
"Q.x.~.Q.z.).[.[.!.j.z./.;X/.k.j.S.S.Q.^.'.].C.].A.g.A.(.^.^.(.~.j.!.S.~.|./.)./.~.k.).(.(.).Q.|.).j.~.).v.~.~.v.j./.[.|.^.|.~./.",
").s.l.l.s.j.k.k.i.^.W.k.j.!.!.^.^.Q.'.Q.#.[ P ] f.{.Y.D.g.(.K.A.K.K.K.K.K.^.(.^.^.|.j.z.j.j.l.s.u.s.|./.).`.~.j.).).|.:X/.j.k.j.",
"`.j.~.Q./.l.z.d.l.!.!.S.g.(.(././.^.F.b [ 9X0X<X< C ' C C @.D.V.V.E.N.m.U.Y.'.'.-X[.a.l.!.^./.x.[.W.S.(././.k.d.x.x.!.k.j.!.!.!.",
"x.~.~.Q.W.!.d.d.!.S.H.F.p.H.^.(.^.F.J.b 8X7X<XsX8.0 C <.XXXXXX9X0X7XR.1.1.o.{ N.M.C.'.^.W.W.(.x.l.!.W.j.Z.W.s./.H.!.j.~././.~.~.",
"W.v.v.~.!.!.l.W.!.S.J.o.#.#.[ f.F.F.U.' 4.X./ 2.) 1Xg . p / 8 p C R X.>.I.R.6.<.+.[ @.K.^.'.|.l.~.W.~.!.k.l.s.Q.^.W.W.l.).~.~.).",
"~.~.~.W.Q.Q.l.l.z.K.v 7XfXzX2Xz n.M.P.B.@ 2.sX4 ) q..X3 q.X. X,.s 0 0 0 0 , 7 p 3.p a #.J.'.Z.d.Q./.^.!.!.k.W.Q.Q./.S.j.!.!.).v.",
"|.).Q.W.b.Q.l.W.W.F.u R.n.B...g > 7 p g t t t t X * n ) :.1Xe.q..X5.w 5 n 9 t r 5 O >.I.6.p.n.'.W.W.^.Q.W.W.d.W.W.Q./.j.l.v.v.b.",
"W.W.~.W.x.l.s.l.z.a.' x ' C g B m g n n t t t r O e., / 0X_ e.6Xg ) .XX.w 5 8 ` N t 5 : >.XX+.+.].K.F.^.W.Q.s.Q.W.^.!.i.j.v.v.~.",
"/.l.s.s.!.(.!.W.a.H.K.P L.T.p W n e B Z t 8 m t e j <X* Y 2Xr.T ,X_ 5 ( q.B 3 8 t :.^ N 0 > E P.4.O.D.F.W.Q.s.W.Q.S.s./.).l.j.!.",
").).b.b.^.(.!.z.i.j.S.(.^.K.[ 3._ t r t Z t 8 8 8 6 7.<X; & <X2., 5XN 3 + ,.,.8 8 ` :.^ Z B 0 , <.6.a p.a.a.s.d.d.s.S.~.|.).`.j.",
"!./.;Xj.j.k.j.^.Q.Q.k.k.k.A.U.c <XQ g 8 r B t r 8 8 = 9.3XA 2 ,XX.q 5.w 0 5 B >.( Z :.Z B ( N s 5 k  .P.+.].K.'.l.l.v.~.).~.).x.",
"_.~.[.j.k.l.!.!.l.Q.!.k.s.H.K.U.} I.Y e 8 8 t r 8 8 8 = _ 6X~ = ,X7 g 5.9 8 0 5 :.,.B :.Z s B Z w 0 @ R <.{ Y.C.k.j.x.l.).~.l.v.",
"S.^.W.i.v.~./.`.~.~.~.^.s.l.].T.h.Q Q N t r r Z t 8 8 6 = G 6X*.2 2., g q.s 5 8 8 e w.(  .Z C 5.( s 9 0 @ C x C.^.S.!.l.x.s.Q.Q.",
"^.S.s.).~.l.~.Q.~.).^.^.^.g.^.T.O.d ; 6 Z t r r N 8 3     2.G <XY 7./ 5 g ,.5 8 4 8 5 q.N N s ( >.5.s > p > @ l K.^.z.!.z.a.k.Q.",
"!.(.i.;X).!._.~.~.!.(.F.J.' h.| < d f W 3 B r 8 5 N 8 O T = q , , q %Xj , T ^ 5 8 3 8 8 n  .( N Z C 6.' C @.' u { [.~.~.~.z.t.~.",
"z.j.j.~._.~.).!.!.~.F.F.P c i G.P 4. .E t n t 5 R ,.g , e.3X7.6 5 % G %X2 = w.8 3 8 8 B 0 ^ ( n :.V E.D.C.{.{.D.v H.~._.~.!.v.j.",
"W.S.v.u.).).v.~.!.K.].{ } J &Xc.h.V.=.s w m 8 6 0.; q 3XgX9.1 4 6 q = e.Y 4 5 q.8 s C 5.h B 9 s C / @.].a.{.].^.[./.;Xv.).v.v.x.",
"W.z.v.z.u.!.z.(.T.D.c [ } 2XG.J c.G.! - 6 g 5 / ~ = <XsX$.q H e 4 4 = e 2.* O ^ R N M  .<. .C > @ C { D.k.k.[.).^./.v.v.v.v.v.v.",
"W.b.l.s.W.d.Q.Y.n.z [ O c ~ % i J } r.! = e * m q r.eX%.; _ 2.,.e * 3 * w.e * + B > <.n.U.D.E.[ y @ +.D.H.H.x.).).~.~.~./.).l.b.",
"W.s.u.W.Z.C.a.1.d 6.mXqX9.~ H 9.*X*X~ 2 <XgXY G X.vX%X2 ; W , e t 8 # 3 ` 2.B 9 5 X u #.n.n.F.'.Y.] P F.x.v.j.j.~.W.~././.|.Q.Q.",
"d.s.l.Z.F.Y.=.d [ lXmXMXrXA -.=X} ~ =X%.wXeXT A G eX~ & % q e 4 t 8 3 # 3 ,.` m 0 X @.J.d.d.Q.'.Z.F.(.!.z.l.u.Q.s.W.}.W.~./.~.~.",
"/.k.i.F.E.' o.0XMXMXfXjXvX;.2 2 2 G.~ D G A 2 2 $ G } 5Xe.R q 4 t 6 8 # 3 5 # + 5 X ..Y.F.C.Z.Q.Q.'./.!.l.s.l.v.S.s.i.s.s.s.s.u.",
"|.}.F.M.' XXMXhX6X9.=.gX*XyXi 2 % } *.D 8X%.# = & r.wX2XhXMXmX,.W t + ,.t #   3 ^ B <.P.u b K.Z.S.Q.^.^.s.s.l.l.W.~.!.z.~.|.W.j.",
"(.H.Y.m.h hX<X*.r.r.K gX=X=X-.&X%X} J 9.=X%.A $.2 ~ <X<X8XsX Xj r.,Xt e.mX8   ` Z hX0 X  .@ @.a.d.C.Z.^.|.d.s.W.v.W.v.s.`./.x.~.",
"K.J.a g 9XfX7 I.NX#X=XeXK G 2 J P -.} H F @XU $.1 1 eXwX%XG ; = %XbX9.T hX)   ` ( w % W xXC o.K.(.^.`.|.`././.d.W.W.l.s.z.x.t.Q.",
"T.l dXX.5 ,.mX7.G $.%.1 D vX] c.L.G.2 K S U +X>X#X1 1 $ = #X*.q A gX_   eX9.. + 5 Y Y 0XmX1.O.Y.^.!.v.`./.~././.s.x.j./.)._.`.j.",
"V.#.I.M 5XmX0XT f q ~ G.i 8X} =.h.L.i L F +XuXuXnXK cXF ~ #X3XK 4 3Xe.$ r.%X& M 7.q q m fXP.@ B.D.F./.[.~.!.^.^.^.s.).`._.~.v.u.",
"n.E 4XsX XQ O M 5 N V X.l 8XqXI c.h.J L U >XuXaXBXK iXL OX+XwX1 $ 7.%X2 -.9.- G *.*.q ,.5X0.@ > l ].}.|.).`.!.^.}.k.x.l.b.j.v.).",
"C o.h <.! P.X.P.k M I.J -.jXh.] (.L.I D U +X$XuXiXU iX&.&.&.3X<XH ;.r.2 %X} =.H rX3XX.M lXR 9 9X' M.C.Q.j.j.S.Q.l.S./.v.s.~.;X/.",
"s U.a [ O.p 6.- R 7 < *XrXI I L.-X).L.D S U @X$X>X&.OX&.F OX#X3X1 <XY & <X} &Xi *XbXNXR 5.N 7 sX .m.K.a.^.).Q.s.l.~./.).v.s.^.^.",
"#.c n.b ' R.h P.q 2 rX-Xi h.).-X:X;X-XI K K D F A OXD K 1 *XG 2 G %X= q f G.U.J -.bX0X% % M >.kXkXz f.g.).[.}.W.j.).~.~.`.W.j.^.",
"oX#.M.oX{.{ 8.M f rXG.i L.L.(.~._.;X;X-XL.=.c.K J ;.$.-.~ %X2 e *.X.q % O.&X} | jX3X6 * k / sXmXzXxXO.@.-X-X[.'.j.).(.^./.`.j.s.",
"^.{.C.M.D.-  .j fXO.i L.K.H.Q.~.).;X).(.(.h.&Xc } K I.H %Xf 7 5 7.2 % X.2 - } gX%Xq : : ..1XXX1X7XqXP.E ..M.D.Z.j.(.[.^.).!.W.j.",
"/./.Q.d.T.@ z dX| u g.A.}.~.Q.~.`._.!.(.g.!.g.u ] R.] [ J H X h * o < ~ X.H tX*Xf   n g @ 7 / I.2XfXN kXdXXXl E.g.A.].^.^./.v.x.",
"Q./.Q.d.p.' V.' { ].].l.k.z.W.~.~._.;Xx.~.~.[.(.Y.@.y z ] R.a @ h > p < i rX8XG o X 0 n I. Xp M 0.R #.xXzXxX....[ x p.Y.'.S.i.i.",
"/.'.W.d.F.-Xb C.K.[./.(.~.s.s.x.).v.l.z.;X!.(.:X^.x l g.K.K.V.l u u ] =.&XjXbXG O q 5 O / 7 O O + X P.0X7XxXh fXxXzXl c @.g.'.K.",
"/./.s.Q.[.(.{.;XH.z.A.j.s.j.~.l.s.j.z.i.~.).~./.}.^.K.^.K.[.a.F.^.&X-X} rXpXtX! *.q q 0 N XXg 9 lXB y s @.O.C 4X9XqXC dX..O.].Y.",
"/.s.b.|.[.[.:X/.l.s.x.v.W.~.!.!.!.j.[.^.x.x.b.)././.(.).~.z.l./.!.z.-X| =X;.q 2 zXNXMXxXfXX.X .XkX .1.V.C u a l P z C XXkXz [ T.",
"k.l.j.j.S.S.l.d.l.~.Q.!.~.).~./.(.x.z.l.l.~.l.x.W.k.s.j.k.j.W.^.S.H.(.P } i O 3.2X0XI.T 5 fXh 0Xw.< p.m.].[.].'.].'.n.a [ 6.E...",
"a.^.S.^.i.k.Q./.~.~.~.~.!.~.!./.H.j.!.).).).`.!.k.W.`.!.!.s./.!.!.W.^.L.c.&Xi d < o . o + .X7 4Xh ..f.M.7X].^.}.(.].d.Y.E.z XX .",
"S.^.!.z.s.l.`.`.~.~.).W.W.W.~.|.v.l._.~.).;X~.;Xk.W.S.!.H.s.^.~.v.v.~.K.H.h.h.g.{.- M 0 + N M  XC R.R.x u C.{.[.|.k.a.d.S.7Xl a ",
"Q.W.W.^.W.x.`./.~.~.).~.W.W./.).l.;Xv.).;X;X|./.k.}.S.^.^.i.x.~.l.v.!.S.~.(.(.[.-X[ @ 5 ^ R / M + P.P.c V.[ F.k.k.d.W.Q.k.d.M.m.",
"Q.v.Q.~.!.j.~.!.~.~.v.v.v.~._.~.j.`.~.).).).).).u.z.W.W.j.x.A.t.S.~.!.Q.~.(.[.x.k.M.p E N 0 9 >.C > M @ ..[ M.^.Z.y./.Q.^.k.C.].",
"Q.Q.~.~.l.t.H.!.~.~.v.v.v._.~.x.j.l.!.!.~.;X~.~.u._.k.k.k.z.S.z.x.j.`.)./.!.a.S.S.{.@.@ @ . @ m  X4X( q.@ z p.Z.l.k.Z.W.~.S.d.Q.",
"v.l.W.~.W.i.W.v.v.x.v.b.W./.).j._.;X:X|.v.;Xv.j.z.Q.k.^.~.~.~.~.!.k.s.s.k.a./._.^.}.'.'.].' z >.) 0 5 X g 1.C.a.d.d.~.W.W.^.W.j.",
"v.!.Q./.k.i.z.W.b.b.v.v.~.).W.j.`.|.|.|.;X).~.j.s.Z./.~.v.v.).v.~.S.Q.S.k.k.~./.Z./.Q.Q.'.M.z V C q.,.9 7Xd A.^.i.^.W.Q.!.!.W.i.",
"W.)./.x.s.W.s.Q.W.W.!.^./.W.s.S./.|.|.).(.k.S.j./.Q.^.~.~.~.~.v.~.~.z./.^.a.s.s.Z.d.|.`.^.].d s 5 w.>.h ' p.^.Q.i.S.~.W.v.~./.j.",
"Q.v.s.v./.Q.l.j.W.~.!.l.x.l.l.s.x.!.).|.).S.z.x.^./.W.~.).Q.~.v.v.v.~././.z.Z./.d.a.s.s.a.a.d 5.5.> M u p.K.Q.Q.A.k.Q.W.W.!.(.l.",
"Q.s.s.Q.`.).~.Q.s.l.k.k.!.^./.W.i.s.S.^.z.j.i.i.}.F.^.^.Q.~.`.~.W.!.~.!./.S.s.Q.k.F./.^.Q.F.' a O...i M.H./.W.~.W.a.!.z.~.Q./.s.",
"s.d.Q.).|.).`./.j.i.k././.!.~.).s.l.s.s.k.H.^.j.i.Q.).W.W.W.v.W.~.!.!.!./.;Xk.j.W.^.W./.Q.Q.n.c o.@.{ K.A.v.v.l.W.t.W.Q.Q./.k.d.",
"s.~.Q.~.~.~./.~.j.z.~.(.!.!.v.x.~./.k.Z.!.!.!.~.S.t.x.!.^.!.^.|./.^.!.v.!.~.j./.!.^.(.~.;XH.a.M.l #.K.]./.Q.W.Q.^.i.W.W.Q.s.d.`.",
"y.Q.z./.).~.).s.S.).).!.S.l.l.!.(./.Z.W.W.^.!.~.|.^.k.i.j.Z.}.^.Q.W.l.W.!.l.t./.(.!.).).~.j.C.C.a.C.^./././.d.s.l.s.k.Q.k.s.d.Q.",
"l.k.l.W.~.Q.d.Q.~.[.).!.v.~.).~.^./.k.z.^.).~.~.).~./.~.l.i.s.~.W.Q./.[.s.j.j.i.j.k.S.k.j.k.s.k.Z.C.d.d.d.d.s.W.k.j.s.i.t.l.b.~.",
"Q.~.l.j.z.s.Q.W.z.!.!.v.W.~.).).|.).s.W.W.!.W.`.~.~.v.W.W.W.i.l.S.j.k.s.S.!.H.k.S.A.j.i.H.!.i.l.}.|.|./.d.y.W./.|.!./.^.i.S.Q.!.",
"z.W.W.j.s.Z.~./.~.~.).~.!.).).~.).^.u.!.~.!.!.!.`.~.v.v.Q.W.l.y.a.k.S.a.S.^.l.Q.Q.~.!.W.d.y.i.b.`.`.`.).~.j.W.~.).!./.W.j.t.z.z.",
"v.~.W.W.i.s.Q./.~.~._.~.)._./.~.^.^.j.!./.~.~.;X).).v.v././.S.a.!.^.S.i.Z.Q.~.Q.Q.Q.~.~.~.Q.u.l.`.Q.~.v.`.Q.u.Q.|.^.j.j.S.W.x.j.",
"~.W.~.^.s.s.).).~.~.Q.Q.W./././.^.^.a.j.j.S.!.;X;X).).~.^.k.s.k.k.(.S.j.).~.~.Q.W.v.W.Q.}.~.~.u.W./.~.)._._.l.i.s.s.j.~.~.v.!.z.",
"~.).Q.^.S.s.l.v.~.)./.~.v././.~.^.k.z.S.j.i.x.z.).).~.~.k.l.~./.l.l.j.l.~.~.v.Q.W.W.W.W.Q./.W.Q.s.W._.~.~.|.W.Z.Z.s.~.!.v.l.W.v."
};
