/* XPM */
static char *rev_11679747537[] = {
/* columns rows colors chars-per-pixel */
"64 64 233 2 ",
"   c #2B1E0D",
".  c #251B05",
"X  c #371B01",
"o  c #2C2504",
"O  c #34230C",
"+  c #3C250C",
"@  c #3A2708",
"#  c #2C3600",
"$  c #353300",
"%  c #3A3607",
"&  c #2E2415",
"*  c #332514",
"=  c #362A16",
"-  c #3C2B14",
";  c #33261A",
":  c #342A1C",
">  c #3B2D1D",
",  c #3C311E",
"<  c #393318",
"1  c #372D21",
"2  c #392E22",
"3  c #373122",
"4  c #3C3225",
"5  c #3E352A",
"6  c #3F3826",
"7  c #431E01",
"8  c #462708",
"9  c #463C08",
"0  c #432C13",
"q  c #432E19",
"w  c #4D2E13",
"e  c #512F13",
"r  c #4D3315",
"t  c #44331D",
"y  c #4B351C",
"u  c #443C1B",
"i  c #473816",
"p  c #523316",
"a  c #5B3612",
"s  c #52351A",
"d  c #5B3B1C",
"f  c #573A1A",
"g  c #552F0B",
"h  c #633C1B",
"j  c #423424",
"k  c #4B3623",
"l  c #423B25",
"z  c #4C3A23",
"x  c #41362A",
"c  c #44392C",
"v  c #4A3C2C",
"b  c #543C23",
"n  c #5A3D22",
"m  c #523F2C",
"M  c #463C31",
"N  c #4A3E31",
"B  c #433630",
"V  c #603E22",
"C  c #3B4909",
"Z  c #3F4311",
"A  c #434909",
"S  c #4A4718",
"D  c #58471A",
"F  c #4F5616",
"G  c #61411B",
"H  c #4D6713",
"J  c #53611C",
"K  c #57741B",
"L  c #4E422F",
"P  c #4A4524",
"I  c #544125",
"U  c #5C4326",
"Y  c #52432C",
"T  c #5B442C",
"R  c #564B2A",
"E  c #545727",
"W  c #4D4133",
"Q  c #4C453B",
"!  c #544534",
"~  c #544934",
"^  c #5C4B34",
"/  c #554A3B",
"(  c #5B4D3C",
")  c #544536",
"_  c #5E513E",
"`  c #575232",
"'  c #644323",
"]  c #6B4524",
"[  c #63462A",
"{  c #65492B",
"}  c #6C4A2B",
"|  c #674A23",
" . c #734E2C",
".. c #724A25",
"X. c #665829",
"o. c #76542C",
"O. c #6D4E31",
"+. c #634B34",
"@. c #714D31",
"#. c #6D5235",
"$. c #63533C",
"%. c #6B563D",
"&. c #675637",
"*. c #725234",
"=. c #7A5534",
"-. c #75563B",
";. c #7C5B3C",
":. c #775A37",
">. c #5E6633",
",. c #5B6A29",
"<. c #65652A",
"1. c #6D6938",
"2. c #76663A",
"3. c #716934",
"4. c #5D5243",
"5. c #635443",
"6. c #6C5B43",
"7. c #695B46",
"8. c #775B41",
"9. c #7C6445",
"0. c #7C654C",
"q. c #76654B",
"w. c #797849",
"e. c #7D6A52",
"r. c #786855",
"t. c #7D745B",
"y. c #6D694B",
"u. c #746A60",
"i. c #8E5A2E",
"p. c #8B562E",
"a. c #8E5C33",
"s. c #8D5F3B",
"d. c #855B38",
"f. c #925E34",
"g. c #945F39",
"h. c #905A2E",
"j. c #8D6137",
"k. c #8C623C",
"l. c #84653E",
"z. c #956136",
"x. c #986436",
"c. c #95623A",
"v. c #9A653B",
"b. c #9D693D",
"n. c #97683E",
"m. c #A16C3E",
"M. c #815F42",
"N. c #846344",
"B. c #8B6443",
"V. c #83654A",
"C. c #856A4D",
"Z. c #8B6948",
"A. c #926643",
"S. c #936A44",
"D. c #9D6B42",
"F. c #946C4B",
"G. c #9B6E4A",
"H. c #9C6742",
"J. c #8C7D4D",
"K. c #9C714B",
"L. c #97724A",
"P. c #846C52",
"I. c #8A6C50",
"U. c #8D755C",
"Y. c #897356",
"T. c #957353",
"R. c #9B7452",
"E. c #9C7A54",
"W. c #96795A",
"Q. c #966F50",
"!. c #A26E43",
"~. c #A66F49",
"^. c #A86F45",
"/. c #A57145",
"(. c #A97346",
"). c #A5734A",
"_. c #AA754A",
"`. c #AC794D",
"'. c #A7794E",
"]. c #B17B4E",
"[. c #B1774F",
"{. c #A27652",
"}. c #A47954",
"|. c #AC7A52",
" X c #A47C5B",
".X c #AC7F59",
"XX c #AE7750",
"oX c #B17C52",
"OX c #B17751",
"+X c #887964",
"@X c #957D64",
"#X c #A47F64",
"$X c #6F8E32",
"%X c #768844",
"&X c #888855",
"*X c #948A5A",
"=X c #8B8A4E",
"-X c #AE8159",
";X c #B48054",
":X c #B98357",
">X c #8BAC4B",
",X c #8D8466",
"<X c #9B8968",
"1X c #9A8B73",
"2X c #978975",
"3X c #9D9861",
"4X c #A18A6E",
"5X c #A39B6C",
"6X c #A38B72",
"7X c #A79579",
"8X c #B29A7F",
"9X c #ABA27E",
"0X c #BBBE7F",
"qX c #B6AC7D",
"wX c #ABD368",
"eX c #9C9588",
"rX c #A29685",
"tX c #B39C83",
"yX c #A19A92",
"uX c #ABA187",
"iX c #B5A589",
"pX c #BBB581",
"aX c #BAAB92",
"sX c #B5B38F",
"dX c #C9B79B",
"fX c #C4AF8D",
"gX c #CABAA7",
"hX c #BDD984",
"jX c #C4C484",
"kX c #D5C5A3",
"lX c #E5FFAD",
"zX c #C7E38F",
"xX c #E4DED6",
/* pixels */
"OXOX_._.(.x.].oX_.f.`.(._.].f.x.n.(./.!.(.(./.D.x./.'.n.x./.D.D.D./.a./././.m._._.!._.~.c.b.x.b.x.c.z.x.x.x.m.`.(.x.`.|.!./.z.!.",
"b._.oX'.(.f.x.x.b.x.`._.(._.b.!./.(._.].].:XoX/.D.c.j./._.z.b././.K.j.b.D./.(.(._.).~.~.!.`.`.(.D.b.(.-X(.z.`.(.(.`.f.!.b.g.x.!.",
"`.x.g.v.x.^.(.(._.H.b._.'.v.a.!.'.(.(.(.^.oX:X'.'.j.'.|.-XD.).n.j.S.D.c.!._._._.!.v.x.z.!.|.`.`.`.b.).`._.b.(._.(._.(.f.!.oX_.'.",
"(./.!._.f._.(./._._.v.!.j.K.'.j.c.b._./.(.].oX'.k...c.K.K.S.=.....}..X).s.z.j.x.!.!.XXoX).c.b._.(.c.b.'.(.b.x.`.(.(._.x._./._.).",
"(.`._.!.v._./.m.!.'.c.k.L.R.G h '.D.n.z.!.).}.o.d 8 Q.Z.| l.} 8 ] B.B.G.D._.K.x.).G._.`._._.!.!.D.z._._.!._._.z.b.!.f.f.g.b._.!.",
"/.(.!.c.!.oX(._._.).A.G.a o.G o.D.j.j.S.G.A. .d.} I.;.[ W.[ O.N.] h ..L.-X'.).'.c.}.(.].(.(._._./.z._._./.!._.(.c.c.(./._.!.c.b.",
"/.x._.!.H.oX`.|.K.j.S.D 8 o.o.o.L.L.L.E.K.F.' @.[ O.R 9.' 9.-.#.O.V S.{..X|._.|.).z._.].]._.!.oX|.g._._.!._._.H.f.`.oXoX/.oX/._.",
"`.f.b.x.f.z.c.c.j.R.o.' 3.3XG =Xk.D g Z.E.U V.b @Xn 9.U 9.-.#.;.[ W.T.k.A.d._.G._.|.c.H.x.g.v.g.a.g.`.`._.`._.c.`.`.|.:X_.z.c.c.",
"`.z.(./._.H.v.c.S.| { 9.3XD D D :.2.8 N.U o P O y O 0.- 0.%.V.r Z.T.] ;.G F.'._.|.oXa.b.!.(._.x.OX!.b.oX_._.x.x.x.v.!.x.z./././.",
"x.(.!.!.^.!.c.B.I.r @ 9 S o X.=XJ.$ S *X8X&.~ o . k 6.2Xk z b T C.V ;.{ C.T.*.h c.v._.m.m./._.x.g.!.m.f.v.!.f._.!.).z._.'._.(._.",
"/./.!._.!.!.A.S.X iXfX5X2.3.*X1.=X3XE 5X&Xu * o > = v e.$.2X1X7.q b q %.9.{ d =.|.|.`.(./.(.].v._.^.).).c.v.f.!.).~.G.b.`._.(.`.",
"(.(._.!.~.).B.U [ gXkXfX3XA S o 5X=XA <.% o o l , x x 4 > _ +X5.r.rX7Xu - #.{ T.Q.K.K.'.(.(.b.f.^._._.!./.c.!.!.!._.b.f././._.!.",
"|.'./.!.D.S.f &.dXdXpXpXjX<.$ % % 1.w.=X# # S Z P l l x 6 4 j x ( rXrXq 1XT I #.-.e B.S.H.H.c.(.!.!.~.).~.^.f.!.!.!._.g.b./.m.v.",
"b./._.G.k.d 7XkX9Xy.F 0X=X<.*X*XJ.S <.C A ,.C # l 3 x x l x x x j j 4 7.uXkXiX- + s { R.R.S.)./._._.!._.!.~.f.(.!.(.^.f.z.b.!.!.",
"_.b.g.k.T.T.uX&X1.&X,.0X3.F % S 9 $ # H H $X%X# S l j l x x B 5 x 6 x v 4.6.^ - 1X1Xq C.F.k.D.`.oX_.!.!.!.~.f.!.~.H.f._.(.x.z.m.",
"_.XXS.l.+.6Xw.E sX%X&X1.$ qX9 J.*X% J K >XwXhX,.~ 6 c 6 6 5 B x 5 5 x x 5 4 j L iXiX+ q *.} G.g.g.b.!.v.h.f.i.x.g.f.m._.].].].x.",
"_.XXB.' 0.8.+XuXw.< = *XR <X<.l.J.9 A K wXwXlX%XE 3 W 6 5 5 B 5 5 5 5 5 3 6 l , ~ uXk t 1XV.B..XoX_.c.f.(.`._._.H.v.!.(._.(._.x.",
"XX{.s 8Xz 0.dX+XR t P ,X` 3XfX3.=Xo.A K >XwXzX,.` 6 W 3 5 5 5 5 5 3 5 5 l 4 x x , t.L = 4X8X@.G. X).'.c.!.`._.v.c.g.x.b._.(.v.!.",
"G.R.r tXP.<X$.= q.S < 2.R pXl.=.'.l.# J K $X>XA P < W x 5 c 5 5 3 3 < & ~ t.5 : ,X5.6.z tXdXkX7X] l. X-Xg.g.a.v._.m.!.x.c.x.!./.",
").S.X b - &.e.q.u I o 2.qX| G *XE.:.$ Z J C C S R 3 W c 5 M x 4 5 5 6 6 < 6 2   ( 0 y C.6X6X7X7Xq 9.N. XA.g.!./._.!.!.!.b.i.c.).",
"G. XX Y.@ ,XT @ q.% y.5XD o.L.R.Z.p P t.>.# F E ^ 6 W x 5 B B B 5 2 1 ; 4 l l - U 8 n 8.9.P.<Xq.^ fX<X*.d.s.!.).(.`._.).(.b.i.(.",
"b.c...{ V.[ %.q.z 1.7XD o.S.l.W.r T +X7.& . < o $.j W c B 5 B x x 5 5 5 x x q 6.W.Z.} #.r r U r 1XdXgX@Xd T.{.G._./.(._.(./.m.j.",
"!.H.G... X#Xs ^ ` 7XD l.n.L.=.*.e.q.j : < 6 ~ 6 ~ j Q B 5 5 x x x x x x j 2 > T Z.F.L.}.E.B.@.8 #.U.dXe.8.-.Q.{.}._._.~.)./.m.x.",
"!.m.D.A.s.{.e [ 6XI ;.T.T.Z.n U.Y = , c _ 4._ = x x W 5 c 5 x x x x j 2 2 2 > %.T.L.k.c.F.c.d.B.' d #.I aXfX8.@.Q.K.k.s.S./.D./.",
"!.H.c.s.G.s.N.} b R n I.C.[ e.( = > W 4.4.4.( 3 1 N v x 5 5 x 5 5 2 1 ; 1 4 5 j +.F.{.g.).H.H.{.{.l.} n U.dX8.<XC.*.=. .g ).H.!.",
"!.g.z.H.n.n.N.8 U.C.f 8.n r.5.x > W 4.4./ eXy./ x v c x 5 B 5 5 3 3 & . 1 5 B x + ;.}.D.a.i.!._./.).K.B.s C.0 U.fX#.;.a k.|.!.~.",
"z.i.b.v.!.K. Xf fXz e.I e.T j : , W 4.4.4.x 2 4 B x B x 2 4 5 4 5 5 ; > j B v > m [ K.G.j.c.(.(.D.!.'.G.H.M.| } } =.d.G.K._.~._.",
"`.x.a.!.!.G.R.w tX@Xz O O ! = > : > x 5 j > j v x x B 2 5 & 1 x 5 2 > 2 k j 2 * +.+.[ F.}.x.!.!./.)._.!.c.g.D.F.B.s.d.g.c.f.f.a.",
"'.`./.c.D.D.k.a 8.tXiX6.$.  t y.7.7.5.5.t $.m N x c x 1 5 ; ; 2 2 4 6 3 2 > c ( j m 4X@.M.d.D.D.H.!._._.s.z.c.n.G.~.).D.).|.b.x.",
"(.m._.!.a.j.{.L.+ b u - $.> j $.L R ~ Y 5.> v x x 5 x 2 2 : 4 4 M 5 4 3 2   / +X> +XdX' G.{.s.g.c.b.H.).`.f.z./.~.!.!.g._.`.x.'.",
"(.(.(._.j.'.}.-XF.;.+ z . +X/ 1Xr.t , / 4 Y x x 5 2 1 2 2 N N c 4 3 5 5 : : : 4 = rX8.X B.{.s.~._._.|.oX].oX~.g.D.!.v.f.b.x.i.K.",
"(.`.(.!.x.z.v.j.A.I.W.$.O v >   ` 4.) 4 ! x j 2 1 2 2 3 x c x 4 , 5 5 5 x : . & ; N : b V 8.A.'.K.!./._._.!.).XXg.v.g._.`.oX'.x.",
"z.m.x.x.'.|.v.x. XF.Y.I l aX^ 4 > c > W x 2 2 2 2 x c x 4 5 1 5 5 6 5 4 1 & ; : x >   t y s O.F.!.!.).`.(.(._.~.^.f.`.].oX(.m.f.",
"].x.x.`.'._.(.s.R.V 6X0 q.iXz r.  * M v v N N N N x 5 2 1 1 1 5 2 2 1 1 1 1 3 : 2 2 & m > 0 -.=.~.'.|.;X_.oX~.(._.b.z.v.b.z.!.|.",
"_.(.x._.(.(.`.D.B.e tXO Y aXt.r.& 4 v x x j 5 2 2 2 1 2 1 2 1 1 3 > 1 1 5 5 4 5 4 j q = 7.q T U c.c.H.G.c.g.b.(.x.H.`./.f./.]._.",
"|.!.b.`.(.(._.|.B.[ 4X- & 7.eX2Xj c v x v N v 5 j 2 2 1 1 4 4 4 3 4 2 4 5 B M c j 2 4 v m q &.] R.b./.a.).`./.z.v._.`._.m.f././.",
"g.f.m.(.(.(._._.B.*.@X= ^ = :   4 v x N 5 2 2 x x M M x 4 5 N M 5 5 5 5 5 2 1 2 = j 7.v k &.:.;.)./.c.a.|.;X(.m.x.`./.(.oX!.g._.",
"_.!.x._.(._.'.S.A.{ P.q 5.4.( & j c > 4 N 4 2 2 2 1 2 5 5 1 4 1 1 5 5 5 4 5 2 * & t   @X0.%.{ F.-X}.).z.`.;X;X(.f.'.'.(._.oXc.a.",
"!.].x.f.H./.g.s.s.e Y.2 4.4.4.: x c 2 2 5 N 4 1 1 2 1 2 5 4 4 5 4.eXyX5 5 5 j v t $.Y k 0 e N.-X`.(._.z.v.x.x.m.z.`._.(._._.!.g.",
"_._._.f._.g.D.XX{.V +X> 4.4.4.2 x c 2 2 1 5 M 5 1 2 1 1 1 2 1 1 eXxXxXgXx j q e.q.w +.#.O.B.k.H._._.D.z.(._.`.m.x.x._.(.(._.!.c.",
"!._._.f.i.b.!.!.R.F.U.q _ 4.4.2 x x 2 j 2 1 5 M x 4 1 1 2 1 1 2 ; 1 1 u.2 > 0 I.W.s 8.B. . X|.x.g.g.g.v.].m.(./.'.x.c._.`.m.a.g.",
"_._.b.f.!.oXoX_.).E.P.> L 4.5.2 x c 2 x 2 1 1 2 x x 5 2 1 2 1 1 1 1 ; ; 1 q V V.{.A. .k.K.XX_._./.).z.b._.(.!.(.(.`.x.z.x.z.).~.",
"`._.c.).`._.OX:XK.S.8 T < 5.4.x 2 N 2 2 B / 1 1 2 5 x M 5 1 2 2 1 1 1 & k +.M.I.{.|.'.|.'./._.(./.!.c.H._._.(.(._.`.'.f.v.c._.).",
"_.z.b.oX].oX:X_.c.s.*.U.t ( 5.k 2 v 2 2 5 1 N 2 2 2 2 5 M M 5 2 1 1 1 1 2 ; n R.s.'.|.{.oX_._._.`._.v.x.oX(.m.m.m.`.G.i.v._._.).",
"c.v.z.z.!.m.v.f.v.{.R.8.T v 5./ 2 M 2 2 4 5 4 5 5 5 5 2 2 j x x 5 5 3 4 1 > 0 M.{.s.g.!._.|.oX).oX`.c.g._.oX(.(._._.v.z.).oX].oX",
"g.!././.h.g.^.(.!.).}.d.U.t _ 4.; c 5 1 1 5 x 5 5 B 5 5 j j 2 2 5 5 W c 4 > q *.}..Xk.~.z.i.f.z.x.g.f.f.:X_.(._.`.'.z./.oXoX`.;X",
"H._./.b.f.b.]._._._._.R.N.z L 4.> 3 5 1 2 1 5 5 x 5 x x 2 4.v j 3 4 4 5 x v b y B.}.p.!.i./.`.(.c.'._.z._.oX].|.|.b.g.z.!.|.oX_.",
"~.!.!./.!.x.`._._._._.).;.0., _ Q : 5 2 1 1 5 B B x x x 2 / B x 5 x 5 x j q V M.K.A.c././././.(.g.)./.z.x.b.b.c.z.g.H.).x.g.g.c.",
"!.!.!.(.!.z._.(.(./._.!.K.-.v j 4.: j x 2 2 1 5 5 5 4 x x x j j 5 x x x q V.-XS.j.v.`./.m.m./.`.x.a.b.!.m.h.z.!.H.a._.!._.x.c.XX",
"^.!.(._.v.a.!.!._./.m.!.S.d.Y.- N N ; B 4 3 2 2 1 5 & N x k j k j k k [ W.T.d.b./._.(.(.(.m._._.H.b././.(.(.f.!.v.z.b.!._.H.g.~.",
"!.b.!._.!.f.!.!.m.v.m.v.~.{.+.b j 4.B j v > 2 2 2 2 2 ^ @XV.b y s e @.B.A.a._.|.(.`.(./.(./.`.;Xb.K./.m.m.(.m.f.f.z./.!.!._.!.g.",
"m.(.!._.g.a.H.~.!.v.m./.).}.Z.n + +.m k k 2 q 2 2 2 q   C.W.8.] M.F.{.S.s.c._.(.b._.(./.(./.(.b.j././.(.m.(.(.(.g./.!./.~.!.!.g.",
"!._._.c.g.H.f.!.!./.(.(._.K.c.;.X w 8.@Xq x > 2 2 > q = +.W.E.K._._.H.XX/.s.f.g.b.g.`.`._._.(.x.z._.m.^.(.m.(.!.a.!.(.!.m.(._.z.",
"^.m.f.!.[._.b.z.!./.(.x.c.c.n.k. .8 } #X8.q t 2 2 2 2 > - s G.D.!.!.!.)._.b.b.'.j.s.f.a.g.f.f.c.'.(.m.(.(.m.^.(.H.z.!.m.m.!._.b.",
"!.h.g.).`.].(.!.f.c.v.f.!._._.S.d.M.h Q.F.V q x > 2 2 2 > 0 d.{.!._.(./.(.D.g.K.c./._./.~.D.g.).(._._.(.m.m.m.^.!.f.(.m.(.!._.s.",
"h.x.!._.].(.].`.x.f.c._._./.(.'.g.g.H.s.A.R.n k x 2 2 2 > X F.H._.^.!.(.(.;Xc.z.G././._.~.).f._._.oX`.(.m.m.m.m.!.i.!./.!._.c.c.",
"a._./.(.(.(._._.g.H._._.!.!.!.x.(.'.c.A.).).B.n k x 2 2 q n R.oX~.~.^.!.!.(.z._.(./._._.oX/.f.H.`.oXoX_.^.!.!.~./.a.!.!.~.g.g._.",
"p./.b.`.`.(.(.f.!.|._./.!.v.b./._._.c.).~.G.Q.T.b q t q m I.}.~.~.!.b.!.(.v.a._._./.|.|.).c.c.v.f.b.!._._.(.g.f.x.f.v.~.g.g.g.~.",
"x.c.c./.(.m.f.!.~.oX_./.b._.`.(.(._.z.b.)._._.}.{.@.s w V M.B.~.~.(._._.g.g.g.a.g.c.b.z.f.c.g.c.v.b.g.g.f.f.h.!.x.f.f.a.a.x.!.^.",
"!.(.x.z.m.x.(.m.m.!.(.m.m.(._.`.;X`.f.!.).!.)._.{.~.G.} 7 M.d.c.H.z.x.g.H.~.~.g.!.D.g.j.~.).a.v.XXoXoX_.x.f.^._.oX)._.).f.!.!.^.",
"!.!.!.c.f.b._._.(.(.].(.m.(.(.(.`._.h./._.!.(.`.OX_.~.G.S.G.H.a.a.A.D.f.H.).b.!.m._.(.b.f.h.p.m.oX[.[._.(.g.^.^._._._.!.f.p.H.!.",
"m./.!.!.i.f.!._.m.m.].`.;X;X`._._._.f.!.(.(.`.]._.XX~.~.'.'.H.g.!.).D.a.b./._.(.(.(.(.(.^.^.h.v.XX!.(.(._.(.h.(.OX(.g.g.!.!.v.f.",
"(./._.~.z.h.;X;X;X(.(.m.m.(.(.(._.D.g.z.g.b._.`.oX_.).)._.c.g.c.v._.!.g.|.!.(.!.m.m.!.(._._.~.f.!._.!._.].].v.h.z.f.g.(.!.m.!.m.",
"(.(.^.(.m.h.j.m.m.`.`.(.m.(.`.(.(.c.H.G.g.i.x.b.|.|.~.).c.c._._.v.v.g.v._.(.^.m.m.b.!.b.)._.~.~.f.!.OX_.(.:Xm.v.v.f.(.m.m.m.m.!."
};
