/* XPM */
static char *rev_31679747538[] = {
/* columns rows colors chars-per-pixel */
"64 64 238 2 ",
"   c #241400",
".  c #2B1B02",
"X  c #251A0B",
"o  c #2B1D0C",
"O  c #281702",
"+  c #341A01",
"@  c #3B1D02",
"#  c #331805",
"$  c #2B1E13",
"%  c #301E10",
"&  c #2B2401",
"*  c #2D210C",
"=  c #262506",
"-  c #322201",
";  c #35230C",
":  c #3C250C",
">  c #3C2A07",
",  c #39340A",
"<  c #2D2215",
"1  c #2F2419",
"2  c #2F2818",
"3  c #332513",
"4  c #392613",
"5  c #3C2B15",
"6  c #32261B",
"7  c #342A1C",
"8  c #3A2D1D",
"9  c #322B13",
"0  c #3C3418",
"q  c #362D22",
"w  c #392D23",
"e  c #3D3225",
"r  c #3E3429",
"t  c #3F3827",
"y  c #401D00",
"u  c #442504",
"i  c #422308",
"p  c #432A0C",
"a  c #4B2B0C",
"s  c #472702",
"d  c #512D0C",
"f  c #552C09",
"g  c #47360E",
"h  c #54340E",
"j  c #442D14",
"k  c #4B2E14",
"l  c #432E1C",
"z  c #4D3315",
"x  c #44321C",
"c  c #4C341C",
"v  c #4B3A1D",
"b  c #443816",
"n  c #533415",
"m  c #5B3514",
"M  c #533619",
"N  c #59371B",
"B  c #553A1D",
"V  c #5B3C1D",
"C  c #5B3A15",
"Z  c #532E11",
"A  c #613E1D",
"S  c #633C15",
"D  c #433425",
"F  c #493623",
"G  c #423926",
"H  c #4C3B23",
"J  c #42362A",
"K  c #453A2C",
"L  c #4A3C2C",
"P  c #553C23",
"I  c #5B3D22",
"U  c #553F2A",
"Y  c #463C31",
"T  c #4B3E32",
"R  c #402E20",
"E  c #623E23",
"W  c #4E451D",
"Q  c #474612",
"!  c #59461C",
"~  c #555517",
"^  c #61401F",
"/  c #4B4228",
"(  c #524226",
")  c #5D4224",
"_  c #55432C",
"`  c #5B432B",
"'  c #594A29",
"]  c #4E5624",
"[  c #5A582E",
"{  c #4D4133",
"}  c #4F4539",
"|  c #524536",
" . c #5B4A33",
".. c #57493B",
"X. c #5C5F32",
"o. c #634324",
"O. c #624429",
"+. c #65492B",
"@. c #6D4B2C",
"#. c #6C4625",
"$. c #754C2B",
"%. c #685829",
"&. c #7B542E",
"*. c #654C34",
"=. c #6A4E32",
"-. c #634F3B",
";. c #714E33",
":. c #655334",
">. c #6D5335",
",. c #64533B",
"<. c #6B543A",
"1. c #6A5A3A",
"2. c #745233",
"3. c #7A5533",
"4. c #72563B",
"5. c #795639",
"6. c #735A3C",
"7. c #7C5A3C",
"8. c #7B5B35",
"9. c #696436",
"0. c #6F6A36",
"q. c #5B4F41",
"w. c #665745",
"e. c #745C43",
"r. c #7D5F44",
"t. c #715C47",
"y. c #736445",
"u. c #7D6244",
"i. c #75644C",
"p. c #7C644C",
"a. c #7B694D",
"s. c #7A764B",
"d. c #7C6956",
"f. c #716D4B",
"g. c #8D5A2D",
"h. c #89562E",
"j. c #8E5B33",
"k. c #835E3B",
"l. c #8B5E3A",
"z. c #835934",
"x. c #925E34",
"c. c #915E38",
"v. c #905B2F",
"b. c #8D623D",
"n. c #89613B",
"m. c #956136",
"M. c #996436",
"N. c #956239",
"B. c #9A653B",
"V. c #9D693D",
"C. c #96683F",
"Z. c #A16B3E",
"A. c #805E42",
"S. c #836343",
"D. c #8D6442",
"F. c #83654A",
"G. c #856C4E",
"H. c #8B6A4B",
"J. c #8A6945",
"K. c #936542",
"L. c #946A44",
"P. c #9D6B43",
"I. c #936C4A",
"U. c #9B6E4A",
"Y. c #996540",
"T. c #9D7145",
"R. c #96704D",
"E. c #9D724C",
"W. c #856C53",
"Q. c #8B6E52",
"!. c #876E58",
"~. c #887559",
"^. c #947352",
"/. c #9C7453",
"(. c #9C7955",
"). c #92765B",
"_. c #9C7A5A",
"`. c #93795A",
"'. c #8A704A",
"]. c #A36E43",
"[. c #A86F43",
"{. c #A46F48",
"}. c #A57145",
"|. c #A97346",
" X c #A5734A",
".X c #AA754A",
"XX c #A6784E",
"oX c #AD794D",
"OX c #B17B4E",
"+X c #B0764E",
"@X c #A37652",
"#X c #A47A55",
"$X c #AD7B52",
"%X c #A57D5B",
"&X c #AB7E5A",
"*X c #AD7750",
"=X c #B17D52",
"-X c #8C7B64",
";X c #8B7D6C",
":X c #837363",
">X c #957C62",
",X c #A27F61",
"<X c #7D8450",
"1X c #949651",
"2X c #968152",
"3X c #AA825B",
"4X c #B48054",
"5X c #B58258",
"6X c #968264",
"7X c #9B8465",
"8X c #94826A",
"9X c #988669",
"0X c #9D946A",
"qX c #998B76",
"wX c #908C6D",
"eX c #A58B72",
"rX c #A69579",
"tX c #A88460",
"yX c #A6A968",
"uX c #AEAA79",
"iX c #B2A779",
"pX c #ABB173",
"aX c #A89A83",
"sX c #B29D83",
"dX c #B7A786",
"fX c #BBB789",
"gX c #BDAC91",
"hX c #BEB491",
"jX c #AFA780",
"kX c #C5B39A",
"lX c #C7B799",
"zX c #C9B196",
"xX c #CFB9A1",
"cX c #D2BEA2",
"vX c #C7C598",
"bX c #CFC2A8",
"nX c #D5C6A8",
"mX c #D8CAB0",
/* pixels */
"oXoX.X.X.Xx.=X=X.Xx..X.X|.oXM.M.B.}.|.Z.|.+X}.Z.M.|..XM.m.|.}. XP.].g.|.}.}.}..XoX[.].Z.M.V.M.].m.B.x.N.m.M.Z.oX|.M.oXoXV. Xx.].",
"V.oX=X.X.Xc.B.B.].x.oX|. X.XM.].}..X|.=XOX4X4XZ.Z.m.M. X.Xv.P.].[.}.m.V.P.}. X}..X}.|.].].=X=X XP.Y.XX$XoXm.oX|.|.oXx.[.V.M.B.[.",
"*XB.m.B.c.[.{..X|.Y.V..XoXV.x.}.|.}.}.|..XOX4X|.oXm.oXoXoX}.|.M.m.M.}.m.]. XoX X}.C.B.x.[.=XoXoXoXP..X$XoXV.|..X|.|..Xx.}.$X X.X",
"XX X]. Xx.oX.X|.[.=XB.].x.}. XB.m.}..X X|.oX4XoXB.}..X X}.}.}..Xm.oX$XXXm.m.m.b.P.P.oX=X].m.V. X}.N.P.|.|.V.m..X|.|..Xm.[.].oX X",
".X.XoXZ.M.oX].Z.].oXB.x.}..X}. XoXZ.C.m.}..XoXV.oX}.4X=X|.].V.V.m.B.N.}.]. XT.N.[.V.oXoX.X*X[.].P.j.oX{.].|..Xm.P.V.x.x.x.P..X}.",
"|.{.].x.].OX|..X|.].B..XoX=XoX}.C.m.x.Z.P.m.N.B.}.oX}..XoX].}.}.N.P.XX X4XoX X.XB.oX|.+X.X X X.X Xm.oX X[.[.oX}.M.M.{.[..X].M.L.",
"[.M. X[.Y.=XOX=X}.m.P..X=X XN.m.T.T.}..X}..XM.|.M.B.B.XX X X.X|.m.T.P. X4X$XoXoX{.B.oX$X$X*X].=X$Xc..X.X]..X XP.m..X=X=X{.=X}..X",
"oXx.V.B.x.x.B.m.j. X{.N.m. XT.XX XU. X|..X}.m.|.oX$XXXT.D.l. XK.E.E.E.n.&. X|.]..X=Xc.Y.m.c.B.m.x.x.=XoX.X*X.Xm.oXoX=X5XoXm.m.m.",
"OXx.[.{..XM.Z.B.B.].}.Z.m.$XXXE.b.P.U.{.oXV.oX X=X=X/.2.@ C R.I.n.&.C y d L.E. X3X$Xj.B.}. X.XB.+X].P.$X*X.Xc.B.N.V.}.N.m.}.}.}.",
"M..X[.[.[.[.x.c.}.].}.T.n.L.(.S @ $.{.XXoXx.oX XXX@Xo.N n G.7.m 8.2XE +.^.k.#.h.m.V..X}.].].oXm.B.{.Z.x.B.[.x.[.}.}.m. XoX X X.X",
"].|.]..X[.{.B.Y.}.V. X X8.s h #.s J.T. XP.U. X}.E.C S.z H.2.u _.S.z Q.6.i V h L.*X$XoX|.].|.=XM.{.[.[. Xm.V.x.{. X].].V.oX.X.XoX",
"|.|.[.{.[.{.V.V.P.}.E.J.C s 0.2X8.^.(.3Xz.E.&X3X&.2.*.4.F.a G.>.h H.;.+.u.o.D.R.E.E. X X X|.Z.x.[..X.X]. Xm.].].P..XP.x.}.].oX].",
"OX+X}.].L.{.B.].}.T.C.@.%.%.iX~ J.^.8.s # V (.%X! Q.: p.=.2.~.V Q.@.V S.o.R.L.R.k.f f D.Y.P.B.|.{.]..X[.{.[.x.].].{.+Xc.V.].Z.V.",
"Z.Z.|.].N.Y.x.Y.L.n.@.) ! 0X0.s ) p 9.6XB u.S.B z e.j w.U e.e.B Q.+.Q.n H.(.I.m 8.V ^././.U.{.[.*X{.[.{.].{.x.[.{.[.[.j.x.].].].",
".XB.m.x. X.X].U.l.2.+ . ' 0.> . , v 5 * H ' :.- ( .     3 ; : H c 1.:.v ).G.V H.@.(._.D.E E ].$X$X*X{.].].|.x.].{.P.x.|.+XM.x.].",
"oXoXP.M..X.X}.P.S.i <.' v ' , y.F 6Xy.  x gXmXs.~.8 F 9 3 i.aXqX/ _ ( F *.: F.) r.^.4.I n k.U.c.N.B.[.B.v.x.v.c.c.x.Z..X=XoX+XM.",
"}.oX=Xx.m.N.b./.:.*.nXmXvXf.W >.a.lXaX  / s.wX/ /   t 8 G G D D L aXcXaX8 i.l l U U *.E S.k.K.%X%XXXN.j.|.+X|..XM.B.[.|.*XoX.Xc.",
"oX}.=Xc.m.P.E.J.x uXcXnXvXuXQ - ' kXmXjXX.2 Q 0 9 * 2 7 e e e q 6 t } 0 | :XqXw.% #  .P 4.+.2.k.k. XXXN.].OXoXB.B.x.c.Z..X[.Z.[.",
"P..X].j.P.E.S.z d.mXvXfXpXpXyXg - ~.xXmX8X8 { t J L T T / Y K r K / e 7 7 D K J D K T L F F 4 + C /.3X+Xj.M.j.V.[.].].M.m.m.].[.",
" XP.j.$X#X2.) dXbXhX<X0.pX1X1X%.W > d.d.K e K 7 7 7 w e e q 6 q r r r e J w w q q e e 7 < $ * F k %XoXOXB.m.P.}.oX].].].Z.j.m.].",
"].oXx.&X#Xd zXvXwX] X.Q yXyX~ Q & 9 * X 2 8 J T K w w w w w q q 7 6 q q q q q q q q q $ 2 7 8 * . 5.U.L.x.x. X.X|.oX|.}.}.Z.v.|.",
"M.B.l.U.7X) dXs.X.vXpX0.yX0.Q 0.& d./ 2 8 t D D T { L J r q q q q q q q q q q q q q $ $ q 7 q e % e.#XL.V.oX X].|.].|.oX|.Z.Z.m.",
"].P.U.7.j W.zXW 9.<X] <XQ & 9.uX0 = = < 8 w e q r r Y Y T Y r r Y q.Y r e e e w w J e q D D R q 8 3 O.S.l.$XoX XOX|..X]..X[.}.M.",
"U.L.k.N ~.8Xy.gXfXf.& , Q [ W rXfXQ 8X< L w K J q 1 1 q q q q 6 r K J Y J Y J K Y K K T } T T D 3 3 e.V D.b.$XoX|.}.].].[.}.].}.",
"].U.o.gX( x kXlX:.[ ( / b j W uX0X, w.q.K K w T J q q q w w q q 1 6 q 1 q q 1 6 6 6 6 w q 6 q 6 / 4 `.r.D.U.B.$XoX}.|.Z.OX+XZ.Z.",
"].l.n zX:.rX6XH   v ; H 1.y.s.iX, 0 f.q.e { q w Y w q q q q q w q q q q q q q q 4 w w w $ $ q.K L 8 sXr.7.U.c.c.|.Z.oX|..XOXZ.[.",
"N.j.y <.p.) j :. .W.:.v . 9.fXW i.< <Xq.7 { q 7 q Y r q e w 8 w q w w q w w $ d.:X6 w w J r $ R F 8XzXxX4.r.k.{.x.Z..X].[.+X|.|.",
"oXb.+ W.p 7XP P Q.p ( v , jX9.v aXr r aXe Y t q q q Y r r J D D r w w r w % J d.d.3 1 r J $ 4 l f.sXcXlXcXW.A.I.U.x.v.x.x.x.x.g.",
"*X#Xa ).k V >.r.G.B u.- 0XG.b :.hXJ 9 ..L J Y 2 2 7 w K T } L K D J J J J J F R R R 6 t J ; : <.`.6X7X7XdX>X@ I E. X{.]..X+XZ.M.",
"XXE.I.2.5.7.d I.2.G.b 1.uXg S.:.rXL 8 6 $ q Y 7 * < 7 1 D K } } T J J J J J D R J J J G 5 v >.o.> O.'.7XsX( ( I D.U.P.c.+X+XM.|.",
"}.XXL.m l.$X%X%X+.S.> iX6.%.(.J.e.i.5 8 1 q Y e 2 } q.1 6 q r J T T J J J J J J 6 $ 6 3 5 Q.S.^.^.p ) y.P x dXr.=.U.N.j.].M.g.Z.",
".X X XP.c.c.Y.D.! - W.6Xn 7.K.D.z qXx 8 w $ r r q 1 q q q 7 6 w J J T L J J J J J e q w.t.F.Q._._.H.) + +.rXcXcX>X=.D.@X*X=XOXM.",
"x.].m.V.$XoXC.C.k.6.7X! n.b.L.L.o.9XL 8 D 3 q T q q q w w q q q q w r r K J J K J J K D l 5 k =.I H.).k.a Q.rXxXxXE #X&X$X}.P.j.",
"OXB.M.oX.X.X.Xv.E.S.u D.j.U.*XXXI.>.t.7 K K 6 K r q q w w e w q w q q q q q K ..{ J J J D F 4 w.W.F.#X,XH.I 9XcXp.B 5.K.L.m.}.$X",
".X}.M.oX}.|.4XV.b.P.n.m.P.B.P.T.@X+.8X6 J r % w r q w r J J r q w q w w q q 8 J | T K J D F 8 w.r.=.H.U.D.u P F ` sXE /.b.}.oX.X",
"=XV.L.oX|..X|..Xm.C.oXoX.X|..X4X&X(.u.F 7 { 6 6 Y Y w w J J r Y D w 7 e q q q 8 7 D K T J K D 7 4 r./.D.@X(.Z =.gXkX>X4.E.m.|.Z.",
"M.x.P..X|.|.|..Xm.}.}.|..XoXoX4X5X&XN ` o 8 T 1 w T w w J r J r r D w R $ J Y J D e J J D w 8 3 % Q.5.l.%X%X#XM r.kXlX+.%XT.N. X",
".XV.m.oX|.|.|.V.m.|.|.Z.|.}..X|.=X&X5.# w.3 T D q Y D w w J r J e 6 R J J J J J J J J r 7 q.wX-Xl *.n o.%X3X&X2.O.rXH ' 2.%Xm.x.",
"}.oXB.c.].].m.m.v.M.V.|.|.T.]. XoX4X&XE ).-.8 | 7 e Y q q r J J J 8 T R R D J J J D D 6 X X D 3 5 9XcXI K.K.L.I.#.: a.eXA /.U.M.",
"}..X XN.XXm.V.oXXXm.x.V.XX|. X[..X=XE.#Xo.~.8 J J 8 K q q q Y J J D U !.-.l R F F D 7 X e o qXw.-.kX>Xu I.@X$XE.D.k 6.zX;.I.U.N.",
"Z.oX Xm.g.V.P.P. XoX.Xm.m.V.].}..X=X$XL.^.O.i.3 K 6 D t w q r r J J l ).>X4.k c w.c L % 8 X 8XD qX).a r.#X X]. X#X3.` eXM 7.l.l.",
"|.|.V.x.}.$X4XoX].=X.X.XXXm.m.m. X}.Y.P.3XS.e.F 8 D < G q q w r J D l p.`._.F.S.W.l F . ; 5 ..9 qXF I I.#XE. X X X#Xm <.eXV @X X",
"OX.Xx.}.oXoXOX4X}.V.M.x.g.M.}.P.m.j.L.j.@X,X=.>X5 q 3 w r e q w K J D U _./.@XK.Q.4 F O 3 8 -XH -Xj P I.H.U.XX X}.XXk.m 9XE @XE.",
"$Xx.P.=XoX=X5X.XB.x.B.].}.].|.}.}.N.oX.XN.K.K.r.!.4 3 1 e q q w D D F l =.#X&X@X2.@ 5   ; 8 5  ._ O E Q.#.E K.U.}.XXR.! 4.o.@X X",
"N.C.N.m.].P.V.x.M.oX[.[.|.|.|..X$XM.V.m.N. XL.;.I -X3 6 q r G e D J J F k 5././.J.p  . .. . . 5 -Xx j j p S.A #X.XXXL.k.s E =X=X",
"n.}.U.}.g.m.{..X|.Z.oX].[.|.}..X].m.}.oX$X#X$XE.;.k L 3 $ w { q D D J J P /.U.U./.s B *._ : x | d.6X .~.; *.2.@X*X*XN.{. X$X=X5X",
"M.oX].Z.x.V.OXoX.X+X+XZ.].Z..X=X].M.OX|.oXoX.X&XH.Z F.F % < K G J J D F I U.@X*X=XK.a n z c _ ,. .H x _ # c E &X&XB.j.c.].&X=X*X",
"|.Z.].|.V.M.oX|.|.oX|.oXZ.|..X*XV.=X.XoX4X4X=XXXK./.U e.; 7 9 L w D D U H.@X*X*X&XY.C.^.`.O.` x  .| H 4 i r.N K.c.l.].{.B.x.c.c.",
"].[.[.[.].m. X}.|.|.|.Z.[.[.oX.XM.oX.X=XoXoX|.oXn.L.I.V E 3 4 w K D R O.(..X$XV.N.V.#XT.R.@.F 5 _ aX~.,.4.I 3.{.Y.l..X{. XB.x.oX",
"[.].|..XB.j.}.}.|.}.Z.].Z.oX.Xm.N.M.}.]..X=X.X Xv.$XD.D.;.# # t.F F c O.%XU.j.P.P.oX.X XE.Z E ,.0 j : >.+.H.l.U.Y.c.V.]..XP.x.[.",
"].V.[. X{.x.].].].M.Z.M.]..X.XM.OX4X5X4X}.=X.Xm.V. Xm. X@XS.i U ).;.k E K.c..X=X X$X.X X@XZ B ( x j n o.L. XU.x.x.m.}.].[. X{.c.",
"Z.[.]..Xm.h.P.].V.V.Z.|.|.$XP.x.oXOX4X4XoXoX.Xx.n.V. X XU.E.E.d Z D./.5.z.c. XoXP..X.X{.@X2.o.W.`.k H.@X].|.|.}.x.|.V.}.}.].].x.",
"]..X.Xc.c.].x.].].].}. XoX].M.Y.oX$X=XoX.Xm.].x.}.}.|.|.|..X XU.{. XU.@X Xj.j.j.B.c.*X$X X@X@.Z a K.P. XoX].|.].x.P.{.].P..X.Xc.",
"[.].x.]..X.XB.x.]. X}.B.M.m.V.x.m.}.oXOXoXV.V.V. X.X]..X|.[.oXZ.].Y.}..X.XB.P.@Xc.j.b.j.x.l.l.K.#XXX].|.[.[.|.].P.m.{.].[.]..XY.",
"].x.c.[.oXoX[.[.x.M.B.N.}. X.XV.g.m.V.|.V.m.g.g.oXU.}. X|.|.oX|.]..X|.|..X].m.E.N. X|.}.{.].c.@X X X.X}.Z.|.Z..X].j. XP. X{.*Xx.",
"j.c.[.+X+X=XOXoXm.x.m..X X|.|.oXm.M.m.x.m.Z.|.x.g.}.oX].[.].].Z. X].[.[..X=XB.N.T.}.Z..X]..Xx. XXX=XoX|.Z.Z.Z.M.].j.].{.{.XXN.c.",
"c..X].[..X.X.X.XN.B. XXX}.}.Z.M.].oXM.B.[.{.]..XV.g.m.T.XX}.[.=X.X{.[.[.[..Xc. X X X|.|.=X}.x.P.*X=X=XoX].].]..X[.j.P.].{.x.x.oX",
"h.].P.oX.X[.oXx.P.$XoX|.V.B.V.}.oXoXB.].{.}.]..X4X}.B.m.l.V..X.X[.].Y.].{.V.j..X X[.oX=X XN.N.B.c.Y.]..X.X}.M.x.B.x.B.[.B.x.c.[.",
"B.m.B.[..X].x.].|.OXoX}.Z.oXoX}.|..Xm.P. X.X.X.X.X X X XN.x.x. X].[..XoXm.x.m.h.x.M.P.M.j.Y.c.m.B.V.c.c.x.x.g.].B.m.x.g.g.M.V.}.",
"[..Xm.M.V.x.[.].V.}.}.V.Z.Z.oXoX=X$Xx.T.].{.[.oX|.|.}.V.].].j.B.V.m.B.l.P.[.].B.].].x.j. X{.j.Y.+X=X=X[.B.x.}.|.$X[..X}.x.Z.}.}.",
"V.].].m.x.Y..X.XZ.oX4XZ.Z.4XZ.Z.oX.Xg. X X|.|.Z.4XZ.|.Z.].{.B.h.j.Y.P.c.V. XM.|.}.|.}.P.l.j.j.P.=X+X+X+X|.x.Z.|.oX X.X].x.g.V.P.",
"Z.}.[.].g.x. XoXoXZ.OXoX4X4XOX4X X Xm.T..X}.oX4XZ.4X|.Z..X.XP.x.{. XP.j.B.}..X[.}.}.|.|. X].j.N.+X{.|.|.oX|.x.}.$X Xx.x.].].B.m.",
"}.}..X Xx.x.+XOXOXZ.Z.|.Z.OXZ.oX X}.m.m.m.P. X4X4X4X|.|.XXm.c.N.N.@X].c.*X X[.[.P.P.].|..X.X[.j.].oX].|.OXOXB.j.m.x.M..X}.Z.}.B.",
"oX.X{.[.P.m.M.Z.|.OXoX|.Z.|.OXZ.|.m.B.P.n.j.M.V.oX|.|.}.m.Y. X.XB.B.m.Y. X{.{.[.].P.].Z.].oX.X Xj.V.OX|.|.=X].P.Y.j..X}.Z.V.V.}."
};
