/* XPM */
static char *e2948a8c75024af1d7b3e149c983143fxVd5kow9iJZk4WIO[] = {
/* columns rows colors chars-per-pixel */
"64 64 223 2 ",
"   c #2B2A1D",
".  c #262517",
"X  c #312F1D",
"o  c #35341E",
"O  c #292914",
"+  c #2D2C23",
"@  c #312F23",
"#  c #2D3124",
"$  c #343325",
"%  c #363923",
"&  c #3A3A25",
"*  c #36352A",
"=  c #373B2D",
"-  c #3B3B2C",
";  c #39362C",
":  c #3C3C31",
">  c #383933",
",  c #433F2C",
"<  c #413E35",
"1  c #3E412D",
"2  c #3E4133",
"3  c #3D423B",
"4  c #43442D",
"5  c #48492B",
"6  c #434334",
"7  c #464934",
"8  c #4A4B35",
"9  c #44443A",
"0  c #49463A",
"q  c #45493A",
"w  c #4B4C3B",
"e  c #484735",
"r  c #514F3B",
"t  c #504F33",
"y  c #4E513C",
"u  c #4D5033",
"i  c #535334",
"p  c #53543C",
"a  c #5B5B3C",
"s  c #575938",
"d  c #4E512C",
"f  c #61613F",
"g  c #4B4B43",
"h  c #484D44",
"j  c #504D43",
"k  c #4B5043",
"l  c #4E5349",
"z  c #535343",
"x  c #585646",
"c  c #555845",
"v  c #5B5B44",
"b  c #54544B",
"n  c #59554B",
"m  c #5C5B4C",
"M  c #555A4D",
"N  c #5C5B53",
"B  c #5A5D56",
"V  c #625F45",
"C  c #615E4C",
"Z  c #625E55",
"A  c #625F58",
"S  c #5E624D",
"D  c #5E6144",
"F  c #5E6152",
"G  c #5F645C",
"H  c #636244",
"J  c #63644C",
"K  c #6C6C4E",
"L  c #66694A",
"P  c #636354",
"I  c #6B6B55",
"U  c #64645A",
"Y  c #69665B",
"T  c #66695C",
"R  c #6B6B5C",
"E  c #666754",
"W  c #716E5C",
"Q  c #706E57",
"!  c #6C705D",
"~  c #6F7357",
"^  c #73735C",
"/  c #767658",
"(  c #716E4B",
")  c #656562",
"_  c #6A6661",
"`  c #6C6C63",
"'  c #6D6D69",
"]  c #676861",
"[  c #716E63",
"{  c #706E6A",
"}  c #6E7163",
"|  c #6E716A",
" . c #737265",
".. c #787763",
"X. c #757A64",
"o. c #797B65",
"O. c #74746B",
"+. c #79766C",
"@. c #767A6C",
"#. c #7B7B6C",
"$. c #767672",
"%. c #797773",
"&. c #767B72",
"*. c #7C7C73",
"=. c #7D7E79",
"-. c #827E6C",
";. c #827E65",
":. c #807D74",
">. c #817F7A",
",. c #7F805E",
"<. c #7D826C",
"1. c #7C8161",
"2. c #7D8274",
"3. c #7E827B",
"4. c #798375",
"5. c #82836E",
"6. c #868768",
"7. c #8A926F",
"8. c #838375",
"9. c #898575",
"0. c #858975",
"q. c #8A8B75",
"w. c #83847B",
"e. c #89867B",
"r. c #858A7C",
"t. c #8B8B7D",
"y. c #918E77",
"u. c #908E7D",
"i. c #8C9274",
"p. c #8C927B",
"a. c #8B9577",
"s. c #91937E",
"d. c #939A7B",
"f. c #9A9E7C",
"g. c #929275",
"h. c #9AA47F",
"j. c #7E8280",
"k. c #848681",
"l. c #898782",
"z. c #868A83",
"x. c #8B8C83",
"c. c #868D8A",
"v. c #8C8E89",
"b. c #918E86",
"n. c #918E89",
"m. c #8D9284",
"M. c #8D928A",
"N. c #8F9A8B",
"B. c #879187",
"V. c #939385",
"C. c #949A84",
"Z. c #9B9B84",
"A. c #93948B",
"S. c #99978B",
"D. c #959A8C",
"F. c #9A9C8C",
"G. c #999782",
"H. c #8E9591",
"J. c #8E9991",
"K. c #949691",
"L. c #999691",
"P. c #959B93",
"I. c #9A9991",
"U. c #9B9D93",
"Y. c #959D99",
"T. c #9C9E99",
"R. c #A19E92",
"E. c #9CA28C",
"W. c #9AA386",
"Q. c #9CA294",
"!. c #97A299",
"~. c #9DA39B",
"^. c #9EA89F",
"/. c #9BA694",
"(. c #A1A485",
"). c #A2A58D",
"_. c #A6A989",
"`. c #A2A494",
"'. c #A5AB94",
"]. c #AAAC95",
"[. c #A2A59C",
"{. c #A4AA9C",
"}. c #ABAD9C",
"|. c #A9A69D",
" X c #ACB29C",
".X c #AAB49A",
"XX c #B3B79A",
"oX c #B0AF9B",
"OX c #9FA9A1",
"+X c #9EA7A2",
"@X c #A4A6A1",
"#X c #A4ABA2",
"$X c #AAADA4",
"%X c #A5AEAA",
"&X c #ABAFA9",
"*X c #A5B0A4",
"=X c #ACB2A4",
"-X c #ADB4AA",
";X c #AEB9AC",
":X c #AAB3A9",
">X c #B3BCA4",
",X c #B4B6AB",
"<X c #B3BAAC",
"1X c #BABBAD",
"2X c #B4B4A5",
"3X c #AEB8B0",
"4X c #ACB6B1",
"5X c #B3BBB2",
"6X c #BABDB3",
"7X c #B1B9B4",
"8X c #C0BFAA",
"9X c #BAC19F",
"0X c #BBC3AD",
"qX c #BCC5B4",
"wX c #BBC4BB",
"eX c #B6C1B7",
"rX c #C3CBB4",
"tX c #C3CCBC",
"yX c #C4C8B8",
"uX c #C5CBA9",
"iX c #BDC8C0",
"pX c #CCD6C5",
"aX c #CBD3CA",
/* pixels */
"L.L.n.k.+.` m l.9.S.R.' A.` Y S.w.l.A.D.x.K.U.I.`.x $X$X$Xn.&XU.L.R.L.I.V.U U $X&X@XK.@XL.R.I.R.@X{ [ A.U.G.S.P  .v u.t.u.u.b.n.",
"*.n.>.=._ + w.:.b.*.>.+.l.g +.e.:.e.+. .*.*.l.V.V.e e.n.w.k.A.>.A.w.*.A.e.8.g I.%.$.j.@Xn.T.L.t.u.#.w  .e.#.V.#.t.9.; -.9.:.:.e.",
"*.%.*._ @ ` { O.*.A.b.b.:.< U l.O.e.e.#.e.e.r.l.t.w ] K.e.3.U.x.2.$.*.l.%.:.: b.j.=.v.l.>.*.l.e.S.[ , u.x.*.x.e.` +.R $ R { w.e.",
"+.*.%.g e.` O.O.:.:.*.l.:.$ b +.:.#.*.2.t.l.A.`.#.w T M.O.r.8.8.l.2.w.w.U.A g >.v.v.v.=.$.{ e.:.u.W e 8. .t.*.+.` Y  .#., _ Y *.",
"+.P $ e.:.+.O.] N *.b.>.u.r A >.8.8.*.e.b.L.S.t.#.p w.M.V.*...V.V.3.3.$.>.k.< x.j.v.L.v.r.2.+.:.b.[ r -.u.9.l.*. .` +.} +.; N ` ",
"U < *.R _ { *.+.8.e.e.:.R < _ l.9.e.8.O.%.I.S.`.t.J e.8.2.F.G.5.e.3.*.*.>._ : { v.k.j.k.z.t.V.e.>.I r u.u.b.e.`  .`  .` +.*.9 O.",
"* #.#.R ` w.e.x.b.>.>.%.b.0 :.S.l.x.*.w.0.V.S.E.0.8 V.F.V.V.F.m.x.2.$.w.x.N r r U.v.l.k.M.x.l.b.S.Q 0 9.V.+.t.#. .T O.' w.8.*.@ ",
"+.+.+.`  . .[ t.n.>.x.>.S.< Z >.e.*.8.t.0.C.m.V.5.y 8.t.V.@.C.2.8.#.*.e.t.+.C G.K.3.k.k.z.z.=.l.9.^ C 9.9.R `  .*.e.] O.O. .:.Y ",
"t. .` ` }  .w.e.l.*.=.n.*.h + ` %.+.E R <.p.m.e. .1 R V.d.o.t.*.@.*.U  .3.` c z ! *.4.B.&.=.3.>.{ 8 C G.u.8.t.^ E  .+.#.` F  .R ",
":.t.+.8.R  .2.%.l.v.$.w.%.+ + + $ 9 & 1 & 7 9 6 2 - $ $ 4 4 y p y w J y w : 2 w b 2 > 3 h M h h $ - e q.:...0.W ..V.m.R T R I E ",
"+.*.9.t.^ o.%.#.=.l.w.` - g *.t.} #.8.#.q.q.s.:.2.V.8.s.G.X.i f f K 8.r.R F #.9.8.w.K.U.Q.S.A.l.9.e.C 0 -.t.9.e.e.V.e.T 8.9.t...",
" .+.l.t.0.G. .*.x.>.T.* U 8.l.w.*.p.A.S.E.Z.'.`.{.{.1X|.`.& i 7.(.D R `.F.e.e.U.[.S.`.[.[.D.T.x.Q.V.F.>.; b.A.t.[.I.e.*.9.q.t.q.",
"P ` :.u.-.u.e.A w.x.* b V.e.U.w.*.@.R S t.E.Q.M.T.~.&XG.E 8 f.).'.`.q @.V.x.v.x.Q.Q.~.D.{.M.K.P.A.M.A.U.Y X e.e.U e.w.V.G.5.t.n ",
"> ; $ $ - X , $ < ; Y V.e.I.T.x.U.t.V.F.S.P.K.~.~.-XQ.w 8 ..E.].&XD.k - O.v.M.l.{.qX~.[./.!.K.m.D.D.A.I.b.Z @ , ; 0 6 + $ : - ; ",
"[ #.:.u.5.Q +.:.e.C e.V.F.U.e.U.A.A.v.K.B.v.K.!.Y.-X9 y }.W.5.F.].R E.E.h +.A.[.Q.=X/.[.:X-X[.x.U.Q.U.A.l.Y I 8.#.+.:.u.e.9.9.#.",
"R 8.e.9.).#.u.-.V.; #.k.V.{.,XP.P.@XP.v.~.P.K.:X#Xc c 1X X'.).~ p Z.`.}.'.w ] ~.}.#X-X[.:X6Xx.x.=Xm.$XU.b. .r 5.V.G.R.R.:.-.:.[ ",
"m e.*.+.V.}.U.b.V.< U v.k.@XM.Q.T.K.P.Y.Y.K.J.Q.6 7  X}.{.F._.H L _.).'.'.D.z F [.[.@X$X&XU.@X&X~.#XU.w.l.T 7 p.G.*.u.#.u.t.#.U ",
"Y t.l.w.%.3.k.:.S.: A I.M.@X,X3.P.Q.m.K.@XK.2.+ p E./.'.>XoX8 / K 5 ]..X~.Q.[.F T {.`.{.S.T.n.R.&X%XK.v.e.U 4 q.s.A.e.9.:.e.[ R ",
"N >.$.$.=.*.e.2.S.; A v.x.z.P.,X5.d.m.P.m.Q.2 6 Q.A.!.{.).u K i.g.6.c Z.Q.U.Q.~.k <.o.`.m.V.K.{.T.P.@Xk.w.m w V.t.m.#.*.8. .9.m ",
"Z ' k.*.=.c.P.x.e.r N x.A.M.T.~..X].D.D.r.U 6 D.D.[./..X8 K d.a.q.C.5.w {.=X#X#Xa.% q.'.{.[.$XA.U.M.c.M.e.R z ).S.8.@.O.2.9.e.E ",
"b $.=.$.=.H.K.U.l.0 l.U.~.v.[.[.`.2XQ.A. .7 m.P.~.~.[.y E /.E.p.a.p.a.#.9 $X#X~.6XP.+ V.#X{.&X%X=.=.' {.e.n m S.e.r.w.:.9.t.:.` ",
"[ O.$.k.l.c.=.K.b.w Z A.n.T.#X[.{.<Xr.F y Z.t.A.#X<X2 <./.E.{.E.m.E.2.m.T l #X&X-X+X-X  6 `.}.A.K.x.` M.w.& w r.A.l.w.A.A.8.+.` ",
" .e.w.l.K.v.K.U.A.r $ U.#XP.Y.#XD.m.N w Q.m.~./.`.2 M.D.{.D.*X/.E.Q.m.B.A.| 9 1X:X:X-XS.% X {.P.M.v.&XT.*.$ S q.F.m.m.M.A.2.@.O.",
"%.*.3.3.v.v.K.O.A.z ` K.K.P.~.[.3.9 h [.D.D.<.{.v F.[.Q.D.{.3XW./.^.B.~.z.U.<.z `.-X3. X].1 9 D.v.z.T.z.e.7 z F.m.t.l.x.@. .@.*.",
"Z =.O.r.e.U x.U.R h O.P.M.K.!.D.y 2 A.k.B.D./.v W.[.[.{./.0X<.2.*X4.OXP.#XB.{.0.z .XyXtX}.-X> - D.t.M.A.V.w m ^ w.w.e.*.x.*.w._ ",
"+ + 6 $ x 4 # F F * A.z.Y.Y.~.U 2 P.!.J.P.=Xp o.].Q././.9Xa.XXW.Q.<XG 7X+X~.m./.X.J =X=X#X#X-Xq T m.Q.A.F.e $ E M w j m 9 @ * . ",
"< n j , 8 4 $ & 5 v x.%XK.M.R : K.P.v.U.<Xy <././.r.3XeXh.9X_.'.Q.w.e.} 5X#X<XD.E.J M 7X5X3XY.#X2 S F.V.S.C r o 8 v , v 0 9 N N ",
"%.W 9.8.5.9.8.G.(.p n.T.@XO.> U.B.~.M.=X2 <.W.N.2./.;X>Xh.9Xa.].E.p.} w.-X-X/.<XQ.=Xb F #X%X%XM.F.% p S.|.Z x Z.G.W.G.s...9.A >.",
"Z A e.O.P @.2.t.Z.p t.B.F = ~.M.M.N.`.P #.d.C.a..X.Xh.a.9X7.uXa.f._.@.=X3.@.qX/.#X!./.4.M 3X%XB.N./.7 J q.m v q.e.8.e.e.S.V.:.` ",
"U >.w.O.k.3.w.e.oX7 F k q h U.z.Q.~.p 0.a.C.B.W.^./.XXa.1.9Xd.7.1.f.0XD./.S.m.wX+X+X*XF.3.G P.!.D.D.u y C X x G.*.r.+.e.>.w.>.U ",
"A O.=.=.| =.c.l.).y 7 k !.[.b Q.F.4 o.a.t.D.m.*XE.N..XrX_./ 0XN.<.'.P.aX=X2.eXm.%XwX*X!.~.2.8 .X{.6 $X$X, . v q.q. .O.V.x.w.=.B ",
"Y e.*.e.z.k.=.3.S.7 8 t.M.P.[.z - X.V.m.4./.^.:XeXwX;XqXW.d.E./.1.<.<X[.Q.{.Q.:X4X7X4X#X-XD.R y % [.[.Q.V.5 V 5.p.! t.D.v.3.k.) ",
"w.e.} P e.t.B.8.5.a a ).S.8.0.X.o.% E.N.B.3XB.eXN.9XE.rXrXqX~ /..X9XeXB.!.r.4.3.4X!.%X!.*X~.6 |.E $XU.}.g.5 i 9.9.V.&Xx.x.c.j.j.",
"w.2.F.8.@.#.2.S.g.f ;.r 2XS.8.'.1X4.1 /.J.!.4X4.pX'..XE.{..X/.0X9Xj.*XwXB.r./.*X;X5X3XJ.~.# k.qX1XN '.C.Q / r V.0.S.#X[.v.K.n.$.",
"k.A.U.S.C.S.{.V._.K 2XV.p v }.S.>X<X4.q !.N.!.eX4.qXm.E.tXF.N.qX0XqXeXN.eXB./.^.eXwX!.-X1 N.5XeX7X}.i / C.$Xm t.t.F.~.[.K.w.v.' ",
"l.U.D.V.a.C.Q.t._.K A.[.q.p Q.m.P.D.=Xp.k OXB.*X*X4.tXtXa.XX9XqXa.9Xj.iX4.*X!.^.;XD.].1 2.0X<XeX<X}.f f.$XA.w R.`.m.x.8.8.e.l.O.",
" .8.q.G.I y ~ 7.h.a G.R.D.} D a.t.N.r.*X4.l ^.!.N./.4.qX/.7.qX/.a.W.iXc.4Xj.eXeX2.E.% 0.W.C.;XXX(.s Z.U.x.S.r Z.#.~ p ..8.<.8.v ",
"k w 7 6 7 4 y p i f n.v.z.t.0.c 2.N.B.^.;Xm.h !.N.B.*Xa.pXp.d.9Xr.N.c.4Xj.4XeX4./.1 T m.a.W.W.(.d s }.~.B.*., 5 & 8 w e 6 8 q 9 ",
"q.F.F.2.5.q.`.S.W.~ R.H.T.B.Q.m.S a.N.P.;X^.3.q !.N.!.!.B.pX4.eXp.B.eXJ.!.iX4.%Xy m.p.r.N.m.f.5 s W.).m.S.2 Z q.5.E.9.8.w.x.R.L.",
"t.+.V.E. .U.F.G.XX4 x.%XP.N.M.-XW.c /.P.N.r./.| y B.!.*X+XN.wX^./.qXN.!.eXj.!.1 0.<XN.B.z.p.s L 7.d.0.A.A.  0 }.Z.V.t. .x.n.x.A.",
"8.*.O.2.x.w.U.r.`.1 O.U.!.~.U.B.^.m.k t.[.2.m.!.r.M D.+XY.Y.j.OXP.B.*X<Xw.F.k r.eX^.B.=Xf.H / p.D.N.m.V.w.G M S.t...E S.t.x.@.O.",
"&.O. .%.e.l.x.w.A.2 O.~.U.!.Y.M.j.N.r.E W.X.z.p.{.@.2 *X!.N.^.j.J.*X;Xt.C.& 1.E.;X^.D.'.H ( '.V.c.K.r.D.w.) h x.x.e.t.e. .*.*.O.",
"4.@.O.A.2.w.3.m.A.= F ~.H.M.@X+X^.r.C.s.I ].p.N.D.7X2.2 ~.^.J.iXwXB.r.2.  @.D.4.P.S.g.i K s.D.M.m.Q.c.z.=.G > r.w.n.3.x.e.l.m.8.",
"O.} $.*.x.} 2.B.{.6 = 3.k.j.+X!.m.2.8.F./.! m.D.~.-X6Xw.h ~.!.!.!.N.m.% #.`.!.A.w.q.V K S.U.M.M.A.N.4.M.| h : D.w.j.e.z.T 8.#.#.",
"O.8.A.3.#.+.} 3.m.6 2 m.E.B.*XB.m.*.r.w.m.D.} r.E.~.7X:X` 2 Q.Q.3.N.w 8.`.].~.{...V I '.S.D.M.m.V.Q.U.M.&.q 9 @.l.j.l.{ T *.[ { ",
"Y *.2.*.3.O.&.O.2.8 E m.3./.3.B.T 8.4.4.D.{.+.S 2.| 7X$X5X@.w A.t.- r.s.m.E.E.^ H / `.2.x.3.D.Q.Q.[.l.O.F 2 2 } =.v.v.%.=.T ..A ",
"#.+.+.@.#.4.| 2.v p U P.B.B.m.3.! 4.&.3.*.x.m.T S rX:X3XQ.6X-.& #  .Q./.W.C.i.L q.F.t.#Xm.Q.@.D.p.3.j.N.c P : O.k.=.>.$.` ' $.$.",
"@.+.%. .@.*.2.2.L i e.x.B.z.!.M.@.p.3.r.&.x.m.'.m.S  XE.$X[.}. .! 2.`.'.C.d.I (.p.m.r.B.m.r.Q.E.!.r.!.w.S R c x.=.' ) j.O.' $.%.",
"+.+.2.` e.*.+. .y.o 8.e.@.B.~.[.2.F.r.2.m.r.r./.D.r.y ).}.Q.w.b.t.e.U.m.1.H G.m.m.m.[.$XS.Q.#X@X!.=Xm.@.;., < 9.l.{ =.*.{ >.>.>.",
"$ . .   $ 6 & % O % 2.+.#.@.m.P.S.A.2.Q.4.3.M.P.Q.r.<.y 8.E S.A.M.w.+.+.L W.r.&.Q.^.Q.m.Q.Q.#XN.m.B.m.C.y.a , o < < < ;     . * ",
":.R T v I ^ ~ L ;.f r 8.} r.2.D.2.m.r.m.r.z.k.k.3.#.2.S.i / {.U.2.D.<.p C.m.K.M.3.~.m.F.t.r.x.k.&.U.A.e.V a Q -.C W W C C C Z +.",
"#.:.u.q.9.q.s.5.7.7.V , 8.V.Q.D.t.r.U V.z.4.B.k.3.x.@.#.q.i V.D.U.*.m 0.m.3.k.c.3.t.r.<.e.c @.2.l.`.t.8 a / y...-.5.-./ ;.9.>.-.",
"Y  .] *.*.e.:.^ #.Q -.C 1 q.F.S.F.m.A.m.A.M.l.A.w.w.l.9.e.6 w q.t.g U D.K.c.L.k.&.*.k.e.e.9.w. .#.2.a V ..:.%.#.` Z ] E { _ [ ..",
"` _ ` ' *.` B G [ u.9.9./ - 8   . : w T %.&. .b w h 0 A 8.U 8 % X ; P =.' h h g l U + .     $ w 6 o i K b.b.Z *.+. .R $.%.{ { [ ",
"E +.3.*.$.*.*.} ` { >.Y G.v V Q Q -.Q P ^ I #.q.<.H Q ^ +.2.0.{ +.-.w.3.w.' N +.Z Z *.%.%.-.9.:.J 5 H K W A n { T O.Z U ' O.Y +.",
"U ` ) %.| ) *.' *.w.+.R.n C K Z.].1XoXuXoXoXoX].g.L y.Z.e.2X1X6X1X,Xx.D.7XS.R >.U.n.,X,X`.1X@XR.W ;.K -.e.:.x.*.$.j A +.[ %._ Y ",
"m O.l.U g : { *.*.>.$.%.8.8  .8. .U.x.2.2.t.x.e.<.1 V.Q.l.k.3.' %.O.| j.=.' 9 v.x.*.v.k.z.l.$.x.-.Q I y.F.=.l.v.>.l.l.b.Z A :.n ",
"..n [ { :.%.{ O.=.O.%.e.#.& r +.O.=.e.l.M.U.{ =.8.c r.l.3.=.z.| | ) ) ' =.' 9 *.3.w.v.c.=.c.=.=.S.Y p q.l.%.$.' { O.>.>.O._ n :.",
">.C j _  .#.+.{ _ O.=.w.Q 4 6 +.%.w.3.w.*.O.=.M.*.6 x.S.G e.k.$.U $.B $.' ' 9 *.O.k.k.k.j.j.=.=.#.Y z q.u.O.O.=.%.*.>.:.e.C Z n.",
"l.#.O.n Y +.U _ =.O.>.` V.e R [ ] &.=.l.*.$.&.v.} - ) w.@XG *.) $.` ) ' { _ 9 _ b l.j.c.=.=.| | >.W P p.t.@.` $.=.%.k.>.b A :.A ",
"A +.t.C x W Y +.#.` $.*.#.$ ..A ] *.=.w.=.=.{ %.} = b K.T.K.A.b B _ U ` ) U 9 [ j n.c.k.' $.$.=.%.W x u.>.:.=.+.%.$.>.n +.G.Y R ",
"U O.-.e.r , [ R +.>.>.b Y $ [ e. .` %.*.{ =.=.$.e.2 =.v.l.v.w.x.e.A.{ %.{ b < { %.=.>.k.=.{ { >.+.U r 9.:.:.>.>.%.*.- U b.>.;. .",
"Y [ :.:...Y n #.>.>.' _ :.+ Y { O.O.*.$.O.$.:.e.V.g l.v.n.A.A.#.l.x.' S.v.{ l l.v.l.l.j.j.%.O.*.%.[ n w.:.{ ..Y w.N [ W S.Y _ >.",
"_ >.b.0 W >.n A e.{ $.Z g * < N ] 9 b N _ { _ O.O.> b ' { { b   g N ) A 9 + > g B B { %.) $.` %.A * : N [ A :.{ m Z [ 9.W :.+._ "
};
